/* XPM */
static char * aizen48_RD_xpm[] = {
"48 48 659 2",
"  	c #A1D527",
". 	c #A1D628",
"+ 	c #9FD429",
"@ 	c #9FD32A",
"# 	c #A1D429",
"$ 	c #A4D826",
"% 	c #A2D529",
"& 	c #9ED32C",
"* 	c #9CD12D",
"= 	c #A2D532",
"- 	c #A8DC24",
"; 	c #A7DA25",
"> 	c #A5D826",
", 	c #A5D926",
"' 	c #9ED22C",
") 	c #A2D629",
"! 	c #A4D727",
"~ 	c #A3D62A",
"{ 	c #A7DA26",
"] 	c #A2D62A",
"^ 	c #A6DA26",
"/ 	c #ACDE22",
"( 	c #AADD28",
"_ 	c #AEE02B",
": 	c #A9DC28",
"< 	c #A1D52A",
"[ 	c #9DD22D",
"} 	c #9DD12D",
"| 	c #9BD02E",
"1 	c #A3D728",
"2 	c #A1D528",
"3 	c #A2D528",
"4 	c #9CD134",
"5 	c #9DD12C",
"6 	c #98CD30",
"7 	c #96CC31",
"8 	c #A8DB24",
"9 	c #94CA33",
"0 	c #9FD32B",
"a 	c #AADC22",
"b 	c #A7DA23",
"c 	c #A4D726",
"d 	c #A3D628",
"e 	c #A5D925",
"f 	c #9FD42A",
"g 	c #9AD02F",
"h 	c #9CD02F",
"i 	c #A3D531",
"j 	c #A4D828",
"k 	c #A5D828",
"l 	c #A5D927",
"m 	c #A6D926",
"n 	c #A9DC23",
"o 	c #A9DC24",
"p 	c #9DD32B",
"q 	c #A1D534",
"r 	c #AAD958",
"s 	c #86B227",
"t 	c #7CA324",
"u 	c #86B127",
"v 	c #B0DE55",
"w 	c #A4D733",
"x 	c #A0D42B",
"y 	c #A1D529",
"z 	c #A0D52A",
"A 	c #9DD22C",
"B 	c #9ED32B",
"C 	c #97CC31",
"D 	c #97CD31",
"E 	c #99CD36",
"F 	c #99CE2F",
"G 	c #99D02E",
"H 	c #A8DC23",
"I 	c #97CD30",
"J 	c #94C934",
"K 	c #95CB31",
"L 	c #ADE01E",
"M 	c #ABDD21",
"N 	c #ABDE21",
"O 	c #A8DC22",
"P 	c #A5D825",
"Q 	c #A3D729",
"R 	c #A4D827",
"S 	c #A6D927",
"T 	c #A8DB25",
"U 	c #AADD22",
"V 	c #A5D727",
"W 	c #A7DA2A",
"X 	c #A7DA35",
"Y 	c #A9D857",
"Z 	c #7CA82B",
"` 	c #668723",
" .	c #5F5F2F",
"..	c #554630",
"+.	c #425520",
"@.	c #688823",
"#.	c #80AB29",
"$.	c #AAD957",
"%.	c #A3D634",
"&.	c #A2D728",
"*.	c #98CE31",
"=.	c #94CB34",
"-.	c #91C835",
";.	c #98CF30",
">.	c #96CC38",
",.	c #A2D727",
"'.	c #A2D628",
").	c #9ACF2E",
"!.	c #8DC43A",
"~.	c #AADC24",
"{.	c #A9DB23",
"].	c #A7DA24",
"^.	c #A7D924",
"/.	c #A6D826",
"(.	c #9FD32C",
"_.	c #A9DB2B",
":.	c #ADDF21",
"<.	c #ACDE21",
"[.	c #AADD23",
"}.	c #AAD94E",
"|.	c #85B028",
"1.	c #749A26",
"2.	c #3C5021",
"3.	c #1F2520",
"4.	c #181820",
"5.	c #503830",
"6.	c #785050",
"7.	c #212720",
"8.	c #3C4F21",
"9.	c #87B124",
"0.	c #AEDC4A",
"a.	c #A5D928",
"b.	c #A8DA24",
"c.	c #94CB33",
"d.	c #95CB33",
"e.	c #9ED32A",
"f.	c #A3D727",
"g.	c #A2D627",
"h.	c #A1D42A",
"i.	c #9CD32C",
"j.	c #A9DC21",
"k.	c #A7D925",
"l.	c #9DD32C",
"m.	c #A4D728",
"n.	c #A0D529",
"o.	c #A1D431",
"p.	c #99CF30",
"q.	c #ADDF20",
"r.	c #AEDE4C",
"s.	c #7BA224",
"t.	c #405321",
"u.	c #79584F",
"v.	c #795450",
"w.	c #202620",
"x.	c #7F6D4C",
"y.	c #85AF25",
"z.	c #9FD337",
"A.	c #95CC33",
"B.	c #95CC32",
"C.	c #A0D42A",
"D.	c #94CA3A",
"E.	c #A6D925",
"F.	c #A0D528",
"G.	c #9CD12C",
"H.	c #A6D824",
"I.	c #ADDF1F",
"J.	c #9BD12D",
"K.	c #96CC32",
"L.	c #A1D629",
"M.	c #9DD234",
"N.	c #ABDE22",
"O.	c #A3D629",
"P.	c #AADB30",
"Q.	c #85B124",
"R.	c #3E5221",
"S.	c #513B30",
"T.	c #79554F",
"U.	c #6B8A21",
"V.	c #90C837",
"W.	c #AADC23",
"X.	c #9AD02E",
"Y.	c #A7DB25",
"Z.	c #A4D628",
"`.	c #AEDF20",
" +	c #9ED22A",
".+	c #97CD32",
"++	c #99CE30",
"@+	c #92C836",
"#+	c #96CB3A",
"$+	c #95CC34",
"%+	c #99D030",
"&+	c #95CB34",
"*+	c #A3D35A",
"=+	c #5F8127",
"-+	c #523F30",
";+	c #5F5E2F",
">+	c #82AD29",
",+	c #98CD35",
"'+	c #98CE30",
")+	c #A5D827",
"!+	c #9BD02D",
"~+	c #9ACF30",
"{+	c #9DD22E",
"]+	c #9DD135",
"^+	c #96CC33",
"/+	c #9DD138",
"(+	c #83AE27",
"_+	c #3E5121",
":+	c #273120",
"<+	c #739B28",
"[+	c #9CD035",
"}+	c #9FD42C",
"|+	c #9CD12E",
"1+	c #A1D531",
"2+	c #A7DB24",
"3+	c #A6DA25",
"4+	c #A9DB24",
"5+	c #AADC2C",
"6+	c #9BD12F",
"7+	c #99CE31",
"8+	c #9FCE5C",
"9+	c #534230",
"0+	c #729A28",
"a+	c #A6D92F",
"b+	c #9ED22D",
"c+	c #9CD22D",
"d+	c #ABDD22",
"e+	c #AEE020",
"f+	c #ADDF2A",
"g+	c #A0D52B",
"h+	c #9CD032",
"i+	c #78A530",
"j+	c #374B23",
"k+	c #79A024",
"l+	c #A6D92D",
"m+	c #97CC38",
"n+	c #A3D627",
"o+	c #ABDE20",
"p+	c #98CD32",
"q+	c #A7D926",
"r+	c #ACDF22",
"s+	c #B1E31E",
"t+	c #B1E21E",
"u+	c #A9DC2C",
"v+	c #759C28",
"w+	c #252E21",
"x+	c #785848",
"y+	c #405320",
"z+	c #89B323",
"A+	c #A0D42F",
"B+	c #A0D332",
"C+	c #AADD21",
"D+	c #97CC32",
"E+	c #9FD42B",
"F+	c #9ED32D",
"G+	c #AFE120",
"H+	c #AFE11F",
"I+	c #A4D72F",
"J+	c #A3D62D",
"K+	c #8AB323",
"L+	c #415320",
"M+	c #C08870",
"N+	c #D8B098",
"O+	c #C08A6F",
"P+	c #6B8B20",
"Q+	c #B2E155",
"R+	c #A0D32B",
"S+	c #A3D631",
"T+	c #A2D531",
"U+	c #B3E054",
"V+	c #6D8C20",
"W+	c #212620",
"X+	c #BF8A6F",
"Y+	c #799E22",
"Z+	c #B1E230",
"`+	c #A8DA25",
" @	c #A9DC22",
".@	c #A6D825",
"+@	c #A4D630",
"@@	c #8FC637",
"#@	c #93CA35",
"$@	c #B0E21E",
"%@	c #AFE01E",
"&@	c #ACDF21",
"*@	c #AFE02D",
"=@	c #8EB71F",
"-@	c #3E5021",
";@	c #795F47",
">@	c #AFDF29",
",@	c #A3D630",
"'@	c #90C737",
")@	c #8FC638",
"!@	c #B0E11E",
"~@	c #B2E31E",
"{@	c #98CD31",
"]@	c #A6D92E",
"^@	c #B5E254",
"/@	c #618325",
"(@	c #F0F0F0",
"_@	c #F8E0B8",
":@	c #384A22",
"<@	c #8FB139",
"[@	c #A7DA28",
"}@	c #97CE31",
"|@	c #92C935",
"1@	c #93C935",
"2@	c #ADE020",
"3@	c #9ED42B",
"4@	c #B0E11F",
"5@	c #A6D936",
"6@	c #719727",
"7@	c #263020",
"8@	c #F7E0B7",
"9@	c #858742",
"0@	c #B9E075",
"a@	c #A9DD23",
"b@	c #ACDE20",
"c@	c #99CF2F",
"d@	c #9ACF2F",
"e@	c #9ED332",
"f@	c #A8DB23",
"g@	c #B1E21F",
"h@	c #B3E41D",
"i@	c #8DB622",
"j@	c #415420",
"k@	c #3D4F20",
"l@	c #8FB81F",
"m@	c #AFE028",
"n@	c #95CA39",
"o@	c #96CD32",
"p@	c #9DD22B",
"q@	c #95CB32",
"r@	c #92C835",
"s@	c #9ED234",
"t@	c #B0E220",
"u@	c #ADE01F",
"v@	c #ACDF20",
"w@	c #B8E453",
"x@	c #6E8D1F",
"y@	c #B8B9B7",
"z@	c #808080",
"A@	c #7FA220",
"B@	c #A6D935",
"C@	c #97CD2F",
"D@	c #8FC536",
"E@	c #8EC537",
"F@	c #92C734",
"G@	c #94CB32",
"H@	c #AADD24",
"I@	c #B2E233",
"J@	c #7B9D1F",
"K@	c #B8B9B6",
"L@	c #B8B8B8",
"M@	c #404040",
"N@	c #5D7F28",
"O@	c #ADDB58",
"P@	c #A6D82E",
"Q@	c #ADDE21",
"R@	c #A0D428",
"S@	c #9AD02C",
"T@	c #94C932",
"U@	c #92C833",
"V@	c #A2D530",
"W@	c #B5E256",
"X@	c #8EA66C",
"Y@	c #81827F",
"Z@	c #D5D9CF",
"`@	c #97B75E",
" #	c #A2D351",
".#	c #ACDD21",
"+#	c #A8DA2D",
"@#	c #97CE30",
"##	c #9ED22B",
"$#	c #9ED12C",
"%#	c #ADDB4C",
"&#	c #8DAE61",
"*#	c #B7BCB0",
"=#	c #D8D8D8",
"-#	c #F0F0EF",
";#	c #868F79",
">#	c #94BB56",
",#	c #A1D52E",
"'#	c #9BD12E",
")#	c #ACDD22",
"!#	c #A3D726",
"~#	c #A0D32A",
"{#	c #A8DB2C",
"]#	c #A3D825",
"^#	c #A5D833",
"/#	c #92B758",
"(#	c #B5BBAF",
"_#	c #D8D8D7",
":#	c #B7B9B6",
"<#	c #8CAA64",
"[#	c #9FD339",
"}#	c #B0E029",
"|#	c #AFE020",
"1#	c #A5D459",
"2#	c #89A16C",
"3#	c #D7D8D7",
"4#	c #EFEFEE",
"5#	c #88A06D",
"6#	c #A1D05B",
"7#	c #8DC539",
"8#	c #A3D827",
"9#	c #9CD12F",
"0#	c #A5D72E",
"a#	c #96CC3C",
"b#	c #8FB559",
"c#	c #B5BAB0",
"d#	c #D4D8CE",
"e#	c #96BC57",
"f#	c #93C93F",
"g#	c #94CA3B",
"h#	c #B0E120",
"i#	c #AFE11E",
"j#	c #ACDF1F",
"k#	c #93CA34",
"l#	c #9ED232",
"m#	c #A5D359",
"n#	c #8BA26C",
"o#	c #708731",
"p#	c #9ECE5D",
"q#	c #AFE21E",
"r#	c #89C23E",
"s#	c #A9DB22",
"t#	c #99CF2D",
"u#	c #9ACF35",
"v#	c #9BD02C",
"w#	c #A4D831",
"x#	c #90B559",
"y#	c #5C5A30",
"z#	c #86AD2F",
"A#	c #9BD130",
"B#	c #A7D92D",
"C#	c #8AC33C",
"D#	c #8BC33B",
"E#	c #8AC23C",
"F#	c #8CC439",
"G#	c #96CB38",
"H#	c #90C836",
"I#	c #99CE2D",
"J#	c #A8D658",
"K#	c #904040",
"L#	c #D6B196",
"M#	c #7E9F2F",
"N#	c #A1D530",
"O#	c #ABDC2B",
"P#	c #ADE021",
"Q#	c #A0D42C",
"R#	c #AADE21",
"S#	c #A4D825",
"T#	c #91C935",
"U#	c #94C933",
"V#	c #A3D62F",
"W#	c #93C938",
"X#	c #77A430",
"Y#	c #3A4D22",
"Z#	c #414340",
"`#	c #BB926B",
" $	c #84AD31",
".$	c #9AD030",
"+$	c #A6DA27",
"@$	c #A9DC25",
"#$	c #98CF31",
"$$	c #9DD12A",
"%$	c #9BD22B",
"&$	c #93C93B",
"*$	c #90C738",
"=$	c #95CB37",
"-$	c #7EAA2C",
";$	c #7D694D",
">$	c #505C3E",
",$	c #7B9C30",
"'$	c #A3D251",
")$	c #A3D826",
"!$	c #AFE127",
"~$	c #AFE11D",
"{$	c #8EC63E",
"]$	c #9CD22C",
"^$	c #B2DF54",
"/$	c #899245",
"($	c #D7B197",
"_$	c #8A9C72",
":$	c #B7DD7C",
"<$	c #A1D32F",
"[$	c #92C936",
"}$	c #AFE128",
"|$	c #92CA35",
"1$	c #9FD22A",
"2$	c #B0E12E",
"3$	c #91A540",
"4$	c #EBEEE6",
"5$	c #97B75F",
"6$	c #AADA4D",
"7$	c #B0E128",
"8$	c #9BD02F",
"9$	c #A0D429",
"0$	c #94CA34",
"a$	c #93CA33",
"b$	c #92C934",
"c$	c #98CD37",
"d$	c #A8DB2B",
"e$	c #90B03C",
"f$	c #7D674D",
"g$	c #808180",
"h$	c #D2D8CD",
"i$	c #96BC55",
"j$	c #A3D52D",
"k$	c #AEDF2A",
"l$	c #ABDC22",
"m$	c #97CC37",
"n$	c #ABD478",
"o$	c #6A792E",
"p$	c #D7D8D5",
"q$	c #91B260",
"r$	c #A0D331",
"s$	c #A3D530",
"t$	c #A1D52B",
"u$	c #9AD034",
"v$	c #A0D435",
"w$	c #7FAA37",
"x$	c #82897B",
"y$	c #81837F",
"z$	c #95B560",
"A$	c #A0D431",
"B$	c #A2D52A",
"C$	c #99CE37",
"D$	c #ABDA56",
"E$	c #6F8D39",
"F$	c #80827F",
"G$	c #283220",
"H$	c #98B85E",
"I$	c #A9DC2B",
"J$	c #9ED133",
"K$	c #A2D42E",
"L$	c #85B134",
"M$	c #848D7A",
"N$	c #A8D92C",
"O$	c #A1D432",
"P$	c #A1D52F",
"Q$	c #7BA137",
"R$	c #82857E",
"S$	c #1D2020",
"T$	c #547123",
"U$	c #B7DF78",
"V$	c #A5D82A",
"W$	c #A5D72F",
"X$	c #A8DB2D",
"Y$	c #A2D52D",
"Z$	c #8AB833",
"`$	c #718E39",
" %	c #858D7B",
".%	c #383848",
"+%	c #D4D8CF",
"@%	c #789F3C",
"#%	c #9ECF52",
"$%	c #A2D630",
"%%	c #AFDC57",
"&%	c #85AA33",
"*%	c #858C7B",
"=%	c #3A3B48",
"-%	c #A3C678",
";%	c #9DD130",
">%	c #9ACE36",
",%	c #AFDD57",
"'%	c #728F38",
")%	c #B6BCAF",
"!%	c #A6C876",
"~%	c #9BCF33",
"{%	c #A9DB2C",
"]%	c #ACDD2B",
"^%	c #A1D438",
"/%	c #719826",
"(%	c #232B20",
"_%	c #658524",
":%	c #A9D758",
"<%	c #A9DB2D",
"[%	c #ACDE2B",
"}%	c #9BD035",
"|%	c #71992A",
"1%	c #81857E",
"2%	c #283321",
"3%	c #729928",
"4%	c #A0D339",
"5%	c #ADDE2B",
"6%	c #91C837",
"7%	c #8AB92A",
"8%	c #628426",
"9%	c #828B7A",
"0%	c #3E4447",
"a%	c #B8B8B7",
"b%	c #273020",
"c%	c #5E8128",
"d%	c #89B829",
"e%	c #ADDF2B",
"f%	c #AEDF29",
"g%	c #B1DE55",
"h%	c #82AE28",
"i%	c #8DAD63",
"j%	c #8CA46C",
"k%	c #293220",
"l%	c #262E20",
"m%	c #242C20",
"n%	c #2A3320",
"o%	c #658624",
"p%	c #729827",
"q%	c #7EAA2B",
"r%	c #A8D758",
"s%	c #AADB22",
"t%	c #90C73C",
"u%	c #A9DC27",
"v%	c #A1D538",
"w%	c #A4D359",
"x%	c #86B126",
"y%	c #82A81F",
"z%	c #7FA420",
"A%	c #83A71F",
"B%	c #7DA322",
"C%	c #759D26",
"D%	c #7CA222",
"E%	c #87B225",
"F%	c #A3D25A",
"G%	c #9DD13A",
"H%	c #AEDF1F",
"I%	c #93C841",
"J%	c #AFE01F",
"K%	c #A9DB2F",
"L%	c #ADDF2D",
"M%	c #B2E22B",
"N%	c #B2E32B",
"O%	c #A2D534",
"P%	c #ACDD2E",
"Q%	c #A8DA30",
"R%	c #A9DB34",
"S%	c #A3CF66",
"T%	c #9BD03C",
"U%	c #99CE36",
"V%	c #A7D92E",
"W%	c #AEE029",
"X%	c #B1E127",
"Y%	c #A7DA2D",
"Z%	c #A4D833",
"`%	c #A0D437",
" &	c #A5D933",
".&	c #B1E22B",
"+&	c #AFDF2C",
"@&	c #A5D931",
"#&	c #9CD038",
"$&	c #9ACF3A",
"%&	c #98CD3B",
"&&	c #97CC39",
"*&	c #9FD332",
"=&	c #A9DA2C",
"-&	c #A7D92F",
";&	c #99CD37",
">&	c #A2D637",
",&	c #AFDB62",
"'&	c #A4D927",
"  . + @ # $ % & * = - ; > , ' ) > ! ~ { ] ^ / ( _ : < [ } | & ) 1 2 3 @ @ | 4 5 6 7 2 8 * 9 + 0 ",
"> a b c d e f g h i j k l m < < 8 n o ^ p q r s t u v w x & y z A B 2 C D B E D F G 2 H B I J K ",
"L M N O P Q 5 | * i R S { T z U n V W X Y Z `  ...+.@.#.$.%.1 j 1 &.*.=.-.;.>.=.D *.B $ ,.'.).!.",
"~.{.].^./.) x (.y _.R { :.) 1 <.[.}.|.1.` 2.3.4.5.6.7.8.` 9.0.a.b.[ *.c.d.A E e.B f.g.h.i.'.j.' ",
"k.l.f.> $ > m.1 n.o.p.j q., Q ; r.s.t.u.v.6.5.5.4.5.6.4.w.x.y.z.x A.B.p.' C.D.* E.a M F.G.H.I.I.",
"g.0 J.K.K.'.L.l z M.x Q N.< O.P.Q.R.S.5.5.6.6.5.5.5.5.6.4.T.U.r g V.p.% W.; D.X.> Y.$ y | Z.q.`.",
"2  +L..+* ) ++++@+#+$+%+&+*.[ *+=+-+5.5.5.5.5.6.4.5.5.6.5.5.;+>+,+++'+)+q.f.D.B X.*.& Q z E.N [.",
"A . f.!+~+) 8 ) {+]+^+^+.+;./+(+_+4.5.5.4.4.5.5.5.4.4.5.5.4.:+<+[+> }+|+] '.1+2+R O.)+1 & z 3+4+",
"'+[ < (.y n T S R 5+[ 6+g 7+8+=+-+5.5.5.5.5.4.4.5.5.4.5.5.4.9+0+a+N.[.b+7+c+4 > b.d+M N m.'.0 A ",
"'+'+|+' 8 W./ e+e+f+g+m 1 h+i+j+5.5.4.4.4.4.5.4.4.4.4.4.5.4.:+k+l+n M j |+~+m+n+o+N.4+8 c+n.g p+",
"K.A.A ) q+T r+s+t+u+] ; [.= v+w+5.4.4.5.4.4.4.x+4.x+4.4.5.x+y+z+A+z E.2+d * B+C+{.H , (.K.D+E+F+",
"p.& z &.] ! N.G+H+I+j Q ! J+K+L+4.4.5.5.5.4.M+N+N+M+x+4.4.O+P+Q+f R+b.b.E.m.S+l 1 f.| | [ y n q.",
") 3+n '.d )+N.n n T+] ) B ' U+V+W+5.4.4.4.4.N+N+N+N+N+x+4.X+Y+Z+b.`+ @.@R E.+@3+p.@@#@++) W.$@%@",
"E.E.)+. A f ; n &@u+1 ) C.].*@=@-@4.N+4.4.x+N+4.4.4.M+N+4.;@k+>@`.e+/ ^.W.b.,@> D '@)@D [ o !@~@",
"b.S 1 x {@z '.)+E.]@[ {+l U H+^@/@w.N+4.4.N+N+(@6.6.4.N+_@:@<@[@%@<.r+W.[.! o.}@|@1@p.*.'+m 2@!@",
"8 ! 3@C.0 0 [ B } 4 E+8 G+4@4@5@6@7@4.x+M+M+_@_@_@_@_@_@8@9@0@a@b@O.f.{.[.] >.K.K.c@' 0 ~+m.[.l ",
"n m | z < X.g *.d@e@n.f@g@h@G+: i@j@4.4.x+x+N+_@_@_@_@_@x+k@l@m@ @y ! 2+b.f n@o@g & [ z ) |+1 E+",
"4+T &.3 p@q@|@r@{@s@> 8 t@u@d+v@w@x@y@z@4.4.4.N+_@_@N+x+4.7@A@B@8 O./.,.g+B s@L.) ' * 3+N [.j 3+",
"!+C.e.+ C@D@E@F@G@,+A ) 3+{ 8 H@I@J@K@L@L@L@L@M@x+x+x+4.4.3.N@O@T < :.A &+z P@d+f ~+[ o Q@[.R ) ",
"b.2 R@S@7 T@K U@B V@* 8 ; }+1 n W@X@Y@L@L@L@L@M@x+N+N+M@4.4.Z@`@ #) .#f@1 { +#U E.@#d@Y.[.Q ] ] ",
"f.j.b ##6 C $#'.m.l+' E.1 m.m %#&#*#=#z@=#L@L@M@M@M+N+M+4.z@-#;#>#,#x b+& '#5+H+4+; n [.)#/ - S ",
"!#R@P d A ~#c f.n {#& ]#Q '#^#/#(#_#=#(@=#(@(@=#4.M@M+M+M@4.(@:#<#[#'#o@, e+}#8 <.{.I.|#e+e+d+^ ",
"P C.* &.; * 0 y C+_.* F 3 d 1#2#3#=#(@(@L@(@(@(@4.L@M@M@L@4.(@4#5#6#7#@@* q._.2+'.B a H+4@&@2@o ",
"&@8#|+9#d+) g+& R 0#0 F } a#b#c#=#=#(@(@z@=#(@(@4.(@(@M@(@4.(@L@d#e#f#*.& J.g#R Y.z 3+s+h#h#s+{ ",
"i#N j#}+{+- b D k#l#@ y , m#n#3#=#(@(@L@z@=#(@(@4.(@(@M@(@4.(@z@3#o#p#p.q#q.B+1 { 3+Y.T &@g@g@r#",
"$@q.d s#C.& @ t#c.u#v#2 w#x#c#=#=#(@(@z@L@=#(@=#4.(@L@M@4.4.(@z@4.y#z#A#<.<.B#| E+m E+^ / 4@] C#",
"8 '#p.< * D#E#D#F#G#H#I#J#/@3#=#=#(@=#z@=#(@(@z@4.4.4.5.K#4.(@L@4.L#M#N#Q@e+O#E+p.E+}+T Y.P#Q#*.",
"& )+a )#R#S#7 T#U#V#'+W#X#Y#4.4.z@L@M@z@=#(@(@4.5.K#K#K#K#4.z@=#Z#`# $A+Q & s@.$*.|+1 +$@$l m #$",
"R ; M o+R#< $$%$9 &$*$=$-$;$M+M+z@M@M@L@=#(@(@4.K#K#K#5.4.4.4.(@>$,$'$)$o n !$~$a }+) :.<.`.o |+",
"'.P b.n E.0 # ^.F {$!.]$^$/$($_@_@N+5.=#=#(@z@4.4.4.4.4.(@L@4._#_$:$<$[$d@:.}$$@ @F+[ T e+$@|$8 ",
"B f 1$3 f.+ G.c@d.g#G@).2$3$L#_@_@5.5.=#(@(@4.L@(@(@L@4.4.4.(@4.4$5$6$' ) q.7$:.)+p.8$2+|#:.1 n ",
"* '.p@9$$ ).0$a$b$c$e.'.d$e$f$M+N+M+5.=#(@=#4.(@(@4.4.z@L@4.L@4.g$h$i$j$Y.N k$n < E+1 8 d+< '#l$",
"1 2 3 @ @ | J.5 6 m$2 8 * n$o$S.5.5.L@=#(@4.L@(@L@4.L@z@(@z@4.L@4.p$q$r$# $ s$& * t$- ; > , ' ) ",
"A B 2 C D B 6 D F u$2 H v$w$x$z@L@=#=#(@z@4.(@(@4.L@(@z@(@L@4.4.4.y$z$0#d e A$g h B$j k l m < < ",
"1 &.*.=.-.;.B.=.D C$B $ D$E$F$L@=#=#=#(@4.L@(@(@4.(@(@4.L@(@L@z@(@G$H$I$P Q J$| * B$R S { T z U ",
"b.[ *.c.d.A 6 e.B I+g.K$L$M$z@=#=#=#=#z@4.4.4.4.L@(@L@4.z@L@(@z@L@k@z+N$/.) O$(.y f@R { :.) 1 <.",
"x A.B.p.' C.k#* E.O#M P$Q$R$L@=#=#=#=#4.L@(@L@z@(@L@4.4.4.z@4.4.S$T$U$V$$ > W$1 n.C.p.j q., Q ; ",
"g V.p.% W.; k#X.> X$$ Y$Z$`$ %_#=#=#z@4.L@(@z@(@(@z@4.4.4.4..%.%.%+%@%#%K.'.$%l z c+x Q N.< O.4+",
".+++'+)+q.f.k#B X.C$& Q 1+%%&%*%=#=#4.L@(@(@z@(@L@4.4.z@z@.%.%.%.%=%h$-%;%) >%++@+&+$+%+&+*.[ ;.",
"8$> }+|+] '.z 2+R +@)+1 & z ,%'%Y@=#4.(@(@z@L@4.4.4.4.4.4.z@z@L@L@L@)%!%~%) {%) {+9#^+^+.+;.8$< ",
"l N.[.b+7+c+'#> b.]%M N m.'.^%/%(%4.4.4.4.4.4.=#4.4.4.4.4.4.4.4.4.w._%:%y n <%S R o [ 6+g 7+1@}@",
"e n M j |+~+K.n+o+[%4+8 c+n.}%|%1%.%.%L@.%.%=#4.4.4.4.4.4.4.4.4.4.2%3%4%8 W.5%e+e+&@g+m 1 8$6%)@",
"E+z E.2+d * 0 C+{.I$, (.K.D+A+7%8%9%0%a%=#=#4.4.4.4.4.4.4.4.7.b%Y#c%d%J+q+T e%s+t+- ] ; [.t$|+=.",
"f R+b.b.E.m.] l 1 I+| | [ y n f%g%h%i%j%L+k%l%m%(%m%l%l%n%L+o%p%q%r%1+&.] ! [%G+H+1 j Q ! ) k.s%",
"b.`+ @.@R E.O.3+p.t%#@++) W.$@%@e+u%v%w%x%y%z%A%B%C%D%A%y%E%F%G%J+3+n '.d )+[%n n < ] ) B ' d+H%",
"`.e+/ ^.W.b.) > D I%)@D [ o !@~@J%; j ) T+K%L%M%N%P.O%P%Q%}%A.g E.E.)+. A f R%n &@- 1 ) C.].e+H+",
"%@<.r+W.[.! C.}@|@S%T%C$U%V%W%X%<%V%Y%+#Z%`% &.&M%+&@&#&$&%&&&*&=&-&I+O$;&>&,&)+E., [ {+l U H+:.",
"b@O.f.{.[.] B.K.K.c@' 0 ~+m.[.l '&U <.q.q.}+b+o+u@E.y '#*.[ F+L.8 ! 3@C.0 0 [ B } J.E+8 G+4@4@j "};
