/* XPM */
static char * aizen48_U_xpm[] = {
"48 48 675 2",
"  	c #A1D527",
". 	c #A1D628",
"+ 	c #9FD429",
"@ 	c #9FD32A",
"# 	c #A1D429",
"$ 	c #A4D826",
"% 	c #A2D529",
"& 	c #9ED32C",
"* 	c #9CD12D",
"= 	c #A1D52B",
"- 	c #A8DC24",
"; 	c #A7DA25",
"> 	c #A5D826",
", 	c #A5D926",
"' 	c #9ED22C",
") 	c #A2D629",
"! 	c #A4D727",
"~ 	c #A3D62A",
"{ 	c #A7DA26",
"] 	c #A2D62A",
"^ 	c #A6DA26",
"/ 	c #ACDE22",
"( 	c #AADD24",
"_ 	c #ADE022",
": 	c #A9DC24",
"< 	c #A1D52A",
"[ 	c #9DD22D",
"} 	c #9DD12D",
"| 	c #9BD02E",
"1 	c #A3D728",
"2 	c #A1D528",
"3 	c #A2D528",
"4 	c #9BD12D",
"5 	c #9DD12C",
"6 	c #98CD30",
"7 	c #96CC31",
"8 	c #A8DB24",
"9 	c #94CA33",
"0 	c #9FD32B",
"a 	c #AADC22",
"b 	c #A7DA23",
"c 	c #A4D726",
"d 	c #A3D628",
"e 	c #A5D925",
"f 	c #9FD42A",
"g 	c #9AD02F",
"h 	c #9CD02F",
"i 	c #AFDA62",
"j 	c #A6D936",
"k 	c #A6D82F",
"l 	c #A6D92F",
"m 	c #A7D92E",
"n 	c #A2D531",
"o 	c #A9DB2C",
"p 	c #ABDD32",
"q 	c #AEDE45",
"r 	c #B5DF6C",
"s 	c #B3DB79",
"t 	c #B5DC7A",
"u 	c #B6DD79",
"v 	c #B3DD6D",
"w 	c #ABDC47",
"x 	c #A4D737",
"y 	c #A8DB30",
"z 	c #A3D630",
"A 	c #A1D432",
"B 	c #9FD333",
"C 	c #A2D530",
"D 	c #A1D531",
"E 	c #9ED233",
"F 	c #9FD332",
"G 	c #A2D52F",
"H 	c #98CC37",
"I 	c #99CE3C",
"J 	c #ABD863",
"K 	c #97CD31",
"L 	c #99CE2F",
"M 	c #99D02E",
"N 	c #A8DC23",
"O 	c #9ED32B",
"P 	c #97CD30",
"Q 	c #94C934",
"R 	c #95CB31",
"S 	c #ADE01E",
"T 	c #ABDD21",
"U 	c #ABDE21",
"V 	c #A8DC22",
"W 	c #A5D825",
"X 	c #A3D729",
"Y 	c #A4D637",
"Z 	c #A4D827",
"` 	c #A6D927",
" .	c #A8DB25",
"..	c #A0D52A",
"+.	c #AADD22",
"@.	c #A9DC23",
"#.	c #A5D727",
"$.	c #AFDD54",
"%.	c #7FA824",
"&.	c #668824",
"*.	c #618327",
"=.	c #688924",
"-.	c #83AA22",
";.	c #B6E25B",
">.	c #B0E131",
",.	c #A4D828",
"'.	c #A2D728",
").	c #98CE31",
"!.	c #94CB34",
"~.	c #91C835",
"{.	c #9AD03C",
"].	c #95CC32",
"^.	c #A2D727",
"/.	c #A2D628",
"(.	c #9ACF2E",
"_.	c #8DC43A",
":.	c #AADC24",
"<.	c #A9DB23",
"[.	c #A7DA24",
"}.	c #A7D924",
"|.	c #A6D826",
"1.	c #A0D42B",
"2.	c #9FD32C",
"3.	c #A1D529",
"4.	c #A9DB2B",
"5.	c #ADDF21",
"6.	c #ACDE21",
"7.	c #ABDD2F",
"8.	c #ADDA59",
"9.	c #79A126",
"0.	c #3D5022",
"a.	c #534230",
"b.	c #795450",
"c.	c #79564F",
"d.	c #7E6A4D",
"e.	c #6F8D1F",
"f.	c #80A320",
"g.	c #89B424",
"h.	c #A8D84E",
"i.	c #A6D926",
"j.	c #A8DA26",
"k.	c #A5D928",
"l.	c #A8DA24",
"m.	c #94CB33",
"n.	c #95CB33",
"o.	c #9ED32A",
"p.	c #A3D727",
"q.	c #A2D627",
"r.	c #A1D42A",
"s.	c #9CD32C",
"t.	c #A9DC21",
"u.	c #A7D925",
"v.	c #9DD32C",
"w.	c #A4D728",
"x.	c #A0D529",
"y.	c #A1D431",
"z.	c #99CF30",
"A.	c #ADDF20",
"B.	c #ADDC4C",
"C.	c #89B323",
"D.	c #668723",
"E.	c #3A4C21",
"F.	c #513B30",
"G.	c #785050",
"H.	c #503830",
"I.	c #534030",
"J.	c #554730",
"K.	c #445720",
"L.	c #78A026",
"M.	c #A9D750",
"N.	c #95CC33",
"O.	c #93CA34",
"P.	c #A6D925",
"Q.	c #A0D528",
"R.	c #9CD12C",
"S.	c #A6D824",
"T.	c #ADDF1F",
"U.	c #96CC32",
"V.	c #A1D629",
"W.	c #A5D927",
"X.	c #9DD234",
"Y.	c #ABDE22",
"Z.	c #A2D52E",
"`.	c #AAD950",
" +	c #7FA522",
".+	c #7E6C4D",
"++	c #202620",
"@+	c #181820",
"#+	c #1D2020",
"$+	c #3E5021",
"%+	c #7BA224",
"&+	c #B2E14C",
"*+	c #AADC27",
"=+	c #A0D52B",
"-+	c #90C837",
";+	c #AADC23",
">+	c #A8DA2D",
",+	c #9AD02E",
"'+	c #A7DB25",
")+	c #A4D628",
"!+	c #AEDF20",
"~+	c #9ED22A",
"{+	c #97CD32",
"]+	c #99CE30",
"^+	c #92C836",
"/+	c #96CB3A",
"(+	c #95CC34",
"_+	c #99D030",
":+	c #95CB34",
"<+	c #9ACF3A",
"[+	c #80AB29",
"}+	c #7C694D",
"|+	c #1C1F20",
"1+	c #785250",
"2+	c #7E6B4D",
"3+	c #89B223",
"4+	c #A8DA31",
"5+	c #98CE30",
"6+	c #A5D827",
"7+	c #A4D72F",
"8+	c #AADD23",
"9+	c #9DD22C",
"0+	c #9BD02D",
"a+	c #9ACF30",
"b+	c #9DD22E",
"c+	c #9DD135",
"d+	c #96CC33",
"e+	c #98CD35",
"f+	c #A3D35A",
"g+	c #618326",
"h+	c #523F30",
"i+	c #ADDA56",
"j+	c #9CD032",
"k+	c #9BD02F",
"l+	c #9FD42C",
"m+	c #9CD12E",
"n+	c #A3D62F",
"o+	c #A7DB24",
"p+	c #A3D629",
"q+	c #A6DA25",
"r+	c #A9DB24",
"s+	c #AADC2C",
"t+	c #9BD12F",
"u+	c #9BD035",
"v+	c #7EAA2C",
"w+	c #384C23",
"x+	c #3D5021",
"y+	c #85B027",
"z+	c #9CD035",
"A+	c #9ED22D",
"B+	c #99CE31",
"C+	c #9BD12E",
"D+	c #ABDD22",
"E+	c #AEE020",
"F+	c #ADDF2A",
"G+	c #749C28",
"H+	c #534330",
"I+	c #544530",
"J+	c #7AA124",
"K+	c #9BCF36",
"L+	c #A3D627",
"M+	c #ABDE20",
"N+	c #9CD22D",
"O+	c #98CD32",
"P+	c #A7D926",
"Q+	c #ACDF22",
"R+	c #B1E31E",
"S+	c #B1E21E",
"T+	c #A9DC2C",
"U+	c #ABDD2B",
"V+	c #5C5B30",
"W+	c #5E5E2F",
"X+	c #8BB721",
"Y+	c #A7D92D",
"Z+	c #9FD42B",
"`+	c #9DD134",
" @	c #AADD21",
".@	c #97CC32",
"+@	c #9ED32D",
"@@	c #AFE120",
"#@	c #AFE11F",
"$@	c #A4D72B",
"%@	c #ABD957",
"&@	c #688822",
"*@	c #212720",
"=@	c #B4E154",
"-@	c #AADE27",
";@	c #A0D32B",
">@	c #A5D72F",
",@	c #A0D339",
"'@	c #7CA121",
")@	c #293220",
"!@	c #5B5830",
"~@	c #80AB28",
"{@	c #A8DA30",
"]@	c #A8DA25",
"^@	c #A9DC22",
"/@	c #A6D825",
"(@	c #8FC637",
"_@	c #93CA35",
":@	c #B0E21E",
"<@	c #AFE01E",
"[@	c #ACDF21",
"}@	c #A0D42A",
"|@	c #A8DA2C",
"1@	c #8FB920",
"2@	c #61602E",
"3@	c #BF896F",
"4@	c #5C7E29",
"5@	c #A2D15A",
"6@	c #A3D72B",
"7@	c #A9DA2C",
"8@	c #90C737",
"9@	c #8FC638",
"0@	c #B0E11E",
"a@	c #B2E31E",
"b@	c #98CD31",
"c@	c #A6D92E",
"d@	c #AADD27",
"e@	c #B7E353",
"f@	c #6C8C20",
"g@	c #D2B391",
"h@	c #91B338",
"i@	c #9BCF39",
"j@	c #97CE31",
"k@	c #92C935",
"l@	c #93C935",
"m@	c #ADE020",
"n@	c #9ED42B",
"o@	c #9CD134",
"p@	c #B0E11F",
"q@	c #B2E230",
"r@	c #769C24",
"s@	c #444840",
"t@	c #B8B8B8",
"u@	c #F0F0F0",
"v@	c #D8D8D8",
"w@	c #808080",
"x@	c #859140",
"y@	c #B0DE55",
"z@	c #A6D92A",
"A@	c #A9DD23",
"B@	c #ACDE20",
"C@	c #A3D631",
"D@	c #99CF2F",
"E@	c #9ACF2F",
"F@	c #9ED332",
"G@	c #A8DB23",
"H@	c #B1E21F",
"I@	c #B3E41D",
"J@	c #B1E230",
"K@	c #80A335",
"L@	c #D7D8D6",
"M@	c #90A63B",
"N@	c #ADDE32",
"O@	c #AEE01F",
"P@	c #A0D431",
"Q@	c #96CD32",
"R@	c #9DD22B",
"S@	c #95CB32",
"T@	c #92C835",
"U@	c #9ED234",
"V@	c #B0E220",
"W@	c #ADE01F",
"X@	c #B4E056",
"Y@	c #749237",
"Z@	c #D7D8D7",
"`@	c #81837F",
" #	c #93B360",
".#	c #A6DA2D",
"+#	c #97CD2F",
"@#	c #8FC536",
"##	c #8EC537",
"$#	c #92C734",
"%#	c #94CB32",
"&#	c #A6DA29",
"*#	c #AEDC4E",
"=#	c #97B75E",
"-#	c #858C7B",
";#	c #87A666",
">#	c #98CD3E",
",#	c #ADDE21",
"'#	c #A0D428",
")#	c #9AD02C",
"!#	c #94C932",
"~#	c #92C833",
"{#	c #95BC56",
"]#	c #858E7A",
"^#	c #F0F0EF",
"/#	c #81827F",
"(#	c #8BA36C",
"_#	c #A3D25B",
":#	c #ACDD21",
"<#	c #A8DA2E",
"[#	c #97CE30",
"}#	c #9ED22B",
"|#	c #97CC31",
"1#	c #9ED12C",
"2#	c #A6D92D",
"3#	c #A5D836",
"4#	c #93B162",
"5#	c #EEEFED",
"6#	c #B6BBB0",
"7#	c #8EAF60",
"8#	c #9ECF55",
"9#	c #ACDE26",
"0#	c #ACDD22",
"a#	c #A3D726",
"b#	c #A0D32A",
"c#	c #A8DB2C",
"d#	c #A3D825",
"e#	c #ACDA57",
"f#	c #8AA26C",
"g#	c #EFF0EE",
"h#	c #EFF0EF",
"i#	c #D2D7CD",
"j#	c #96BD55",
"k#	c #9ACF35",
"l#	c #AFE029",
"m#	c #AFE020",
"n#	c #9ACE32",
"o#	c #97BC55",
"p#	c #B6BCAF",
"q#	c #91B062",
"r#	c #A0D439",
"s#	c #8DC539",
"t#	c #AEDF29",
"u#	c #A3D827",
"v#	c #9CD12F",
"w#	c #A5D72E",
"x#	c #9BCF3B",
"y#	c #8FAE63",
"z#	c #D6D8D5",
"A#	c #404040",
"B#	c #89A16D",
"C#	c #A4D45A",
"D#	c #A0D330",
"E#	c #91C837",
"F#	c #B0E120",
"G#	c #AFE11E",
"H#	c #ACDF1F",
"I#	c #9ED232",
"J#	c #AAD957",
"K#	c #8EA66B",
"L#	c #D4D8CE",
"M#	c #9BC055",
"N#	c #A9DB30",
"O#	c #A3D72A",
"P#	c #98CE32",
"Q#	c #92C936",
"R#	c #AFE21E",
"S#	c #89C23E",
"T#	c #A9DB22",
"U#	c #99CF2D",
"V#	c #9BD038",
"W#	c #9CD033",
"X#	c #92A96B",
"Y#	c #A9D858",
"Z#	c #98CE33",
"`#	c #9AD12D",
" $	c #ADDE2A",
".$	c #8AC33C",
"+$	c #8BC33B",
"@$	c #8AC23C",
"#$	c #8CC439",
"$$	c #97CC3B",
"%$	c #92C93E",
"&$	c #8EAE61",
"*$	c #B7B9B6",
"=$	c #D3D8CD",
"-$	c #93B957",
";$	c #99CE37",
">$	c #ADE021",
",$	c #A0D42C",
"'$	c #AADE21",
")$	c #A4D825",
"!$	c #91C935",
"~$	c #94C933",
"{$	c #A4D733",
"]$	c #9ACF39",
"^$	c #6C942C",
"/$	c #212921",
"($	c #D7D8D5",
"_$	c #90AF62",
":$	c #9BCF3C",
"<$	c #9AD030",
"[$	c #A6DA27",
"}$	c #A9DC25",
"|$	c #98CF31",
"1$	c #9DD12A",
"2$	c #9BD22B",
"3$	c #94CA3D",
"4$	c #92C840",
"5$	c #879F43",
"6$	c #BF8B6F",
"7$	c #6A8A21",
"8$	c #99CE33",
"9$	c #9BCF2F",
"0$	c #A3D826",
"a$	c #AADC2B",
"b$	c #AEE11E",
"c$	c #AFE11D",
"d$	c #8FC641",
"e$	c #8EC53F",
"f$	c #91B23C",
"g$	c #BE946B",
"h$	c #D8B098",
"i$	c #F8E0B8",
"j$	c #D3B591",
"k$	c #98B839",
"l$	c #A2D432",
"m$	c #AEDF2A",
"n$	c #AEE11F",
"o$	c #92CA35",
"p$	c #9FD22A",
"q$	c #94CA3B",
"r$	c #A4D359",
"s$	c #8D9644",
"t$	c #434640",
"u$	c #C08870",
"v$	c #F6E0B6",
"w$	c #92A93E",
"x$	c #A0D429",
"y$	c #94CA34",
"z$	c #93CA33",
"A$	c #92C934",
"B$	c #98CD37",
"C$	c #A5D739",
"D$	c #7B9E35",
"E$	c #F8E0B7",
"F$	c #D3B690",
"G$	c #9CBB37",
"H$	c #A1D530",
"I$	c #ACDE2A",
"J$	c #ABDC22",
"K$	c #97CC37",
"L$	c #B1DE55",
"M$	c #6B893A",
"N$	c #80827F",
"O$	c #7D684D",
"P$	c #91A93E",
"Q$	c #A9D84F",
"R$	c #A2D62C",
"S$	c #A5D82E",
"T$	c #9BD137",
"U$	c #8EB82F",
"V$	c #848C7A",
"W$	c #8DA36E",
"X$	c #B2DD5D",
"Y$	c #A2D52A",
"Z$	c #A5D828",
"`$	c #98CF30",
" %	c #A0D435",
".%	c #80A534",
"+%	c #81847E",
"@%	c #8CA16E",
"#%	c #B4E05D",
"$%	c #A4D730",
"%%	c #A4D832",
"&%	c #A4D732",
"*%	c #7EA236",
"=%	c #D3D7CF",
"-%	c #96B75E",
";%	c #B1DE4E",
">%	c #A9DB27",
",%	c #ABDC2E",
"'%	c #ACDD2A",
")%	c #88B332",
"!%	c #52613E",
"~%	c #B8B8B7",
"{%	c #B6BDAD",
"]%	c #9BC153",
"^%	c #9ED333",
"/%	c #A6D82E",
"(%	c #A8DB2D",
"_%	c #759D28",
":%	c #3B4C21",
"<%	c #384A21",
"[%	c #698921",
"}%	c #8EBC25",
"|%	c #A0D332",
"1%	c #AAD959",
"2%	c #8BA26D",
"3%	c #AEDA60",
"4%	c #A4D630",
"5%	c #A0D436",
"6%	c #95BB57",
"7%	c #4C5B45",
"8%	c #383848",
"9%	c #B8B9B6",
"0%	c #90AD65",
"a%	c #A2D43D",
"b%	c #ACDD2B",
"c%	c #B5DD75",
"d%	c #889A72",
"e%	c #808180",
"f%	c #658423",
"g%	c #ACD961",
"h%	c #99CE36",
"i%	c #ACDE2B",
"j%	c #9DD230",
"k%	c #83AF26",
"l%	c #384B22",
"m%	c #D4D8CF",
"n%	c #638425",
"o%	c #85B42C",
"p%	c #ABDC2B",
"q%	c #A9DC2B",
"r%	c #97CC38",
"s%	c #71992A",
"t%	c #2B3621",
"u%	c #424340",
"v%	c #D6D8D3",
"w%	c #719A2B",
"x%	c #96CC39",
"y%	c #A9DB2D",
"z%	c #8DBA27",
"A%	c #6B8B21",
"B%	c #425420",
"C%	c #283120",
"D%	c #82847E",
"E%	c #848D7A",
"F%	c #C6D6B3",
"G%	c #86B52C",
"H%	c #AADB22",
"I%	c #90C73C",
"J%	c #B7E453",
"K%	c #90B91F",
"L%	c #7EA320",
"M%	c #3B4E21",
"N%	c #232A20",
"O%	c #222820",
"P%	c #252C20",
"Q%	c #415320",
"R%	c #6D8C1F",
"S%	c #779C24",
"T%	c #7DAA2B",
"U%	c #A5D459",
"V%	c #AEDF1F",
"W%	c #93C841",
"X%	c #B3E327",
"Y%	c #B1E130",
"Z%	c #B1DE5C",
"`%	c #7EA625",
" &	c #678824",
".&	c #6B8C21",
"+&	c #6E8E20",
"@&	c #71901F",
"#&	c #71911F",
"$&	c #6C8C21",
"%&	c #84AA21",
"&&	c #9CD13B",
"*&	c #A1D537",
"=&	c #A3CF66",
"-&	c #9BD03C",
";&	c #AEE029",
">&	c #B1E12B",
",&	c #AADC34",
"'&	c #ABDB46",
")&	c #BAE178",
"!&	c #B8DF7A",
"~&	c #B4DC7B",
"{&	c #B8E07A",
"]&	c #C1E778",
"^&	c #C2E778",
"/&	c #C0E578",
"(&	c #B8DF78",
"_&	c #ACD66F",
":&	c #9ED04C",
"<&	c #98CD3D",
"[&	c #98CD3C",
"}&	c #A7D92F",
"|&	c #9ACE3C",
"1&	c #ADDA62",
"2&	c #A4D927",
"  . + @ # $ % & * = - ; > , ' ) > ! ~ { ] ^ / ( _ : < [ } | & ) 1 2 3 @ @ | 4 5 6 7 2 8 * 9 + 0 ",
"> a b c d e f g h i j k l m n n o p q r s t u v w x y z A B C D E F G H I J 6 K L M 2 N O P Q R ",
"S T U V W X 5 | * Y Z ` {  ...+.@.#.$.%.&.*.=.-.;.>.l [ < < 1 ,.1 '.).!.~.{.].!.K ).O $ ^./.(._.",
":.<.[.}.|.) 1.2.3.4.Z { 5.) 1 6.7.8.9.0.a.b.c.d.e.f.g.h./.i.j.k.l.[ ).m.n.E 6 o.O p.q.r.s./.t.' ",
"u.v.p.> $ > w.1 x.y.z.,.A., X B.C.D.E.F.G.G.H.H.I.J.K.L.M.8 1 [ 1.N.].z.' y.O.* P.a T Q.R.S.T.T.",
"q.0 4 U.U./.V.W...X.1.X Y.Z.`. +.+++H.G.G.H.H.H.@+@+#+$+%+&+*+=+g -+z.% ;+>+O.,+> '+$ 3.| )+A.!+",
"2 ~+V.{+* ) ]+]+^+/+(+_+:+<+[+}+|+@+H.G.H.H.H.@+@+@+H.1+2+3+4+[ {+]+5+6+A.7+O.O ,+).& X ..P.U 8+",
"9+. p.0+a+) 8 ) b+c+d+d+e+f+g+b.@+H.H.H.H.H.H.@+H.H.G.G.h+D.i+j+k+> l+m+] n+..o+Z p+6+1 & ..q+r+",
"5+[ < 2.3.@. .` Z s+[ t+u+v+w+H.H.H.H.H.H.H.@+H.H.G.H.H.@+x+y+z+W.Y.8+A+B+X.C+> l.D+T U w./.0 9+",
"5+5+m+' 8 ;+/ E+E+F+=+i.7+G+H+H.H.@+H.H.H.H.H.H.H.H.H.@+H.I+J+n+e @.T ,.m+K+U.L+M+Y.r+8 N+x.g O+",
"U.N.9+) P+ .Q+R+S+T+] ; U+y+V+@+H.@+H.H.H.@+H.H.H.@+H.H.H.W+X+Y+Z+..P.o+d `+0  @<.N , 2.U..@Z++@",
"z.& ..'.] ! Y.@@#@7+,.X $@%@&@*@H.@+@+H.@+@+H.@+@+H.H.H.++D.=@-@f ;@l.l.P.>@] W.1 p.| | [ 3.@.A.",
") q+@./.d 6+Y.@.@.n ] ) O ,@'@)@@+H.@+H.@+H.@+@+H.H.H.@+!@~@{@#@l.]@^@/@Z Y+p+q+z.(@_@]+) ;+:@<@",
"P.P.6+. 9+f ; @.[@T+1 ) }@|@1@2@@+H.@+@+@+H.@+H.H.H.@+3@4@5@6@!+!+E+/ }.;+7@) > K 8@9@K [ : 0@a@",
"l.` 1 1.b@../.6+P.c@[ b+W.d@e@f@++@+@+@+@+@+@+H.@+H.@+g@h@i@g [.<@6.Q+;+8+>@}@j@k@l@z.).5+i.m@0@",
"8 ! n@}@0 0 [ O } o@Z+8 @@p@q@r@s@t@u@u@v@t@w@@+@+@+3@x@y@z@{ A@B@p+p.<.8+C@].U.U.D@' 0 a+w.8+W.",
"@.i.| ..< ,+g ).E@F@x.G@H@I@J@K@L@u@u@u@u@u@u@t@w@w@s@M@N@@.O@O@^@3.! o+l.P@9 Q@g & [ ..) m+1 Z+",
"r+ .'.3 R@S@k@T@b@U@> 8 V@W@X@Y@Z@u@u@u@u@u@u@u@u@v@`@ #.#0 !+Z 8 p+|.^.=+F [ V.) ' * q+U 8+,.q+",
"0+}@o.+ +#@###$#%#e+9+) &#*#=#-#t@v@u@u@u@u@u@v@v@u@L@;#>#).N.,. .< 5.9+:+D > D+f a+[ : ,#8+Z ) ",
"l.2 '#)#7 !#R ~#O C * 8 >+{#]#^#u@u@u@u@u@u@u@u@u@v@/#(#_#+.E+ .g ) :#G@1 <#; +.P.[#E@'+8+X ] ] ",
"p.t.b }#6 |#1#/.w.2#' P.3#4#5#v@u@u@u@u@u@u@u@u@u@u@v@6#7#8#9# .[ ..1.A+& o@: #@r+; @.8+0#/ - ` ",
"a#'#W d 9+b#c p.@.c#& d#e#f#g#t@u@u@u@u@u@u@u@u@t@u@u@h#i#j#k#z..@[ C+Q@, l#m#8 6.<.T.m#E+E+D+^ ",
"W }@* '.; * 0 3. @4.* n#o#p#u@w@u@u@u@u@u@u@u@u@w@v@u@u@5#q#r#.@K U.s#(@* t#G@o+/.O a #@p@[@m@: ",
"[@u#m+v#D+) =+& Z w#0 x#y#z#u@A#v@u@u@u@u@u@u@u@w@v@u@u@g#B#C#D#{ ] E#).& o@_@Z '+..q+R+F#F#R+{ ",
"G#U H#l+b+- b K O.I#@ J#K#g#v@A#t@u@u@u@u@u@u@v@w@t@v@u@u@L#M#N#O#P#Q#z.R#t#0 1 { q+'+ .[@H@H@S#",
":@A.d T#}@& @ U#m.V#W#j#p#v@t@A#w@v@u@u@u@u@v@t@t@w@v@u@u@g#X#Y#Z#).(.`#6. $P.| Z+i.Z+^ / p@] .$",
"8 C+z.< * +$@$+$#$$$%$&$*$v@w@A#w@t@v@u@u@u@u@u@u@w@v@v@u@u@=$-$;$N.| x.,#l#;+Z+z.Z+l+ .'+>$,$).",
"& 6+a 0#'$)$7 !$~${$]$^$/$t@A#w@w@t@t@t@v@u@u@u@u@t@w@v@v@v@($_$:$Q#).Z+X B b+<$).m+1 [$}$W.i.|$",
"Z ; T M+'$< 1$2$9 3$4$5$6$@+A#w@t@v@t@t@t@t@v@u@u@u@w@t@@+@+*@7$%@8$9$0$: a$b$c$a l+) 5.6.!+: m+",
"/.W l.@.P.0 # }.L d$e$f$g$A#w@w@v@v@v@u@u@u@u@u@u@u@@+@+G.h$i$j$k$l$;@Q#E@m$n$:@^@+@[  .E+:@o$8 ",
"O f p$3 p.+ R.D@n.q$%#r$s$t$w@t@v@v@u@u@u@u@u@u@u@u@v@G.G.u$i$v$w$U+u#' ) t##@5.6+z.k+o+m#5.1 @.",
"* /.R@x$$ (.y$z$A$B$o.C$D$/#w@v@v@v@u@u@u@u@u@u@u@u@u@G.u$u$E$F$G$H$}@% '+I$5.@.< Z+1 8 D+< C+J$",
"1 2 3 @ @ | 4 5 6 K$2 L$M$N$t@v@v@u@u@u@u@u@u@u@u@u@u@v@G.G.O$P$Q$R$+ @ # S$% & * = - ; > , ' ) ",
"9+O 2 |#K O 6 K L T$G U$V$w@v@v@v@u@u@u@u@u@u@u@u@u@u@u@u@Z@W$X$> a b c d 2#f g h Y$,.Z$W.i.< < ",
"1 '.).!.~.`$].!.K <+ %.%+%t@v@v@u@u@u@u@u@u@u@u@u@u@u@u@u@g#@%#%S T U V W $%5 | * Y$Z ` {  ...+.",
"l.[ ).m.n.9+6 o.O %%&%*%+%v@v@v@u@u@u@u@u@u@u@u@u@u@u@u@u@u@=%-%;%>%[.}.|.z 1.2.3.G@Z { 5.) 1 6.",
"1.N.].z.' }@O.* P.,%'%)%!%~%v@v@u@u@u@u@u@u@u@u@u@u@u@u@u@u@^#{%]%^%p.> $ /%w.1 x.}@z.,.A., X ; ",
"g -+z.% ;+; O.,+> (%$ h._%:%w@v@v@v@u@u@u@u@u@u@u@u@u@u@t@@+<%[%}%|%4 U.U.n+V.W...N+1.X Y.< p+r+",
"{+]+5+6+A.p.O.O ,+;$& X 1%&@*@@+w@v@v@v@u@u@u@u@u@u@t@@+@+/#2%3%G ~+V.{+* z ]+]+^+:+(+_+:+).[ `$",
"k+> l+m+] /...o+Z 4%6+1 5%6%7%8%@+@+@+w@v@v@u@u@t@@+@+w@u@9%0%a%9+. p.0+a+z 8 ) b+v#d+d+{+`$k+< ",
"W.Y.8+A+B+N+C+> l.b%T U w.c%d%e%w@w@@+@+@+@+@+@+@+w@t@w@t@/#f%g%h%[ < 2.3.a$ .` Z : [ t+g B+l@j@",
"e @.T ,.m+a+U.L+M+i%r+8 j%k%l%@+@+@+@+@+@+@+@+@+@+@+@+@+@+@+m%n%o%h%m+' 8 p%/ E+E+[@=+i.1 k+E#9@",
"Z+..P.o+d * 0  @<.q%, 2.r%s%t%@+@+@+@+@+@+@+@+w@8%8%8%8%8%t@u%v%w%x%9+) P+y%Q+R+S+- ] ; 8+= m+!.",
"f ;@l.l.P.w.] W.1 7+| | U@z%A%B%C%++@+@+@+@+@+@+w@w@w@w@/#D%E%F%G%B ..'.] >@Y.@@#@1 ,.X ! ) u.H%",
"l.]@^@/@Z P.p+q+z.I%_@]+) p%J%K%L%[%M%N%++O%*@O%*@++P%Q%R%S%T%U%z q+@./.d k Y.@.@.< ] ) O ' D+V%",
"!+E+/ }.;+l.) > K W%9@K [ : 0@X%Y%Z%`%=. &.&+&@&#&$&&.%&Z%&&x%g P.P.6+. 9+*&; @.[@- 1 ) }@[.E+#@",
"<@6.Q+;+8+! }@j@k@=&-&;$h%m ;&>&,&'&r )&!&~&{&]&^&/&(&_&:&<&[&F 7@}&7+A |&1&/.6+P., [ b+W.+.#@5.",
"B@p+p.<.8+] ].U.U.D@' 0 a+w.8+W.2&+.6.A.A.l+A+M+W@P.3.C+).[ +@V.8 ! n@}@0 0 [ O } 4 Z+8 @@p@p@,."};
