/* XPM */
static char * aizen48_L_xpm[] = {
"48 48 678 2",
"  	c #A1D527",
". 	c #A1D628",
"+ 	c #9FD429",
"@ 	c #9FD32A",
"# 	c #A1D429",
"$ 	c #A4D826",
"% 	c #A2D529",
"& 	c #9ED32C",
"* 	c #A2D34A",
"= 	c #A1D52B",
"- 	c #A8DC24",
"; 	c #A7DA25",
"> 	c #A5D826",
", 	c #A5D926",
"' 	c #9ED22C",
") 	c #A2D629",
"! 	c #A4D727",
"~ 	c #A3D62A",
"{ 	c #A7DA26",
"] 	c #A2D62A",
"^ 	c #A6DA26",
"/ 	c #ACDE22",
"( 	c #AADD24",
"_ 	c #ADE022",
": 	c #A9DC24",
"< 	c #A1D52A",
"[ 	c #9DD22D",
"} 	c #9DD12D",
"| 	c #9BD02E",
"1 	c #A3D728",
"2 	c #A1D528",
"3 	c #A2D528",
"4 	c #A1D34A",
"5 	c #9DD12C",
"6 	c #98CD30",
"7 	c #96CC31",
"8 	c #A8DB24",
"9 	c #9CD12D",
"0 	c #94CA33",
"a 	c #9FD32B",
"b 	c #AADC22",
"c 	c #A7DA23",
"d 	c #A4D726",
"e 	c #A3D628",
"f 	c #A5D925",
"g 	c #9FD42A",
"h 	c #9AD02F",
"i 	c #A2D24B",
"j 	c #A2D52A",
"k 	c #A4D828",
"l 	c #A5D828",
"m 	c #A5D927",
"n 	c #A6D926",
"o 	c #A9DC23",
"p 	c #9DD32B",
"q 	c #A0D42E",
"r 	c #A3D72F",
"s 	c #A6DA28",
"t 	c #A7DB25",
"u 	c #A0D42B",
"v 	c #A1D529",
"w 	c #A0D52A",
"x 	c #9DD22C",
"y 	c #9ED32B",
"z 	c #97CC31",
"A 	c #97CD31",
"B 	c #9ECF4C",
"C 	c #99CE2F",
"D 	c #99D02E",
"E 	c #A8DC23",
"F 	c #97CD30",
"G 	c #94C934",
"H 	c #95CB31",
"I 	c #ADE01E",
"J 	c #ABDD21",
"K 	c #ABDE21",
"L 	c #A8DC22",
"M 	c #A5D825",
"N 	c #A3D729",
"O 	c #A4D827",
"P 	c #A6D927",
"Q 	c #A8DB25",
"R 	c #AADD22",
"S 	c #A5D727",
"T 	c #A5D92B",
"U 	c #A1D534",
"V 	c #9ED047",
"W 	c #A7D848",
"X 	c #AEDE41",
"Y 	c #ADDF2F",
"Z 	c #AEE026",
"` 	c #A2D728",
" .	c #98CE31",
"..	c #94CB34",
"+.	c #91C835",
"@.	c #98CF30",
"#.	c #9CCF4D",
"$.	c #A2D727",
"%.	c #A2D628",
"&.	c #9ACF2E",
"*.	c #8DC43A",
"=.	c #AADC24",
"-.	c #A9DB23",
";.	c #A7DA24",
">.	c #A7D924",
",.	c #A6D826",
"'.	c #9FD32C",
").	c #A7D748",
"!.	c #A8DB23",
"~.	c #ADDF21",
"{.	c #ACDE21",
"].	c #AADD23",
"^.	c #A3D72D",
"/.	c #A3D635",
"(.	c #A4D647",
"_.	c #B0DC65",
":.	c #7BA425",
"<.	c #668927",
"[.	c #81A823",
"}.	c #BDE662",
"|.	c #B4E241",
"1.	c #A7D931",
"2.	c #A2D52E",
"3.	c #A3D62C",
"4.	c #A8DA26",
"5.	c #A5D928",
"6.	c #A8DA24",
"7.	c #94CB33",
"8.	c #95CB33",
"9.	c #9ED32A",
"0.	c #A3D727",
"a.	c #A2D627",
"b.	c #A1D42A",
"c.	c #9CD32C",
"d.	c #A9DC21",
"e.	c #A7D925",
"f.	c #9DD32C",
"g.	c #A4D728",
"h.	c #A6D748",
"i.	c #A0D42A",
"j.	c #99CF30",
"k.	c #ADDF20",
"l.	c #A9DC30",
"m.	c #A9D945",
"n.	c #B0DB65",
"o.	c #759F2A",
"p.	c #5F7E25",
"q.	c #3D4F21",
"r.	c #544330",
"s.	c #5D5A2F",
"t.	c #688621",
"u.	c #89AE1E",
"v.	c #BAE462",
"w.	c #A6D64A",
"x.	c #A6D644",
"y.	c #A9DB30",
"z.	c #95CC33",
"A.	c #95CC32",
"B.	c #9ACD4E",
"C.	c #A6D925",
"D.	c #A0D528",
"E.	c #9CD12C",
"F.	c #A6D824",
"G.	c #ADDF1F",
"H.	c #9BD12D",
"I.	c #96CC32",
"J.	c #A1D629",
"K.	c #9CD22D",
"L.	c #ABDE22",
"M.	c #A3D629",
"N.	c #AADB30",
"O.	c #AEDD5B",
"P.	c #7BA426",
"Q.	c #5A7B27",
"R.	c #384A22",
"S.	c #202620",
"T.	c #785050",
"U.	c #503830",
"V.	c #181820",
"W.	c #3E4F20",
"X.	c #668420",
"Y.	c #6A8B24",
"Z.	c #7DA624",
"`.	c #B5E259",
" +	c #ABDC2B",
".+	c #A0D52B",
"++	c #90C837",
"@+	c #AADC23",
"#+	c #9AD02E",
"$+	c #A4D628",
"%+	c #AEDF20",
"&+	c #9ED22A",
"*+	c #97CD32",
"=+	c #99CE30",
"-+	c #99CB4F",
";+	c #95CB34",
">+	c #95CC34",
",+	c #99D030",
"'+	c #9ED230",
")+	c #9ED14A",
"!+	c #759D2A",
"~+	c #7D694D",
"{+	c #1F2520",
"]+	c #795550",
"^+	c #79564F",
"/+	c #3E5021",
"(+	c #7BA023",
"_+	c #B1DE5B",
":+	c #9FD337",
"<+	c #98CE30",
"[+	c #A5D827",
"}+	c #9BD02D",
"|+	c #9ACF30",
"1+	c #A3D44A",
"2+	c #9CD12F",
"3+	c #96CC33",
"4+	c #9DD138",
"5+	c #AFDA65",
"6+	c #638222",
"7+	c #795450",
"8+	c #513B30",
"9+	c #3D5021",
"0+	c #7EA524",
"a+	c #A1D249",
"b+	c #9CD032",
"c+	c #9FD42C",
"d+	c #9CD12E",
"e+	c #A7DB24",
"f+	c #A6DA25",
"g+	c #A9DB24",
"h+	c #A9DA47",
"i+	c #9BD12F",
"j+	c #9ACE34",
"k+	c #99CB4B",
"l+	c #749E2A",
"m+	c #5C592F",
"n+	c #523F30",
"o+	c #608023",
"p+	c #AAD667",
"q+	c #A6D932",
"r+	c #9ED22D",
"s+	c #99CE31",
"t+	c #ABDD22",
"u+	c #AEE020",
"v+	c #B3E143",
"w+	c #ACDF21",
"x+	c #9BD02F",
"y+	c #98CB50",
"z+	c #5E822B",
"A+	c #232A20",
"B+	c #3B4D21",
"C+	c #7CA425",
"D+	c #AADB44",
"E+	c #A9DC27",
"F+	c #9DCF4D",
"G+	c #A3D627",
"H+	c #ABDE20",
"I+	c #A0D529",
"J+	c #98CD32",
"K+	c #A7D926",
"L+	c #ACDF22",
"M+	c #B1E31E",
"N+	c #B5E343",
"O+	c #608329",
"P+	c #513E30",
"Q+	c #ADD965",
"R+	c #A2D634",
"S+	c #A5D549",
"T+	c #AADD21",
"U+	c #97CC32",
"V+	c #9FD42B",
"W+	c #9ED32D",
"X+	c #AFE120",
"Y+	c #B3E243",
"Z+	c #ACDB46",
"`+	c #6F9021",
" @	c #232B20",
".@	c #3E5020",
"+@	c #7AA326",
"@@	c #A5D544",
"#@	c #A8DA28",
"$@	c #AEDE45",
"%@	c #9FD230",
"&@	c #AFDE40",
"*@	c #86AB1F",
"=@	c #3C4E21",
"-@	c #785848",
";@	c #262D20",
">@	c #6F9022",
",@	c #ADDC46",
"'@	c #A9DC22",
")@	c #A6D825",
"!@	c #A8D848",
"~@	c #8FC637",
"{@	c #93CA35",
"]@	c #B0E21E",
"^@	c #AFE01E",
"/@	c #B1E144",
"(@	c #AFE02D",
"_@	c #BAE562",
":@	c #628122",
"<@	c #BF896F",
"[@	c #C08870",
"}@	c #D8B098",
"|@	c #3F5020",
"1@	c #86AB20",
"2@	c #B2E13F",
"3@	c #ACDE27",
"4@	c #90C737",
"5@	c #8FC638",
"6@	c #B0E11E",
"7@	c #B2E31E",
"8@	c #98CD31",
"9@	c #ABDB46",
"0@	c #9DD22E",
"a@	c #AFE124",
"b@	c #B2E146",
"c@	c #658726",
"d@	c #C08A6F",
"e@	c #648321",
"f@	c #ADDE2E",
"g@	c #A6D648",
"h@	c #97CE31",
"i@	c #92C935",
"j@	c #93C935",
"k@	c #ADE020",
"l@	c #9ED42B",
"m@	c #A3D34A",
"n@	c #B0E11F",
"o@	c #668826",
"p@	c #795D47",
"q@	c #3D4E21",
"r@	c #82AA22",
"s@	c #B0DF41",
"t@	c #A3D62D",
"u@	c #99CF2F",
"v@	c #A0D14B",
"w@	c #B1E21F",
"x@	c #B3E41D",
"y@	c #ADDD3E",
"z@	c #97B137",
"A@	c #3C4D20",
"B@	c #F8E0B8",
"C@	c #F0F0F0",
"D@	c #212720",
"E@	c #688620",
"F@	c #B9E462",
"G@	c #AADC2E",
"H@	c #9BCD4D",
"I@	c #96CD32",
"J@	c #9DD22B",
"K@	c #95CB32",
"L@	c #92C835",
"M@	c #B0E220",
"N@	c #ADE01F",
"O@	c #ADDF29",
"P@	c #C4E880",
"Q@	c #888A41",
"R@	c #F7E0B7",
"S@	c #719220",
"T@	c #AADA49",
"U@	c #A8DB28",
"V@	c #97CD2F",
"W@	c #8FC536",
"X@	c #8EC537",
"Y@	c #92C734",
"Z@	c #9BCE4D",
"`@	c #AEDE3E",
" #	c #87AC1F",
".#	c #3E4E20",
"+#	c #729D2C",
"@#	c #A8DA43",
"##	c #A8DB29",
"$#	c #AADA46",
"%#	c #ADDE21",
"&#	c #A0D428",
"*#	c #9AD02C",
"=#	c #94C932",
"-#	c #92C833",
";#	c #A4D549",
">#	c #A3D72C",
",#	c #AEDE47",
"'#	c #242C20",
")#	c #808080",
"!#	c #B8B8B7",
"~#	c #658421",
"{#	c #ACDD21",
"]#	c #ACDC46",
"^#	c #97CE30",
"/#	c #9ACF2F",
"(#	c #9ED22B",
"_#	c #9ED12C",
":#	c #A9D947",
"<#	c #A6D92A",
"[#	c #B3DE64",
"}#	c #5B7A26",
"|#	c #404040",
"1#	c #B8B8B8",
"2#	c #5F8228",
"3#	c #B2E048",
"4#	c #9BD12E",
"5#	c #AFE11F",
"6#	c #ACDD22",
"7#	c #A3D726",
"8#	c #A0D32A",
"9#	c #A3D825",
"0#	c #9DD237",
"a#	c #AEDB5B",
"b#	c #8EAE62",
"c#	c #D4D8CF",
"d#	c #81827F",
"e#	c #8BA16E",
"f#	c #A8D567",
"g#	c #9ACF33",
"h#	c #AFE020",
"i#	c #AFDF44",
"j#	c #A8DB22",
"k#	c #A3D52C",
"l#	c #A7D843",
"m#	c #90B25E",
"n#	c #838B7A",
"o#	c #F0F0EF",
"p#	c #D8D8D8",
"q#	c #B6BBB1",
"r#	c #90B062",
"s#	c #A4D15F",
"t#	c #99CE3A",
"u#	c #8DC539",
"v#	c #ADDD45",
"w#	c #A3D827",
"x#	c #9ED130",
"y#	c #9BCE4F",
"z#	c #89A36B",
"A#	c #B7B9B6",
"B#	c #D8D8D7",
"C#	c #B5BBB0",
"D#	c #92B45E",
"E#	c #ACDC44",
"F#	c #A3D62E",
"G#	c #91C837",
"H#	c #9ACD4F",
"I#	c #B0E120",
"J#	c #AFE11E",
"K#	c #ACDF1F",
"L#	c #A6D931",
"M#	c #AAD566",
"N#	c #8A9F6E",
"O#	c #EFF0EE",
"P#	c #D7D8D7",
"Q#	c #8EA46D",
"R#	c #9ACF3B",
"S#	c #92C936",
"T#	c #AFE21E",
"U#	c #89C23E",
"V#	c #A9DB22",
"W#	c #99CF2D",
"X#	c #9BD02C",
"Y#	c #A2D52C",
"Z#	c #A8D944",
"`#	c #8EB05F",
" $	c #D3D7CF",
".$	c #B6BBB0",
"+$	c #8DB05F",
"@$	c #9ED04A",
"#$	c #9BCF31",
"$$	c #9AD12D",
"%$	c #8AC33C",
"&$	c #8BC33B",
"*$	c #8AC23C",
"=$	c #94C751",
"-$	c #90C836",
";$	c #9BCF37",
">$	c #ACD865",
",$	c #6F822F",
"'$	c #889E6F",
")$	c #A5D268",
"!$	c #9DD137",
"~$	c #AFDE45",
"{$	c #ADE021",
"]$	c #A0D42C",
"^$	c #AADE21",
"/$	c #A4D825",
"($	c #91C935",
"_$	c #9BCC4D",
":$	c #98CB4B",
"<$	c #789B34",
"[$	c #5A5730",
"}$	c #B5BAB0",
"|$	c #8AAD60",
"1$	c #A0D42F",
"2$	c #9AD030",
"3$	c #A6DA27",
"4$	c #A9DC25",
"5$	c #98CF31",
"6$	c #9DD12A",
"7$	c #9BD22B",
"8$	c #90C738",
"9$	c #9BCE4E",
"0$	c #738C30",
"a$	c #D7B196",
"b$	c #904040",
"c$	c #5B7C26",
"d$	c #AAD567",
"e$	c #A4D931",
"f$	c #AFE11D",
"g$	c #9FD04B",
"h$	c #A1D445",
"i$	c #8BAC28",
"j$	c #BD936B",
"k$	c #414340",
"l$	c #3B4C21",
"m$	c #7BA327",
"n$	c #92CA35",
"o$	c #9FD22A",
"p$	c #9CCE4D",
"q$	c #94CB32",
"r$	c #9BCF34",
"s$	c #B7E358",
"t$	c #83A12B",
"u$	c #4D5A3F",
"v$	c #7E6A4D",
"w$	c #7EA724",
"x$	c #A3D445",
"y$	c #A0D429",
"z$	c #94CA34",
"A$	c #93CA33",
"B$	c #99CC4E",
"C$	c #A8DB2F",
"D$	c #B6DB83",
"E$	c #889973",
"F$	c #D7B197",
"G$	c #868C47",
"H$	c #AED965",
"I$	c #A4D633",
"J$	c #B2E144",
"K$	c #ABDC22",
"L$	c #A9DB2C",
"M$	c #A8D55D",
"N$	c #8AA964",
"O$	c #EAEEE6",
"P$	c #899644",
"Q$	c #A5D64A",
"R$	c #A0D32E",
"S$	c #ACDD40",
"T$	c #92B45D",
"U$	c #D2D7CE",
"V$	c #808180",
"W$	c #7D674D",
"X$	c #96AF3C",
"Y$	c #ABDB3E",
"Z$	c #A5D648",
"`$	c #9CD02F",
" %	c #9DCF4C",
".%	c #A9DA46",
"+%	c #8EA869",
"@%	c #D7D8D6",
"#%	c #513C30",
"$%	c #6F7D2C",
"%%	c #C0E480",
"&%	c #ACDE2A",
"*%	c #A3D349",
"=%	c #A7D648",
"-%	c #8BA56A",
";%	c #858C7B",
">%	c #86AB32",
",%	c #A6D649",
"'%	c #93CA34",
")%	c #A6D747",
"!%	c #8CA569",
"~%	c #69863B",
"{%	c #B0DC64",
"]%	c #A5D63F",
"^%	c #779F28",
"/%	c #3A4A21",
"(%	c #838B7B",
"_%	c #7CA436",
":%	c #9BCE49",
"<%	c #A0D24A",
"[%	c #A4D730",
"}%	c #B9DF83",
"|%	c #587321",
"1%	c #1D2020",
"2%	c #81847E",
"3%	c #739438",
"4%	c #9FD04C",
"5%	c #92C836",
"6%	c #A5D82B",
"7%	c #ADDB5A",
"8%	c #789D3C",
"9%	c #383848",
"0%	c #838A7B",
"a%	c #6B883A",
"b%	c #87AF33",
"c%	c #A0D246",
"d%	c #ADDC45",
"e%	c #AEDE3A",
"f%	c #B1CE81",
"g%	c #D3D8CE",
"h%	c #3A3C48",
"i%	c #769B39",
"j%	c #ACD866",
"k%	c #A6D746",
"l%	c #A1D439",
"m%	c #ADDD46",
"n%	c #B0E043",
"o%	c #ACDC3C",
"p%	c #AFCD81",
"q%	c #68853B",
"r%	c #A8D467",
"s%	c #99CE33",
"t%	c #9DD131",
"u%	c #B1E044",
"v%	c #AEDD45",
"w%	c #A5D92A",
"x%	c #ADD866",
"y%	c #597A27",
"z%	c #678924",
"A%	c #9DCF4F",
"B%	c #96CC36",
"C%	c #B1E21E",
"D%	c #A0D32B",
"E%	c #A8D947",
"F%	c #A1D24A",
"G%	c #678A26",
"H%	c #273020",
"I%	c #678926",
"J%	c #9FD14C",
"K%	c #B0E044",
"L%	c #AADB22",
"M%	c #A8DA25",
"N%	c #9DD043",
"O%	c #82AC26",
"P%	c #668421",
"Q%	c #405120",
"R%	c #222720",
"S%	c #B8B9B7",
"T%	c #3E4347",
"U%	c #848C7B",
"V%	c #7CA729",
"W%	c #A6D73F",
"X%	c #AEDF1F",
"Y%	c #9ED04E",
"Z%	c #98CD34",
"`%	c #A1D443",
" &	c #B6E065",
".&	c #86AC1F",
"+&	c #72921F",
"@&	c #668320",
"#&	c #3A4A20",
"$&	c #374821",
"%&	c #8EA36E",
"&&	c #90A86A",
"*&	c #759F29",
"=&	c #A6D36A",
"-&	c #9FD245",
";&	c #A6D929",
">&	c #ADDC48",
",&	c #A7D273",
"'&	c #9ACC50",
")&	c #9ED04C",
"!&	c #9FD14E",
"~&	c #AEDC52",
"{&	c #BCE56D",
"]&	c #C1E778",
"^&	c #C7E696",
"/&	c #567121",
"(&	c #1D2120",
"_&	c #557021",
":&	c #BFDF98",
"<&	c #B0D87C",
"[&	c #AAD472",
"}&	c #A0D058",
"|&	c #A4D54B",
"1&	c #ABDB47",
"2&	c #A6D74A",
"3&	c #B3DC6F",
"4&	c #ACDE20",
"5&	c #A4D927",
"  . + @ # $ % & * = - ; > , ' ) > ! ~ { ] ^ / ( _ : < [ } | & ) 1 2 3 @ @ | 4 5 6 7 2 8 9 0 + a ",
"> b c d e f g h i j k l m n < < 8 o : ^ p q = r s ] t ) u & v w x y 2 z A y B A C D 2 E y F G H ",
"I J K L M N 5 | * j O P { Q w R o S { T U V W X Y Z m [ < < 1 k 1 `  ...+.@.#...A  .y $ $.%.&.*.",
"=.-.;.>.,.) u '.).!.O { ~.) 1 {.].^./.(._.:.<.[.}.|.1.2.3.n 4.5.6.[  .7.8.x B 9.y 0.a.b.c.%.d.' ",
"e.f.0.> $ > g.1 h.i.j.k k., N ; l.m.n.o.p.q.r.s.t.u.v.w.x.y.1 [ u z.A.j.' i.B.9 C.b J D.E.F.G.G.",
"a.a H.I.I.%.J.m h.K.u N L.< M.N.O.P.Q.R.S.T.U.V.S.W.X.Y.Z.`. +.+h ++j.% @+; B.#+> t $ v | $+k.%+",
"2 &+J.*+9 ) =+=+-+;+>+,+;+ .'+)+!+~+{+V.T.U.V.U.U.T.]+^+/+(+_+:+*+=+<+[+k.0.B.y #+ .& N w C.K ].",
"x . 0.}+|+) 8 ) 1+2+3+3+*+@.4+5+6+7+V.T.U.U.U.U.T.T.U.U.8+9+0+a+b+> c+d+] %.h.e+O M.[+1 & w f+g+",
"<+[ < '.v o Q P h+: [ i+h j+k+l+m+U.U.T.U.U.V.T.U.U.U.U.U.n+o+p+q+L.].r+s+K.4 > 6.t+J K g.%.a x ",
"<+<+d+' 8 @+/ u+v+w+.+n 1 x+y+z+A+V.U.U.V.V.U.U.U.V.V.U.U.V.B+C+D+E+J k d+|+F+G+H+L.g+8 K.I+h J+",
"I.z.x ) K+Q L+M+N+- ] ; ].= * O+P+V.U.U.V.U.U.V.V.U.U.U.U.U.n+6+Q+R+C.e+e 9 S+T+-.E , '.I.U+V+W+",
"j.& w ` ] ! L.X+Y+1 k N ! ) Z+`+ @V.U.V.V.V.V.V.U.V.V.V.V.U.U..@+@@@#@6.C.g.W m 1 0.| | [ v o k.",
") f+o %.e [+L.o $@< ] ) y %@&@*@=@-@U.V.V.-@V.-@V.V.V.U.V.V.U.;@>@,@'@)@O C.!@f+j.~@{@=+) @+]@^@",
"C.C.[+. x g ; o /@- 1 ) i.;.(@_@:@<@V.V.-@[@}@}@[@V.U.U.U.V.V.|@1@2@3@>.@+6.W > A 4@5@A [ : 6@7@",
"6.P 1 u 8@w %.[+9@, [ 0@m R a@b@c@d@V.-@}@}@}@}@}@V.V.V.V.U.{+e@v.f@L+@+].! g@h@i@j@j. .<+n k@6@",
"8 ! l@i.a a [ y m@H.V+8 X+n@n@h+o@p@V.}@[@V.V.V.}@-@V.V.}@V.q@r@s@t@0.-.].] #.I.I.u@' a |+g.].m ",
"o n | w < #+h  .v@p I+!.w@x@X+y@z@A@B@}@V.T.T.C@}@}@V.V.}@D@E@F@G@v ! e+6.g H@I@h & [ w ) d+1 V+",
"g+Q ` 3 J@K@i@L@B [ > 8 M@N@t+O@P@Q@R@B@B@B@B@B@B@[@[@-@V. @S@T@U@M.,.$..+y 1+J.) ' 9 f+K ].k f+",
"}+i.9.+ V@W@X@Y@Z@V@x ) f+{ 8 `@ #.#-@B@B@B@B@B@}@-@-@V.V.R.+#@###< ~.x ;+w $#t+g |+[ : %#].O ) ",
"6.2 &#*#7 =#H -#;#v 9 8 ; c+>#,#S@'#V.-@}@B@B@}@V.V.V.)#!#~#F@y.h ) {#!.1 { ]#R C.^#/#t ].N ] ] ",
"0.d.c (#6 z _#%.:#f ' C.1 g.<#[#}#D@V.V.-@-@-@|#1#1#1#1#!#2#3###[ w u r+& 4#$@5#g+; o ].6#/ - P ",
"7#&#M e x 8#d 0.$@e+& 9#N 0#a#b#c#V.V.|#}@}@-@|#1#1#1#1#d#e#f#g#U+[ 4#I@, u+v+8 {.-.G.h#u+u+t+^ ",
"M i.9 ` ; 9 a v i#j#9 C k#l#m#n#o#)#V.[@}@[@|#|#1#1#p#)#p#q#r#s#t#I.u#~@9 k.v#e+%.y b 5#n@w+k@: ",
"w+w#d+2+t+) .+& h+d a C x#y#z#A#C@V.|#[@[@|#V.p#C@C@p#C@p#B#C#D#E#F#G# .& H.H#O t w f+M+I#I#M+{ ",
"J#K K#c+0@- c A B.J@@ v L#M#N#O#C@V.1#|#|#1#V.C@C@C@1#C@C@p#P#Q#_.R#S#j.T#k.S+1 { f+t Q w+w@w@U#",
"]@k.e V#i.& @ W#Z@u@X#Y#Z#`# $1#C@V.C@|#C@C@V.C@C@p#)#C@C@p#p#.$+$@$#$$${.{.9@| V+n V+^ / n@] %$",
"8 4#j.< 9 &$*$&$=$K@-$;$>$,$P#)#C@V.C@|#C@C@V.C@C@p#)#1#C@C@p#P#'$)$!$I+%#u+~$V+j.V+c+Q t {$]$ .",
"& [+b 6#^$/$7 ($_$%.<+:$<$[$V.)#C@V.V.|#1#C@V.p#C@p#1#)#C@C@p#p#}$|$@$1$N & 1+2$ .d+1 3$4$m n 5$",
"O ; J H+^$< 6$7$H@i@8$9$0$a$V.1#C@V.b$U.V.V.V.)#C@C@p#)#p#C@p#p#P#c$d$e$: o Y+f$b c+) ~.{.%+: d+",
"%.M 6.o C.a # >.g$u#*.h$i$j$k$p#)#V.b$b$b$b$U.V.C@C@p#)#|#1#)#V.V.l$m$:$/#~.Y+]@'@W+[ Q u+]@n$8 ",
"y g o$3 0.+ E.u@p${@q$r$s$t$u$C@V.V.V.U.b$b$b$V.C@C@p#1#|#|#)#[@[@v$w$x$) k.Y+~.[+j.x+e+h#~.1 o ",
"9 %.J@y$$ &.z$A$B$A 9.%.C$D$E$B#V.1#C@V.V.V.V.V.)#C@p#p#U.}@B@B@F$G$H$I$t K J$o < V+1 8 t+< 4#K$",
"1 2 3 @ @ | H.5 B 7 2 L$M$N$O$V.C@V.V.V.1#C@C@1#V.C@C@p#U.U.B@B@a$P$Q$R$# $ ).& 9 = - ; > , ' ) ",
"x y 2 z A y 6 A g$D 2 S$T$U$V$V.1#V.1#)#V.V.C@C@V.p#C@p#U.[@}@[@W$X$Y$d e f Z$h `$j k l m n < < ",
"1 `  ...+.@.A... % .y .%+%@%V.1#V.)#C@)#1#V.1#C@1#V.C@p#1#U.U.#%$%%%&%L M N *%| 9 j O P { Q w R ",
"6.[  .7.8.x 6 9.;#0.a.=%-%d#V.V.V.1#C@)#C@1#V.C@C@V.)#C@p#p#1#)#;%>%Y$>.,.) ,%'.v !.O { ~.) 1 {.",
"u z.A.j.' i.'%9 9@b J )%!%'#C@)#1#C@1#V.C@C@V.C@C@1#V.C@p#p#p#1#d#~%{%L#$ > :#1 I+i.j.k k., N ; ",
"h ++j.% @+; '%#+$#t $ ]%^%/%1#)#C@1#)#V.1#C@1#V.V.V.V.)#p#p#p#p#)#(%_%:%I.%.W m w K.u N L.< M.g+",
"*+=+<+[+k.0.'%y <% .& [%}%|%1%V.V.)#V.V.V.1#C@)#1#C@1#V.p#p#p#p#1#2%3%F+9 ) 4%=+5%;+>+,+;+ .[ @.",
"x+> c+d+] %.w e+h+M.6%7%8%c#9%9%9%V.V.V.V.)#C@C@)#C@1#V.)#p#p#B#0%a%b%c%|+) v#) 0@2+3+3+*+@.x+< ",
"m L.].r+s+K.4#> d%t+e%f%g%h%9%9%9%9%)#)#V.V.1#C@)#C@C@1#V.p#p#0%i%j%k%l%v o m%P O : [ i+h s+j@h@",
"f o J k d+|+I.G+n%L.o%p%.$1#1#1#)#)#V.V.V.V.V.V.1#)#C@C@V.p#d#q%r%s%t%' 8 @+u%u+u+w+.+n 1 x+G#5@",
"V+w C.e+e 9 a T+v%E w%x%y%{+V.V.V.V.V.V.V.V.V.p#V.V.V.V.V.V.D@z%A%B%x ) K+Q /@M+C%- ] ; ].= d+..",
"g D%6.6.C.g.] m E%0.| F%G%H%V.V.V.V.V.V.V.V.V.V.p#9%9%1#9%9%2%I%J%& w ` ] ! K%X+5#1 k N ! ) e.L%",
"6.M%'@)@O C.M.f+J%~@{@N%O%P%Q%;@R%V.V.V.V.V.V.V.V.p#p#S%T%U%c$V%W%f+o %.e [+K%o o < ] ) y ' t+X%",
"%+u+/ >.@+6.) > Y%4@5@Z%`% &.&+&@&#&V.V.V.V.V.V.V.V.$&%&&&*&=&-&;&C.[+. x g >&o w+- 1 ) i.;.u+5#",
"^@{.L+@+].! i.h@,&'&J%)&!&~&{&]&^&/&1%V.V.V.V.V.V.(&_&:&<&[&}&|&d%1&E%,%B 2&3&[+C., [ 0@m R 5#~.",
"4&M.0.-.].] A.I.I.u@' a |+g.].m 5&R {.k.k.c+r+H+N@C.v 4# .[ W+J.8 ! l@i.a a [ y } H.V+8 X+n@n@k "};
