/* XPM */
static char * enemy_48_xpm[] = {
"48 48 726 2",
"  	c #A1D527",
". 	c #A1D628",
"+ 	c #9FD429",
"@ 	c #9FD32A",
"# 	c #A1D429",
"$ 	c #A4D826",
"% 	c #A2D529",
"& 	c #9ED32C",
"* 	c #9CD12D",
"= 	c #A1D52B",
"- 	c #A8DC24",
"; 	c #A7DA25",
"> 	c #A5D826",
", 	c #A5D926",
"' 	c #9ED22C",
") 	c #A2D629",
"! 	c #A4D727",
"~ 	c #A3D62A",
"{ 	c #A7DA26",
"] 	c #A2D62A",
"^ 	c #A6DA26",
"/ 	c #ACDE22",
"( 	c #AADD24",
"_ 	c #ADE022",
": 	c #A9DC24",
"< 	c #A1D52A",
"[ 	c #9DD22D",
"} 	c #9DD12D",
"| 	c #9BD02E",
"1 	c #A3D728",
"2 	c #A1D528",
"3 	c #A2D528",
"4 	c #9BD12D",
"5 	c #9DD12C",
"6 	c #98CD30",
"7 	c #96CC31",
"8 	c #A8DB24",
"9 	c #94CA33",
"0 	c #9FD32B",
"a 	c #AADC22",
"b 	c #A7DA23",
"c 	c #A4D726",
"d 	c #A3D628",
"e 	c #B1DD5F",
"f 	c #A1D534",
"g 	c #9BD035",
"h 	c #9DD035",
"i 	c #A3D531",
"j 	c #A5D82F",
"k 	c #A6D82F",
"l 	c #A6D92F",
"m 	c #A7D92E",
"n 	c #A2D531",
"o 	c #ACDC3E",
"p 	c #AEDE47",
"q 	c #B1DF51",
"r 	c #B6E06F",
"s 	c #B3DB79",
"t 	c #B5DC7A",
"u 	c #B6DD79",
"v 	c #B4DD70",
"w 	c #AEDD53",
"x 	c #A6D742",
"y 	c #A8DB2D",
"z 	c #A3D630",
"A 	c #A1D432",
"B 	c #9FD333",
"C 	c #A2D530",
"D 	c #A1D531",
"E 	c #9ED233",
"F 	c #9FD332",
"G 	c #A2D52F",
"H 	c #98CC37",
"I 	c #98CD37",
"J 	c #99CD36",
"K 	c #9ACE35",
"L 	c #9BD137",
"M 	c #ADDA60",
"N 	c #A8DC23",
"O 	c #9ED32B",
"P 	c #97CD30",
"Q 	c #94C934",
"R 	c #95CB31",
"S 	c #ADE01E",
"T 	c #ABDD21",
"U 	c #ABDE21",
"V 	c #A8DC22",
"W 	c #A5D825",
"X 	c #A4D833",
"Y 	c #A2D52A",
"Z 	c #A4D827",
"` 	c #A6D927",
" .	c #A8DB25",
"..	c #A0D52A",
"+.	c #AADD22",
"@.	c #AADC2B",
"#.	c #ABD949",
"$.	c #B4DF65",
"%.	c #82A830",
"&.	c #6D8D33",
"*.	c #698835",
"=.	c #6E8E33",
"-.	c #85AB2E",
";.	c #B8E364",
">.	c #AFE02A",
",.	c #A5D927",
"'.	c #A4D828",
").	c #A2D728",
"!.	c #98CE31",
"~.	c #94CB34",
"{.	c #91C835",
"].	c #98CF30",
"^.	c #95CC32",
"/.	c #97CD31",
"(.	c #A0D435",
"_.	c #A2D727",
":.	c #A2D628",
"<.	c #9ACF2E",
"[.	c #8DC43A",
"}.	c #AADC24",
"|.	c #A9DB23",
"1.	c #A7DA24",
"2.	c #A7D924",
"3.	c #A6D826",
"4.	c #A0D42B",
"5.	c #9FD32C",
"6.	c #A1D529",
"7.	c #A8DB23",
"8.	c #ADDF21",
"9.	c #ACDE26",
"0.	c #95C12A",
"a.	c #719133",
"b.	c #688534",
"c.	c #6F7864",
"d.	c #6A6C67",
"e.	c #696B67",
"f.	c #707A64",
"g.	c #728D31",
"h.	c #9AC428",
"i.	c #A6D92A",
"j.	c #A6D926",
"k.	c #A8DA26",
"l.	c #A5D928",
"m.	c #A8DA24",
"n.	c #94CB33",
"o.	c #95CB33",
"p.	c #9DD22C",
"q.	c #9ED32A",
"r.	c #A3D727",
"s.	c #A3D62F",
"t.	c #A1D42A",
"u.	c #9CD32C",
"v.	c #A9DC21",
"w.	c #A7D925",
"x.	c #9DD32C",
"y.	c #A6D82E",
"z.	c #A4D728",
"A.	c #A0D529",
"B.	c #A0D42A",
"C.	c #99CF30",
"D.	c #ADDF20",
"E.	c #A5D92A",
"F.	c #A8D948",
"G.	c #8BB52D",
"H.	c #546736",
"I.	c #686868",
"J.	c #6A6B67",
"K.	c #768361",
"L.	c #93BB2A",
"M.	c #A1D431",
"N.	c #95CC33",
"O.	c #93CA34",
"P.	c #A6D925",
"Q.	c #ACDD2A",
"R.	c #A0D528",
"S.	c #9CD12C",
"T.	c #A6D824",
"U.	c #ADDF1F",
"V.	c #A2D627",
"W.	c #96CC32",
"X.	c #A1D629",
"Y.	c #9CD22D",
"Z.	c #A3D729",
"`.	c #ABDE27",
" +	c #95C529",
".+	c #658034",
"++	c #6D7266",
"@+	c #686968",
"#+	c #383838",
"$+	c #717B63",
"%+	c #88B12F",
"&+	c #A3D72B",
"*+	c #ACDF21",
"=+	c #AADC23",
"-+	c #A0D52B",
";+	c #9AD02F",
">+	c #90C837",
",+	c #9AD02E",
"'+	c #A7DB25",
")+	c #A5D82E",
"!+	c #A4D628",
"~+	c #AEDF20",
"{+	c #9ED22A",
"]+	c #97CD32",
"^+	c #99CE30",
"/+	c #92C836",
"(+	c #95CB34",
"_+	c #95CC34",
":+	c #99D030",
"<+	c #9ED04C",
"[+	c #587424",
"}+	c #232620",
"|+	c #696A68",
"1+	c #627C35",
"2+	c #A9D945",
"3+	c #A8DA25",
"4+	c #98CE30",
"5+	c #A5D827",
"6+	c #AADD23",
"7+	c #9BD02D",
"8+	c #9ACF30",
"9+	c #9DD22E",
"0+	c #9CD12F",
"a+	c #96CC33",
"b+	c #9FD24F",
"c+	c #567224",
"d+	c #3A3B38",
"e+	c #202020",
"f+	c #6C7166",
"g+	c #85AE30",
"h+	c #A3D62D",
"i+	c #9BD02F",
"j+	c #9FD42C",
"k+	c #9CD12E",
"l+	c #A7DB24",
"m+	c #A3D629",
"n+	c #A6DA25",
"o+	c #A9DB24",
"p+	c #9BD12F",
"q+	c #79A32B",
"r+	c #6B6F66",
"s+	c #696968",
"t+	c #798E5D",
"u+	c #A4D647",
"v+	c #ABDE22",
"w+	c #9ED22D",
"x+	c #99CE31",
"y+	c #9BD12E",
"z+	c #ABDD22",
"A+	c #ABDC2B",
"B+	c #AEE020",
"C+	c #96C627",
"D+	c #506237",
"E+	c #212320",
"F+	c #584028",
"G+	c #393A38",
"H+	c #3C4C21",
"I+	c #89B527",
"J+	c #A3D72C",
"K+	c #A5D925",
"L+	c #A9DC23",
"M+	c #A3D627",
"N+	c #ABDE20",
"O+	c #AADB2C",
"P+	c #98CD32",
"Q+	c #A7D926",
"R+	c #A9DB2D",
"S+	c #ACDF22",
"T+	c #B1E31E",
"U+	c #B1E21E",
"V+	c #AEDE43",
"W+	c #5A7623",
"X+	c #785848",
"Y+	c #717D62",
"Z+	c #CFE9AC",
"`+	c #AADD2B",
" @	c #9FD42B",
".@	c #AADD21",
"+@	c #A6D92E",
"@@	c #97CC32",
"#@	c #9ED32D",
"$@	c #A5D72F",
"%@	c #AFE120",
"&@	c #AFE11F",
"*@	c #3A3C38",
"=@	c #222320",
"-@	c #495737",
";@	c #8AB726",
">@	c #AADE23",
",@	c #9FD42A",
"'@	c #A0D32B",
")@	c #9CD034",
"!@	c #92C329",
"~@	c #587323",
"{@	c #323C20",
"]@	c #594328",
"^@	c #6C792B",
"/@	c #A2D447",
"(@	c #A9DC22",
"_@	c #A6D825",
":@	c #8FC637",
"<@	c #94CA3B",
"[@	c #B0E21E",
"}@	c #AFE01E",
"|@	c #A0D431",
"1@	c #A4D53F",
"2@	c #D4EBB3",
"3@	c #495D20",
"4@	c #795A48",
"5@	c #BE8C6E",
"6@	c #81A631",
"7@	c #98CD33",
"8@	c #90C737",
"9@	c #90C73D",
"0@	c #B0E11E",
"a@	c #B2E31E",
"b@	c #98CD31",
"c@	c #A5D92B",
"d@	c #94C021",
"e@	c #658120",
"f@	c #7B6547",
"g@	c #C08870",
"h@	c #785A48",
"i@	c #6D7A2B",
"j@	c #A3D647",
"k@	c #ACDE21",
"l@	c #97CE31",
"m@	c #92C935",
"n@	c #93C935",
"o@	c #9ACF36",
"p@	c #ADE020",
"q@	c #9ED42B",
"r@	c #A0D332",
"s@	c #B0E124",
"t@	c #B6E34C",
"u@	c #7BA224",
"v@	c #7A6247",
"w@	c #D8B098",
"x@	c #F8E0B8",
"y@	c #D5B295",
"z@	c #86AC2C",
"A@	c #A7DB29",
"B@	c #A9DD23",
"C@	c #ACDE20",
"D@	c #99CF2F",
"E@	c #9FD233",
"F@	c #9BD034",
"G@	c #9ACF2F",
"H@	c #9DD32B",
"I@	c #B1E21F",
"J@	c #B3E41D",
"K@	c #B0DE4E",
"L@	c #577021",
"M@	c #D5B195",
"N@	c #838D42",
"O@	c #AADA44",
"P@	c #ABDD23",
"Q@	c #AEE01F",
"R@	c #96CD32",
"S@	c #9ED234",
"T@	c #9DD22B",
"U@	c #96CB38",
"V@	c #92C835",
"W@	c #B0E220",
"X@	c #ADE01F",
"Y@	c #B2E148",
"Z@	c #5E7910",
"`@	c #121708",
" #	c #080808",
".#	c #7C7046",
"+#	c #CCE4AF",
"@#	c #A5DA25",
"##	c #9DD134",
"$#	c #97CD2F",
"%#	c #90C63B",
"&#	c #8EC537",
"*#	c #92C734",
"=#	c #94CB32",
"-#	c #A8DB28",
";#	c #89B31C",
">#	c #2E3B11",
",#	c #101010",
"'#	c #C0D0D8",
")#	c #243214",
"!#	c #5D8122",
"~#	c #91C740",
"{#	c #ADDE21",
"]#	c #A0D428",
"^#	c #9AD02C",
"/#	c #95C938",
"(#	c #92C833",
"_#	c #A8D945",
":#	c #5A7712",
"<#	c #171B10",
"[#	c #F8F8F8",
"}#	c #888888",
"|#	c #282830",
"1#	c #191E10",
"2#	c #617D2D",
"3#	c #A0D438",
"4#	c #ACDD21",
"5#	c #97CE30",
"6#	c #9BCF35",
"7#	c #9ED22B",
"8#	c #9ED12C",
"9#	c #A4D72C",
"0#	c #86AF1E",
"a#	c #2B3912",
"b#	c #2B2D30",
"c#	c #5F7B2D",
"d#	c #A7D746",
"e#	c #ACDD22",
"f#	c #A3D726",
"g#	c #A1D331",
"h#	c #A3D825",
"i#	c #9DD23A",
"j#	c #5F7E16",
"k#	c #181D11",
"l#	c #374230",
"m#	c #7EA925",
"n#	c #9ED32F",
"o#	c #AFE020",
"p#	c #AEDF28",
"q#	c #A8DB22",
"r#	c #99CE2F",
"s#	c #A5D736",
"t#	c #597919",
"u#	c #2C2F30",
"v#	c #58791D",
"w#	c #9DD13A",
"x#	c #8DC539",
"y#	c #B0E11F",
"z#	c #A3D827",
"A#	c #95CB36",
"B#	c #79A627",
"C#	c #25340C",
"D#	c #2C3030",
"E#	c #5C7B1C",
"F#	c #9DD13B",
"G#	c #9AD030",
"H#	c #91C837",
"I#	c #93CA35",
"J#	c #A7DA2D",
"K#	c #B0E120",
"L#	c #AFE11E",
"M#	c #ACDF1F",
"N#	c #A9DC2C",
"O#	c #9BCF2D",
"P#	c #A3D34B",
"Q#	c #547116",
"R#	c #151910",
"S#	c #353F30",
"T#	c #78A529",
"U#	c #A3D72A",
"V#	c #98CE32",
"W#	c #92C936",
"X#	c #AFE21E",
"Y#	c #89C23E",
"Z#	c #A9DB22",
"`#	c #99CF2D",
" $	c #9BD02C",
".$	c #9BCE4F",
"+$	c #4D6B1B",
"@$	c #0F1409",
"#$	c #2A2D30",
"$$	c #4F6D1D",
"%$	c #9CCE4F",
"&$	c #AFE01F",
"*$	c #9AD12D",
"=$	c #A0D432",
"-$	c #8AC33C",
";$	c #8CC440",
">$	c #8AC23C",
",$	c #8BC33B",
"'$	c #8CC439",
")$	c #95CB32",
"!$	c #90C836",
"~$	c #99CE2D",
"{$	c #9CD031",
"]$	c #82AC20",
"^$	c #293712",
"/$	c #101508",
"($	c #506E19",
"_$	c #A8D64C",
":$	c #A0D433",
"<$	c #ADE021",
"[$	c #A0D42C",
"}$	c #AADE21",
"|$	c #A5D82D",
"1$	c #91C935",
"2$	c #94C933",
"3$	c #9ACE3C",
"4$	c #638212",
"5$	c #151B08",
"6$	c #24320C",
"7$	c #80A81F",
"8$	c #A4D72F",
"9$	c #A6DA27",
"0$	c #A9DC25",
"a$	c #98CF31",
"b$	c #9DD12A",
"c$	c #9BD22B",
"d$	c #90C738",
"e$	c #A2D347",
"f$	c #5E7A10",
"g$	c #161A10",
"h$	c #131610",
"i$	c #384B0D",
"j$	c #8AB41A",
"k$	c #AEE025",
"l$	c #9BCF2F",
"m$	c #A3D826",
"n$	c #AEE11E",
"o$	c #AFE11D",
"p$	c #9CD22C",
"q$	c #AADC25",
"r$	c #84AF1F",
"s$	c #283613",
"t$	c #987840",
"u$	c #151A10",
"v$	c #5B7612",
"w$	c #B3E243",
"x$	c #A1D42B",
"y$	c #AEE11F",
"z$	c #92CA35",
"A$	c #9FD22A",
"B$	c #A0D430",
"C$	c #B0E12E",
"D$	c #5F7D15",
"E$	c #2B2F30",
"F$	c #84AB1A",
"G$	c #A8D947",
"H$	c #A4D72D",
"I$	c #9CD035",
"J$	c #A0D429",
"K$	c #9BCF34",
"L$	c #94CA34",
"M$	c #93CA33",
"N$	c #92C934",
"O$	c #ACDD43",
"P$	c #527016",
"Q$	c #F5F6F3",
"R$	c #566F2E",
"S$	c #70902C",
"T$	c #8EB827",
"U$	c #AFDE42",
"V$	c #A1D52D",
"W$	c #ABDC22",
"X$	c #7EA923",
"Y$	c #273513",
"Z$	c #292A30",
"`$	c #BDD1CC",
" %	c #D2E7B9",
".%	c #CEE8A9",
"+%	c #90A278",
"@%	c #71952C",
"#%	c #8CBA2A",
"$%	c #A4D646",
"%%	c #A1D437",
"&%	c #A2D42D",
"*%	c #97CC31",
"=%	c #99D02E",
"-%	c #ADDE43",
";%	c #547216",
">%	c #5E7F18",
",%	c #C6E695",
"'%	c #AFD680",
")%	c #ADDB55",
"!%	c #BDE27C",
"~%	c #96B16B",
"{%	c #6A8A2D",
"]%	c #8BB72B",
"^%	c #AADB44",
"/%	c #A1D537",
"(%	c #9BD032",
"_%	c #9CD02F",
":%	c #A5D828",
"<%	c #99CF36",
"[%	c #9FD32F",
"}%	c #84AF1E",
"|%	c #2A3812",
"1%	c #78A120",
"2%	c #A7D943",
"3%	c #AADD27",
"4%	c #ABDD26",
"5%	c #B2D986",
"6%	c #B6D5AA",
"7%	c #CCE6A7",
"8%	c #94AF6D",
"9%	c #6F922E",
"0%	c #86B32F",
"a%	c #9DD130",
"b%	c #A4D732",
"c%	c #5E7C17",
"d%	c #181E11",
"e%	c #6B7428",
"f%	c #AAD665",
"g%	c #9BCF32",
"h%	c #A7DA28",
"i%	c #A8D930",
"j%	c #A9D93D",
"k%	c #ABD47E",
"l%	c #C9E3A6",
"m%	c #B1D1A2",
"n%	c #9ECD3F",
"o%	c #A8DB27",
"p%	c #A7D93B",
"q%	c #7FAA1F",
"r%	c #26340C",
"s%	c #987940",
"t%	c #998C3D",
"u%	c #B4D888",
"v%	c #A6DA28",
"w%	c #ACDD20",
"x%	c #A5D82A",
"y%	c #9BD039",
"z%	c #A8DA2D",
"A%	c #ACD95C",
"B%	c #4B6615",
"C%	c #9A933C",
"D%	c #8CB429",
"E%	c #A6D928",
"F%	c #9FD330",
"G%	c #BEE189",
"H%	c #686D28",
"I%	c #111608",
"J%	c #584228",
"K%	c #5E5328",
"L%	c #89AF2B",
"M%	c #A3D52C",
"N%	c #96CC3A",
"O%	c #89B421",
"P%	c #516C17",
"Q%	c #987E3F",
"R%	c #5A7617",
"S%	c #A7D846",
"T%	c #97CC39",
"U%	c #9DD234",
"V%	c #ACDD2E",
"W%	c #658316",
"X%	c #5B4828",
"Y%	c #1B2111",
"Z%	c #607E1A",
"`%	c #A6D836",
" &	c #9BCF36",
".&	c #8DB71F",
"+&	c #738127",
"@&	c #98803F",
"#&	c #987B40",
"$&	c #987A40",
"%&	c #192011",
"&&	c #1E2610",
"*&	c #303E11",
"=&	c #5F7A14",
"-&	c #88B223",
";&	c #A1D532",
">&	c #8FC638",
",&	c #A4D547",
"'&	c #7EAC2A",
")&	c #668B22",
"!&	c #62831C",
"~&	c #374A15",
"{&	c #1E2711",
"]&	c #1A2111",
"^&	c #1B2211",
"/&	c #1B2310",
"(&	c #3C4E12",
"_&	c #6D8C16",
":&	c #799A16",
"<&	c #96C11A",
"[&	c #B6E440",
"}&	c #ADDF26",
"|&	c #A3D631",
"1&	c #9ED230",
"2&	c #ACDD38",
"3&	c #93BE1C",
"4&	c #6E8F19",
"5&	c #65881E",
"6&	c #63861F",
"7&	c #66891C",
"8&	c #6D8F18",
"9&	c #6F9017",
"0&	c #719216",
"a&	c #6C8F1A",
"b&	c #83B129",
"c&	c #AADB39",
"d&	c #B1E227",
"e&	c #B2E422",
"f&	c #B2E31D",
"g&	c #AADB22",
"h&	c #A7D930",
"i&	c #B0E02B",
"j&	c #B3E246",
"k&	c #A5D64B",
"l&	c #A1D24D",
"m&	c #A8D84A",
"n&	c #B4E345",
"o&	c #B1E046",
"p&	c #B6E345",
"q&	c #AADC30",
"r&	c #B1E21D",
"s&	c #A4D734",
"t&	c #AEDF1F",
"u&	c #B3DE5F",
"v&	c #A4D733",
"w&	c #91C83C",
"x&	c #AADC2C",
"y&	c #B1E12B",
"z&	c #B5E43B",
"A&	c #B4E245",
"B&	c #ADDC48",
"C&	c #AADA49",
"D&	c #A7D74A",
"E&	c #ADDD47",
"F&	c #B1E146",
"G&	c #B4E43B",
"H&	c #AADB30",
"I&	c #ACDD2B",
"J&	c #96CC39",
"K&	c #A7D92D",
"L&	c #A2D62F",
"M&	c #ADDF2A",
"N&	c #A9DC30",
"O&	c #AFDB60",
"P&	c #B0E21D",
"Q&	c #A4D927",
"  . + @ # $ % & * = - ; > , ' ) > ! ~ { ] ^ / ( _ : < [ } | & ) 1 2 3 @ @ | 4 5 6 7 2 8 * 9 + 0 ",
"> a b c d e f g h i j k l m n n o p q r s t u v w x y z A B C D E F G H I F J I K L M N O P Q R ",
"S T U V W X 5 | * Y Z ` {  ...+.@.#.$.%.&.*.=.-.;.>.,.[ < < 1 '.1 ).!.~.{.].^.~./.!.(.$ _.:.<.[.",
"}.|.1.2.3.z 4.5.6.7.Z { 8.) 1 9.0.a.b.c.d.e.d.f.g.h.i.< :.j.k.l.m.[ !.n.o.p.6 q.O r.s.t.u.:.v.' ",
"w.x.r.> $ y.z.1 A.B.C.'.D.E.F.G.H.d.e.I.I.I.I.I.J.K.L.M.t.8 1 [ 4.N.^.C.' B.O.* P.a Q.R.S.T.U.U.",
"V.0 4 W.W.s.X.,...Y.4.Z.`. +.+++@+#+I.I.I.I.I.I.#+@+$+%+&+*+=+-+;+>+C.% =+; O.,+> '+)+6.| !+D.~+",
"2 {+X.]+* z ^+^+/+(+_+:+(+<+[+}+#+I.I.I.#+I.#+I.#+#+|+1+2+3+{ [ ]+^+4+5+D.r.O.O ,+!.B Z...P.U 6+",
"p.. r.7+8+z 8 ) 9+0+a+a+]+b+c+d+I.I.I.#+I.I.#+I.#+e+I.f+g+h+! i+i+> j+k+] :...l+Z m+k 1 & ..n+o+",
"4+[ < 5.6.@. .` Z : [ p+g q+r+I.#+I.#+e+I.#+I.#+e+e+#+s+t+u+< i+,.v+6+w+x+Y.y+> m.z+Q.U z.:.0 p.",
"4+4+k+' 8 A+/ B+B+*+-+i.C+D+E+#+I.#+#+e+#+e+#+e+F+F+e+G+H+I+J+:.K+L+T '.k+8+W.M+N+v+O+8 Y.A.;+P+",
"W.N.p.) Q+R+S+T+U+- ] ; V+W+s+I.#+e+e+e+e+e+e+F+X+F+F+G+Y+Z+`+P. @..P.l+d * 0 .@|.N +@5.W.@@ @#@",
"C.& ..).] $@v+%@&@1 '.Z.2+1+*@e+e+#+e+F+e+F+e+F+X+X+F+=@-@;@9.>@,@'@m.m.P.z.] ,.1 r.)@| [ 6.L+D.",
") n+L+:.d k v+L+L+< ] h+!@~@{@e+e+e+e+F+F+F+F+F+X+X+F+]@^@/@; &@m.3+(@_@Z P.m+n+C.:@<@^+) =+[@}@",
"P.P.5+. p.|@; L+*+- 1 ) 1@2@3@4@X+e+e+F+X+F+X+X+X+X+X+5@6@7@r.~+~+B+/ 2.=+m.) > /.8@9@/.[ : 0@a@",
"m.` 1 4.b@D :.5+P., [ 9+c@d@e@f@g@e+F+X+X+X+X+g@g@g@h@i@j@^+;+1.}@k@S+=+6+! B.l@m@n@o@!.4+j.p@0@",
"8 ! q@B.0 r@[ O } 4  @8 %@s@t@u@v@w@g@g@g@g@g@w@x@x@y@z@A@j.{ B@C@m+r.|.6+] ^.W.W.D@E@0 8+z.6+,.",
"L+j.| ..< F@;+!.G@H@A.7.I@J@%@K@L@4@X+g@w@x@x@x@x@M@N@O@P@L+Q@Q@(@6.! l+m.,@9 R@;+& S@..) k+1  @",
"o+ .).3 T@U@m@V@b@[ > 8 W@X@z+Y@Z@`@ #X+X+g@g@g@g@.#+#$@@#0 ~+Z 8 m+3._.-+O [ X.) ' ##n+U 6+'.n+",
"7+B.q.+ $#%#&#*#=#$#p.) n+{ -#;#># #,#'#X+g@X+X+X+)#!#~#a+!.N.'. .< 8.p.(+..> z+,@8+S@: {#6+Z ) ",
"m.2 ]#^#7 /#R (#O 6.* 8 ; j+_#:#<# # #,#[#X+}#|# #1#2#3#4++.B+ .;+) 4#7.1 { ; +.P.5#6#'+6+Z.] ] ",
"r.v.b 7#6 H 8#:.z.K+' P.1 9#0#a#|#|#,# #,#[#}#|# #b#c#d#8+o.k@ .[ ..4.w+& y+: &@o+; @.6+e#/ - ` ",
"f#]#W d p.g#c r.L+l+& h#Z.i#j#k#|#|#|#,# # #}#,#,#|#l#m#n#6.D@C.@@[ y+R@, B+o#8 k@|.p#o#B+B+z+^ ",
"W B.* ).; ##0 6..@q#* r#3 s#t#k#|#|#|#|# #,#|#,#,#|#u#v#w#..& @@/.W.x#:@* D.7.l+:.O A+&@y#*+p@: ",
"*+z#k+0+z+z -+& Z c 0 r#} A#B#C#|#|#|#|#|# #,#,#|#|#D#E#F#!.G#5.{ ] H#!.& 4 I#Z '+..J#T+K#K#T+{ ",
"L#U M#j+9+N#b /.O.T@@ 6., O#P#Q#R#|#|#|#[#[# #,#|#|#S#T#h+: 8  .U#V#W#C.X#D.0 1 { n+y  .*+I@I@Y#",
"[@D.d Z#B.B @ `#n.D@ $2 f#6 .$+$@$|#|#[#g@g@w@ # ##$$$%$[ &$8. @5#!.<.*$k@k@P.|  @j.=$^ / y#] -$",
"8 y+C.< * ;$>$,$'$)$!$~$7#{$]$^$ #,#|#[#g@x@x@w@}#/$($_$Z v+: k+!.N.| A.{#B+=+ @C. @:$ .'+<$[$!.",
"& 5+a e#}$|$7 1$2$:.4+m@:@3$4$5$ # #,#'#X+w@x@x@x@X+6$7$$@; 1 5.^+W#!. @Z.& 9+G#!.k+8$9$0$,.j.a$",
"Z ; T N+}$n b$c$9 m@d$~.b@e$f$g$,# #'#X+w@X+w@x@X+w@h$i$j$k$B@}.) 4+l$m$: L+n$o$a j+z 8.k@~+: k+",
":.W m.L+P.r@# 2.r#x#[.p$q$r$s$|#,# #'#X+w@X+w@x@X+,#t$u$v$w$o+'.j.x$'@W#G@8.y$[@(@#@S@ .B+[@z$8 ",
"O ,@A$3 r.B$S.D@o.I#=#<.C$D$E$|#|# #}#,#X+X+X+w@,#t$}#}#l#F$G$H$j.+.z#' ) D.&@8.5+C.I$l+o#8.1 L+",
"* :.T@J$$ K$L$M$N$/.q.:.O$P$b#|#|#,#,#,#,#,# #X+,#F+}#'#Q$R$S$T$U$V$B.% '+U 8.L+<  @8$8 z+< y+W$",
"1 2 3 @ @ )@4 5 6 7 2 -#X$Y$|#|#|#,#|#|#,#,# #,#|#|#F+Z$`$ %.%+%@%#%$%%%&%$ % & * = N#; > , ' ) ",
"p.O 2 *%/.F 6 /.r#=%2 -%;%#$|#|#,#|#|#|#,#|# #,#,#|#,#,#^$>%,%'%)%!%~%{%]%^%/%(%_%Y j :%,.j.< < ",
"1 ).!.~.{.<%^.~./.!.[%}%|%|#|#|#,#|#|#,#,#|# #,#,#,#,# #C#1%2%3%S 4%5%6%7%8%9%0%a%Y j ` {  ...+.",
"m.[ !.n.o.E 6 q.O r.b%c%d%,#|#|#,#|#|#,#|#|# # #,# # #]@e%f%g%; }.|.h%i%j%k%l%m%n%o%p%{ 8.) 1 k@",
"4.N.^.C.' M.O.* P.a 4%q%r%,#,#,#|#|#,#,#|#,# # # #}#'#s%t%u%v%w%w.x.r.> $ x%$@X V$B.y%'.D., Z.; ",
";+>+C.% =+z%O.,+> '+$ A%B%g$,#,#,#,#,#,#,# # #,#}#'#t$'#Q$C%D%E%V.0 4 W.W.:.X.,...Y.A Z.v+< m+o+",
"]+^+4+5+D.8$O.O ,+!.F%G%H%I% # # # # # # # #,#,#F+F+F+F+J%K%L%M%2 {+X.]+* ) ^+^+/+(+N%:+(+!.[ ].",
"i+> j+k+] s...l+Z h+O%P%Q%'#t$t$t$'#F+,#,#,#,#,#,#,#,#,#<#R%S%@ p.. r.7+8+) 8 ) 9+0+T%a+]+].i+< ",
",.v+6+w+x+U%y+> m.V%W%X%[#t$[#'#t$F+,#,#,#,#,#,#,#,#,#,#Y%Z%`%B.4+[ < 5.6.L+ .` Z : S@p+;+x+n@l@",
"K+L+T '.k+ &W.M+N+`..&+&@&#&$&F+F+,#,#,#,#,#,#,#,#%&&&*&=&-&F%} 4+4+k+' 8 =+/ B+B+*+;&j.1 i+H#>&",
" @..P.l+d ##0 .@|.N E.,&'&)&!&~&{&%&%&]&^&/&^&{&(&_&:&<&[&}&: 4.W.N.p.) Q+ .S+T+U+- |&; 6+= k+~.",
",@'@m.m.P.$@] ,.1 r.| | 1&C 2&3&4&5&6&7&8&9&0&a&b&c&d&e&f&P@] } C.& ..).] ! v+%@&@1 j Z.! ) w.g&",
"m.3+(@_@Z h&m+n+C.:@I#^+) =+[@i&j&p k&l&m&n&o&p&q& @8 r&L#! 4+| ) n+L+:.d 5+v+L+L+< s&) O ' z+t&",
"~+B+/ 2.=+u&v&y.I w&9@I S@x&y&z&A&B&C&m&D&E&F&p&G&H&M.I&z%g J&g K&K&k L&E |@z%@.M&N&O&) B.1.B+&@",
"}@k@S+=+6+! B.l@m@n@C.!.4+j.p@0@ .j.n+; 1 #@'.P&U+t&$ G@!.W.a+O m.` 1 4.b@..:.5+P., [ 9+,.+.&@8.",
"C@m+r.|.6+] ^.W.W.D@' 0 8+z.6+,.Q&+.k@D.D.j+w+N+X@P.6.y+!.[ #@X.8 ! q@B.0 0 [ O } 4  @8 %@y#y#'."};
