/* XPM */
static char * floor48_xpm[] = {
"48 48 356 2",
"  	c #A1D527",
". 	c #A1D628",
"+ 	c #9FD429",
"@ 	c #9FD32A",
"# 	c #A1D429",
"$ 	c #A4D826",
"% 	c #A2D529",
"& 	c #9ED32C",
"* 	c #9CD12D",
"= 	c #A1D52B",
"- 	c #A8DC24",
"; 	c #A7DA25",
"> 	c #A5D826",
", 	c #A5D926",
"' 	c #9ED22C",
") 	c #A2D629",
"! 	c #A4D727",
"~ 	c #A3D62A",
"{ 	c #A7DA26",
"] 	c #A2D62A",
"^ 	c #A6DA26",
"/ 	c #ACDE22",
"( 	c #AADD24",
"_ 	c #ADE022",
": 	c #A9DC24",
"< 	c #A1D52A",
"[ 	c #9DD22D",
"} 	c #9DD12D",
"| 	c #9BD02E",
"1 	c #A3D728",
"2 	c #A1D528",
"3 	c #A2D528",
"4 	c #9BD12D",
"5 	c #9DD12C",
"6 	c #98CD30",
"7 	c #96CC31",
"8 	c #A8DB24",
"9 	c #94CA33",
"0 	c #9FD32B",
"a 	c #AADC22",
"b 	c #A7DA23",
"c 	c #A4D726",
"d 	c #A3D628",
"e 	c #A5D925",
"f 	c #9FD42A",
"g 	c #9AD02F",
"h 	c #9CD02F",
"i 	c #A2D52A",
"j 	c #A4D828",
"k 	c #A5D828",
"l 	c #A5D927",
"m 	c #A6D926",
"n 	c #A9DC23",
"o 	c #9DD32B",
"p 	c #A3D72B",
"q 	c #A6DA28",
"r 	c #A7DB25",
"s 	c #A0D42B",
"t 	c #A1D529",
"u 	c #A0D52A",
"v 	c #9DD22C",
"w 	c #9ED32B",
"x 	c #97CC31",
"y 	c #97CD31",
"z 	c #99CE2F",
"A 	c #99D02E",
"B 	c #A8DC23",
"C 	c #97CD30",
"D 	c #94C934",
"E 	c #95CB31",
"F 	c #ADE01E",
"G 	c #ABDD21",
"H 	c #ABDE21",
"I 	c #A8DC22",
"J 	c #A5D825",
"K 	c #A3D729",
"L 	c #A4D827",
"M 	c #A6D927",
"N 	c #A8DB25",
"O 	c #AADD22",
"P 	c #A5D727",
"Q 	c #99CE30",
"R 	c #ACDF23",
"S 	c #AEE021",
"T 	c #A2D728",
"U 	c #98CE31",
"V 	c #94CB34",
"W 	c #91C835",
"X 	c #98CF30",
"Y 	c #95CC32",
"Z 	c #A2D727",
"` 	c #A2D628",
" .	c #9ACF2E",
"..	c #8DC43A",
"+.	c #AADC24",
"@.	c #A9DB23",
"#.	c #A7DA24",
"$.	c #A7D924",
"%.	c #A6D826",
"&.	c #9FD32C",
"*.	c #A8DB23",
"=.	c #ADDF21",
"-.	c #ACDE21",
";.	c #AADD23",
">.	c #9FD42C",
",.	c #A1D629",
"'.	c #9ACF30",
").	c #B2E31E",
"!.	c #B0E11F",
"~.	c #A8DA26",
"{.	c #A5D928",
"].	c #A8DA24",
"^.	c #94CB33",
"/.	c #95CB33",
"(.	c #9ED32A",
"_.	c #A3D727",
":.	c #A2D627",
"<.	c #A1D42A",
"[.	c #9CD32C",
"}.	c #A9DC21",
"|.	c #A7D925",
"1.	c #9DD32C",
"2.	c #A4D728",
"3.	c #A0D529",
"4.	c #A0D42A",
"5.	c #99CF30",
"6.	c #ADDF20",
"7.	c #A2D62B",
"8.	c #99CF31",
"9.	c #9ED22D",
"0.	c #A9DC25",
"a.	c #ACDF22",
"b.	c #A3D72A",
"c.	c #ADDF22",
"d.	c #B2E31D",
"e.	c #AFE020",
"f.	c #95CC33",
"g.	c #93CA34",
"h.	c #A6D925",
"i.	c #A0D528",
"j.	c #9CD12C",
"k.	c #A6D824",
"l.	c #ADDF1F",
"m.	c #96CC32",
"n.	c #9CD22D",
"o.	c #ABDE22",
"p.	c #A3D629",
"q.	c #A9DB24",
"r.	c #A4D926",
"s.	c #96CD32",
"t.	c #98CE32",
"u.	c #A6DA27",
"v.	c #AFE120",
"w.	c #A3D828",
"x.	c #ACDF21",
"y.	c #AADC23",
"z.	c #A0D52B",
"A.	c #90C837",
"B.	c #9AD02E",
"C.	c #A4D628",
"D.	c #AEDF20",
"E.	c #9ED22A",
"F.	c #97CD32",
"G.	c #92C836",
"H.	c #95CB34",
"I.	c #95CC34",
"J.	c #99D030",
"K.	c #98CD31",
"L.	c #9CD12E",
"M.	c #9BD02F",
"N.	c #9FD32D",
"O.	c #ABDD23",
"P.	c #B1E31E",
"Q.	c #ACDE23",
"R.	c #A8DA25",
"S.	c #98CE30",
"T.	c #A5D827",
"U.	c #9BD02D",
"V.	c #9DD22E",
"W.	c #9CD12F",
"X.	c #96CC33",
"Y.	c #A0D42C",
"Z.	c #A7DB26",
"`.	c #B1E21F",
" +	c #ABDD22",
".+	c #A7DB24",
"++	c #A6DA25",
"@+	c #9BD12F",
"#+	c #99CE31",
"$+	c #93C935",
"%+	c #97CE31",
"&+	c #B0E220",
"*+	c #ABDE24",
"=+	c #9FD42B",
"-+	c #9BD12E",
";+	c #AEE020",
">+	c #91C837",
",+	c #8FC638",
"'+	c #9ACF2F",
")+	c #9ACE2F",
"!+	c #AFE11E",
"~+	c #B1E21E",
"{+	c #A8DB26",
"]+	c #A3D627",
"^+	c #ABDE20",
"/+	c #98CD32",
"(+	c #A7D926",
"_+	c #8EC638",
":+	c #B1E31D",
"<+	c #A9DD22",
"[+	c #AADD21",
"}+	c #97CC32",
"|+	c #9ED32D",
"1+	c #AFE11F",
"2+	c #AADB22",
"3+	c #90C637",
"4+	c #B2E41D",
"5+	c #B3E41D",
"6+	c #AFE121",
"7+	c #B2E31F",
"8+	c #9DD12E",
"9+	c #AADE23",
"0+	c #A0D32B",
"a+	c #AEDF1F",
"b+	c #96CB33",
"c+	c #B1E41D",
"d+	c #AADD25",
"e+	c #B0E21E",
"f+	c #A9DC22",
"g+	c #A6D825",
"h+	c #8FC637",
"i+	c #93CA35",
"j+	c #AFE01E",
"k+	c #91C935",
"l+	c #90C737",
"m+	c #B0E11E",
"n+	c #A0D52C",
"o+	c #9ED42B",
"p+	c #92C935",
"q+	c #ADE020",
"r+	c #A4D72A",
"s+	c #A9DD23",
"t+	c #ACDE20",
"u+	c #99CF2F",
"v+	c #99CF32",
"w+	c #93CA36",
"x+	c #AEE01F",
"y+	c #9DD22B",
"z+	c #95CB32",
"A+	c #92C835",
"B+	c #ADE01F",
"C+	c #ACDF20",
"D+	c #96CD34",
"E+	c #A5DA25",
"F+	c #97CD2F",
"G+	c #8FC536",
"H+	c #8EC537",
"I+	c #92C734",
"J+	c #94CB32",
"K+	c #B0E11D",
"L+	c #95CA34",
"M+	c #8FC63A",
"N+	c #90C738",
"O+	c #ADDE21",
"P+	c #A0D428",
"Q+	c #9AD02C",
"R+	c #94C932",
"S+	c #92C833",
"T+	c #ACDD21",
"U+	c #97CE30",
"V+	c #9ED22B",
"W+	c #9ED12C",
"X+	c #ACDD22",
"Y+	c #A3D726",
"Z+	c #A0D32A",
"`+	c #A3D825",
" @	c #A0D429",
".@	c #94CC33",
"+@	c #94CA34",
"@@	c #9CD22C",
"#@	c #A4D829",
"$@	c #A7DA27",
"%@	c #A8DB22",
"&@	c #8DC539",
"*@	c #A3D827",
"=@	c #97CD33",
"-@	c #9AD030",
";@	c #B0E120",
">@	c #ACDF1F",
",@	c #9BCF2D",
"'@	c #AFE01F",
")@	c #92C936",
"!@	c #AFE21E",
"~@	c #89C23E",
"{@	c #A9DB22",
"]@	c #99CF2D",
"^@	c #9BD02C",
"/@	c #9AD12D",
"(@	c #8AC33C",
"_@	c #8BC33B",
":@	c #8AC23C",
"<@	c #8CC439",
"[@	c #90C836",
"}@	c #99CE2D",
"|@	c #90C736",
"1@	c #A8D924",
"2@	c #ADE021",
"3@	c #AADE21",
"4@	c #A4D825",
"5@	c #94C933",
"6@	c #91C836",
"7@	c #98CF31",
"8@	c #9DD12A",
"9@	c #9BD22B",
"0@	c #9DD12B",
"a@	c #A7DB23",
"b@	c #A6DA24",
"c@	c #9BCF2F",
"d@	c #A3D826",
"e@	c #AEE11E",
"f@	c #AFE11D",
"g@	c #AADC20",
"h@	c #93CB34",
"i@	c #A1D42B",
"j@	c #AEE11F",
"k@	c #92CA35",
"l@	c #9FD22A",
"m@	c #AEE01D",
"n@	c #94CA35",
"o@	c #AADE22",
"p@	c #A1D627",
"q@	c #A4D729",
"r@	c #93CA33",
"s@	c #92C934",
"t@	c #AADC21",
"u@	c #9FD22B",
"v@	c #ABDC22",
"w@	c #ACDE1F",
"x@	c #92C937",
"y@	c #91C936",
"z@	c #96CD33",
"A@	c #8FC737",
"B@	c #8BC43A",
"C@	c #8FC738",
"D@	c #97CC33",
"E@	c #98CE2F",
"F@	c #96CD31",
"G@	c #ACDD20",
"H@	c #A6D924",
"I@	c #A4D927",
"J@	c #AEDF21",
"K@	c #94CC34",
"L@	c #A8DD22",
"M@	c #9BD030",
"N@	c #B0E21D",
"O@	c #B1E21D",
"  . + @ # $ % & * = - ; > , ' ) > ! ~ { ] ^ / ( _ : < [ } | & ) 1 2 3 @ @ | 4 5 6 7 2 8 * 9 + 0 ",
"> a b c d e f g h i j k l m < < 8 n : ^ o f = p q ] r ) s & t u v w 2 x y w 6 y z A 2 B w C D E ",
"F G H I J K 5 | * i L M { N u O n P { l f Q ) ( R S l [ < < 1 j 1 T U V W X Y V y U w $ Z `  ...",
"+.@.#.$.%.) s &.t *.L { =.) 1 -.;.K = >.K ,.'.N ).!.m < ` m ~.{.].[ U ^./.v 6 (.w _.:.<.[.` }.' ",
"|.1._.> $ > 2.1 3.4.5.j 6., K ; - 2.7.8.9.0.a.b.c.d.e.4.<.8 1 [ s f.Y 5.' 4.g.* h.a G i.j.k.l.l.",
":.0 4 m.m.` ,.l u n.s K o.< p.q.r.< s.t.>.u.v.v.w.;.-.% _.x.y.z.g A.5.% y.; g.B.> r $ t | C.6.D.",
"2 E.,.F.* ) Q Q G.H.I.J.H.U [ X K.& y L.M.N.O.P.Q.s m ) ! R.{ [ F.Q S.T.6._.g.w B.U & K u h.H ;.",
"v . _.U.'.) 8 ) V.W.X.X.F.X M.< h.4.& T.= Y.Z.`.v. +1 & 4.p.! M.M.> >.L.] ` u .+L p.T.1 & u ++q.",
"S.[ < &.t n N M L : [ @+g #+$+%+< B.2./ =./ x.&+*+: -.2.0 =+< M.l o.;.9.#+n.-+> ]. +G H 2.` 0 v ",
"S.S.L.' 8 y./ ;+;+x.z.m 1 M.>+,+'+)+n !+~+d.=./ {+q.++t 4.< 1 ` e n G j L.'.m.]+^+o.q.8 n.3.g /+",
"m.f.v ) (+N a.P.~+- ] ; ;.= L.V _+Y t =.:+d.`.v.Q.K f N.t l <+h.=+u h..+d * 0 [+@.B , &.m.}+=+|+",
"5.& u T ] ! o.v.1+1 j K ! ) |.2+B.3+Q [  +4+5+6+7+S q.8+& T -.9+f 0+].].h.2.] l 1 _.| | [ t n 6.",
") ++n ` d T.o.n n < ] ) w '  +a+J C b+f.9.S c+d+v.e+Z S.H.v ; 1+].R.f+g+L h.p.++5.h+i+Q ) y.e+j+",
"h.h.T.. v f ; n x.- 1 ) 4.#.;+1+> s.t &.U = 8 b.O.=.8.k+$+C _.D.D.;+/ $.y.].) > y l+,+y [ : m+).",
"].M 1 s K.u ` T.h., [ V.l O 1+=.L.4.@ 4.& F.V.Y.n+j U F.o+Q g #.j+-.a.y.;.! 4.%+p+$+5.U S.m q+m+",
"8 ! o+4.0 0 [ w } 4 =+8 v.!.!.j | [ S.f 8 K F.t.r+W.8.-+r m { s+t+p._.@.;.] Y m.m.u+' 0 '.2.;.l ",
"n m | u < B.g U '+o 3.*.`.5+v.: O.-.,.u L N K v+w+i+s.> O.n x+x+f+t ! .+].f 9 s.g & [ u ) L.1 =+",
"q.N T 3 y+z+p+A+K.[ > 8 &+B+ +C+`.:+, =+ +1 &.|+D+Y '.! E+0 D.L 8 p.%.Z z.w [ ,.) ' * ++H ;.j ++",
"U.4.(.+ F+G+H+I+J+F+v ) ++{ 8 ( !.K+4.[ d ++| L+M+N+p+,+X.U f.j N < =.v H.u >  +f '.[ : O+;.L ) ",
"].2 P+Q+7 R+E S+w t * 8 ; >.1 n =.m % [ T.0 _.& g T.h.w S.O ;+N g ) T+*.1 { ; O h.U+'+r ;.K ] ] ",
"_.}.b V+6 x W+` 2.e ' h.1 2.m h.K.G 1 U.% : : H ) 8 8 % './.-.N [ u s 9.& -+: 1+q.; n ;.X+/ - M ",
"Y+P+J d v Z+c _.n .+& `+K -+2.M. @; .@+@@@z.L.#@$@ +4.* o t u+5.}+[ -+s., ;+e.8 -.@.l.e.;+;+ +^ ",
"J 4.* T ; * 0 t [+%@* z 3 d | u+T.w v f 2.1 K  +q+x+4 S.| u & }+y m.&@h+* 6.*..+` w a 1+!.x.q+: ",
"x.*@L.W. +) z.& L c 0 z } ^.F.S./.y [ =@) { +.=.e+=.m 9.M.U -@&.{ ] >+U & 4 i+L r u ++P.;@;@P.{ ",
"!+H >@>.V.- b y g.y+@ t , ,@5 w /+M.L 5.9.O+v.'@~+>.i+f.) : 8 N b.t.)@5.!@6.0 1 { ++r N x.`.`.~@",
"e+6.d {@4.& @ ]@^.u+^@2 Y+6 ^.p+7 | m.6 s ;+x+f+k g V /.[ '@=.=+U+U  ./@-.-.h.| =+m =+^ / !.] (@",
"8 -+5.< * _@:@_@<@z+[@}@V+| % =+m B.|@k+A.1@e # & Z y <.L o.: L.U f.| 3.O+;+y.=+5.=+>.N r 2@Y.U ",
"& T.a X+3@4@7 k+5@` S.p+h+6 C+6.2 | z _+&@9 6@f.< ` z d 2.; 1 &.Q )@U =+K & V.-@U L.1 u.0.l m 7@",
"L ; G ^+3@< 8@9@9 p+N+V K.0@!+0+v a@x+e m.p+(.h.0 l.! b@}.;+s++.) S.c@d@: n e@f@a >.) =.-.D.: L.",
"` J ].n h.0 # $.z &@..@@g@L B.d a j+e+8 ! h@y >.}+*.q.4 2+e@q.j m i@0+)@'+=.j@e+f+|+[ N ;+e+k@8 ",
"w f l@3 _.+ j.u+/.i+J+ .m@%.C n@M.1+o@*.Y+@@p@L.S.:.V+y <  +1 q@m O *@' ) 6.1+=.T.5.M..+e.=.1 n ",
"* ` y+ @$  .+@r@s@y (.` a@^@ @u+V ;.; m t@u@9 V 8.0 z+f.4.L @.O  +3.4.% r H =.n < =+1 8  +< -+v@",
"1 2 3 @ @ | 4 5 6 7 2 8 * 9 + 0 Q  .M.t w@4.l+x@X.K.z+y@:.4.n !   . + @ # $ % & * = - ; > , ' ) ",
"v w 2 x y w 6 y z A 2 B w C D E y+*@I f+!+=+,+z@H./.z+A@@ f .+$.> a b c d e f g h i j k l m < < ",
"1 T U V W X Y V y U w $ Z `  ...'+3.u+< L+l+B@s.N+C@p+X.S.y+1 ;.F G H I J K 5 | * i L M { N u O ",
"].[ U ^./.v 6 (.w _.:.<.[.` }.' u+_.x+a+^+y k@5.D@l+S.% (.* '+; +.@.#.$.%.) s &.t *.L { =.) 1 -.",
"s f.Y 5.' 4.g.* h.a G i.j.k.l.l.h.'+_.O @.E@w [ s j.f d v F@b@G@|.1._.> $ > 2.1 3.4.5.j 6., K ; ",
"g A.5.% y.; g.B.> r $ t | C.6.D.=.2.5.` 1 S.m ) 1 3@G |.* d f H@:.0 4 m.m.` ,.l u n.s K o.< p.q.",
"F.Q S.T.6._.g.w B.U & K u h.H ;.h.I@' ^.X.H._.T } T+G ,.Z _.& 3 2 E.,.F.* ) Q Q G.H.I.J.H.U [ X ",
"M.> >.L.] ` u .+L p.T.1 & u ++q.; H 1 f.H.i ; 4.t J@6.C+a+; ) @ v . _.U.'.) 8 ) V.W.X.X.F.X M.< ",
"l o.;.9.#+n.-+> ]. +G H 2.` 0 v 3.) M.D@F.X.b+1 =.: 4.,.< 2.2.4.S.[ < &.t n N M L : [ @+g #+$+%+",
"e n G j L.'.m.]+^+o.q.8 n.3.g /+g 4.* g w H.K@N y.V  +=.K+p.& } S.S.L.' 8 y./ ;+;+x.z.m 1 M.>+,+",
"=+u h..+d * 0 [+@.B , &.m.}+=+|+W.V F.&., L@2.M@=.~+d.4+d.=.: s m.f.v ) (+N a.P.~+- ] ; ;.= L.V ",
"f 0+].].h.2.] l 1 _.| | [ t n 6.q.& g u O 6.N@^ -@; e+4+d.O.] } 5.& u T ] ! o.v.1+1 j K ! ) |.2+",
"].R.f+g+L h.p.++5.h+i+Q ) y.e+j+;+n =+'+) !+t+~+: =+8 O@!+! S.| ) ++n ` d T.o.n n < ] ) w '  +a+",
"D.;+/ $.y.].) > y l+,+y [ : m+).'@; j ) < *.C+O@:+q.4. +; g f.g h.h.T.. v f ; n x.- 1 ) 4.#.;+1+",
"j+-.a.y.;.! 4.%+p+$+5.U S.m q+m+N m ++; 1 |+j N@~+a+$ '+U m.X.w ].M 1 s K.u ` T.h., [ V.l O 1+=.",
"t+p._.@.;.] Y m.m.u+' 0 '.2.;.l I@O -.6.6.>.9.^+B+h.t -+U [ |+,.8 ! o+4.0 0 [ w } 4 =+8 v.!.!.j "};
