/* XPM */
static char * ichigo48_2_L_xpm[] = {
"48 48 309 2",
"  	c #A1D527",
". 	c #A1D628",
"+ 	c #9FD429",
"@ 	c #9FD32A",
"# 	c #A1D429",
"$ 	c #A4D826",
"% 	c #A2D529",
"& 	c #9ED32C",
"* 	c #9CD12D",
"= 	c #A1D52B",
"- 	c #A8DC24",
"; 	c #A7DA25",
"> 	c #A5D826",
", 	c #A5D926",
"' 	c #9ED22C",
") 	c #A2D629",
"! 	c #A4D727",
"~ 	c #A3D62A",
"{ 	c #A7DA26",
"] 	c #A2D62A",
"^ 	c #A6DA26",
"/ 	c #ACDE22",
"( 	c #AADD24",
"_ 	c #ADE022",
": 	c #A9DC24",
"< 	c #A1D52A",
"[ 	c #9DD22D",
"} 	c #9DD12D",
"| 	c #9BD02E",
"1 	c #A3D728",
"2 	c #A1D528",
"3 	c #A2D528",
"4 	c #9BD12D",
"5 	c #9DD12C",
"6 	c #98CD30",
"7 	c #96CC31",
"8 	c #A8DB24",
"9 	c #94CA33",
"0 	c #9FD32B",
"a 	c #AADC22",
"b 	c #A7DA23",
"c 	c #A4D726",
"d 	c #A3D628",
"e 	c #A5D925",
"f 	c #9FD42A",
"g 	c #9AD02F",
"h 	c #9CD02F",
"i 	c #A2D52A",
"j 	c #A4D828",
"k 	c #A5D828",
"l 	c #A5D927",
"m 	c #A6D926",
"n 	c #A9DC23",
"o 	c #9DD32B",
"p 	c #A3D72B",
"q 	c #A6DA28",
"r 	c #A7DB25",
"s 	c #A0D42B",
"t 	c #A1D529",
"u 	c #A0D52A",
"v 	c #9DD22C",
"w 	c #9ED32B",
"x 	c #97CC31",
"y 	c #97CD31",
"z 	c #99CE2F",
"A 	c #99D02E",
"B 	c #A8DC23",
"C 	c #97CD30",
"D 	c #94C934",
"E 	c #95CB31",
"F 	c #ADE01E",
"G 	c #ABDD21",
"H 	c #ABDE21",
"I 	c #A8DC22",
"J 	c #A5D825",
"K 	c #A3D729",
"L 	c #A4D827",
"M 	c #A6D927",
"N 	c #A8DB25",
"O 	c #AADD22",
"P 	c #A5D727",
"Q 	c #99CE30",
"R 	c #ACDF23",
"S 	c #AEE021",
"T 	c #A2D728",
"U 	c #98CE31",
"V 	c #94CB34",
"W 	c #91C835",
"X 	c #98CF30",
"Y 	c #95CC32",
"Z 	c #A2D727",
"` 	c #A2D628",
" .	c #9ACF2E",
"..	c #8DC43A",
"+.	c #AADC24",
"@.	c #A9DB23",
"#.	c #A7DA24",
"$.	c #A7D924",
"%.	c #A6D826",
"&.	c #9FD32C",
"*.	c #A8DB23",
"=.	c #ADDF21",
"-.	c #ACDE21",
";.	c #AADD23",
">.	c #9FD42C",
",.	c #A1D629",
"'.	c #9ACF30",
").	c #B2E31E",
"!.	c #B0E11F",
"~.	c #A8DA26",
"{.	c #A5D928",
"].	c #A8DA24",
"^.	c #94CB33",
"/.	c #95CB33",
"(.	c #9ED32A",
"_.	c #A3D727",
":.	c #A2D627",
"<.	c #A1D42A",
"[.	c #9CD32C",
"}.	c #A9DC21",
"|.	c #A7D925",
"1.	c #9DD32C",
"2.	c #A4D728",
"3.	c #A0D529",
"4.	c #A0D42A",
"5.	c #99CF30",
"6.	c #ADDF20",
"7.	c #E87800",
"8.	c #99CF31",
"9.	c #B05000",
"0.	c #A3D72A",
"a.	c #ADDF22",
"b.	c #B2E31D",
"c.	c #AFE020",
"d.	c #95CC33",
"e.	c #93CA34",
"f.	c #A6D925",
"g.	c #A0D528",
"h.	c #9CD12C",
"i.	c #A6D824",
"j.	c #ADDF1F",
"k.	c #96CC32",
"l.	c #9CD22D",
"m.	c #ABDE22",
"n.	c #A3D629",
"o.	c #A9DB24",
"p.	c #F8A848",
"q.	c #ACDF21",
"r.	c #AADC23",
"s.	c #A0D52B",
"t.	c #90C837",
"u.	c #9AD02E",
"v.	c #A4D628",
"w.	c #AEDF20",
"x.	c #9ED22A",
"y.	c #97CD32",
"z.	c #92C836",
"A.	c #95CB34",
"B.	c #95CC34",
"C.	c #99D030",
"D.	c #A8DA25",
"E.	c #98CE30",
"F.	c #A5D827",
"G.	c #9BD02D",
"H.	c #9DD22E",
"I.	c #9CD12F",
"J.	c #96CC33",
"K.	c #9BD02F",
"L.	c #9CD12E",
"M.	c #A7DB24",
"N.	c #A6DA25",
"O.	c #9BD12F",
"P.	c #9FD42B",
"Q.	c #9ED22D",
"R.	c #99CE31",
"S.	c #9BD12E",
"T.	c #ABDD22",
"U.	c #AEE020",
"V.	c #A3D627",
"W.	c #ABDE20",
"X.	c #98CD32",
"Y.	c #A7D926",
"Z.	c #ACDF22",
"`.	c #B1E31E",
" +	c #B1E21E",
".+	c #A9DD22",
"++	c #AADD21",
"@+	c #97CC32",
"#+	c #9ED32D",
"$+	c #AFE120",
"%+	c #AFE11F",
"&+	c #AADE23",
"*+	c #A0D32B",
"=+	c #A9DC22",
"-+	c #A6D825",
";+	c #8FC637",
">+	c #93CA35",
",+	c #B0E21E",
"'+	c #AFE01E",
")+	c #584028",
"!+	c #90C737",
"~+	c #8FC638",
"{+	c #B0E11E",
"]+	c #98CD31",
"^+	c #C08870",
"/+	c #E0B898",
"(+	c #F8E0B8",
"_+	c #97CE31",
":+	c #92C935",
"<+	c #93C935",
"[+	c #ADE020",
"}+	c #9ED42B",
"|+	c #080808",
"1+	c #A9DD23",
"2+	c #ACDE20",
"3+	c #99CF2F",
"4+	c #9ACF2F",
"5+	c #B1E21F",
"6+	c #101028",
"7+	c #ABDD23",
"8+	c #AEE01F",
"9+	c #96CD32",
"0+	c #9DD22B",
"a+	c #95CB32",
"b+	c #92C835",
"c+	c #B0E220",
"d+	c #ADE01F",
"e+	c #282830",
"f+	c #B8B8B8",
"g+	c #A5DA25",
"h+	c #97CD2F",
"i+	c #8FC536",
"j+	c #8EC537",
"k+	c #92C734",
"l+	c #94CB32",
"m+	c #F0F0F0",
"n+	c #ADDE21",
"o+	c #A0D428",
"p+	c #9AD02C",
"q+	c #94C932",
"r+	c #92C833",
"s+	c #ACDD21",
"t+	c #97CE30",
"u+	c #9ED22B",
"v+	c #9ED12C",
"w+	c #ACDD22",
"x+	c #A3D726",
"y+	c #A0D32A",
"z+	c #A3D825",
"A+	c #808080",
"B+	c #A8DB22",
"C+	c #A3D827",
"D+	c #9AD030",
"E+	c #B0E120",
"F+	c #AFE11E",
"G+	c #ACDF1F",
"H+	c #AFE21E",
"I+	c #89C23E",
"J+	c #A9DB22",
"K+	c #99CF2D",
"L+	c #9BD02C",
"M+	c #AFE01F",
"N+	c #9AD12D",
"O+	c #8AC33C",
"P+	c #8BC33B",
"Q+	c #8AC23C",
"R+	c #8CC439",
"S+	c #90C836",
"T+	c #ADE021",
"U+	c #A0D42C",
"V+	c #AADE21",
"W+	c #A4D825",
"X+	c #91C935",
"Y+	c #94C933",
"Z+	c #92C936",
"`+	c #A6DA27",
" @	c #A9DC25",
".@	c #98CF31",
"+@	c #9DD12A",
"@@	c #9BD22B",
"#@	c #9BCF2F",
"$@	c #A3D826",
"%@	c #AEE11E",
"&@	c #AFE11D",
"*@	c #8DC539",
"=@	c #A1D42B",
"-@	c #AEE11F",
";@	c #92CA35",
">@	c #9FD22A",
",@	c #A4D729",
"'@	c #A0D429",
")@	c #94CA34",
"!@	c #93CA33",
"~@	c #92C934",
"{@	c #ABDC22",
"]@	c #96CD31",
"^@	c #A6DA24",
"/@	c #ACDD20",
"(@	c #A6D924",
"_@	c #381800",
":@	c #91C837",
"<@	c #B2E41D",
"[@	c #AADB22",
"}@	c #B1E21D",
"|@	c #AEDF1F",
"1@	c #ACDF20",
"2@	c #B1E31D",
"3@	c #B0E21D",
"4@	c #A4D927",
"  . + @ # $ % & * = - ; > , ' ) > ! ~ { ] ^ / ( _ : < [ } | & ) 1 2 3 @ @ | 4 5 6 7 2 8 * 9 + 0 ",
"> a b c d e f g h i j k l m < < 8 n : ^ o f = p q ] r ) s & t u v w 2 x y w 6 y z A 2 B w C D E ",
"F G H I J K 5 | * i L M { N u O n P { l f Q ) ( R S l [ < < 1 j 1 T U V W X Y V y U w $ Z `  ...",
"+.@.#.$.%.) s &.t *.L { =.) 1 -.;.K = >.K ,.'.N ).!.m < ` m ~.{.].[ U ^./.v 6 (.w _.:.<.[.` }.' ",
"|.1._.> $ > 2.1 3.4.5.j 6., K ; - 7.7.8.9.7.9.0.a.b.c.4.<.8 1 [ s d.Y 5.' 4.e.* f.a G g.h.i.j.j.",
":.0 4 k.k.` ,.l u l.s K m.< n.o.9.p.p.9.9.7.p.9.9.;.-.% _.q.r.s.g t.5.% r.; e.u.> r $ t | v.6.w.",
"2 x.,.y.* ) Q Q z.A.B.C.A.U 7.9.7.p.p.p.7.p.p.7.7.9.m ) ! D.{ [ y.Q E.F.6._.e.w u.U & K u f.H ;.",
"v . _.G.'.) 8 ) H.I.J.J.y.9.9.p.p.7.p.p.p.p.p.p.p.7.9.9.4.n.! K.K.> >.L.] ` u M.L n.F.1 & u N.o.",
"E.[ < &.t n N M L : [ O.g 7.p.p.p.p.p.p.p.p.p.p.7.7.7.9.0 P.< K.l m.;.Q.R.l.S.> ].T.G H 2.` 0 v ",
"E.E.L.' 8 r./ U.U.q.s.m 1 9.7.p.p.p.p.p.p.p.p.p.p.p.p.7.4.< 1 ` e n G j L.'.k.V.W.m.o.8 l.3.g X.",
"k.d.v ) Y.N Z.`. +- ] ; 7.7.p.p.7.p.p.p.p.p.p.7.p.7.p.p.9.l .+f.P.u f.M.d * 0 ++@.B , &.k.@+P.#+",
"5.& u T ] ! m.$+%+1 j K 9.9.7.p.7.p.p.7.p.7.p.7.9.7.7.7.7.T -.&+f *+].].f.2.] l 1 _.| | [ t n 6.",
") N.n ` d F.m.n n < ] ) w 7.7.9.7.p.7.9.p.9.7.p.9.9.7.9.9.v ; %+].D.=+-+L f.n.N.5.;+>+Q ) r.,+'+",
"f.f.F.. v f ; n q.- 1 ) 4.7.7.)+9.7.9.)+7.9.7.p.9.9.9.7.9.C _.w.w.U./ $.r.].) > y !+~+y [ : {+).",
"].M 1 s ]+u ` F.f., [ H.l 9.9.^+/+9.^+(+9./+9.7.7.9.9.9.9.Q g #.'+-.Z.r.;.! 4._+:+<+5.U E.m [+{+",
"8 ! }+4.0 0 [ w } 4 P.8 $+9.)+|+/+^+(+(+/+^+^+9.7.9.9.9.9.m { 1+2+n._.@.;.] Y k.k.3+' 0 '.2.;.l ",
"n m | u < u.g U 4+o 3.*.5+)+/+6+/+/+^+)+|+|+/+9.9./+)+9.7+n 8+8+=+t ! M.].f 9 9+g & [ u ) L.1 P.",
"o.N T 3 0+a+:+b+]+[ > 8 c+d+)+e+(+/+^+6+f+|+/+)+9.(+)+! g+0 w.L 8 n.%.Z s.w [ ,.) ' * N.H ;.j N.",
"G.4.(.+ h+i+j+k+l+h+v ) N.{ )+/+(+(+/+e+m+(+/+^+/+)+9.~+J.U d.j N < =.v A.u > T.f '.[ : n+;.L ) ",
"].2 o+p+7 q+E r+w t * 8 ; >.1 )+/+(+(+(+/+/+^+)+)+9.f.w E.O U.N g ) s+*.1 { e+O f.t+4+r ;.K ] ] ",
"_.}.b u+6 x v+` 2.e ' f.1 2.|+6+)+^+^+^+^+)+)+|+6+8 8 % './.-.N [ u s Q.6+e+: %+o.; n ;.w+/ - M ",
"x+o+J d v y+c _.n M.& z+K |+6+e+6+)+)+)+)+)+A+|+6+T.4.* o t 3+5.@+[ S.6+6+A+c.8 -.@.j.c.U.U.T.^ ",
"J 4.* T ; * 0 t ++B+* z 3 e+e+6+e+6+A+m+/+)+f+6+6+6+4 E.| u & @+y k.6+e+A+6.*.M.` w a %+!.q.[+: ",
"q.C+L.I.T.) s.& L c 0 z e+e+e+6+e+e+6+6+m+^+f+e+|+6+m Q.K.U D+&.{ 6+e+A+& 4 >+L r u N.`.E+E+`.{ ",
"F+H G+>.H.- b y e.0+@ t e+e+e+|+6+e+e+e+6+m+f+e+|+>.>+d.) : 8 N 6+e+A+5.H+6.0 1 { N.r N q.5+5+I+",
",+6.d J+4.& @ K+^.3+L+e+e+e+6+|+6+e+e+e+e+6+A+e+|+g V /.[ M+=.6+e+A+ .N+-.-.f.| P.m P.^ / !.] O+",
"8 S.5.< * P+Q+P+R+a+S+e+e+e+6+|+6+e+e+e+e+e+e+e+|+Z y <.L m.6+e+A+d.| 3.n+U.r.P.5.P.>.N r T+U+U ",
"& F.a w+V+W+7 X+Y+` |+e+e+e+e+|+6+6+6+e+e+e+e+6+6+` z d 2.6+e+A+Q Z+U P.K & H.D+U L.1 `+ @l m .@",
"L ; G W.V+< +@@@9 :+|+e+e+e+e+e+|+6+6+6+e+e+A+6+6+e+(+6+6+e+A++.) E.#@$@: n %@&@a >.) =.-.w.: L.",
"` J ].n f.0 # $.z *@..6+e+e+e+e+|+6+e+e+e+6+A+e+6+6+6+6+e+A+o.j m =@*+Z+4+=.-@,+=+#+[ N U.,+;@8 ",
"w f >@3 _.+ h.3+/.>+l+6+e+f+m+m+f+e+e+e+6+A+f+A+e+6+6+e+A+e+1 ,@m O C+' ) 6.%+=.F.5.K.M.c.=.1 n ",
"* ` 0+'@$  .)@!@~@y (.|+f+^+/+/+^+e+e+e+6+A+6+f+e+e+6+6+e+6+@.O T.3.4.% r H =.n < P.1 8 T.< S.{@",
"1 2 3 @ @ | 4 5 6 7 2 A+^+/+(+(+/+e+e+6+f+m+6+f+m+6+6+^+6+4.n !   . + @ # $ % & * = - ; > , ' ) ",
"v w 2 x y w 6 y z A 2 6+)+^+/+/+^+e+6+6+f+m+e+A+m+6+6+6+@ f M.$.> a b c d e f g h i j k l m < < ",
"1 T U V W X Y V y U w 6+6+)+)+)+e+e+6+f+6+f+e+6+e+m+6+6+E.0+1 ;.F G H I J K 5 | * i L M { N u O ",
"].[ U ^./.v 6 (.w _.e+e+6+6+6+e+e+6+6+m+|+6+e+6+e+6+f+A+6+* 4+; +.@.#.$.%.) s &.t *.L { =.) 1 -.",
"s d.Y 5.' 4.e.* f.e+e+6+6+e+e+e+6+6+m+6+|+6+e+6+6+6+|+A+A+]@^@/@|.1._.> $ > 2.1 3.4.5.j 6., K ; ",
"g t.5.% r.; e.u.e+e+6+e+e+e+6+6+f+f+6+|+|+6+6+6+|+|+|+A+* d f (@:.0 4 k.k.` ,.l u l.s K m.< n.o.",
"y.Q E.F.6._.e.w 6+6+6+e+e+6+f+f+6+e+6+|+|+|+|+A+f+f+)+)+A+_.& 3 2 x.,.y.* ) Q Q z.A.B.C.A.U [ X ",
"K.> >.L.] ` u M.L 6+e+e+6+A+A+6+e+6+6+|+|+|+)+A+A+)+f+m+)+; ) @ v . _.G.'.) 8 ) H.I.J.J.y.X K.< ",
"l m.;.Q.R.l.S.> ].6+e+6+A+6+6+6+6+6+6+|+|+|+_@_@_@_@_@)+)+2.2.4.E.[ < &.t n N M L : [ O.g R.<+_+",
"e n G j L.'.k.V.W.6+6+A+|+|+|+|+|+|+|+|+|+|+|+|+|+|+|+|+|+n.& } E.E.L.' 8 r./ U.U.q.s.m 1 K.:@~+",
"P.u f.M.d * 0 ++@.B |+)+)+f+)+)+)+_@|+|+|+|+|+|+|+|+|+|+b.=.: s k.d.v ) Y.N Z.`. +- ] ; ;.= L.V ",
"f *+].].f.2.] l 1 _._@f+m+)+m+f+_@|+|+|+|+|+|+|+|+|+,+<@b.7+] } 5.& u T ] ! m.$+%+1 j K ! ) |.[@",
"].D.=+-+L f.n.N.5.;+>+Q )+)+)+_@|+|+|+|+|+|+|+ +: P.8 }@F+! E.| ) N.n ` d F.m.n n < ] ) w ' T.|@",
"w.U./ $.r.].) > y !+~+y [ : {+).M+; j ) < *.1@}@2@o.4.T.; g d.g f.f.F.. v f ; n q.- 1 ) 4.#.U.%+",
"'+-.Z.r.;.! 4._+:+<+5.U E.m [+{+N m N.; 1 #+j 3@ +|@$ 4+U k.J.w ].M 1 s ]+u ` F.f., [ H.l O %+=.",
"2+n._.@.;.] Y k.k.3+' 0 '.2.;.l 4@O -.6.6.>.Q.W.d+f.t S.U [ #+,.8 ! }+4.0 0 [ w } 4 P.8 $+!.!.j "};
