/* XPM */
static char * ichigo48_2_xpm[] = {
"48 48 806 2",
"  	c #A1D527",
". 	c #A1D628",
"+ 	c #9FD429",
"@ 	c #9FD32A",
"# 	c #A1D429",
"$ 	c #A4D826",
"% 	c #A2D529",
"& 	c #9ED32C",
"* 	c #9CD12D",
"= 	c #A1D52B",
"- 	c #A8DC24",
"; 	c #A7DA25",
"> 	c #A5D826",
", 	c #A5D926",
"' 	c #9ED22C",
") 	c #A2D629",
"! 	c #A4D727",
"~ 	c #A3D62A",
"{ 	c #A7DA26",
"] 	c #A2D62A",
"^ 	c #A6DA26",
"/ 	c #ACDE22",
"( 	c #AADD24",
"_ 	c #ADE022",
": 	c #A9DC24",
"< 	c #A1D52A",
"[ 	c #9DD22D",
"} 	c #9DD12D",
"| 	c #9BD02E",
"1 	c #A3D728",
"2 	c #A1D528",
"3 	c #A2D528",
"4 	c #9BD12D",
"5 	c #9DD12C",
"6 	c #98CD30",
"7 	c #96CC31",
"8 	c #A8DB24",
"9 	c #94CA33",
"0 	c #9FD32B",
"a 	c #AADC22",
"b 	c #A7DA23",
"c 	c #A4D726",
"d 	c #A3D628",
"e 	c #B5DF6E",
"f 	c #A5D64A",
"g 	c #A0D24B",
"h 	c #A2D24B",
"i 	c #A7D748",
"j 	c #A9DA47",
"k 	c #AADA47",
"l 	c #AADB47",
"m 	c #ABDB46",
"n 	c #ADDD45",
"o 	c #AEDE45",
"p 	c #ABDC46",
"q 	c #A3D549",
"r 	c #A7D74B",
"s 	c #ABDA54",
"t 	c #B3DE64",
"u 	c #AAD954",
"v 	c #ADDD48",
"w 	c #AAD953",
"x 	c #AED965",
"y 	c #A7D655",
"z 	c #A6D748",
"A 	c #A3D449",
"B 	c #A4D549",
"C 	c #A7D747",
"D 	c #9DCF4C",
"E 	c #9ECF4C",
"F 	c #A0D14D",
"G 	c #ACD771",
"H 	c #A8DC23",
"I 	c #9ED32B",
"J 	c #97CD30",
"K 	c #94C934",
"L 	c #95CB31",
"M 	c #ADE01E",
"N 	c #ABDD21",
"O 	c #ABDE21",
"P 	c #A8DC22",
"Q 	c #A5D825",
"R 	c #A9D94A",
"S 	c #A2D52A",
"T 	c #A4D827",
"U 	c #A6D927",
"V 	c #A8DB25",
"W 	c #A0D52A",
"X 	c #AADD22",
"Y 	c #A9DC23",
"Z 	c #A5D727",
"` 	c #A5D927",
" .	c #A0D42E",
"..	c #9CCF3E",
"+.	c #A4D733",
"@.	c #B3E05A",
"#.	c #ADC21C",
"$.	c #B7E359",
"%.	c #A6D932",
"&.	c #A9D65D",
"*.	c #A6B922",
"=.	c #ABD95B",
"-.	c #A3D72C",
";.	c #A4D828",
">.	c #A2D728",
",.	c #98CE31",
"'.	c #94CB34",
").	c #91C835",
"!.	c #98CF30",
"~.	c #95CC32",
"{.	c #97CD31",
"].	c #9FD14E",
"^.	c #A2D727",
"/.	c #A2D628",
"(.	c #9ACF2E",
"_.	c #8DC43A",
":.	c #AADC24",
"<.	c #A9DB23",
"[.	c #A7DA24",
"}.	c #A7D924",
"|.	c #A6D826",
"1.	c #A7D848",
"2.	c #A0D42B",
"3.	c #9FD32C",
"4.	c #A1D529",
"5.	c #A8DB23",
"6.	c #ADDF21",
"7.	c #ACDE21",
"8.	c #AADD23",
"9.	c #A3D729",
"0.	c #9FD42C",
"a.	c #A6D83F",
"b.	c #A5BF23",
"c.	c #B4DA82",
"d.	c #ACA718",
"e.	c #DF9508",
"f.	c #B0AC13",
"g.	c #BDE282",
"h.	c #C9AE1C",
"i.	c #DD900D",
"j.	c #ABAD1A",
"k.	c #ADDC48",
"l.	c #A7DA36",
"m.	c #A9DA2C",
"n.	c #94CB33",
"o.	c #95CB33",
"p.	c #9DD22C",
"q.	c #9ED32A",
"r.	c #A8D947",
"s.	c #A2D627",
"t.	c #A1D42A",
"u.	c #9CD32C",
"v.	c #A9DC21",
"w.	c #A7D925",
"x.	c #9DD32C",
"y.	c #A3D727",
"z.	c #AADA46",
"A.	c #A4D728",
"B.	c #A0D529",
"C.	c #A0D42A",
"D.	c #99CF30",
"E.	c #ADDF20",
"F.	c #A4D72C",
"G.	c #A4D735",
"H.	c #9ED148",
"I.	c #B0D96F",
"J.	c #AD9A14",
"K.	c #AF870D",
"L.	c #F2AD46",
"M.	c #E77B01",
"N.	c #B06904",
"O.	c #B0860B",
"P.	c #F6A947",
"Q.	c #AE8E10",
"R.	c #BEE189",
"S.	c #A2BB26",
"T.	c #A5D644",
"U.	c #96CC36",
"V.	c #93CA34",
"W.	c #A6D925",
"X.	c #AFDE44",
"Y.	c #A0D528",
"Z.	c #9CD12C",
"`.	c #A6D824",
" +	c #ADDF1F",
".+	c #96CC32",
"++	c #A7D847",
"@+	c #A1D629",
"#+	c #9CD22D",
"$+	c #ABDE22",
"%+	c #A3D629",
"&+	c #A9DB24",
"*+	c #A6DA34",
"=+	c #A6D744",
"-+	c #A6D368",
";+	c #A3A524",
">+	c #AB8B16",
",+	c #E38506",
"'+	c #F8A848",
")+	c #E87800",
"!+	c #F8A948",
"~+	c #E48504",
"{+	c #AF850D",
"]+	c #D0A418",
"^+	c #A9D667",
"/+	c #91C93C",
"(+	c #AADC23",
"_+	c #9AD02E",
":+	c #ACDD46",
"<+	c #A4D628",
"[+	c #AEDF20",
"}+	c #9ED22A",
"|+	c #97CD32",
"1+	c #99CE30",
"2+	c #92C836",
"3+	c #95CB34",
"4+	c #95CC34",
"5+	c #99D030",
"6+	c #9CCE41",
"7+	c #A3BC25",
"8+	c #A7911C",
"9+	c #AE6709",
"0+	c #E77A01",
"a+	c #F7A948",
"b+	c #AE6708",
"c+	c #A49F22",
"d+	c #A5D35D",
"e+	c #9ACF39",
"f+	c #A5D827",
"g+	c #9ED04C",
"h+	c #9BD02D",
"i+	c #9ACF30",
"j+	c #9DD22E",
"k+	c #9CD12F",
"l+	c #96CC33",
"m+	c #9BD02F",
"n+	c #A7D92D",
"o+	c #B8DD81",
"p+	c #AC8112",
"q+	c #F7A848",
"r+	c #DD8D10",
"s+	c #A8BC1F",
"t+	c #A2D53E",
"u+	c #9DD131",
"v+	c #A7DB24",
"w+	c #A8D848",
"x+	c #A6DA25",
"y+	c #98CE30",
"z+	c #9BD12F",
"A+	c #9AD02F",
"B+	c #99CE31",
"C+	c #93C935",
"D+	c #97CE31",
"E+	c #A5D642",
"F+	c #A4A621",
"G+	c #E38406",
"H+	c #E87901",
"I+	c #AD820F",
"J+	c #C3E688",
"K+	c #AFDF45",
"L+	c #9FD234",
"M+	c #9BD12E",
"N+	c #A8DA24",
"O+	c #B0DF44",
"P+	c #9CD12E",
"Q+	c #AFDE45",
"R+	c #AEE020",
"S+	c #ACDF21",
"T+	c #A0D52B",
"U+	c #A6D926",
"V+	c #91C837",
"W+	c #91C740",
"X+	c #A9D565",
"Y+	c #A98918",
"Z+	c #E38505",
"`+	c #D3A813",
" @	c #ACC51B",
".@	c #A7D93E",
"+@	c #A3D627",
"@@	c #ABDE20",
"#@	c #B0E044",
"$@	c #98CD32",
"%@	c #95CC33",
"&@	c #A7D926",
"*@	c #ADDD46",
"=@	c #ACDF22",
"-@	c #B1E31E",
";@	c #B1E21E",
">@	c #98CD46",
",@	c #99AD2E",
"'@	c #DC8C11",
")@	c #B05000",
"!@	c #AF6607",
"~@	c #A8A41C",
"{@	c #B0DC59",
"]@	c #A8DB30",
"^@	c #AADD21",
"/@	c #ADDE45",
"(@	c #97CC32",
"_@	c #9FD42B",
":@	c #9ED32D",
"<@	c #A9D947",
"[@	c #AFE120",
"}@	c #AFE11F",
"|@	c #ABDB2E",
"1@	c #A9D666",
"2@	c #A7841C",
"3@	c #B05402",
"4@	c #E87900",
"5@	c #DA9511",
"6@	c #B9DD82",
"7@	c #A9DA30",
"8@	c #ABDD22",
"9@	c #AFDF2C",
"0@	c #B2DD64",
"a@	c #A98818",
"b@	c #E77A02",
"c@	c #584028",
"d@	c #DF8F0A",
"e@	c #AABD1E",
"f@	c #ACDD38",
"g@	c #A6D825",
"h@	c #96C950",
"i@	c #93CA35",
"j@	c #B0E21E",
"k@	c #AFE01E",
"l@	c #A5D648",
"m@	c #B2E239",
"n@	c #A8BD1F",
"o@	c #AB7612",
"p@	c #B05201",
"q@	c #E0B898",
"r@	c #F8E0B8",
"s@	c #C08870",
"t@	c #B05501",
"u@	c #AF910E",
"v@	c #B9E462",
"w@	c #ADDE2E",
"x@	c #97CA50",
"y@	c #8FC638",
"z@	c #B0E11E",
"A@	c #B2E31E",
"B@	c #98CD31",
"C@	c #A6D74A",
"D@	c #A3D62C",
"E@	c #AEDF2E",
"F@	c #A7D55C",
"G@	c #A8A31C",
"H@	c #080808",
"I@	c #5A4628",
"J@	c #B09B0F",
"K@	c #B1E046",
"L@	c #ACDF27",
"M@	c #92C935",
"N@	c #9ACC4F",
"O@	c #ADE020",
"P@	c #9ED42B",
"Q@	c #A7D652",
"R@	c #A0D33F",
"S@	c #A0D435",
"T@	c #B0E11F",
"U@	c #9CD034",
"V@	c #ACD866",
"W@	c #101028",
"X@	c #DFB996",
"Y@	c #819825",
"Z@	c #9FD14B",
"`@	c #ADD770",
" #	c #87B72D",
".#	c #A4D35D",
"+#	c #9BCF35",
"@#	c #9DD32B",
"##	c #B1E21F",
"$#	c #B3E41D",
"%#	c #ABDD27",
"&#	c #B0DF42",
"*#	c #A8AB1D",
"=#	c #636028",
"-#	c #F7E0B7",
";#	c #B8B8B8",
">#	c #2B2E30",
",#	c #666327",
"'#	c #8CAD25",
")#	c #A6D743",
"!#	c #A4D72B",
"~#	c #9FD42A",
"{#	c #96CD32",
"]#	c #9DD22B",
"^#	c #A9D371",
"/#	c #77A333",
"(#	c #719B30",
"_#	c #A4D25D",
":#	c #9ED230",
"<#	c #B0E220",
"[#	c #ADE01F",
"}#	c #ACDF20",
"|#	c #B2E32B",
"1#	c #AFDD5B",
"2#	c #A8A31D",
"3#	c #656227",
"4#	c #E0B897",
"5#	c #F0F0F0",
"6#	c #282830",
"7#	c #DCBC92",
"8#	c #84A228",
"9#	c #B2DE5A",
"0#	c #A4D449",
"a#	c #97CD2F",
"b#	c #9ACA5A",
"c#	c #A0CC6A",
"d#	c #648632",
"e#	c #6D962D",
"f#	c #A4D25E",
"g#	c #B0E11D",
"h#	c #A1D42E",
"i#	c #AAA31A",
"j#	c #625D28",
"k#	c #6A762B",
"l#	c #BCE182",
"m#	c #A9DB30",
"n#	c #A0D14C",
"o#	c #ADDE21",
"p#	c #A0D428",
"q#	c #9AD02C",
"r#	c #9BCC4F",
"s#	c #9ACD46",
"t#	c #8AAD5F",
"u#	c #546D2F",
"v#	c #769D29",
"w#	c #A8D55D",
"x#	c #A8DB28",
"y#	c #9FD337",
"z#	c #BDE182",
"A#	c #536E29",
"B#	c #101508",
"C#	c #3A4C27",
"D#	c #799F1A",
"E#	c #A6D55E",
"F#	c #A3D62D",
"G#	c #ACDD21",
"H#	c #9DD04C",
"I#	c #9ACF2F",
"J#	c #A7DB25",
"K#	c #9ED22B",
"L#	c #9FD130",
"M#	c #ACDA5A",
"N#	c #93B360",
"O#	c #506A27",
"P#	c #749B2A",
"Q#	c #B0DD5A",
"R#	c #9FD243",
"S#	c #7BA329",
"T#	c #394A28",
"U#	c #808080",
"V#	c #3D5028",
"W#	c #729A20",
"X#	c #ABD95C",
"Y#	c #A2D535",
"Z#	c #9ED22D",
"`#	c #ACDC46",
" $	c #ACDD22",
".$	c #A3D726",
"+$	c #A6D548",
"@$	c #A3D72B",
"#$	c #B2DF58",
"$$	c #95B560",
"%$	c #526B2F",
"&$	c #789F27",
"*$	c #AEDB5C",
"=$	c #9CD131",
"-$	c #A0D429",
";$	c #94CC33",
">$	c #9BCD4E",
",$	c #65892A",
"'$	c #1E2728",
")$	c #2A2D30",
"!$	c #405130",
"~$	c #78A12B",
"{$	c #A1D348",
"]$	c #97CD35",
"^$	c #AFE020",
"/$	c #AEDD45",
"($	c #A2D34A",
"_$	c #AADD26",
":$	c #B2DE59",
"<$	c #8FAF61",
"[$	c #506930",
"}$	c #779D28",
"|$	c #AEDA5B",
"1$	c #9CD031",
"2$	c #99CF2F",
"3$	c #6B8D28",
"4$	c #1B2509",
"5$	c #2D3130",
"6$	c #5D7D31",
"7$	c #9FCC6B",
"8$	c #91C73F",
"9$	c #A3D827",
"0$	c #A4D72A",
"a$	c #AAD75D",
"b$	c #8DAD62",
"c$	c #526A2F",
"d$	c #6C952E",
"e$	c #A4D25F",
"f$	c #99CE33",
"g$	c #9CCF49",
"h$	c #7CA429",
"i$	c #384B0D",
"j$	c #42522F",
"k$	c #719B34",
"l$	c #9ED04A",
"m$	c #9FD330",
"n$	c #B0E120",
"o$	c #AFE11E",
"p$	c #ACDF1F",
"q$	c #A0D32E",
"r$	c #ACD95C",
"s$	c #94B460",
"t$	c #51692F",
"u$	c #739A2A",
"v$	c #A9D75D",
"w$	c #99CD35",
"x$	c #9ACF36",
"y$	c #658313",
"z$	c #2E3330",
"A$	c #5B7B32",
"B$	c #A8D567",
"C$	c #B0E22B",
"D$	c #89C23E",
"E$	c #A9DB22",
"F$	c #99CF2D",
"G$	c #9BD02C",
"H$	c #A2D52C",
"I$	c #AEDB5B",
"J$	c #8DAC62",
"K$	c #4E6731",
"L$	c #6B942F",
"M$	c #A3D15F",
"N$	c #A7D64D",
"O$	c #6E8F14",
"P$	c #405030",
"Q$	c #76A02B",
"R$	c #B0DF3F",
"S$	c #ACDE26",
"T$	c #8AC33C",
"U$	c #93C652",
"V$	c #8AC23C",
"W$	c #8BC33B",
"X$	c #8CC439",
"Y$	c #95CB32",
"Z$	c #90C836",
"`$	c #99CE2D",
" %	c #9FD22F",
".%	c #A7D55E",
"+%	c #92B161",
"@%	c #536C2F",
"#%	c #799F27",
"$%	c #98CA51",
"%%	c #99CC50",
"&%	c #A6D174",
"*%	c #627F27",
"=%	c #1B2228",
"-%	c #2F3530",
";%	c #678B19",
">%	c #B2E044",
",%	c #A5D649",
"'%	c #ADE021",
")%	c #A0D42C",
"!%	c #AADE21",
"~%	c #A9DA46",
"{%	c #91C935",
"]%	c #94C933",
"^%	c #8FC637",
"/%	c #99CD33",
"(%	c #B5E259",
"_%	c #98B760",
":%	c #51682F",
"<%	c #5B7B2A",
"[%	c #62852B",
"}%	c #D8D798",
"|%	c #577733",
"1%	c #314329",
"2%	c #678A1B",
"3%	c #A8D948",
"4%	c #9AD030",
"5%	c #A6DA27",
"6%	c #A9DC25",
"7%	c #98CF31",
"8%	c #9DD12A",
"9%	c #9BD22B",
"0%	c #90C738",
"a%	c #9DD12B",
"b%	c #B0E12B",
"c%	c #B9DD83",
"d%	c #889973",
"e%	c #303630",
"f%	c #1C2328",
"g%	c #192028",
"h%	c #364929",
"i%	c #7CA51C",
"j%	c #ADDD41",
"k%	c #A9DC27",
"l%	c #AEE11E",
"m%	c #AFE11D",
"n%	c #A5D549",
"o%	c #99CE2F",
"p%	c #8DC539",
"q%	c #9CD22C",
"r%	c #AADC20",
"s%	c #9FD244",
"t%	c #7DA428",
"u%	c #44542F",
"v%	c #5E7D29",
"w%	c #A3D069",
"x%	c #9CD038",
"y%	c #AEE11F",
"z%	c #A9DC22",
"A%	c #A4D54A",
"B%	c #92CA35",
"C%	c #9FD22A",
"D%	c #94CB32",
"E%	c #AEE01D",
"F%	c #A6D82A",
"G%	c #9CCF47",
"H%	c #729C30",
"I%	c #3A4E29",
"J%	c #B8B9B7",
"K%	c #688B18",
"L%	c #A4D44B",
"M%	c #9FD14C",
"N%	c #A0D14A",
"O%	c #94CA34",
"P%	c #93CA33",
"Q%	c #92C934",
"R%	c #A7DB23",
"S%	c #A2D533",
"T%	c #A5D45D",
"U%	c #719C2F",
"V%	c #648327",
"W%	c #BE926C",
"X%	c #C08A6F",
"Y%	c #8DA66A",
"Z%	c #ABDC22",
"`%	c #A1D24A",
" &	c #A0D32F",
".&	c #9ED045",
"+&	c #ADD771",
"@&	c #5A7A2A",
"#&	c #1B2128",
"$&	c #668928",
"%&	c #A5D54A",
"&&	c #A2D42D",
"*&	c #A7D749",
"=&	c #97CC31",
"-&	c #99D02E",
";&	c #9ED22F",
">&	c #B1DD66",
",&	c #628126",
"'&	c #1C2228",
")&	c #628127",
"!&	c #B1DC64",
"~&	c #A5D925",
"{&	c #9CD02F",
"]&	c #A5D828",
"^&	c #9ED14C",
"/&	c #8FC541",
"(&	c #A6D45D",
"_&	c #759D29",
":&	c #838A7B",
"<&	c #43522F",
"[&	c #7DA32A",
"}&	c #AFDC5A",
"|&	c #A3D72D",
"1&	c #A1D33E",
"2&	c #93BE4F",
"3&	c #8FA869",
"4&	c #858C7B",
"5&	c #161A28",
"6&	c #45562F",
"7&	c #7CA02B",
"8&	c #ADDA5C",
"9&	c #A1D42F",
"0&	c #A6D648",
"a&	c #AEDF28",
"b&	c #BEDE96",
"c&	c #899A73",
"d&	c #111608",
"e&	c #44552F",
"f&	c #7BA12B",
"g&	c #AEDB5A",
"h&	c #90C837",
"i&	c #B1E039",
"j&	c #8EB318",
"k&	c #8CA26E",
"l&	c #605929",
"m&	c #324529",
"n&	c #618128",
"o&	c #83AE2C",
"p&	c #A8DA3D",
"q&	c #A2D44A",
"r&	c #ABDE26",
"s&	c #AEDE40",
"t&	c #84A81A",
"u&	c #646128",
"v&	c #EFF0EF",
"w&	c #5A792A",
"x&	c #BDE18A",
"y&	c #86B52E",
"z&	c #9DD043",
"A&	c #9CCE4E",
"B&	c #AADB30",
"C&	c #B4DE64",
"D&	c #7A8C26",
"E&	c #381800",
"F&	c #62842B",
"G&	c #ABDC39",
"H&	c #A3D630",
"I&	c #A2D34B",
"J&	c #698B19",
"K&	c #1E290B",
"L&	c #698B28",
"M&	c #A8DB29",
"N&	c #9FD247",
"O&	c #7FA921",
"P&	c #5C7C19",
"Q&	c #34480F",
"R&	c #1A240A",
"S&	c #141C0A",
"T&	c #594328",
"U&	c #374B0F",
"V&	c #80A81B",
"W&	c #AEDD40",
"X&	c #ACDE27",
"Y&	c #B1E144",
"Z&	c #9ED23B",
"`&	c #9ACD4A",
" *	c #A7D368",
".*	c #79A121",
"+*	c #6A8D18",
"@*	c #628313",
"#*	c #374A0E",
"$*	c #1A230A",
"%*	c #181F09",
"&*	c #182009",
"**	c #182008",
"=*	c #3C2701",
"-*	c #EFF0EE",
";*	c #594528",
">*	c #EEEFEE",
",*	c #B5BBAF",
"'*	c #7B9D1B",
")*	c #B1DD5B",
"!*	c #A0D32B",
"~*	c #9BD032",
"{*	c #A4D63F",
"]*	c #AFDF44",
"^*	c #B8E362",
"/*	c #86AD16",
"(*	c #6B8E18",
"_*	c #62861D",
":*	c #6A8C17",
"<*	c #709113",
"[*	c #729312",
"}*	c #729212",
"|*	c #6D8E16",
"1*	c #6F8B17",
"2*	c #788E2A",
"3*	c #768D2B",
"4*	c #79912A",
"5*	c #7FA51E",
"6*	c #ACDB5A",
"7*	c #A3D62E",
"8*	c #AADB22",
"9*	c #A8DA25",
"0*	c #ACDB48",
"a*	c #AFE123",
"b*	c #AFDF3C",
"c*	c #B6E345",
"d*	c #AEDE47",
"e*	c #A5D64B",
"f*	c #ADDD47",
"g*	c #B4E345",
"h*	c #AAD949",
"i*	c #A2D34C",
"j*	c #A8D84A",
"k*	c #ACDC48",
"l*	c #ADDD3E",
"m*	c #A7D74A",
"n*	c #AEDF1F",
"o*	c #B8E06E",
"p*	c #A3D44A",
"q*	c #B4E243",
"r*	c #B6E443",
"s*	c #B3E143",
"t*	c #B1E146",
"u*	c #B6E445",
"v*	c #AEDD47",
"w*	c #A6D64A",
"x*	c #B0DF47",
"y*	c #A1D34D",
"z*	c #9CCF4F",
"A*	c #ABDA49",
"B*	c #B8E16E",
"C*	c #B0E21D",
"D*	c #ACDE20",
"E*	c #A4D927",
"  . + @ # $ % & * = - ; > , ' ) > ! ~ { ] ^ / ( _ : < [ } | & ) 1 2 3 @ @ | 4 5 6 7 2 8 * 9 + 0 ",
"> a b c d e f g h i j k l m i i n o o p q f r s t u v w x y i z A B C D D B E D F G 2 H I J K L ",
"M N O P Q R 5 | * S T U { V W X Y Z { `  ...+.@.#.$.%.&.*.=.-.;.1 >.,.'.).!.~.'.{.].I $ ^./.(._.",
":.<.[.}.|.1.2.3.4.5.T { 6.) 1 7.8.9.= 0.a.b.c.d.e.f.g.h.i.j.k.l.m.[ ,.n.o.p.6 q.I r.s.t.u./.v.' ",
"w.x.y.> $ z.A.1 B.C.D.;.E., 9.; - F.G.H.I.J.K.L.M.N.O.L.P.Q.R.S.T.U.~.D.' C.V.* W.X.N Y.Z.`. + +",
"s.0 4 .+.+++@+` W #+2.9.$+< %+&+*+=+-+;+>+,+M.'+'+)+!+'+'+~+{+]+^+/+D.% (+; V._+> :+$ 4.| <+E.[+",
"2 }+@+|+* 1.1+1+2+3+4+5+3+,.[ !.6+7+8+9+0+'+'+'+'+'+'+'+)+'+a+b+c+d+e+f+E.y.V.I _+g+& 9.W W.O 8.",
"p.. y.h+i+1.8 ) j+k+l+l+|+!.m+< n+o+p+0+)+)+'+'+'+'+'+'+'+'+'+q+r+s+t+u+] /.W v+T w+f+1 & W x+&+",
"y+[ < 3.4.o V U T : [ z+A+B+C+D+E+F+G+'+'+'+'+'+'+'+'+'+'+'+'+H+I+J+K+L+B+#+M+> N+O+N O A./.0 p.",
"y+y+P+' 8 Q+/ R+R+S+T+U+1 m+V+W+X+Y+a+'+)+'+)+'+'+'+'+'+'+)+'+'+Z+`+ @.@P+i+.++@@@#@&+8 #+B.A+$@",
".+%@p.) &@*@=@-@;@- ] ; 8.= P+>@,@'@H+)+)+)@)+'+)+'+)+'+'+)+'+)+!@~@{@]@d * 0 ^@<./@, 3..+(@_@:@",
"D.& W >.] <@$+[@}@1 ;.9.! ) w.|@1@2@3@)+)@)@'+)+)@'+)@)+'+)+)@4@5@6@7@N+W.A.] ` 1 r.| | [ 4.Y E.",
") x+Y /.d k $+Y Y < ] ) I ' 8@9@0@a@b@)@)@)@'+)+)@)+c@)@)+)@c@4@d@e@f@g@T W.%+x+D.h@i@1+) (+j@k@",
"W.W.f+. p.l@; Y S+- 1 ) C.[.R+m@n@o@p@)@)@)+)+)@q@)@r@s@)@q@s@t@u@v@w@}.(+N+) > {.x@y@{.[ : z@A@",
"N+U 1 2.B@C@D@f+W., [ j+` X }@E@F@G@!@)@)@)+)@s@s@q@r@r@s@q@H@I@J@K@L@(+8.! C.D+M@N@D.,.y+U+O@z@",
"8 ! P@C.0 Q@R@S@} 4 _@8 [@T@T@;.U@V@Y+I@q@)@)@q@H@H@c@s@q@q@W@X@Y@w+y.<.8.] ~..+.+Z@' 0 i+A.8.` ",
"Y U+| W < `@ #.#+#@#B.5.##$#[@: %#&#*#=#-#)@c@q@H@;#W@s@q@r@>#,#'#)#!#v+N+~#9 {#A+B [ W ) P+1 _@",
"&+V >.3 ]#^#/#(#_#:#> 8 <#[#8@}###|#1#2#3#4#s@q@r@5#6#q@r@r@7#8#9#+.|.^.T+I [ @+) 0#* x+O 8.;.x+",
"h+C.q.+ a#b#c#d#e#f#:#) x+{ 8 ( T@g#h#&.i#j#c@s@q@q@r@r@r@q@k#l#m#< 6.p.3+W > 8@~#n#[ : o#8.T ) ",
"N+2 p#q#7 r#s#t#u#v#w#x#; 0.1 Y 6.U+% y#z#A#B#c@c@s@s@s@s@c@C#D#E#F#G#5.1 { ; X W.H#I#J#8.9.] ] ",
"y.v.b K#6 D L#M#N#O#P#Q#-.A.U+W.B@N 1 R#S#T#H@U#c@c@c@c@c@W@>#V#W#X#Y#Z#& M+: }@&+`#Y 8. $/ - U ",
".$p#Q d p.+$c @$#$$$%$&$*$=$A.m+-$; ;$>$,$'$W@;#c@q@5#U#W@6#W@)$!$~${$]$, R+^$8 7./$ +^$R+R+8@^ ",
"Q C.* >.; ($0 4._$:$<$[$}$|$1$2$f+I p.l@3$4$6#;#s@5#W@W@6#6#W@6#5$6$7$8$* E.5.v+/.B a }@T@S+O@: ",
"S+9$P+k+8@1.T+& T 0$a$b$c$d$e$f$o.{.:#g$h$i$6#;#5#W@6#6#6#W@H@6#6#j$k$l$m$4 i@T J#z x+-@n$n$-@{ ",
"o$O p$0.j+/@b {.V.]#q$r$s$t$u$v$w$m+T x$V@y$z$U#W@6#6#6#6#W@H@W@6#5$A$B$C$E.0 1 { p J#V S+####D$",
"j@E.d E$C.B @ F$n.2$G$H$I$J$K$L$M$1$.+6 N$O$z$6#6#6#6#6#6#W@H@W@6#6#P$Q$R$S$W.| _@m _@^ / T@] T$",
"8 M+D.< * U$V$W$X$Y$Z$`$ %.%+%@%#%1@$%%%&%*%=%6#6#6#6#W@W@W@H@6#6#6#-%;%>%R+(+_@D.,%0.V J#'%)%,.",
"& f+a  $!%~%7 {%]%/.y+M@^%/%(%_%:%<%[%}%|%1%W@U#6#6#W@W@W@H@6#6#6#6#-%2%3%& j+4%,.($1 5%6%` U+7%",
"T ; N @@!%i 8%9%9 M@0%'.B@a%b%c%d%e%f%=%g%W@6#U#W@6#6#6#W@H@6#6#6#6#h%i%j%k%l%m%a ,%) 6.7.[+: P+",
"/.Q N+Y W.n%# }.o%p%_.q%r%T s%t%u%U#6#W@W@6#U#;#U#W@6#6#6#;#5#5#;#5$v%w%x%6.y%j@z%A%[ V R+j@B%8 ",
"I ~#C%3 y.l@Z.2$o.i@D%(.E%F%G%H%I%z$W@W@6#6#;#W@U#W@6#6#6#s@q@q@s@J%K%L%F#E.}@6.f+M%m+v+^$6.1 Y ",
"* /.]#-$$ N%O%P%Q%{.q./.R%G$S%T%U%V%W%W@W@5#;#W@5#;#W@6#6#q@r@r@q@X%Y%i J#O 6.Y < ,%1 8 8@< M+Z%",
"1 2 3 @ @ `%4 5 6 7 2 8 * 9 +  &.&+&@&#&W@5#U#6#5#;#W@W@6#s@q@q@s@I@$&%&&&$ % & * *&- ; > , ' ) ",
"p.I 2 =&{.B 6 {.o%-&2 H I J K L ;&>&,&'&5#6#W@6#;#W@;#W@6#6#c@c@c@'&)&!&D@~&~#A+{&i ;.]&` U+< < ",
"1 >.,.'.).^&~.'.{.,.I $ ^./.(./&(&_&:&;#W@6#W@6#W@H@5#W@W@6#6#W@W@W@<&[&}&|&5 | * i T U { V W X ",
"N+[ ,.n.o.A 6 q.I y.s.t.u./.v.1&2&3&4&H@W@W@W@6#W@H@W@5#W@W@6#6#6#W@5&6&7&8&9&3.4.n T { 6.) 1 7.",
"2.%@~.D.' 0&V.* W.a N Y.Z.`. +a&t b&c&d&H@H@W@W@W@H@H@W@;#;#W@W@6#6#6#5&e&f&g&-.B.0&D.;.E., 9.; ",
"A+h&D.% (+`#V._+> J#$ 4.| <+E.i&j&k&l&c@;#;#U#H@H@H@H@W@6#W@;#;#W@6#6#W@m&n&o&p&W q&2.9.$+< %+&+",
"|+1+y+f+E.r.V.I _+,.& 9.W W.r&s&t&u&v&;#c@U#U#c@H@H@H@W@W@6#W@U#U#W@6#5$w&x&y&z&2+A&4+5+3+,.[ !.",
"m+> 0.P+] ++W v+T %+f+1 & W x+B&C&D&I@E&E&E&E&E&H@H@H@W@W@W@W@W@W@U#W@5$F&w G&H&j+I&l+l+|+!.m+< ",
"` $+8.Z#B+q&M+> N+8@N O A./.0 :#C@J&K&H@H@H@H@H@H@H@H@H@H@H@H@H@H@H@U#'$L&o M&U T o [ z+A+B+C+D+",
"~&Y N ;.P+n#.++@@@$+&+8 #+B.A+w$N&O&P&Q&R&S&H@H@H@H@H@H@E&c@c@c@;#c@T&U&V&W&X&R+R+Y&T+U+1 m+V+y@",
"_@W W.v+d ($0 ^@<.H , 3..+(@_@:@Z&`& *.*+*@*#*$*%*&*******=*J%-*;*>*,*'*)*m#=@-@;@/@] ; 8.= P+'.",
"~#!*N+N+W.<@] ` 1 y.| | [ 4.Y E.&+& ~*{*]*^*/*(*_*:*<*[*}*|*1*2*3*4*5*6*7*! $+[@}@r.;.9.! ) w.8*",
"N+9*z%g@T 0*%+x+D.^%i@1+) (+j@k@R+Y _@I#) a*b*c*d*e*f*c*g*h*].i*j*k*l*D@d f+$+Y Y m*] ) I ' 8@n*",
"[+R+/ }.(+o*j*z.D x@h@D p*o q*r*s*`#j 1.i n t*c*u*v*w*x*k.y*z*y*0*0*A*++A l@`#o t*B*1 ) C.[.R+}@",
"k@7.=@(+8.! C.D+M@C+D.,.y+U+O@z@V U+x+; 1 :@;.C*;@n*$ I#,..+l+I N+U 1 2.B@W /.f+W., [ j+` X }@6.",
"D*%+y.<.8.] ~..+.+2$' 0 i+A.8.` E*X 7.E.E.0.Z#@@[#W.4.M+,.[ :@@+8 ! P@C.0 0 [ I } 4 _@8 [@T@T@;."};
