/* XPM */
static char * ichigo48_UL_xpm[] = {
"48 48 729 2",
"  	c #A1D527",
". 	c #A1D628",
"+ 	c #9FD429",
"@ 	c #9FD32A",
"# 	c #A1D429",
"$ 	c #A4D826",
"% 	c #A7D748",
"& 	c #9ED32C",
"* 	c #9CD12D",
"= 	c #A1D52B",
"- 	c #A8DC24",
"; 	c #A7DA25",
"> 	c #A5D826",
", 	c #A5D926",
"' 	c #9ED22C",
") 	c #A2D629",
"! 	c #A4D727",
"~ 	c #A3D62A",
"{ 	c #A7DA26",
"] 	c #A2D62A",
"^ 	c #A6DA26",
"/ 	c #ACDE22",
"( 	c #AADD24",
"_ 	c #ADE022",
": 	c #A9DC24",
"< 	c #A1D52A",
"[ 	c #9DD22D",
"} 	c #9DD12D",
"| 	c #9BD02E",
"1 	c #A3D728",
"2 	c #A1D528",
"3 	c #A2D528",
"4 	c #9BD12D",
"5 	c #9DD12C",
"6 	c #98CD30",
"7 	c #9DCF4C",
"8 	c #A8DB24",
"9 	c #94CA33",
"0 	c #9FD32B",
"a 	c #AADC22",
"b 	c #A7DA23",
"c 	c #A4D726",
"d 	c #A3D628",
"e 	c #A5D925",
"f 	c #A5D648",
"g 	c #9AD02F",
"h 	c #9CD02F",
"i 	c #A2D52A",
"j 	c #A4D828",
"k 	c #A5D828",
"l 	c #A5D927",
"m 	c #A6D926",
"n 	c #A9DC23",
"o 	c #A8DB34",
"p 	c #9ED32F",
"q 	c #9FD42A",
"r 	c #A5D838",
"s 	c #A6DA2C",
"t 	c #A7DB25",
"u 	c #A0D42B",
"v 	c #A1D529",
"w 	c #A0D52A",
"x 	c #9DD22C",
"y 	c #9ED32B",
"z 	c #97CC31",
"A 	c #97CD31",
"B 	c #99CE2F",
"C 	c #9FD24A",
"D 	c #A8DC23",
"E 	c #97CD30",
"F 	c #94C934",
"G 	c #95CB31",
"H 	c #ADE01E",
"I 	c #ABDD21",
"J 	c #ABDE21",
"K 	c #A8DC22",
"L 	c #A5D825",
"M 	c #A3D729",
"N 	c #A3D349",
"O 	c #A4D827",
"P 	c #A6D927",
"Q 	c #A8DB25",
"R 	c #AADD22",
"S 	c #A5D727",
"T 	c #AADB3D",
"U 	c #A8C221",
"V 	c #ACD962",
"W 	c #9ED045",
"X 	c #A7D848",
"Y 	c #ACC51E",
"Z 	c #B7E360",
"` 	c #B1E13D",
" .	c #A6D92F",
"..	c #9FD339",
"+.	c #A2D728",
"@.	c #98CE31",
"#.	c #94CB34",
"$.	c #91C835",
"%.	c #98CF30",
"&.	c #95CC32",
"*.	c #9ED04C",
"=.	c #A2D727",
"-.	c #A2D628",
";.	c #9ACF2E",
">.	c #8DC43A",
",.	c #AADC24",
"'.	c #A9DB23",
").	c #A7DA24",
"!.	c #A7D924",
"~.	c #A6D826",
"{.	c #A6D649",
"].	c #9FD32C",
"^.	c #A8DB23",
"/.	c #ADDF21",
"(.	c #ACDE21",
"_.	c #AADD23",
":.	c #A7D749",
"<.	c #CCA91B",
"[.	c #D4A015",
"}.	c #A8AA1D",
"|.	c #B9DC8D",
"1.	c #AD9814",
"2.	c #D9A50D",
"3.	c #B0B215",
"4.	c #BCE180",
"5.	c #A5BE23",
"6.	c #A6D73E",
"7.	c #A8DA26",
"8.	c #A5D928",
"9.	c #A8DA24",
"0.	c #94CB33",
"a.	c #95CB33",
"b.	c #9ED32A",
"c.	c #A8D947",
"d.	c #A2D627",
"e.	c #A1D42A",
"f.	c #9CD32C",
"g.	c #A9DC21",
"h.	c #A7D925",
"i.	c #9DD32C",
"j.	c #A3D727",
"k.	c #A9D947",
"l.	c #A0D529",
"m.	c #A0D42A",
"n.	c #99CF30",
"o.	c #ADDF20",
"p.	c #ABDD3C",
"q.	c #B3DC6F",
"r.	c #A98919",
"s.	c #F6AA47",
"t.	c #E38505",
"u.	c #AF840C",
"v.	c #AF6607",
"w.	c #F7AA47",
"x.	c #E48604",
"y.	c #B0880C",
"z.	c #AA9517",
"A.	c #B2DB6E",
"B.	c #ACDC3E",
"C.	c #A3D72C",
"D.	c #95CC33",
"E.	c #93CA34",
"F.	c #A6D925",
"G.	c #AFDE44",
"H.	c #A0D528",
"I.	c #9CD12C",
"J.	c #A6D824",
"K.	c #ADDF1F",
"L.	c #96CC32",
"M.	c #9CD22D",
"N.	c #ABDE22",
"O.	c #A3D629",
"P.	c #ABDC33",
"Q.	c #A7C120",
"R.	c #CDAA1A",
"S.	c #A88819",
"T.	c #F2AC46",
"U.	c #F8A848",
"V.	c #F8A948",
"W.	c #E87800",
"X.	c #E77A01",
"Y.	c #F2AD46",
"Z.	c #AC8D13",
"`.	c #AEB117",
" +	c #B3DF58",
".+	c #A1D52F",
"++	c #90C837",
"@+	c #A2D529",
"#+	c #AADC23",
"$+	c #9AD02E",
"%+	c #ACDD46",
"&+	c #A4D628",
"*+	c #AEDF20",
"=+	c #9ED22A",
"-+	c #A1D629",
";+	c #97CD32",
">+	c #9FD04C",
",+	c #99CE30",
"'+	c #92C836",
")+	c #95CB34",
"!+	c #95CC34",
"~+	c #99D030",
"{+	c #99CF36",
"]+	c #B3D882",
"^+	c #AC8112",
"/+	c #F6A948",
"(+	c #AF6B06",
"_+	c #ACA819",
":+	c #ACD866",
"<+	c #9BCF44",
"[+	c #98CE30",
"}+	c #A5D827",
"|+	c #9BD02D",
"1+	c #9ACF30",
"2+	c #ADDD45",
"3+	c #9DD22E",
"4+	c #9CD12F",
"5+	c #96CC33",
"6+	c #9CD032",
"7+	c #ABD95B",
"8+	c #CBB018",
"9+	c #E38407",
"0+	c #E87901",
"a+	c #AF6807",
"b+	c #A8931B",
"c+	c #A1BA28",
"d+	c #A7D934",
"e+	c #9FD42C",
"f+	c #9CD12E",
"g+	c #A7DB24",
"h+	c #A8D848",
"i+	c #A6DA25",
"j+	c #A9DB24",
"k+	c #ADDD46",
"l+	c #9BD12F",
"m+	c #99CE31",
"n+	c #96CA42",
"o+	c #9FB328",
"p+	c #AD770D",
"q+	c #F7A848",
"r+	c #AA8A18",
"s+	c #B1DD63",
"t+	c #ABDE27",
"u+	c #9ED22D",
"v+	c #9BD12E",
"w+	c #B0DF44",
"x+	c #A4D728",
"y+	c #B1E044",
"z+	c #AEE020",
"A+	c #ACDF21",
"B+	c #A0D52B",
"C+	c #9BD02F",
"D+	c #98CB50",
"E+	c #B2D58D",
"F+	c #D99313",
"G+	c #AB9415",
"H+	c #ABDB48",
"I+	c #A3D627",
"J+	c #ABDE20",
"K+	c #B0E044",
"L+	c #98CD32",
"M+	c #A7D926",
"N+	c #B1E144",
"O+	c #B1E31E",
"P+	c #B1E21E",
"Q+	c #A3D638",
"R+	c #A1BB27",
"S+	c #CE9E1E",
"T+	c #AD620B",
"U+	c #AD8D11",
"V+	c #B1DB70",
"W+	c #A6D74A",
"X+	c #A9DA3C",
"Y+	c #AADD21",
"Z+	c #ADDE45",
"`+	c #97CC32",
" @	c #9FD42B",
".@	c #9ED32D",
"+@	c #AFE120",
"@@	c #AFE11F",
"#@	c #A3D62D",
"$@	c #B3DD61",
"%@	c #AE9110",
"&@	c #E77B02",
"*@	c #B05000",
"=@	c #E48505",
"-@	c #AB8A14",
";@	c #6B8C2E",
">@	c #88B129",
",@	c #ABDB3C",
"'@	c #AEDE3D",
")@	c #AFB115",
"!@	c #2E3230",
"~@	c #B8B9B5",
"{@	c #71922B",
"]@	c #ABDA46",
"^@	c #96C950",
"/@	c #93CA35",
"(@	c #B0E21E",
"_@	c #AFE01E",
":@	c #ACDC46",
"<@	c #AFE029",
"[@	c #C3E77F",
"}@	c #AD820E",
"|@	c #E77901",
"1@	c #C08870",
"2@	c #282830",
"3@	c #B8B8B8",
"4@	c #2E3330",
"5@	c #B4C796",
"6@	c #ADDB47",
"7@	c #97CA50",
"8@	c #8FC638",
"9@	c #B0E11E",
"0@	c #B2E31E",
"a@	c #98CD31",
"b@	c #A7D847",
"c@	c #B1E230",
"d@	c #AEC21A",
"e@	c #AD750F",
"f@	c #B05201",
"g@	c #E0B898",
"h@	c #F8E0B8",
"i@	c #FEFFFD",
"j@	c #B4C59D",
"k@	c #B6E063",
"l@	c #AADD27",
"m@	c #97CE31",
"n@	c #92C935",
"o@	c #9ACC4F",
"p@	c #ADE020",
"q@	c #9ED42B",
"r@	c #A3D44A",
"s@	c #B0E11F",
"t@	c #B0E124",
"u@	c #B5A361",
"v@	c #DFB897",
"w@	c #584028",
"x@	c #FFFFFF",
"y@	c #848C7B",
"z@	c #B0CC83",
"A@	c #ADDE3B",
"B@	c #9FD14B",
"C@	c #A0D24B",
"D@	c #9ACF2F",
"E@	c #9DD32B",
"F@	c #B1E21F",
"G@	c #B3E41D",
"H@	c #ADDD3E",
"I@	c #B5BD51",
"J@	c #DBBD91",
"K@	c #C08970",
"L@	c #FDFEFC",
"M@	c #B2C695",
"N@	c #ADDC45",
"O@	c #96CD32",
"P@	c #A4D549",
"Q@	c #9DD22B",
"R@	c #95CB32",
"S@	c #99CC4F",
"T@	c #92C835",
"U@	c #B0E220",
"V@	c #ADE01F",
"W@	c #ABDD22",
"X@	c #ACDF25",
"Y@	c #B9E557",
"Z@	c #B9BD53",
"`@	c #BE926C",
" #	c #FEFEFD",
".#	c #B0C497",
"+#	c #A6D749",
"@#	c #A4D449",
"##	c #97CD2F",
"$#	c #8FC536",
"%#	c #95C850",
"&#	c #92C734",
"*#	c #94CB32",
"=#	c #BBE563",
"-#	c #B7A461",
";#	c #C08A6F",
">#	c #808080",
",#	c #080808",
"'#	c #C08B6F",
")#	c #AEC396",
"!#	c #9CCE4E",
"~#	c #A0D14C",
"{#	c #ADDE21",
"]#	c #A0D428",
"^#	c #9AD02C",
"/#	c #96CC31",
"(#	c #94C932",
"_#	c #9CCE4C",
":#	c #92C833",
"<#	c #ADDF26",
"[#	c #B3DE65",
"}#	c #5E7D28",
"|#	c #151D09",
"1#	c #F0F0F8",
"2#	c #101028",
"3#	c #B7BCB0",
"4#	c #98B95C",
"5#	c #A6D83E",
"6#	c #9DD04C",
"7#	c #9ED22B",
"8#	c #A4D349",
"9#	c #A6D92A",
"0#	c #AADA3F",
"a#	c #A8D368",
"b#	c #7CA125",
"c#	c #41502F",
"d#	c #B8B9B7",
"e#	c #8BA16E",
"f#	c #9FD330",
"g#	c #ACDD22",
"h#	c #A3D726",
"i#	c #A0D32A",
"j#	c #A9D946",
"k#	c #A3D825",
"l#	c #9CD131",
"m#	c #AEDB5A",
"n#	c #769F23",
"o#	c #5F7E28",
"p#	c #42512F",
"q#	c #2A2D30",
"r#	c #681010",
"s#	c #DBBB92",
"t#	c #82A42B",
"u#	c #9BCF47",
"v#	c #AFE020",
"w#	c #AEDD45",
"x#	c #A5D549",
"y#	c #A8DB22",
"z#	c #A3D52C",
"A#	c #ADDA5A",
"B#	c #719821",
"C#	c #374B29",
"D#	c #B81818",
"E#	c #80827F",
"F#	c #70822B",
"G#	c #9FCC6B",
"H#	c #90C63A",
"I#	c #A3D827",
"J#	c #A0D32F",
"K#	c #ACD766",
"L#	c #ACAE58",
"M#	c #E9EDEC",
"N#	c #81827F",
"O#	c #67891A",
"P#	c #99CB52",
"Q#	c #A6D748",
"R#	c #B0E120",
"S#	c #AFE11E",
"T#	c #ACDF1F",
"U#	c #ACDC45",
"V#	c #9ED22F",
"W#	c #AAD75B",
"X#	c #B0B752",
"Y#	c #B8A760",
"Z#	c #DBBA92",
"`#	c #EFF0F7",
" $	c #61841F",
".$	c #AFE21E",
"+$	c #ABDC46",
"@$	c #89C23E",
"#$	c #A9DB22",
"$$	c #A5D548",
"%$	c #99CF2D",
"&$	c #9DD142",
"*$	c #ADB553",
"=$	c #DABB91",
"-$	c #F7E0B7",
";$	c #171B28",
">$	c #B7B9B6",
",$	c #62861E",
"'$	c #A0D14A",
")$	c #9AD12D",
"!$	c #ABDB46",
"~$	c #8AC33C",
"{$	c #8BC33B",
"]$	c #92C553",
"^$	c #8CC439",
"/$	c #9CCE4D",
"($	c #728B2E",
"_$	c #DFB997",
":$	c #364828",
"<$	c #577211",
"[$	c #37490C",
"}$	c #1E2728",
"|$	c #838B7A",
"1$	c #729D26",
"2$	c #9FD142",
"3$	c #A5D649",
"4$	c #ADE021",
"5$	c #A0D42C",
"6$	c #AADE21",
"7$	c #A4D825",
"8$	c #91C935",
"9$	c #94C933",
"0$	c #81A32D",
"a$	c #D9BA91",
"b$	c #5E7C16",
"c$	c #C2E48D",
"d$	c #7BA41D",
"e$	c #688B1C",
"f$	c #759F24",
"g$	c #9FCE60",
"h$	c #99CE34",
"i$	c #9AD030",
"j$	c #A2D34A",
"k$	c #A6DA27",
"l$	c #A9DC25",
"m$	c #98CF31",
"n$	c #A3D348",
"o$	c #9BD22B",
"p$	c #93C938",
"q$	c #9DCC61",
"r$	c #7A992E",
"s$	c #82897B",
"t$	c #171F09",
"u$	c #628113",
"v$	c #BDE56F",
"w$	c #AFDF49",
"x$	c #AFDE45",
"y$	c #A6D73F",
"z$	c #99CE33",
"A$	c #9BCF2F",
"B$	c #A3D826",
"C$	c #AEE11E",
"D$	c #AFE11D",
"E$	c #A7D648",
"F$	c #8DC539",
"G$	c #8EC53F",
"H$	c #B7DC83",
"I$	c #8B9C72",
"J$	c #B8B8B7",
"K$	c #7EA415",
"L$	c #B3DF5C",
"M$	c #A4D82C",
"N$	c #A1D42B",
"O$	c #A0D32B",
"P$	c #92C936",
"Q$	c #AEE11F",
"R$	c #A9DC22",
"S$	c #A4D54A",
"T$	c #92CA35",
"U$	c #9FD22A",
"V$	c #A2D349",
"W$	c #99CF2F",
"X$	c #99CD47",
"Y$	c #8FB15E",
"Z$	c #B7BCB1",
"`$	c #161A28",
" %	c #3E5027",
".%	c #779E1C",
"+%	c #9FD14C",
"@%	c #A0D429",
"#%	c #9BCD4E",
"$%	c #93CA33",
"%%	c #92C934",
"&%	c #98CD34",
"*%	c #ACD865",
"=%	c #8CA26E",
"-%	c #2B2D30",
";%	c #3D5028",
">%	c #82A919",
",%	c #ABDC22",
"'%	c #A1D34A",
")%	c #9BCE46",
"!%	c #93B55D",
"~%	c #EAEEED",
"{%	c #57712F",
"]%	c #32440E",
"^%	c #1C2228",
"/%	c #608016",
"(%	c #AFDA64",
"_%	c #A2D62C",
":%	c #9ECF4C",
"<%	c #9ACE32",
"[%	c #A8D666",
"}%	c #B8B9B6",
"|%	c #425430",
"1%	c #709730",
"2%	c #B7D88F",
"3%	c #55751B",
"4%	c #1A2128",
"5%	c #3A4C28",
"6%	c #7EA51C",
"7%	c #ADDD3A",
"8%	c #9CCF4D",
"9%	c #8EB05F",
"0%	c #B5BBAF",
"a%	c #848D7A",
"b%	c #789E2C",
"c%	c #B0DB67",
"d%	c #AED773",
"e%	c #517220",
"f%	c #202928",
"g%	c #709213",
"h%	c #8FA869",
"i%	c #858E79",
"j%	c #789D2D",
"k%	c #ABD967",
"l%	c #87A525",
"m%	c #33450E",
"n%	c #1B2228",
"o%	c #6C8D16",
"p%	c #9ACD4E",
"q%	c #95B263",
"r%	c #80A529",
"s%	c #ACD95D",
"t%	c #A3D34B",
"u%	c #8AAB26",
"v%	c #868E7A",
"w%	c #1C2328",
"x%	c #6A8B17",
"y%	c #A3D549",
"z%	c #A6D648",
"A%	c #A8D93D",
"B%	c #94C128",
"C%	c #ADDB57",
"D%	c #A2D52D",
"E%	c #89AA28",
"F%	c #BE946B",
"G%	c #678918",
"H%	c #A5D54B",
"I%	c #A2D44A",
"J%	c #9ACF3C",
"K%	c #A1D52E",
"L%	c #B3DE64",
"M%	c #7A8C26",
"N%	c #5A4628",
"O%	c #1B2128",
"P%	c #5E7E16",
"Q%	c #A2D62D",
"R%	c #6A8C17",
"S%	c #35480F",
"T%	c #7BA41E",
"U%	c #A6D83D",
"V%	c #A2D34B",
"W%	c #67891B",
"X%	c #1E290A",
"Y%	c #19230A",
"Z%	c #668A1C",
"`%	c #AEDE45",
" &	c #93C935",
".&	c #9DCF4D",
"+&	c #A4D63F",
"@&	c #7BA725",
"#&	c #597A1C",
"$&	c #34480F",
"%&	c #1A240A",
"&&	c #BC926B",
"*&	c #749F24",
"=&	c #A0D242",
"-&	c #91C837",
";&	c #A3D540",
">&	c #77A023",
",&	c #5F8320",
"'&	c #58791C",
")&	c #35490F",
"!&	c #1B2509",
"~&	c #161E09",
"{&	c #181F09",
"]&	c #BF8B6F",
"^&	c #B6BBAF",
"/&	c #7C9B2D",
"(&	c #A1D15E",
"_&	c #9ED230",
":&	c #ACDF22",
"<&	c #ADDF25",
"[&	c #ACDC3C",
"}&	c #A9D667",
"|&	c #7AA31F",
"1&	c #6E9015",
"2&	c #6E8F14",
"3&	c #709112",
"4&	c #5A7B1B",
"5&	c #BE936B",
"6&	c #5B4A28",
"7&	c #BF946B",
"8&	c #7A8B27",
"9&	c #7B9229",
"0&	c #84A52B",
"a&	c #A5D45D",
"b&	c #AADB22",
"c&	c #A8DA25",
"d&	c #A6D825",
"e&	c #8FC637",
"f&	c #A0D42F",
"g&	c #9ED142",
"h&	c #B3E243",
"i&	c #B1E043",
"j&	c #B6E345",
"k&	c #B5E063",
"l&	c #85A72A",
"m&	c #7F9627",
"n&	c #849A24",
"o&	c #90B023",
"p&	c #B1DC64",
"q&	c #AEDF1F",
"r&	c #A8D84A",
"s&	c #90C737",
"t&	c #AFE01F",
"u&	c #ACDF20",
"v&	c #B1E21D",
"w&	c #B1E322",
"x&	c #ADDC3E",
"y&	c #A6D64A",
"z&	c #B0DF47",
"A&	c #ABDB3F",
"B&	c #9BD032",
"C&	c #ADDE47",
"D&	c #B2DB70",
"E&	c #9ED14E",
"F&	c #B2E143",
"G&	c #B4E243",
"H&	c #A9DA47",
"I&	c #B4E342",
"J&	c #B5E343",
"K&	c #B3E145",
"L&	c #AADA48",
"M&	c #A1D24D",
"N&	c #9FD14E",
"O&	c #ABDB47",
"P&	c #AADA47",
"Q&	c #ACDB48",
"R&	c #B5DF6F",
"S&	c #ACDE20",
"T&	c #A4D927",
"  . + @ # $ % & * = - ; > , ' ) > ! ~ { ] ^ / ( _ : < [ } | & ) 1 2 3 @ @ | 4 5 6 7 2 8 * 9 + 0 ",
"> a b c d e f g h i j k l m < < 8 n : o p q = r s ] t ) u & v w x y 2 z A y 6 A B C 2 D y E F G ",
"H I J K L M N | * i O P { Q w R n S T U V W X Y Z `  ...< < 1 j 1 +.@.#.$.%.&.#.A *.y $ =.-.;.>.",
",.'.).!.~.) {.].v ^.O { /.) 1 (._.M :.<.[.}.|.1.2.3.4.5.6.m 7.8.9.[ @.0.a.x 6 b.y c.d.e.f.-.g.' ",
"h.i.j.> $ > k.1 l.m.n.j o., M ; p.k.q.r.s.t.u.v.w.x.y.z.A.B.C.[ u D.&.n.' m.E.* F.G.I H.I.J.K.K.",
"d.0 4 L.L.-.X l w M.u M N.< O.P.Q.R.S.T.U.U.V.W.U.U.X.Y.Z.`. +.+g ++n.@+#+; E.$+> %+$ v | &+o.*+",
"2 =+-+;+* ) >+,+'+)+!+~+)+@.[ {+]+^+/+W.U.U.U.U.U.U.U.W.X.(+_+:+<+,+[+}+o.j.E.y $+*.& M w F.J _.",
"x . j.|+1+) 2+) 3+4+5+5+;+%.6+7+8+9+U.U.U.U.U.U.U.U.U.U.U.0+a+b+c+d+e+f+] -.w g+O h+}+1 & w i+j+",
"[+[ < ].v n k+P O : [ l+g m+n+o+p+q+U.U.U.U.U.U.U.U.U.U.U.U.X.r+s+t+_.u+m+M.v+> 9.w+I J x+-.0 x ",
"[+[+f+' 8 #+y+z+z+A+B+m 1 C+D+E+F+0+U.U.U.U.U.U.U.U.W.U.U.W.X.G+H+n I j f+1+L.I+J+K+j+8 M.l.g L+",
"L.D.x ) M+Q N+O+P+- ] ; _.Q+R+S+T+U.U.W.U.U.U.U.U.U.W.W.W.W.X.U+V+W+X+g+d * 0 Y+'.Z+, ].L.`+ @.@",
"n.& w +.] ! K++@@@1 j M ! #@$@%@&@W.U.W.U.U.W.U.W.U.U.W.*@W.*@=@-@;@>@,@F.x+] l 1 c.| | [ v n o.",
") i+n -.d }+K+n n < ] ) y ' '@)@t.U.W.*@W.U.W.W.W.W.W.W.*@*@W.*@!@~@{@]@O F.O.i+n.^@/@,+) #+(@_@",
"F.F.}+. x q :@n A+- 1 ) m.).<@[@}@|@*@*@W.W.W.W.W.W.W.W.1@1@1@2@3@4@5@6@#+9.) > A 7@8@A [ : 9@0@",
"9.P 1 u a@w b@}+F., [ 3+l R c@d@e@f@*@*@W.W.W.W.W.W.*@1@g@g@h@1@2@i@j@k@l@! m.m@n@o@n.@.[+m p@9@",
"8 ! q@m.0 0 r@y } 4  @8 +@s@t@s+u@v@*@g@*@W.*@W.W.W.w@g@h@h@h@2@x@x@y@z@A@] &.L.L.B@' 0 1+x+_.l ",
"n m | w < $+C@@.D@E@l.^.F@G@+@H@I@J@K@g@*@W.*@W.*@W.w@g@h@h@h@1@x@x@L@M@N@q 9 O@g P@[ w ) f+1  @",
"j+Q +.3 Q@R@S@T@a@[ > 8 U@V@W@X@Y@Z@`@g@*@*@*@2@*@*@w@2@2@g@h@g@1@1@ #.#+#y [ -+) @#* i+J _.j i+",
"|+m.b.+ ##$#%#&#*###x ) i+{ 8 ( t@=#-#;#*@*@2@>#,#,#,#3@2@1@g@h@h@g@'#)#!#w > W@q ~#[ : {#_.O ) ",
"9.2 ]#^#/#(#_#:#y v * 8 ; e+1 n <#[#}#|#1@2@3@1#>#,#2@,#2#2#1@g@h@h@3#4#5#{ ; R F.6#D@t _.M ] ] ",
"j.g.b 7#6 z 8#-.x+e ' F.1 x+9#0#a#b#c#,#2@>#>#3@>#>#,#,#>#3@3@1@g@d#e#:+f#v+: @@j+:@n _.g#/ - P ",
"h#]#L d x i#j#j.n g+& k#M l#m#n#o#p#q#2@>#3@1#2@>#2@r#2#2#2#>#>#>#s#t#u#, z+v#8 (.w#K.v#z+z+W@^ ",
"L m.* +.; * x#v Y+y#* B z#A#B#C#!@2@2@3@3@>#3@2@2@D#2@2#2#2@2@2#E#F#G#H#* o.^.g+-.P@a @@s@A+p@: ",
"A+I#f+4+W@) +#& O c J#W K#L#M#q#2@2@3@>#1#2@>#2@D#r#2#2#2@2@2@2@N#O#P#@.& 4 /@O t Q#i+O+R#R#O+{ ",
"S#J T#e+3+- U#A E.V#W#X#Y#Z#`#2@2@2@1#>#3@2@2@D#r#2@2#,#2#2@2@2@d# $S@n..$o.0 1 { +$t Q A+F@F@@$",
"(@o.d #$m.& $$%$0.&$*$=$-$g@3@2@3@2@1#2@>#2@D#r#2#2@2#2#,#;$2@2@>$,$'$)$(.(.F.|  @!$ @^ / s@] ~$",
"8 v+n.< * {$]${$^$/$($_$h@1@2@>#1#>#3@2@2@r#r#2#2#2#2#2#:$<$[$}$|$1$2$l.{#z+#+ @n.3$e+Q t 4$5$@.",
"& }+a g#6$7$7 8$9$6.0$a$g@>#2@>#1#2@>#2@r#2@2@2@2#2#2#N#b$c$d$e$f$g$h$ @M & 3+i$@.j$1 k$l$l m m$",
"O ; I J+6$< n$o$9 p$q$r$s$>#3@>#3@2@2@,#2#2@2@2@2#3@>#t$u$v$w$x$y$z$A$B$: n C$D$a 3$) /.(.*+: f+",
"-.L 9.n F.0 E$!.B F$G$H$I$J$>#3@>#2@2#2#,#,#,#,#,#2#2#2#[$K$L$M$m N$O$P$D@/.Q$(@R$S$[ Q z+(@T$8 ",
"y q U$3 j.+ V$W$a./@X$Y$Z$1#2@>#2@2#2@2#2#2#2#2#2#2#2@2#`$ %.%m#9#R I#' ) o.@@/.}++%C+g+v#/.1 n ",
"* -.Q@@%$ ;.#%$%%%&%*%=%N#3@-%2@2#2#2@2#2@2@2#2#2@2#2@2@2@`$;%>%'@l.m.@+t J /.n < 3$1 8 W@< v+,%",
"1 2 3 @ @ | '%5 6 )%!%~%-%s${%]%2#2@2#2@2#2#2@2#2@2@2#2@2@2@^%/%(%_%+ @ # $ @+& * :.- ; > , ' ) ",
"x y 2 z A y :%A <%[%e#}%|%1%2%3%4%2@2#2@,#,#2#2@2#2@2#2#2@2@2#5%6%7%b c d e q g h % j k l m < < ",
"1 +.@.#.$.%.8%#.<+9%0%a%b%c%d%e%4%2@2#2@2#,#2#2@2#2@2@2#2@2@2#f%g%w+J K L M 5 | * % O P { Q w R ",
"9.[ @.0.a.x :%b.P@h%i%j%k%c%l%m%2#2#2#2#2#,#2#2@2#2@2@2#2@2@2#n%o%w#).!.~.) u ].v 2+O { /.) 1 (.",
"u D.&.n.' m.p%* !$q%r%s%t%u%v%K@,#,#2#2#2#,#,#2@2#2@2@2#2@2@2#w%x%y%j.> $ > x+1 l.z%n.j o., M ; ",
"g ++n.@+#+; p%$+A%B%C%D%2$E%F%1@>#3@,#,#,#,#,#2@2#2@2@2#2@2@2#n%G%H%4 L.L.-.-+l w I%u M N.< O.j+",
";+,+[+}+o.j.p%y $+J%f#M K%L%M%N%1@w@1@w@,#,#,#2@2#2@2@2#2@2@2#O%P%*%Q%;+* ) ,+,+'+!#!+~+)+@.[ %.",
"C+> e+f+] -.Q#g+O O.}+1 & W+R%t$w@w@w@w@,#,#,#2#2#2@2@2#2#2#,#,#S%T%U%|+1+) 8 ) 3+V%5+5+;+%.C+< ",
"l N._.u+m+M.'%> 9.W@I J x+b@W%X%,#,#,#,#,#,#,#2#2#2#2#2#2#,#,#w@Y%Z%% ].v n Q P O `%[ l+g m+ &m@",
"e n I j f+1+.&I+J+N.j+8 M.+&@&#&$&%&|#,#,#,#,#,#,#,#,#,#,#w@w@J$&&*&=&' 8 #+/ z+z+N+B+m 1 C+-&8@",
" @w F.g+d * x#Y+'.D , ].L.`+;&:+>&,&'&)&!&t$~&|#{&1@w@w@3@d#]&^&/&(&_&) M+Q :&O+P+Z+] ; _.= f+#.",
"q O$9.9.F.x+X l 1 j.| | [ v n <&[&P@}&|&1&2&3&R%4&5&'#6&7&8&9&0&a&f#w +.] ! N.+@@@c.j M ! ) h.b&",
"9.c&R$d&O F.h+i+n.e&/@,+) #+(@_@z+n f&g&X h&i&j&k&l&m&n&o&p&*.2$#@i+n -.d }+N.n n % ] ) y ' W@q&",
"*+z+/ !.#+9.r&> A s&8@A [ : 9@0@t&; j ) < ^.u&v&w&x&y&z&A&B&D.g F.F.}+. x q ; n A+C&1 ) m.).z+@@",
"_@(.:&#+_.! D&E&S@o@+%*.*.!$F&G&k+!$+$:@c.S$H&I&J&K&L&M&N&.&.&P@N@O&c.{.:%Q#b@P&Q&R&[ 3+l R @@/.",
"S&O.j.'._.] &.L.L.W$' 0 1+x+_.l T&R (.o.o.e+u+J+V@F.v v+@.[ .@-+8 ! q@m.0 0 [ y } 4  @8 +@s@s@j "};
