/* XPM */
static char * ichigo48_2_UL_xpm[] = {
"48 48 660 2",
"  	c #A1D527",
". 	c #A1D628",
"+ 	c #9FD429",
"@ 	c #9FD32A",
"# 	c #A1D429",
"$ 	c #A4D826",
"% 	c #A2D529",
"& 	c #9ED32C",
"* 	c #9CD12D",
"= 	c #A1D52B",
"- 	c #A8DC24",
"; 	c #A7DA25",
"> 	c #A5D826",
", 	c #A5D926",
"' 	c #9ED22C",
") 	c #A2D629",
"! 	c #A4D727",
"~ 	c #A3D62A",
"{ 	c #A7DA26",
"] 	c #A2D62A",
"^ 	c #A6DA26",
"/ 	c #ACDE22",
"( 	c #AADD24",
"_ 	c #ADE022",
": 	c #A9DC24",
"< 	c #A1D52A",
"[ 	c #9DD22D",
"} 	c #9DD12D",
"| 	c #9BD02E",
"1 	c #A3D728",
"2 	c #A1D528",
"3 	c #A2D528",
"4 	c #9BD12D",
"5 	c #9DD12C",
"6 	c #98CD30",
"7 	c #96CC31",
"8 	c #A8DB24",
"9 	c #94CA33",
"0 	c #9FD32B",
"a 	c #AADC22",
"b 	c #A7DA23",
"c 	c #A4D726",
"d 	c #A3D628",
"e 	c #A5D925",
"f 	c #9FD42A",
"g 	c #ABD76C",
"h 	c #9ED138",
"i 	c #A2D52A",
"j 	c #A4D828",
"k 	c #A5D828",
"l 	c #A5D927",
"m 	c #A6D926",
"n 	c #AADC2F",
"o 	c #ADDD41",
"p 	c #ABDC46",
"q 	c #A3D549",
"r 	c #A5D648",
"s 	c #A6D747",
"t 	c #A4D835",
"u 	c #A6DA2C",
"v 	c #A7DB25",
"w 	c #A0D42B",
"x 	c #A1D529",
"y 	c #A0D52A",
"z 	c #9DD22C",
"A 	c #9ED32B",
"B 	c #97CC31",
"C 	c #97CD31",
"D 	c #99CE3A",
"E 	c #AAD56C",
"F 	c #99D02E",
"G 	c #A8DC23",
"H 	c #97CD30",
"I 	c #94C934",
"J 	c #95CB31",
"K 	c #ADE01E",
"L 	c #ABDD21",
"M 	c #ABDE21",
"N 	c #A8DC22",
"O 	c #A5D825",
"P 	c #A3D729",
"Q 	c #9DD137",
"R 	c #A4D827",
"S 	c #A6D927",
"T 	c #A8DB25",
"U 	c #AADD22",
"V 	c #A9DC23",
"W 	c #A5D727",
"X 	c #A5D92B",
"Y 	c #9ACE33",
"Z 	c #A3D62D",
"` 	c #ACDF23",
" .	c #AEE021",
"..	c #A2D728",
"+.	c #98CE31",
"@.	c #94CB34",
"#.	c #91C835",
"$.	c #98CF30",
"%.	c #95CC32",
"&.	c #A2D727",
"*.	c #A2D628",
"=.	c #9ACF2E",
"-.	c #8DC43A",
";.	c #AADC24",
">.	c #A9DB23",
",.	c #A7DA24",
"'.	c #A7D924",
").	c #A6D826",
"!.	c #9FD32C",
"~.	c #A8DB23",
"{.	c #ADDF21",
"].	c #ACDE21",
"^.	c #AADD23",
"/.	c #A5C125",
"(.	c #ACD963",
"_.	c #A7D841",
":.	c #A7D848",
"<.	c #A0BB29",
"[.	c #AEDD4C",
"}.	c #B2E31E",
"|.	c #B0E11F",
"1.	c #A8DA26",
"2.	c #A5D928",
"3.	c #A8DA24",
"4.	c #94CB33",
"5.	c #95CB33",
"6.	c #9ED32A",
"7.	c #A3D727",
"8.	c #A2D627",
"9.	c #A1D42A",
"0.	c #9CD32C",
"a.	c #A9DC21",
"b.	c #A7D925",
"c.	c #9DD32C",
"d.	c #A4D728",
"e.	c #A0D529",
"f.	c #A0D42A",
"g.	c #99CF30",
"h.	c #ADDF20",
"i.	c #A5D833",
"j.	c #CCAB1B",
"k.	c #D29C1A",
"l.	c #A7A720",
"m.	c #C3E58B",
"n.	c #AF9A12",
"o.	c #D4A015",
"p.	c #AEB117",
"q.	c #C4E97D",
"r.	c #AFCA1B",
"s.	c #95CC33",
"t.	c #93CA34",
"u.	c #A6D925",
"v.	c #A0D528",
"w.	c #9CD12C",
"x.	c #A6D824",
"y.	c #ADDF1F",
"z.	c #96CC32",
"A.	c #A1D629",
"B.	c #9CD22D",
"C.	c #ABDE22",
"D.	c #A3D629",
"E.	c #A9DB24",
"F.	c #A5D931",
"G.	c #B0DB69",
"H.	c #A88819",
"I.	c #F6A947",
"J.	c #E38407",
"K.	c #AE820F",
"L.	c #B06804",
"M.	c #F7AA47",
"N.	c #E38506",
"O.	c #AF860D",
"P.	c #AE9B11",
"Q.	c #B0DB68",
"R.	c #ACDF21",
"S.	c #AADC23",
"T.	c #A0D52B",
"U.	c #9AD02F",
"V.	c #90C837",
"W.	c #9AD02E",
"X.	c #A4D628",
"Y.	c #AEDF20",
"Z.	c #9ED22A",
"`.	c #97CD32",
" +	c #99CE30",
".+	c #92C836",
"++	c #95CB34",
"@+	c #95CC34",
"#+	c #99D030",
"$+	c #9EBB29",
"%+	c #C9A51F",
"&+	c #AB8B16",
"*+	c #F2AC46",
"=+	c #F8A848",
"-+	c #F7A848",
";+	c #E87800",
">+	c #E77A01",
",+	c #F2AD46",
"'+	c #AC8D14",
")+	c #A9B01C",
"!+	c #A8DA29",
"~+	c #98CE30",
"{+	c #A5D827",
"]+	c #9BD02D",
"^+	c #9ACF30",
"/+	c #9DD22E",
"(+	c #9CD12F",
"_+	c #96CC33",
":+	c #9BD02F",
"<+	c #B9DE80",
"[+	c #AE840E",
"}+	c #AE6A08",
"|+	c #A9A81C",
"1+	c #ABD94D",
"2+	c #9FD42C",
"3+	c #9CD12E",
"4+	c #A7DB24",
"5+	c #A6DA25",
"6+	c #9BD12F",
"7+	c #99CE31",
"8+	c #99CB4B",
"9+	c #C5AA21",
"0+	c #E87901",
"a+	c #AE6708",
"b+	c #AA9718",
"c+	c #A0BE29",
"d+	c #9ED22D",
"e+	c #9BD12E",
"f+	c #ABDD22",
"g+	c #AEE020",
"h+	c #9AB12E",
"i+	c #AB7214",
"j+	c #AC8F14",
"k+	c #A8D84B",
"l+	c #A3D627",
"m+	c #ABDE20",
"n+	c #98CD32",
"o+	c #A7D926",
"p+	c #ACDF22",
"q+	c #B1E31E",
"r+	c #B1E21E",
"s+	c #A2D532",
"t+	c #B9DD8A",
"u+	c #D89116",
"v+	c #E77901",
"w+	c #AD9912",
"x+	c #A6D929",
"y+	c #9FD42B",
"z+	c #AADD21",
"A+	c #97CC32",
"B+	c #9ED32D",
"C+	c #AFE120",
"D+	c #AFE11F",
"E+	c #A5C324",
"F+	c #D3A514",
"G+	c #AF6705",
"H+	c #AF910F",
"I+	c #B0E04B",
"J+	c #A0D32B",
"K+	c #A5D54D",
"L+	c #AE9310",
"M+	c #E77C01",
"N+	c #B05000",
"O+	c #B05201",
"P+	c #DE910B",
"Q+	c #AFC91A",
"R+	c #A8DA25",
"S+	c #A9DC22",
"T+	c #A6D825",
"U+	c #8FC637",
"V+	c #93CA35",
"W+	c #B0E21E",
"X+	c #AFE01E",
"Y+	c #AFB216",
"Z+	c #E48604",
"`+	c #E77A02",
" @	c #AC8D13",
".@	c #B4E14A",
"+@	c #90C737",
"@@	c #8FC638",
"#@	c #B0E11E",
"$@	c #98CD31",
"%@	c #C2E77E",
"&@	c #AF850C",
"*@	c #B05402",
"=@	c #A98B18",
"-@	c #ADDC4C",
";@	c #97CE31",
">@	c #94CA3D",
",@	c #93C935",
"'@	c #ADE020",
")@	c #9ED42B",
"!@	c #B0C619",
"~@	c #AE770C",
"{@	c #AF6706",
"]@	c #AD9A15",
"^@	c #AACA1E",
"/@	c #ACDE20",
"(@	c #86B830",
"_@	c #97CC38",
":@	c #9BCE49",
"<@	c #99CF2F",
"[@	c #9ACF2F",
"}@	c #9DD32B",
"|@	c #B1E21F",
"1@	c #B3E41D",
"2@	c #B4E348",
"3@	c #7A8D27",
"4@	c #C08A6F",
"5@	c #C08870",
"6@	c #AE9010",
"7@	c #BAE465",
"8@	c #AEE01F",
"9@	c #7EA929",
"0@	c #6C9231",
"a@	c #9DCF4D",
"b@	c #A1D34D",
"c@	c #9DD22B",
"d@	c #95CB32",
"e@	c #92C935",
"f@	c #92C835",
"g@	c #B0E220",
"h@	c #ADE01F",
"i@	c #91B424",
"j@	c #BE956B",
"k@	c #594328",
"l@	c #E0B898",
"m@	c #B05401",
"n@	c #E38606",
"o@	c #A6AC1F",
"p@	c #A7D84F",
"q@	c #698D29",
"r@	c #92B65B",
"s@	c #A3D736",
"t@	c #A7D846",
"u@	c #97CD2F",
"v@	c #8FC536",
"w@	c #8EC537",
"x@	c #92C734",
"y@	c #94CB32",
"z@	c #AADD28",
"A@	c #8FAE24",
"B@	c #645F27",
"C@	c #AE630B",
"D@	c #A97C19",
"E@	c #A6921E",
"F@	c #A0D152",
"G@	c #76A130",
"H@	c #6C8E2E",
"I@	c #ADDB50",
"J@	c #A1D537",
"K@	c #ADDE21",
"L@	c #A0D428",
"M@	c #9AD02C",
"N@	c #94C932",
"O@	c #92C833",
"P@	c #B4E14E",
"Q@	c #778927",
"R@	c #5A4628",
"S@	c #ABA518",
"T@	c #B7DD81",
"U@	c #9EBA29",
"V@	c #ACDD21",
"W@	c #AEDD4B",
"X@	c #638428",
"Y@	c #91AB68",
"Z@	c #A7DA29",
"`@	c #97CE30",
" #	c #9ED22B",
".#	c #9ED12C",
"+#	c #A1D155",
"@#	c #658326",
"##	c #161E09",
"$#	c #584028",
"%#	c #567212",
"&#	c #BFE383",
"*#	c #A4D636",
"=#	c #A1D42F",
"-#	c #779F2B",
";#	c #526A2F",
">#	c #91B65B",
",#	c #ACDD22",
"'#	c #A3D726",
")#	c #A0D32A",
"!#	c #A3D825",
"~#	c #9CD032",
"{#	c #78A029",
"]#	c #384A28",
"^#	c #080808",
"/#	c #808080",
"(#	c #B8B8B8",
"_#	c #38490C",
":#	c #739A1D",
"<#	c #A4D450",
"[#	c #7AA52C",
"}#	c #48632A",
"|#	c #95B75E",
"1#	c #AEE025",
"2#	c #AFE020",
"3#	c #A8DB22",
"4#	c #99CE2F",
"5#	c #79A42C",
"6#	c #3D5028",
"7#	c #2B2D30",
"8#	c #282830",
"9#	c #101028",
"0#	c #2B2E30",
"a#	c #425330",
"b#	c #719B23",
"c#	c #9ECF52",
"d#	c #56792E",
"e#	c #859C6E",
"f#	c #A3D827",
"g#	c #9FD052",
"h#	c #5B7C2B",
"i#	c #192028",
"j#	c #3A4E29",
"k#	c #7BA524",
"l#	c #9AD030",
"m#	c #A7DA2A",
"n#	c #7AA229",
"o#	c #4C6531",
"p#	c #8FB35C",
"q#	c #B0E120",
"r#	c #AFE11E",
"s#	c #ACDF1F",
"t#	c #9BCF2D",
"u#	c #7BA42A",
"v#	c #415130",
"w#	c #344729",
"x#	c #80A920",
"y#	c #81AA29",
"z#	c #4F6830",
"A#	c #8AAC61",
"B#	c #9ACF33",
"C#	c #AFE21E",
"D#	c #89C23E",
"E#	c #A9DB22",
"F#	c #99CF2D",
"G#	c #9BD02C",
"H#	c #A0D051",
"I#	c #597A2C",
"J#	c #2C3030",
"K#	c #58791D",
"L#	c #A5D553",
"M#	c #AFE01F",
"N#	c #A6D74F",
"O#	c #5C7E2B",
"P#	c #89A06D",
"Q#	c #A2D250",
"R#	c #9AD12D",
"S#	c #8AC33C",
"T#	c #8BC33B",
"U#	c #8AC23C",
"V#	c #8CC439",
"W#	c #90C836",
"X#	c #99CE2D",
"Y#	c #79A423",
"Z#	c #42522F",
"`#	c #354829",
" $	c #7BA21F",
".$	c #A5D932",
"+$	c #ABDD36",
"@$	c #759D2B",
"#$	c #8DB25D",
"$$	c #ADE021",
"%$	c #A0D42C",
"&$	c #AADE21",
"*$	c #A4D825",
"=$	c #91C935",
"-$	c #94C933",
";$	c #64881E",
">$	c #313730",
",$	c #1B2228",
"'$	c #58781A",
")$	c #B4DD70",
"!$	c #A9D947",
"~$	c #B1DD59",
"{$	c #79A128",
"]$	c #8EAF60",
"^$	c #93C939",
"/$	c #A6DA27",
"($	c #A9DC25",
"_$	c #98CF31",
":$	c #9DD12A",
"<$	c #9BD22B",
"[$	c #90C738",
"}$	c #7BA521",
"|$	c #3F5227",
"1$	c #161A28",
"2$	c #1C2328",
"3$	c #5E7C15",
"4$	c #C2E48C",
"5$	c #80A718",
"6$	c #688626",
"7$	c #6B892C",
"8$	c #A9D94E",
"9$	c #9BCF2F",
"0$	c #A3D826",
"a$	c #AEE11E",
"b$	c #AFE11D",
"c$	c #8DC539",
"d$	c #9CD22C",
"e$	c #AADC20",
"f$	c #A9DA45",
"g$	c #6F9720",
"h$	c #374828",
"i$	c #384928",
"j$	c #4E6B16",
"k$	c #394A28",
"l$	c #1D2709",
"m$	c #44542F",
"n$	c #95B75D",
"o$	c #A1D42B",
"p$	c #92C936",
"q$	c #AEE11F",
"r$	c #92CA35",
"s$	c #9FD22A",
"t$	c #AEE01D",
"u$	c #B3D883",
"v$	c #4C691A",
"w$	c #151A28",
"x$	c #0F1409",
"y$	c #171B28",
"z$	c #547014",
"A$	c #BBE07F",
"B$	c #A0D429",
"C$	c #94CA34",
"D$	c #93CA33",
"E$	c #92C934",
"F$	c #A7DB23",
"G$	c #7AA329",
"H$	c #3E4E30",
"I$	c #F0F0F0",
"J$	c #101608",
"K$	c #4F6727",
"L$	c #93C01D",
"M$	c #ABDC22",
"N$	c #95CA36",
"O$	c #678B28",
"P$	c #2F3530",
"Q$	c #F7E0B7",
"R$	c #F0DFAF",
"S$	c #7FA61A",
"T$	c #A4D72B",
"U$	c #9FD051",
"V$	c #58782C",
"W$	c #2C3130",
"X$	c #F8E0B8",
"Y$	c #DBBB92",
"Z$	c #84A429",
"`$	c #A7DB28",
" %	c #9CD02F",
".%	c #7FA828",
"+%	c #364929",
"@%	c #BF896F",
"#%	c #71832B",
"$%	c #A5D552",
"%%	c #A4D64F",
"&%	c #618128",
"*%	c #2E3230",
"=%	c #5C7D18",
"-%	c #A4D452",
";%	c #7BA52A",
">%	c #3A4C28",
",%	c #374A28",
"'%	c #75A126",
")%	c #A6DA24",
"!%	c #ACDD20",
"~%	c #66892A",
"{%	c #303630",
"]%	c #1E2728",
"^%	c #6A8D19",
"/%	c #A6D924",
"(%	c #678B29",
"_%	c #698B18",
":%	c #A0D436",
"<%	c #66891B",
"[%	c #617F15",
"}%	c #B1DC69",
"|%	c #6A8B19",
"1%	c #34460D",
"2%	c #618017",
"3%	c #83AE22",
"4%	c #668A1C",
"5%	c #1F2A0A",
"6%	c #381800",
"7%	c #101508",
"8%	c #222F0B",
"9%	c #688C1D",
"0%	c #91C837",
"a%	c #7AA728",
"b%	c #5A7A1C",
"c%	c #35490E",
"d%	c #1A240A",
"e%	c #151D09",
"f%	c #5A4728",
"g%	c #B8B9B6",
"h%	c #3B4D0C",
"i%	c #658415",
"j%	c #A8D74C",
"k%	c #85AD1B",
"l%	c #709114",
"m%	c #648214",
"n%	c #35490F",
"o%	c #19230A",
"p%	c #171F09",
"q%	c #181F09",
"r%	c #182008",
"s%	c #5A4528",
"t%	c #3E2C01",
"u%	c #4F5104",
"v%	c #72890D",
"w%	c #739412",
"x%	c #86AE1B",
"y%	c #A8D84C",
"z%	c #AADB22",
"A%	c #AFE023",
"B%	c #B5E24E",
"C%	c #83AC1B",
"D%	c #678A1B",
"E%	c #62851D",
"F%	c #678919",
"G%	c #709113",
"H%	c #6E8F14",
"I%	c #78920F",
"J%	c #738E13",
"K%	c #6F8B18",
"L%	c #83AB1B",
"M%	c #B7E44D",
"N%	c #AFE123",
"O%	c #AEDF1F",
"P%	c #A6D931",
"Q%	c #A9DB34",
"R%	c #AADA49",
"S%	c #A8D84A",
"T%	c #A7D74A",
"U%	c #ADDD47",
"V%	c #B1E146",
"W%	c #B6E345",
"X%	c #B6E445",
"Y%	c #AEDD47",
"Z%	c #A2D537",
"`%	c #ADDF2E",
" &	c #A9D56D",
".&	c #B0E123",
"+&	c #AADC34",
"@&	c #ABDB44",
"#&	c #ACDC48",
"$&	c #ADDC48",
"%&	c #A9D949",
"&&	c #A4D54C",
"*&	c #B5E345",
"=&	c #B3E145",
"-&	c #A9DA44",
";&	c #9CD03B",
">&	c #99CE34",
",&	c #A6D932",
"'&	c #B4DE69",
")&	c #A4D927",
"  . + @ # $ % & * = - ; > , ' ) > ! ~ { ] ^ / ( _ : < [ } | & ) 1 2 3 @ @ | 4 5 6 7 2 8 * 9 + 0 ",
"> a b c d e f g h i j k l m < < 8 n o p q r s t u ] v ) w & x y z A 2 B C A 6 D E F 2 G A H I J ",
"K L M N O P 5 Q * i R S { T y U V W { X f Y Z ( `  .l [ < < 1 j 1 ..+.@.#.$.%.@.D +.A $ &.*.=.-.",
";.>.,.'.).) w !.x ~.R { {.) 1 ].^.P /.(._.:.<.[.}.|.m < *.m 1.2.3.[ +.4.5.z 6 6.A 7.8.9.0.*.a.' ",
"b.c.7.> $ > d.1 e.f.g.j h., P ; - i.j.k.l.m.n.o.p.q.r.f.9.8 1 [ w s.%.g.' f.t.* u.a L v.w.x.y.y.",
"8.0 4 z.z.*.A.l y B.w P C.< D.E.F.G.H.I.J.K.L.M.N.O.P.Q.7.R.S.T.U.V.g.% S.; t.W.> v $ x | X.h.Y.",
"2 Z.A.`.* )  + +.+++@+#++++.[ $+%+&+*+=+=+-+;+=+=+>+,+'+)+!+{ [ `. +~+{+h.7.t.A W.+.& P y u.M ^.",
"z . 7.]+^+) 8 ) /+(+_+_+`.$.:+<+[+I.;+=+=+=+=+=+=+=+;+>+}+|+1+:+:+> 2+3+] *.y 4+R D.{+1 & y 5+E.",
"~+[ < !.x V T S R : [ 6+U.7+8+9+J.=+=+=+=+=+=+=+=+=+=+=+0+a+b+c+l C.^.d+7+B.e+> 3.f+L M d.*.0 z ",
"~+~+3+' 8 S./ g+g+R.T.m 1 :+h+i+-+=+=+=+=+=+=+=+=+=+=+=+=+>+j+k+e V L j 3+^+z.l+m+C.E.8 B.e.U.n+",
"z.s.z ) o+T p+q+r+- ] ; ^.s+t+u+v+=+=+=+=+=+=+=+=+;+=+=+;+>+w+x+y+y u.4+d * 0 z+>.G , !.z.A+y+B+",
"g.& y ..] ! C.C+D+1 j P ! E+F+G+=+=+;+=+=+=+=+=+=+;+;+;+;+>+H+I+f J+3.3.u.d.] l 1 7.| | [ x V h.",
") 5+V *.d {+C.V V < ] ) A K+L+M+;+=+;+=+=+;+=+;+=+=+;+N+;+O+P+Q+3.R+S+T+R u.D.5+g.U+V+ +) S.W+X+",
"u.u.{+. z f ; V R.- 1 ) f.,.Y+Z+=+;+N+;+=+;+;+;+;+;+;+N+N+`+ @.@Y.g+/ '.S.3.) > C +@@@C [ : #@}.",
"3.S 1 w $@y *.{+u., [ /+l U %@&@0+N+N+;+;+;+;+;+;+;+;+;+N+*@=@-@X+].p+S.^.! f.;@>@,@g.+.~+m '@#@",
"8 ! )@f.0 0 [ A } 4 y+8 C+|.!@~@O+N+N+;+;+;+;+;+;+N+;+;+N+{@]@^@/@D.7.>.^.] (@_@:@<@' 0 ^+d.^.l ",
"V m | y < W.U.+.[@}@e.~.|@1@2@3@4@N+5@N+;+N+;+;+;+N+;+N+>+6@7@8@S+x ! 4+3.9@0@a@b@& [ y ) 3+1 y+",
"E.T ..3 c@d@e@f@$@[ > 8 g@h@f+i@j@k@l@N+;+N+;+N+;+;+N+m@n@o@Y.R 8 D.).&.p@q@r@s@t@' * 5+M ^.j 5+",
"]+f.6.+ u@v@w@x@y@u@z ) 5+{ 8 z@A@B@5@N+N+N+;+N+N+v+C@D@E@F@s.j T < {.z G@H@I@f+J@^+[ : K@^.R ) ",
"3.2 L@M@7 N@J O@A x * 8 ; 2+1 V P@Q@R@N+N+N+;+N+N+N.S@T@U@U g+T U.) V@W@X@Y@Z@U x+`@[@v ^.P ] ] ",
"7.a.b  #6 B .#*.d.e ' u.1 d.m u.+#@###$#N+$#N+N+k@%#&#*#^+5.].T [ y =#-#;#>#: D+E.; V ^.,#/ - S ",
"'#L@O d z )#c 7.V 4+& !#P e+d.~#{#]#^#/#(#(#/#/#^#_#:#<#}@x <@g.A+[ [#}#|#1#2#8 ].>.y.2#g+g+f+^ ",
"O f.* ..; * 0 x z+3#* 4#3 d | 5#6#7#8#9#9#9#9#9#8#0#a#b#Q y & A+C c#d#e#<#h.~.4+*.A a D+|.R.'@: ",
"R.f#3+(+f+) T.& R c 0 4#} 4.g#h#i#8#8#8#8#8#8#8#8#8#7#j#k#+.l#!.m#n#o#p#& 4 V+R v y 5+q+q#q#q+{ ",
"r#M s#2+/+- b C t.c@@ x , t#u#v#9#9#8#8#8#8#9#8#8#8#8#w#x#: 8 T y#z#A#B#C#h.0 1 { 5+v T R.|@|@D#",
"W+h.d E#f.& @ F#4.<@G#2 '#H#I#J#^#9#8#8#8#9#8#8#8#8#i#K#L#M#{.N#O#P#Q#R#].].u.| y+m y+^ / |.] S#",
"8 e+g.< * T#U#T#V#d@W#X# #Y#Z#9#^#9#9#8#8#9#8#8#8#9#`# $.$C.+$@$z##$| e.K@g+S.y+g.y+2+T v $$%$+.",
"& {+a ,#&$*$7 =$-$*.~+e@U+;$>$9#^#^#9#8#9#8#8#8#8#,$'$)$!$~${$;#]$^$+.y+P & /+l#+.3+1 /$($l m _$",
"R ; L m+&$< :$<$9 e@[$@.$@}$|$1$^#^#9#8#9#8#8#8#9#2$3$4$5$6$6#7$8$~+9$0$: V a$b$a 2+) {.].Y.: 3+",
"*.O 3.V u.0 # '.4#c$-.d$e$f$g$h$^#^#9#9#^#8#8#8#8#9#i$j$k$l$m$n$m o$J+p$[@{.q$W+S+B+[ T g+W+r$8 ",
"A f s$3 7.+ w.<@5.V+y@=.t$).u$v$w$9#^#9#^#9#8#8#8#8#/#x$^#y$z$A$m U f#' ) h.D+{.{+g.:+4+2#{.1 V ",
"* *.c@B$$ =.C$D$E$C 6.*.F$G#G$H$8#9#9#9#^#^#9#8#8#8#I$5@l@J$K$L$f+e.f.% v M {.V < y+1 8 f+< e+M$",
"1 2 3 @ @ | 4 5 6 7 2 8 * N$O$P$9#9#9#9#9#^#9#8#8#I$$#l@Q$R$S$T$  . + @ # $ % & * = - ; > , ' ) ",
"z A 2 B C A 6 C 4#F 2 G A U$V$W$9#8#8#9#9#^#9#9#(#$#5@X$Y$Z$`$'.> a b c d e f U. %i j k l m < < ",
"1 ..+.@.#.$.%.@.C +.A $ &..%+%8#8#9#8#9#8#^#9#/#^#$#5@@%#%$%1 ^.K L M N O P 5 | * i R S { T y U ",
"3.[ +.4.5.z 6 6.A 7.8.9.%%&%*%9#^#8#8#8#8#8#^#^#8#9#$#R@=%-%[@; ;.>.,.'.).) w !.x ~.R { {.) 1 ].",
"w s.%.g.' f.t.* u.a L v.;%>%8#^#9#8#8#8#8#9#9#9#8#8#9#^#,%'%)%!%b.c.7.> $ > d.1 e.f.g.j h., P ; ",
"U.V.g.% S.; t.W.> v $ x ~%{%^#9#8#8#9#8#8#9#9#9#^#8#9#^#]%^%f /%8.0 4 z.z.*.A.l y B.w P C.< D.E.",
"`. +~+{+h.7.t.A W.+.& P (%*%^#9#8#^#9#8#9#9#9#^#^#8#9#^#,$_%:%3 2 Z.A.`.* )  + +.+++@+#++++.[ $.",
":+> 2+3+] *.y 4+R D.{+1 <%##^#9#8#^#9#8#^#9#^#^#^#8#9#9#2$[%}%@ z . 7.]+^+) 8 ) /+(+_+_+`.$.:+< ",
"l C.^.d+7+B.e+> 3.f+L M |%##^#9#8#^#9#8#^#9#^#^#^#9#^#^#^#1%2%3%~+[ < !.x V T S R : [ 6+U.7+,@;@",
"e V L j 3+^+z.l+m+C.E.8 4%5%^#9#9#^#^#8#^#^#^#^#^#^#$#6%^#7%8%9%~+~+3+' 8 S./ g+g+R.T.m 1 :+0%@@",
"y+y u.4+d * 0 z+>.G , !.a%b%c%d%e%^#^#^#^#^#^#$#6%6%(#f%g%h%i%3%z.s.z ) o+T p+q+r+- ] ; ^.= 3+@.",
"f J+3.3.u.d.] l 1 7.| | [ j%k%l%m%n%o%##p%q%r%R@s%t%u%v%w%x%y%} g.& y ..] ! C.C+D+1 j P ! ) b.z%",
"3.R+S+T+R u.D.5+g.U+V+ +) S.W+A%B%C%D%E%F%G%H%I%J%K%L%M%N%! ~+| ) 5+V *.d {+C.V V < ] ) A ' f+O%",
"Y.g+/ '.S.3.) P%C +@@@C [ : #@}.M#Q%R%S%T%U%V%W%X%Y%Z%f+; U.s.U.u.u.{+. z f ; V `%- 1 ) f.,.g+D+",
"X+].p+S.^.! f. &>@,@g.+.~+m '@.&+&@&#&$&%&&&R%*&W%=&-&;&>&z._+A 3.S 1 w $@y *.,&'&, [ /+l U D+{.",
"/@D.7.>.^.] %.z.z.<@' 0 ^+d.^.l )&U ].h.h.2+d+m+h@u.x e++.[ B+A.8 ! )@f.0 0 [ A } 4 y+8 C+|.|.j "};
