/* XPM */
static char * ichigo48_L_xpm[] = {
"48 48 306 2",
"  	c #A1D527",
". 	c #A1D628",
"+ 	c #9FD429",
"@ 	c #9FD32A",
"# 	c #A1D429",
"$ 	c #A4D826",
"% 	c #A2D529",
"& 	c #9ED32C",
"* 	c #9CD12D",
"= 	c #A1D52B",
"- 	c #A8DC24",
"; 	c #A7DA25",
"> 	c #A5D826",
", 	c #A5D926",
"' 	c #9ED22C",
") 	c #A2D629",
"! 	c #A4D727",
"~ 	c #A3D62A",
"{ 	c #A7DA26",
"] 	c #A2D62A",
"^ 	c #A6DA26",
"/ 	c #ACDE22",
"( 	c #AADD24",
"_ 	c #ADE022",
": 	c #A9DC24",
"< 	c #A1D52A",
"[ 	c #9DD22D",
"} 	c #9DD12D",
"| 	c #9BD02E",
"1 	c #A3D728",
"2 	c #A1D528",
"3 	c #A2D528",
"4 	c #9BD12D",
"5 	c #9DD12C",
"6 	c #98CD30",
"7 	c #96CC31",
"8 	c #A8DB24",
"9 	c #94CA33",
"0 	c #9FD32B",
"a 	c #AADC22",
"b 	c #A7DA23",
"c 	c #A4D726",
"d 	c #A3D628",
"e 	c #A5D925",
"f 	c #9FD42A",
"g 	c #9AD02F",
"h 	c #9CD02F",
"i 	c #A2D52A",
"j 	c #A4D828",
"k 	c #A5D828",
"l 	c #A5D927",
"m 	c #A6D926",
"n 	c #A9DC23",
"o 	c #9DD32B",
"p 	c #A3D72B",
"q 	c #A6DA28",
"r 	c #A7DB25",
"s 	c #A0D42B",
"t 	c #A1D529",
"u 	c #A0D52A",
"v 	c #9DD22C",
"w 	c #9ED32B",
"x 	c #97CC31",
"y 	c #97CD31",
"z 	c #99CE2F",
"A 	c #99D02E",
"B 	c #A8DC23",
"C 	c #97CD30",
"D 	c #94C934",
"E 	c #95CB31",
"F 	c #ADE01E",
"G 	c #ABDD21",
"H 	c #ABDE21",
"I 	c #A8DC22",
"J 	c #A5D825",
"K 	c #A3D729",
"L 	c #A4D827",
"M 	c #A6D927",
"N 	c #A8DB25",
"O 	c #AADD22",
"P 	c #A5D727",
"Q 	c #99CE30",
"R 	c #ACDF23",
"S 	c #AEE021",
"T 	c #A2D728",
"U 	c #98CE31",
"V 	c #94CB34",
"W 	c #91C835",
"X 	c #98CF30",
"Y 	c #95CC32",
"Z 	c #A2D727",
"` 	c #A2D628",
" .	c #9ACF2E",
"..	c #8DC43A",
"+.	c #AADC24",
"@.	c #A9DB23",
"#.	c #A7DA24",
"$.	c #A7D924",
"%.	c #A6D826",
"&.	c #9FD32C",
"*.	c #A8DB23",
"=.	c #ADDF21",
"-.	c #ACDE21",
";.	c #AADD23",
">.	c #9FD42C",
",.	c #E87800",
"'.	c #B05000",
").	c #A8DA26",
"!.	c #A5D928",
"~.	c #A8DA24",
"{.	c #94CB33",
"].	c #95CB33",
"^.	c #9ED32A",
"/.	c #A3D727",
"(.	c #A2D627",
"_.	c #A1D42A",
":.	c #9CD32C",
"<.	c #A9DC21",
"[.	c #A7D925",
"}.	c #9DD32C",
"|.	c #A4D728",
"1.	c #A0D529",
"2.	c #A0D42A",
"3.	c #99CF30",
"4.	c #ADDF20",
"5.	c #A2D62B",
"6.	c #99CF31",
"7.	c #F8A848",
"8.	c #95CC33",
"9.	c #93CA34",
"0.	c #A6D925",
"a.	c #A0D528",
"b.	c #9CD12C",
"c.	c #A6D824",
"d.	c #ADDF1F",
"e.	c #96CC32",
"f.	c #A1D629",
"g.	c #9CD22D",
"h.	c #ABDE22",
"i.	c #A3D629",
"j.	c #A9DB24",
"k.	c #A4D926",
"l.	c #AADC23",
"m.	c #A0D52B",
"n.	c #90C837",
"o.	c #9AD02E",
"p.	c #A4D628",
"q.	c #AEDF20",
"r.	c #9ED22A",
"s.	c #97CD32",
"t.	c #92C836",
"u.	c #95CB34",
"v.	c #95CC34",
"w.	c #99D030",
"x.	c #98CD31",
"y.	c #98CE30",
"z.	c #A5D827",
"A.	c #9BD02D",
"B.	c #9ACF30",
"C.	c #9DD22E",
"D.	c #9CD12F",
"E.	c #96CC33",
"F.	c #9BD02F",
"G.	c #9CD12E",
"H.	c #A7DB24",
"I.	c #A6DA25",
"J.	c #9BD12F",
"K.	c #99CE31",
"L.	c #93C935",
"M.	c #97CE31",
"N.	c #9ED22D",
"O.	c #9BD12E",
"P.	c #ABDD22",
"Q.	c #AEE020",
"R.	c #ACDF21",
"S.	c #91C837",
"T.	c #8FC638",
"U.	c #A3D627",
"V.	c #ABDE20",
"W.	c #98CD32",
"X.	c #A7D926",
"Y.	c #ACDF22",
"Z.	c #B1E31E",
"`.	c #B1E21E",
" +	c #AADD21",
".+	c #97CC32",
"++	c #9FD42B",
"@+	c #9ED32D",
"#+	c #AFE120",
"$+	c #AFE11F",
"%+	c #AADB22",
"&+	c #A0D32B",
"*+	c #AEDF1F",
"=+	c #584028",
"-+	c #A8DA25",
";+	c #282830",
">+	c #B8B8B8",
",+	c #8FC637",
"'+	c #93CA35",
")+	c #B0E21E",
"!+	c #AFE01E",
"~+	c #C08870",
"{+	c #E0B898",
"]+	c #F8E0B8",
"^+	c #808080",
"/+	c #90C737",
"(+	c #B0E11E",
"_+	c #B2E31E",
":+	c #080808",
"<+	c #FFFFFF",
"[+	c #92C935",
"}+	c #ADE020",
"|+	c #9ED42B",
"1+	c #B0E11F",
"2+	c #101028",
"3+	c #99CF2F",
"4+	c #9ACF2F",
"5+	c #B1E21F",
"6+	c #B3E41D",
"7+	c #ABDD23",
"8+	c #96CD32",
"9+	c #9DD22B",
"0+	c #95CB32",
"a+	c #92C835",
"b+	c #B0E220",
"c+	c #ADE01F",
"d+	c #ACDF20",
"e+	c #B1E31D",
"f+	c #F0F0F8",
"g+	c #97CD2F",
"h+	c #8FC536",
"i+	c #8EC537",
"j+	c #92C734",
"k+	c #94CB32",
"l+	c #B0E11D",
"m+	c #ADDE21",
"n+	c #A0D428",
"o+	c #9AD02C",
"p+	c #94C932",
"q+	c #92C833",
"r+	c #97CE30",
"s+	c #9ED22B",
"t+	c #9ED12C",
"u+	c #681010",
"v+	c #ACDD22",
"w+	c #A3D726",
"x+	c #A0D32A",
"y+	c #A3D825",
"z+	c #AFE020",
"A+	c #A8DB22",
"B+	c #B81818",
"C+	c #8DC539",
"D+	c #A3D827",
"E+	c #B0E120",
"F+	c #AFE11E",
"G+	c #ACDF1F",
"H+	c #9BCF2D",
"I+	c #98CE32",
"J+	c #92C936",
"K+	c #AFE21E",
"L+	c #89C23E",
"M+	c #A9DB22",
"N+	c #99CF2D",
"O+	c #9BD02C",
"P+	c #AFE01F",
"Q+	c #9AD12D",
"R+	c #8AC33C",
"S+	c #8BC33B",
"T+	c #8AC23C",
"U+	c #8CC439",
"V+	c #90C836",
"W+	c #99CE2D",
"X+	c #ADE021",
"Y+	c #A0D42C",
"Z+	c #AADE21",
"`+	c #A4D825",
" @	c #91C935",
".@	c #94C933",
"+@	c #9AD030",
"@@	c #A6DA27",
"#@	c #A9DC25",
"$@	c #98CF31",
"%@	c #9DD12A",
"&@	c #9BD22B",
"*@	c #90C738",
"=@	c #A9DD23",
"-@	c #9BCF2F",
";@	c #A3D826",
">@	c #AEE11E",
",@	c #AFE11D",
"'@	c #A1D42B",
")@	c #AEE11F",
"!@	c #A9DC22",
"~@	c #92CA35",
"{@	c #9FD22A",
"]@	c #A4D729",
"^@	c #A0D429",
"/@	c #94CA34",
"(@	c #93CA33",
"_@	c #92C934",
":@	c #ABDC22",
"<@	c #A6D825",
"[@	c #B1E21D",
"}@	c #B0E21D",
"|@	c #ACDE20",
"1@	c #A4D927",
"  . + @ # $ % & * = - ; > , ' ) > ! ~ { ] ^ / ( _ : < [ } | & ) 1 2 3 @ @ | 4 5 6 7 2 8 * 9 + 0 ",
"> a b c d e f g h i j k l m < < 8 n : ^ o f = p q ] r ) s & t u v w 2 x y w 6 y z A 2 B w C D E ",
"F G H I J K 5 | * i L M { N u O n P { l f Q ) ( R S l [ < < 1 j 1 T U V W X Y V y U w $ Z `  ...",
"+.@.#.$.%.) s &.t *.L { =.) 1 -.;.K = >.K ,.,.N '.,.'.< ` m ).!.~.[ U {.].v 6 ^.w /.(._.:.` <.' ",
"[.}./.> $ > |.1 1.2.3.j 4., K ; - |.5.6.'.7.7.'.'.,.7.'.'.8 1 [ s 8.Y 3.' 2.9.* 0.a G a.b.c.d.d.",
"(.0 4 e.e.` f.l u g.s K h.< i.j.k.< ,.'.,.7.7.7.,.7.7.,.,.'.l.m.g n.3.% l.; 9.o.> r $ t | p.4.q.",
"2 r.f.s.* ) Q Q t.u.v.w.u.U [ X x.'.'.7.7.,.7.7.7.7.7.7.7.,.'.'.s.Q y.z.4./.9.w o.U & K u 0.H ;.",
"v . /.A.B.) 8 ) C.D.E.E.s.X F.< 0.,.7.7.7.7.7.7.7.7.7.7.7.7.7.'.F.> >.G.] ` u H.L i.z.1 & u I.j.",
"y.[ < &.t n N M L : [ J.g K.L.M.< '.,.7.7.7.7.7.7.7.7.7.7.7.7.,.l h.;.N.K.g.O.> ~.P.G H |.` 0 v ",
"y.y.G.' 8 l./ Q.Q.R.m.m 1 F.S.T.,.,.7.7.,.7.7.7.7.7.7.,.7.,.7.7.'.n G j G.B.e.U.V.h.j.8 g.1.g W.",
"e.8.v ) X.N Y.Z.`.- ] ; ;.= G.V '.'.,.7.,.7.7.,.7.,.7.7.'.,.,.,.,.u 0.H.d * 0  +@.B , &.e..+++@+",
"3.& u T ] ! h.#+$+1 j K ! ) [.%+o.,.,.'.,.7.,.'.7.'.,.7.'.'.,.'.'.&+~.~.0.|.] l 1 /.| | [ t n 4.",
") I.n ` d z.h.n n < ] ) w ' P.*+J ,.,.=+'.,.'.=+,.'.,.7.'.'.'.,.'.-+;+>+;+0.i.I.3.,+'+Q ) l.)+!+",
"0.0.z.. v f ; n R.- 1 ) 2.#.Q.$+> '.'.~+{+'.~+]+'.{+'.,.,.'.'.'.'.'.>+;+^+~.) > y /+T.y [ : (+_+",
"~.M 1 s x.u ` z.0., [ C.l O $+=.G.'.=+:+{+~+]+]+{+~+~+'.,.'.'.'.'.^+;+<+>+! 2.M.[+L.3.U y.m }+(+",
"8 ! |+2.0 0 [ w } 4 ++8 #+1+1+j | =+{+2+{+{+~+=+:+:+{+'.'.{+=+'.2+2+<+<+>+] Y e.e.3+' 0 B.|.;.l ",
"n m | u < o.g U 4+o 1.*.5+6+#+: 7+-.=+;+]+{+~+2+>+:+{+=+'.]+=+'.~+=+<+<+^+f 9 8+g & [ u ) G.1 ++",
"j.N T 3 9+0+[+a+x.[ > 8 b+c+P.d+5+e+=+{+]+]+{+;+f+]+{+~+{+=+'.=+{+{+=+<+<+w [ f.) ' * I.H ;.j I.",
"A.2.^.+ g+h+i+j+k+g+v ) I.{ 8 ( 1+l+2.=+{+]+]+]+{+{+~+=+=+'.2+=+{+]+]+=+^+u > P.f B.[ : m+;.L ) ",
"~.2 n+o+7 p+E q+w t * 8 ; >.1 n =.m :+:+=+~+~+~+~+=+=+:+2+2+;+~+{+]+{+=+>+{ ; O 0.r+4+r ;.K ] ] ",
"/.<.b s+6 x t+` |.e ' 0.1 |.m 0.x.:+2+;+:+=+=+=+~+^+u+:+;+2+^+~+{+{+~+=+& O.: $+j.; n ;.v+/ - M ",
"w+n+J d v x+c /.n H.& y+K O.|.F.:+2+;+;+;+2+2+f+{+^+u+:+;+;+>+~+~+=+=+8+, Q.z+8 -.@.d.z+Q.Q.P.^ ",
"J 2.* T ; * 0 t  +A+* z 3 d | :+;+;+;+;+;+2+;+2+f+^+B+:+2+;+:+>+=+:+C+,+* 4.*.H.` w a $+1+R.}+: ",
"R.D+G.D.P.) m.& L c 0 z } {.:+;+;+;+;+2+;+;+2+;+:+u+B+2+:+;+:+f+:+:+S.U & 4 '+L r u I.Z.E+E+Z.{ ",
"F+H G+>.C.- b y 9.9+@ t , H+^+f+2+;+;+:+;+;+;+2+;+B+:+2+:+:+;+:+^+I+J+3.K+4.0 1 { I.r N R.5+5+L+",
")+4.d M+2.& @ N+{.3+O+2 w+=+~+~+>+;+2+:+;+;+;+:+u+B+:+2+:+P+=.:+r+U  .Q+-.-.0.| ++m ++^ / 1+] R+",
"8 O.3.< * S+T+S+U+0+V+W+=+~+{+~+>+2+2+:+;+;+;+u+B+:+;+2+:+h.: G.U 8.| 1.m+Q.l.++3.++>.N r X+Y+U ",
"& z.a v+Z+`+7  @.@` y.=+=+{+~+~+^+2+2+:+:+u+B+B+:+2+:+:+^+; 1 &.Q J+U ++K & C.+@U G.1 @@#@l m $@",
"L ; G V.Z+< %@&@9 [+*@~+{+]+{+~+^+2+:+u+u+B+:+:+2+:+^+^+2+:+=@+.) y.-@;@: n >@,@a >.) =.-.q.: G.",
"` J ~.n 0.0 # $.z C+=+{+]+]+]+~+2+;+:+:+:+^+f+>+^+f+2+^+2+:+:+j m '@&+J+4+=.)@)+!@@+[ N Q.)+~@8 ",
"w f {@3 /.+ b.3+].'+=+{+]+~+]+~+;+;+:+2+2+2+2+:+:+>+2+2+;+2+:+]@m O D+' ) 4.$+=.z.3.F.H.z+=.1 n ",
"* ` 9+^@$  ./@(@_@y ^.{+{+~+~+=+^+:+2+;+2+;+2+2+2+>+2+2+;+;+2+:+P.1.2.% r H =.n < ++1 8 P.< O.:@",
"1 2 3 @ @ | 4 5 6 7 2 =+=+=+;+^+:+;+;+;+;+;+2+2+;+2+2+2+2+;+;+2+  . + @ # $ % & * = - ; > , ' ) ",
"v w 2 x y w 6 y z A 2 B ^+>+^+;+:+;+;+;+;+;+2+;+2+2+:+2+2+2+;+2+:+a b c d e f g h i j k l m < < ",
"1 T U V W X Y V y U w ^+>+^+;+:+;+;+;+;+2+;+;+;+2+2+:+2+;+2+;+2+:+G H I J K 5 | * i L M { N u O ",
"~.[ U {.].v 6 ^.w /.(.>+^+;+<.:+;+;+;+2+;+;+;+;+2+:+:+2+;+2+2+2+:+@.#.$.%.) s &.t *.L { =.) 1 -.",
"s 8.Y 3.' 2.9.* 0.a G ^+;+c.d.:+;+;+;+2+;+;+2+;+2+:+:+2+2+2+2+2+:+}./.> $ > |.1 1.2.3.j 4., K ; ",
"g n.3.% l.; 9.o.> r >+t | p.4.2+;+;+2+;+;+2+;+;+2+:+:+:+2+2+:+:+2+^+4 e.e.` f.l u g.s K h.< i.j.",
"s.Q y.z.4./.9.w o.U & K u 0.:+2+2+;+2+;+;+2+;+2+2+:+:+:+:+;+=+^+>+=+^+s.* ) Q Q t.u.v.w.u.U [ X ",
"F.> >.G.] ` u H.L i.z.1 & u :+2+2+2+2+;+;+2+2+2+:+:+2+2+=+=+~+^+~+>+=+A.B.) 8 ) C.D.E.E.s.X F.< ",
"l h.;.N.K.g.O.> ~.P.G H |.^+2+:+2+2+2+2+2+2+2+2+:+:+:+:+:+:+=+=+=+=+< &.t n N M L : [ J.g K.L.M.",
"e n G j G.B.e.U.V.h.j.8 g.~+~+^+>+2+:+:+:+:+:+:+:+:+:+:+:+:+:+:+:+y.G.' 8 l./ Q.Q.R.m.m 1 F.S.T.",
"++u 0.H.d * 0  +@.B , &.=+>+f+=+~+~+~+=+:+:+:+:+:+:+:+:+:+:+:+:+e.8.v ) X.N Y.Z.`.- ] ; ;.= G.V ",
"f &+~.~.0.|.] l 1 /.| | [ ~+~+=+f+~+=+:+:+:+:+:+:+:+:+:+:+:+] } 3.& u T ] ! h.#+$+1 j K ! ) [.%+",
"~.-+!@<@L 0.i.I.3.,+'+Q ) l.=+=+=+=+:+:+:+:+:+:+:+:+:+[@F+! y.| ) I.n ` d z.h.n n < ] ) w ' P.*+",
"q.Q./ $.l.~.) > y /+T.y [ : (+_+P+; j ) < *.d+[@e+j.2.P.; g 8.g 0.0.z.. v f ; n R.- 1 ) 2.#.Q.$+",
"!+-.Y.l.;.! 2.M.[+L.3.U y.m }+(+N m I.; 1 @+j }@`.*+$ 4+U e.E.w ~.M 1 s x.u ` z.0., [ C.l O $+=.",
"|@i./.@.;.] Y e.e.3+' 0 B.|.;.l 1@O -.4.4.>.N.V.c+0.t O.U [ @+f.8 ! |+2.0 0 [ w } 4 ++8 #+1+1+j "};
