/* XPM */
static char * ichigo48_xpm[] = {
"48 48 612 2",
"  	c #A1D527",
". 	c #A1D628",
"+ 	c #9FD429",
"@ 	c #9FD32A",
"# 	c #A1D429",
"$ 	c #A4D826",
"% 	c #A2D529",
"& 	c #9ED32C",
"* 	c #9CD12D",
"= 	c #A1D52B",
"- 	c #A8DC24",
"; 	c #A7DA25",
"> 	c #A5D826",
", 	c #A5D926",
"' 	c #9ED22C",
") 	c #A2D629",
"! 	c #A4D727",
"~ 	c #A3D62A",
"{ 	c #A7DA26",
"] 	c #A2D62A",
"^ 	c #A6DA26",
"/ 	c #ACDE22",
"( 	c #AADD24",
"_ 	c #ADE022",
": 	c #A9DC24",
"< 	c #A1D52A",
"[ 	c #9DD22D",
"} 	c #9DD12D",
"| 	c #9BD02E",
"1 	c #A3D728",
"2 	c #A1D528",
"3 	c #A2D528",
"4 	c #9BD12D",
"5 	c #9DD12C",
"6 	c #98CD30",
"7 	c #96CC31",
"8 	c #A8DB24",
"9 	c #94CA33",
"0 	c #9FD32B",
"a 	c #AADC22",
"b 	c #A7DA23",
"c 	c #A4D726",
"d 	c #A3D628",
"e 	c #A5D925",
"f 	c #A2D53A",
"g 	c #9BD032",
"h 	c #9CD02F",
"i 	c #A2D52A",
"j 	c #A4D828",
"k 	c #A5D828",
"l 	c #A5D927",
"m 	c #A6D926",
"n 	c #A9DC27",
"o 	c #AADC30",
"p 	c #A7DA2E",
"q 	c #A5D651",
"r 	c #A5B321",
"s 	c #A9D851",
"t 	c #A4D732",
"u 	c #ADDC4F",
"v 	c #A7B521",
"w 	c #AEDD4E",
"x 	c #A3D62D",
"y 	c #A1D42F",
"z 	c #A1D529",
"A 	c #A0D52A",
"B 	c #9DD22C",
"C 	c #9ED32B",
"D 	c #97CC31",
"E 	c #97CD31",
"F 	c #98CD34",
"G 	c #9CCF3E",
"H 	c #99D02E",
"I 	c #A8DC23",
"J 	c #97CD30",
"K 	c #94C934",
"L 	c #95CB31",
"M 	c #ADE01E",
"N 	c #ABDD21",
"O 	c #ABDE21",
"P 	c #A8DC22",
"Q 	c #A5D825",
"R 	c #A3D729",
"S 	c #9ED130",
"T 	c #A4D827",
"U 	c #A6D927",
"V 	c #A8DB25",
"W 	c #AADD22",
"X 	c #A9DC23",
"Y 	c #A5D727",
"Z 	c #A8D424",
"` 	c #AADB47",
" .	c #A4BB23",
"..	c #D39A18",
"+.	c #A6BD22",
"@.	c #AFDF47",
"#.	c #BFC91D",
"$.	c #D8A30F",
"%.	c #A7C622",
"&.	c #9ED230",
"*.	c #A2D728",
"=.	c #98CE31",
"-.	c #94CB34",
";.	c #91C835",
">.	c #98CF30",
",.	c #95CC32",
"'.	c #A2D727",
").	c #A2D628",
"!.	c #9ACF2E",
"~.	c #8DC43A",
"{.	c #AADC24",
"].	c #A9DB23",
"^.	c #A7DA24",
"/.	c #A7D924",
"(.	c #A6D826",
"_.	c #A0D42B",
":.	c #9FD32C",
"<.	c #A8DB23",
"[.	c #ADDF21",
"}.	c #ACDE21",
"|.	c #AADD23",
"1.	c #A5D839",
"2.	c #A7B120",
"3.	c #A99C1B",
"4.	c #ECB144",
"5.	c #E67C02",
"6.	c #AC7410",
"7.	c #AD9D15",
"8.	c #EEB443",
"9.	c #F5AB47",
"0.	c #ABA919",
"a.	c #A8D84E",
"b.	c #A3D026",
"c.	c #A8DA26",
"d.	c #A5D928",
"e.	c #A8DA24",
"f.	c #94CB33",
"g.	c #95CB33",
"h.	c #9ED32A",
"i.	c #A3D727",
"j.	c #A2D627",
"k.	c #A1D42A",
"l.	c #9CD32C",
"m.	c #A9DC21",
"n.	c #A7D925",
"o.	c #9DD32C",
"p.	c #A4D728",
"q.	c #A0D529",
"r.	c #A0D42A",
"s.	c #99CF30",
"t.	c #ADDF20",
"u.	c #A8DA30",
"v.	c #AAC91F",
"w.	c #AAA91B",
"x.	c #DE8E0D",
"y.	c #E67C03",
"z.	c #F8A848",
"A.	c #E87800",
"B.	c #F7A948",
"C.	c #E09008",
"D.	c #A99B19",
"E.	c #C0B820",
"F.	c #A9DB30",
"G.	c #95CC33",
"H.	c #93CA34",
"I.	c #A6D925",
"J.	c #A0D528",
"K.	c #9CD12C",
"L.	c #A6D824",
"M.	c #ADDF1F",
"N.	c #96CC32",
"O.	c #A1D629",
"P.	c #9CD22D",
"Q.	c #ABDE22",
"R.	c #A4D027",
"S.	c #ACB71B",
"T.	c #AE7A0C",
"U.	c #F6AA47",
"V.	c #ADC71C",
"W.	c #ABDC2B",
"X.	c #A0D52B",
"Y.	c #9AD02F",
"Z.	c #90C837",
"`.	c #AADC23",
" +	c #9AD02E",
".+	c #A7DB25",
"++	c #A4D628",
"@+	c #AEDF20",
"#+	c #9ED22A",
"$+	c #97CD32",
"%+	c #99CE30",
"&+	c #92C836",
"*+	c #95CB34",
"=+	c #95CC34",
"-+	c #99D030",
";+	c #A2D448",
">+	c #A6991E",
",+	c #F6A947",
"'+	c #D6A112",
")+	c #A8D224",
"!+	c #98CE30",
"~+	c #A5D827",
"{+	c #9BD02D",
"]+	c #9ACF30",
"^+	c #9DD22E",
"/+	c #9CD12F",
"(+	c #96CC33",
"_+	c #A0BE29",
":+	c #E77A01",
"<+	c #AB9A18",
"[+	c #ABD94D",
"}+	c #9BD02F",
"|+	c #9FD42C",
"1+	c #9CD12E",
"2+	c #A7DB24",
"3+	c #A3D629",
"4+	c #A6DA25",
"5+	c #A9DB24",
"6+	c #9BD12F",
"7+	c #9BCF3A",
"8+	c #A19F25",
"9+	c #C0B920",
"0+	c #9DCB2D",
"a+	c #9ED22D",
"b+	c #99CE31",
"c+	c #9BD12E",
"d+	c #ABDD22",
"e+	c #AEE020",
"f+	c #ACDF21",
"g+	c #9DC82D",
"h+	c #D1981D",
"i+	c #E77A02",
"j+	c #B05000",
"k+	c #AE760D",
"l+	c #A6C022",
"m+	c #A3D62F",
"n+	c #A3D627",
"o+	c #ABDE20",
"p+	c #98CD32",
"q+	c #A7D926",
"r+	c #ACDF22",
"s+	c #B1E31E",
"t+	c #B1E21E",
"u+	c #97C72B",
"v+	c #98C727",
"w+	c #ABDD2F",
"x+	c #A4D63B",
"y+	c #A6A31F",
"z+	c #AF5704",
"A+	c #D0A917",
"B+	c #ADDE42",
"C+	c #9FD42B",
"D+	c #AADD21",
"E+	c #97CC32",
"F+	c #9ED32D",
"G+	c #AFE120",
"H+	c #AFE11F",
"I+	c #86B02B",
"J+	c #B4C0A5",
"K+	c #90BD2A",
"L+	c #AAD952",
"M+	c #ACA718",
"N+	c #E67D02",
"O+	c #584028",
"P+	c #D59E13",
"Q+	c #ACD61F",
"R+	c #AADE23",
"S+	c #9FD42A",
"T+	c #A0D32B",
"U+	c #96BA59",
"V+	c #364030",
"W+	c #B4BDAA",
"X+	c #A9971A",
"Y+	c #AF7709",
"Z+	c #E0B898",
"`+	c #F8E0B8",
" @	c #C08870",
".@	c #A6A51E",
"+@	c #A8DA25",
"@@	c #A9DC22",
"#@	c #A6D825",
"$@	c #8FC637",
"%@	c #93CA35",
"&@	c #B0E21E",
"*@	c #AFE01E",
"=@	c #ACCB7C",
"-@	c #FDFEFC",
";@	c #282830",
">@	c #81827F",
",@	c #080808",
"'@	c #5B4A28",
")@	c #A1AA24",
"!@	c #A3D72B",
"~@	c #90C737",
"{@	c #8FC638",
"]@	c #B0E11E",
"^@	c #B2E31E",
"/@	c #98CD31",
"(@	c #A5D92A",
"_@	c #A8C87D",
":@	c #FFFFFF",
"<@	c #101028",
"[@	c #DDB995",
"}@	c #85AA2D",
"|@	c #97CE31",
"1@	c #92C935",
"2@	c #93C935",
"3@	c #ADE020",
"4@	c #9ED42B",
"5@	c #9DD237",
"6@	c #91B35F",
"7@	c #B8B8B8",
"8@	c #2D3130",
"9@	c #6E7727",
"0@	c #9AC626",
"a@	c #A9DD23",
"b@	c #ACDE20",
"c@	c #99CF2F",
"d@	c #9ACF2F",
"e@	c #A3CE5E",
"f@	c #F1F8E9",
"g@	c #F0F0F8",
"h@	c #D7BE8C",
"i@	c #9BC324",
"j@	c #AADC2B",
"k@	c #AEE01F",
"l@	c #96CD32",
"m@	c #9DD22B",
"n@	c #95CB32",
"o@	c #92C835",
"p@	c #A3CD5F",
"q@	c #899874",
"r@	c #5A4628",
"s@	c #DFB897",
"t@	c #7E9728",
"u@	c #AADC46",
"v@	c #97CD2F",
"w@	c #8FC536",
"x@	c #8EC537",
"y@	c #92C734",
"z@	c #94CB32",
"A@	c #98CD35",
"B@	c #A4CC69",
"C@	c #6C7528",
"D@	c #DFB997",
"E@	c #3F5917",
"F@	c #83B22C",
"G@	c #99CE37",
"H@	c #ADDE21",
"I@	c #A0D428",
"J@	c #9AD02C",
"K@	c #94C932",
"L@	c #92C833",
"M@	c #9DD134",
"N@	c #99C225",
"O@	c #BB9D66",
"P@	c #808080",
"Q@	c #681010",
"R@	c #4A652A",
"S@	c #95C21D",
"T@	c #AFE029",
"U@	c #ACDD21",
"V@	c #97CE30",
"W@	c #9ED22B",
"X@	c #9ED12C",
"Y@	c #A7D92D",
"Z@	c #94BF28",
"`@	c #6A6F28",
" #	c #48632A",
".#	c #97C31D",
"+#	c #A9DB2D",
"@#	c #ACDD22",
"##	c #A3D726",
"$#	c #A0D32A",
"%#	c #A3D825",
"&#	c #A4D833",
"*#	c #749D21",
"=#	c #5C4B28",
"-#	c #B81818",
";#	c #2D3230",
">#	c #516A30",
",#	c #86B629",
"'#	c #98CC38",
")#	c #AFE020",
"!#	c #A8DB22",
"~#	c #99CE2F",
"{#	c #A3D52C",
"]#	c #82AC1F",
"^#	c #24320C",
"/#	c #506930",
"(#	c #84B42A",
"_#	c #97CC38",
":#	c #8DC539",
"<#	c #B0E11F",
"[#	c #A3D827",
"}#	c #86B82E",
"|#	c #859475",
"1#	c #23320C",
"2#	c #4A6131",
"3#	c #64881F",
"4#	c #445C13",
"5#	c #EFF0F6",
"6#	c #9CC847",
"7#	c #91C837",
"8#	c #B0E120",
"9#	c #AFE11E",
"0#	c #ACDF1F",
"a#	c #9CCF34",
"b#	c #8EBD27",
"c#	c #80AC22",
"d#	c #89B92D",
"e#	c #A3D353",
"f#	c #789F1C",
"g#	c #212B28",
"h#	c #BF8B6F",
"i#	c #7FA02E",
"j#	c #94CA3E",
"k#	c #AFE21E",
"l#	c #B1E21F",
"m#	c #89C23E",
"n#	c #A9DB22",
"o#	c #99CF2D",
"p#	c #9BD02C",
"q#	c #9CD031",
"r#	c #76A227",
"s#	c #BA9768",
"t#	c #8DB82D",
"u#	c #9BD134",
"v#	c #8AC33C",
"w#	c #8BC33B",
"x#	c #8AC23C",
"y#	c #8CC439",
"z#	c #90C836",
"A#	c #99CE2D",
"B#	c #9CD137",
"C#	c #89AA62",
"D#	c #1B270B",
"E#	c #6A7229",
"F#	c #92BD29",
"G#	c #AEDE2A",
"H#	c #ADE021",
"I#	c #A0D42C",
"J#	c #AADE21",
"K#	c #A4D825",
"L#	c #91C935",
"M#	c #94C933",
"N#	c #ACDF20",
"O#	c #A2D52F",
"P#	c #88B628",
"Q#	c #455E29",
"R#	c #BA9C66",
"S#	c #98C429",
"T#	c #9AD030",
"U#	c #A6DA27",
"V#	c #A9DC25",
"W#	c #98CF31",
"X#	c #9DD12A",
"Y#	c #9BD22B",
"Z#	c #90C738",
"`#	c #9DD12B",
" $	c #A1D332",
".$	c #89B826",
"+$	c #506B10",
"@$	c #1C2328",
"#$	c #DEBA95",
"$$	c #91B626",
"%$	c #AEE11E",
"&$	c #AFE11D",
"*$	c #9CD22C",
"=$	c #AADC20",
"-$	c #93C124",
";$	c #526B10",
">$	c #86AB2D",
",$	c #AEE11F",
"'$	c #92CA35",
")$	c #9FD22A",
"!$	c #AEE01D",
"~$	c #99CE39",
"{$	c #6F9827",
"]$	c #212C28",
"^$	c #D5BE8A",
"/$	c #97C329",
"($	c #A0D429",
"_$	c #94CA34",
":$	c #93CA33",
"<$	c #92C934",
"[$	c #A7DB23",
"}$	c #90C025",
"|$	c #486229",
"1$	c #676928",
"2$	c #91B829",
"3$	c #A8DB2D",
"4$	c #ABDC22",
"5$	c #80AC20",
"6$	c #283528",
"7$	c #B8B9B7",
"8$	c #8CA46B",
"9$	c #A7D555",
"0$	c #76A029",
"a$	c #202B28",
"b$	c #48600F",
"c$	c #71932C",
"d$	c #889576",
"e$	c #B5BEAA",
"f$	c #9CC54B",
"g$	c #A3D62C",
"h$	c #7AA524",
"i$	c #1F2929",
"j$	c #323A30",
"k$	c #7CA319",
"l$	c #B4E24D",
"m$	c #96C226",
"n$	c #8B9B73",
"o$	c #B1CA8B",
"p$	c #A7D938",
"q$	c #A5D739",
"r$	c #7DA418",
"s$	c #222C28",
"t$	c #313830",
"u$	c #7BA21B",
"v$	c #ADDD39",
"w$	c #AADB2F",
"x$	c #93C027",
"y$	c #8EA46C",
"z$	c #ABD165",
"A$	c #A1D52F",
"B$	c #A4C541",
"C$	c #96B55E",
"D$	c #4C6327",
"E$	c #516927",
"F$	c #96C421",
"G$	c #9ED330",
"H$	c #A4D72F",
"I$	c #93C029",
"J$	c #ABCE76",
"K$	c #A6D82D",
"L$	c #A8C93F",
"M$	c #869674",
"N$	c #2A3728",
"O$	c #A0D32F",
"P$	c #8FC232",
"Q$	c #A4D738",
"R$	c #98C529",
"S$	c #6D7728",
"T$	c #B7B9B5",
"U$	c #222D28",
"V$	c #78A01D",
"W$	c #A0D334",
"X$	c #9DD130",
"Y$	c #A0D329",
"Z$	c #93C02B",
"`$	c #84A529",
" %	c #475F29",
".%	c #99C54B",
"+%	c #779F1F",
"@%	c #25330B",
"#%	c #BF896F",
"$%	c #BA9B67",
"%%	c #9BC846",
"&%	c #8FC12B",
"*%	c #729A24",
"=%	c #476115",
"-%	c #1E290A",
";%	c #B7B9B4",
">%	c #88AE2C",
",%	c #A0D437",
"'%	c #8DBD2A",
")%	c #76A329",
"!%	c #719A24",
"~%	c #496313",
"{%	c #27350B",
"]%	c #202C09",
"^%	c #1F2B0A",
"/%	c #1E290B",
"(%	c #212C09",
"_%	c #222D09",
":%	c #5D4D28",
"<%	c #BF8C6E",
"[%	c #EEEFF5",
"}%	c #5B4B28",
"|%	c #BE8C6E",
"1%	c #B89967",
"2%	c #92C02B",
"3%	c #9FD330",
"4%	c #9CD138",
"5%	c #89B31B",
"6%	c #8AB219",
"7%	c #8CB517",
"8%	c #84AE1E",
"9%	c #7AA625",
"0%	c #85AE1D",
"a%	c #8EB617",
"b%	c #8EB517",
"c%	c #91B425",
"d%	c #8BAF29",
"e%	c #87AB2B",
"f%	c #85AB2D",
"g%	c #94C12B",
"h%	c #A1D531",
"i%	c #AADB22",
"j%	c #B1E21D",
"k%	c #AEDF1F",
"l%	c #AFE01F",
"m%	c #B1E31D",
"n%	c #ACDF26",
"o%	c #A3D53A",
"p%	c #98CE34",
"q%	c #B0E21D",
"r%	c #A5D82B",
"s%	c #A8DA37",
"t%	c #A4D927",
"u%	c #ADE01F",
"  . + @ # $ % & * = - ; > , ' ) > ! ~ { ] ^ / ( _ : < [ } | & ) 1 2 3 @ @ | 4 5 6 7 2 8 * 9 + 0 ",
"> a b c d e f g h i j k l m < < 8 n o p q r s t u v w x y & z A B C 2 D E C 6 F G H 2 I C J K L ",
"M N O P Q R S | * i T U { V A W X Y Z `  ...+.@.#.$.%.&.< < 1 j 1 *.=.-.;.>.,.-.F =.C $ '.).!.~.",
"{.].^./.(.) _.:.z <.T { [.) 1 }.|.1.2.3.4.5.6.7.8.9.0.a.b.m c.d.e.[ =.f.g.B 6 h.C i.j.k.l.).m.' ",
"n.o.i.> $ > p.1 q.r.s.j t., R u.v.w.x.y.z.z.A.B.z.z.C.D.E.F.1 [ _.G.,.s.' r.H.* I.a N J.K.L.M.M.",
"j.0 4 N.N.).O.l A P._.R Q.< R.S.T.5.z.z.z.z.z.z.z.A.z.U.T.V.W.X.Y.Z.s.% `.; H. +> .+$ z | ++t.@+",
"2 #+O.$+* ) %+%+&+*+=+-+*+=.;+>+,+z.z.z.z.z.z.z.z.z.z.z.B.'+)+[ $+%+!+~+t.i.H.C  +=.& R A I.O |.",
"B . i.{+]+) 8 ) ^+/+(+(+$+>._+x.z.z.z.z.z.z.z.z.z.z.z.z.:+<+[+}+}+> |+1+] ).A 2+T 3+~+1 & A 4+5+",
"!+[ < :.z X V U T : [ 6+Y.7+8+,+z.A.z.A.z.z.z.z.z.z.A.z.z.x.9+0+l Q.|.a+b+P.c+> e.d+N O p.).0 B ",
"!+!+1+' 8 `./ e+e+f+X.m 1 g+h+i+A.A.j+z.z.A.z.A.z.z.A.z.A.k+l+m+e X N j 1+]+N.n+o+Q.5+8 P.q.Y.p+",
"N.G.B ) q+V r+s+t+- u+v+w+x+y+z+A.j+j+z.A.j+z.j+A.z.A.j+:+A+B+I.C+A I.2+d * 0 D+].I , :.N.E+C+F+",
"s.& A *.] ! Q.G+H+1 I+J+K+L+M+N+j+j+j+z.A.j+A.O+j+A.j+O+:+P+Q+R+S+T+e.e.I.p.] l 1 i.| | [ z X t.",
") 4+X ).d ~+Q.X X < U+V+W+X+Y+j+j+j+A.A.j+Z+j+`+ @j+Z+ @z+.@u.H+e.+@@@#@T I.3+4+s.$@%@%+) `.&@*@",
"I.I.~+. B S+; X f+- =@-@;@>@j+j+j+j+A.j+ @ @Z+`+`+ @Z+,@'@)@!@@+@+e+/ /.`.e.) > E ~@{@E [ : ]@^@",
"e.U 1 _./@A ).~+I.(@_@-@:@<@<@j+O+Z+j+j+Z+,@,@O+ @Z+Z+<@[@}@Y.^.*@}.r+`.|.! r.|@1@2@s.=.!+m 3@]@",
"8 ! 4@r.0 0 [ C } 5@6@-@:@O+ @j+O+`+j+O+Z+,@7@<@ @Z+`+8@9@0@{ a@b@3+i.].|.] ,.N.N.c@' 0 ]+p.|.l ",
"X m | A <  +Y.=.d@e@f@:@O+Z+Z+O+j+O+Z+ @Z+`+g@;@Z+`+`+h@i@j@k@k@@@z ! 2+e.S+9 l@Y.& [ A ) 1+1 C+",
"5+V *.3 m@n@1@o@/@p@q@r@`+`+Z+O+<@j+O+O+ @Z+Z+`+`+`+s@t@u@0 @+T 8 3+(.'.X.C [ O.) ' * 4+O |.j 4+",
"{+r.h.+ v@w@x@y@z@A@B@C@D@`+Z+ @;@<@<@,@O+O+ @ @ @ @O+E@F@G@G.j V < [.B *+A > d+S+]+[ : H@|.T ) ",
"e.2 I@J@7 K@L L@C z M@N@O@s@Z+ @P@<@;@,@Q@P@ @O+O+O+,@8@R@S@T@V Y.) U@<.1 { ; W I.V@d@.+|.R ] ] ",
"i.m.b W@6 D X@).p.e ' Y@Z@`@ @ @7@;@;@,@Q@P@Z+g@<@<@;@;@8@ #.#+#[ A _.a+& c+: H+5+; X |.@#/ - U ",
"##I@Q d B $#c i.X 2+& %#&#*#=#7@,@;@<@,@-#P@g@<@;@<@;@;@;@;#>#,#'#[ c+l@, e+)#8 }.].M.)#e+e+d+^ ",
"Q r.* *.; * 0 z D+!#* ~#{#]#^#g@,@8@,@<@-#Q@,@;@<@;@;@<@;@;@8@/#(#_#:#$@* t.<.2+).C a H+<#f+3@: ",
"f+[#1+/+d+) X.& T c 0 ~#} }#|#1#2#3#4#<@,@-#;@<@;@;@;@,@;@;@<@5#q@6#7#=.& 4 %@T .+A 4+s+8#8#s+{ ",
"9#O 0#|+^+- b E H.m@@ z , a#b#c#d#e#f#g#,@-#Q@,@;@;@;@,@<@;@7@ @h#i#j#s.k#t.0 1 { 4+.+V f+l#l#m#",
"&@t.d n#r.& @ o#f.c@p#2 ##6 f.1@7 q#r#g#;@,@-#Q@;@;@;@,@<@<@7@ @Z+s#t#u#}.}.I.| C+m C+^ / <#] v#",
"8 c+s.< * w#x#w#y#n@z#A#W@| % C+m B#C#D#,@<@,@-#-#Q@,@,@<@<@P@ @ @s@E#F#G#e+`.C+s.C+|+V .+H#I#=.",
"& ~+a @#J#K#7 L#M#).!+1@$@6 N#t.O#P#Q#P@P@,@<@,@,@-#Q@Q@,@<@P@ @Z+`+s@R#S#& ^+T#=.1+1 U#V#l m W#",
"T ; N o+J#< X#Y#9 1@Z#-./@`#9# $.$+$@$P@<@g@P@7@g@P@,@,@,@;@<@ @`+`+`+#$$$X %$&$a |+) [.}.@+: 1+",
").Q e.X I.0 # /.~#:#~.*$=$T  +-$;$@$;@<@<@7@,@,@<@<@<@<@,@;@;@ @`+ @`+[@>$[.,$&@@@F+[ V e+&@'$8 ",
"C S+)$3 i.+ K.c@g.%@z@!.!$(.~${$]$;@;@<@<@7@<@<@<@;@<@;@<@,@P@O+ @ @D@^$/$t.H+[.~+s.}+2+)#[.1 X ",
"* ).m@($$ !._$:$<$E h.).[$p#}$|$;@;@<@<@<@<@;@<@<@;@;@;@;@;@,@P@;@O+1$2$3$O [.X < C+1 8 d+< c+4$",
"1 2 3 @ @ | 4 5 6 7 2 8 * 9 5$6$;@<@<@<@,@<@<@;@<@;@;@;@;@;@,@;@>@7$8$9$# $ % & * = - ; > , ' ) ",
"B C 2 D E C 6 E ~#H 2 I C J 0$a$;@<@;@<@,@<@<@;@;@;@<@;@;@;@;@b$c$d$e$f$d e S+Y.h i j k l m < < ",
"1 *.=.-.;.>.,.-.E =.C $ '.g$h$i$<@<@;@<@,@,@<@;@;@;@;@<@;@;@j$k$l$m$n$o$p$R 5 | * i T U { V A W ",
"e.[ =.f.g.B 6 h.C i.j.k.l.q$r$s$<@<@<@<@,@,@<@;@<@;@;@<@;@;@t$u$v$w$x$y$z$) _.:.z <.T { [.) 1 }.",
"_.G.,.s.' r.H.* I.a N A$B$C$D$,@,@<@<@,@,@,@<@;@;@<@;@;@<@;@;@E$F$G$H$I$J$K$p.1 q.r.s.j t., R ; ",
"Y.Z.s.% `.; H. +> .+$ L$M$=#7@P@O+;@,@,@,@,@<@<@;@<@;@;@<@;@<@N$]#O$4 _#P$Q$O.l A P._.R Q.< 3+5+",
"$+%+!+~+t.i.H.C  +=.& R$S$T$ @P@ @O+O+<@<@,@,@<@<@<@;@;@<@<@<@U$V$W$O.$+X$Y$%+%+&+*+=+-+*+=.[ >.",
"}+> |+1+] ).A 2+T 3+~+H$Z$`$`@O+O+,@,@,@,@,@,@<@<@<@<@<@<@<@<@,@ %.%H${+]+) 8 ) ^+/+(+(+$+>.}+< ",
"l Q.|.a+b+P.c+> e.d+N O p.q$+%@%,@,@,@,@,@,@,@,@,@,@,@,@,@<@7@P@#%$%%%:.z X V U T : [ 6+Y.b+2@|@",
"e X N j 1+]+N.n+o+Q.5+8 P.q.&%*%=%@%-%,@,@,@,@,@,@,@,@O+ @ @ @O+g@;%>%' 8 `./ e+e+f+X.m 1 }+7#{@",
"C+A I.2+d * 0 D+].I , :.N.E+C+,%'%)%!%~%{%]%^%/%(%_%_%_%:%<%[%}%|%1%2%) q+V r+s+t+- ] ; |.= 1+-.",
"S+T+e.e.I.p.] l 1 i.| | [ z X t.5+3%4%}$5%6%7%8%9%0%7%a%b%c%d%e%f%g%h%*.] ! Q.G+H+1 j R ! ) n.i%",
"e.+@@@#@T I.3+4+s.$@%@%+) `.&@*@e+X C+d@) 9#b@t+: C+8 j%9#! !+| ) 4+X ).d ~+Q.X X < ] ) C ' d+k%",
"@+e+/ /.`.e.x > E ~@{@E [ : ]@^@l%; j ) < <.N#j%m%5+r.d+; Y.G.Y.I.I.~+. B S+; X n%- 1 ) r.^.e+H+",
"*@}.r+`.|.! o%p%1@2@s.=.!+m 3@]@V m 4+; 1 F+j q%t+k%$ d@=.N.(+C e.U 1 _./@A ).r%s%, [ ^+l W H+[.",
"b@3+i.].|.] ,.N.N.c@' 0 ]+p.|.l t%W }.t.t.|+a+o+u%I.z c+=.[ F+O.8 ! 4@r.0 0 [ C } 4 C+8 G+<#<#j "};
