/* XPM */
static char * mask48_2_xpm[] = {
"48 48 524 2",
"  	c #A1D527",
". 	c #A1D628",
"+ 	c #9FD429",
"@ 	c #9FD32A",
"# 	c #A1D429",
"$ 	c #A4D826",
"% 	c #A2D529",
"& 	c #9ED32C",
"* 	c #9CD12D",
"= 	c #A1D52B",
"- 	c #A8DC24",
"; 	c #A7DA25",
"> 	c #A5D826",
", 	c #A5D926",
"' 	c #9ED22C",
") 	c #A2D629",
"! 	c #A4D727",
"~ 	c #A3D62A",
"{ 	c #A7DA26",
"] 	c #A2D62A",
"^ 	c #A6DA26",
"/ 	c #ACDE22",
"( 	c #AADD24",
"_ 	c #ADE022",
": 	c #A9DC24",
"< 	c #A1D52A",
"[ 	c #9DD22D",
"} 	c #9DD12D",
"| 	c #9BD02E",
"1 	c #A3D728",
"2 	c #A1D528",
"3 	c #A2D528",
"4 	c #9BD12D",
"5 	c #9DD12C",
"6 	c #98CD30",
"7 	c #96CC31",
"8 	c #A8DB24",
"9 	c #94CA33",
"0 	c #9FD32B",
"a 	c #AADC22",
"b 	c #A7DA23",
"c 	c #A4D726",
"d 	c #A3D628",
"e 	c #A5D925",
"f 	c #9FD42A",
"g 	c #9AD02F",
"h 	c #9CD02F",
"i 	c #A2D52A",
"j 	c #A4D828",
"k 	c #A5D828",
"l 	c #A5D927",
"m 	c #A6D926",
"n 	c #A9DC23",
"o 	c #9DD32B",
"p 	c #A3D72B",
"q 	c #A6DA28",
"r 	c #A7DB25",
"s 	c #A0D42B",
"t 	c #A1D529",
"u 	c #A0D52A",
"v 	c #9DD22C",
"w 	c #9ED32B",
"x 	c #97CC31",
"y 	c #97CD31",
"z 	c #99CE2F",
"A 	c #99D02E",
"B 	c #A8DC23",
"C 	c #97CD30",
"D 	c #94C934",
"E 	c #95CB31",
"F 	c #ADE01E",
"G 	c #ABDD21",
"H 	c #ABDE21",
"I 	c #A8DC22",
"J 	c #A5D825",
"K 	c #A3D729",
"L 	c #A4D827",
"M 	c #A6D927",
"N 	c #A8DB25",
"O 	c #AADD22",
"P 	c #A5D727",
"Q 	c #99CE30",
"R 	c #ACDF23",
"S 	c #AEE021",
"T 	c #A2D728",
"U 	c #98CE31",
"V 	c #94CB34",
"W 	c #91C835",
"X 	c #98CF30",
"Y 	c #95CC32",
"Z 	c #A2D727",
"` 	c #A2D628",
" .	c #9ACF2E",
"..	c #8DC43A",
"+.	c #AADC24",
"@.	c #A9DB23",
"#.	c #A7DA24",
"$.	c #A7D924",
"%.	c #A6D826",
"&.	c #9FD32C",
"*.	c #A8DB23",
"=.	c #ADDF21",
"-.	c #ACDE21",
";.	c #AADD23",
">.	c #9FD42C",
",.	c #A1D629",
"'.	c #9ACF30",
").	c #B2E31E",
"!.	c #B0E11F",
"~.	c #FAFAFA",
"{.	c #A8DA26",
"].	c #A5D928",
"^.	c #A8DA24",
"/.	c #94CB33",
"(.	c #95CB33",
"_.	c #9ED32A",
":.	c #A3D727",
"<.	c #A2D627",
"[.	c #A1D42A",
"}.	c #9CD32C",
"|.	c #A9DC21",
"1.	c #A7D925",
"2.	c #9DD32C",
"3.	c #A4D728",
"4.	c #A0D529",
"5.	c #A0D42A",
"6.	c #99CF30",
"7.	c #ADDF20",
"8.	c #A2D62B",
"9.	c #99CF31",
"0.	c #9ED22D",
"a.	c #A9DC25",
"b.	c #ACDF22",
"c.	c #A3D72A",
"d.	c #ADDF22",
"e.	c #B2E31D",
"f.	c #F7F7F7",
"g.	c #FFFFFF",
"h.	c #EFEFEF",
"i.	c #95CC33",
"j.	c #93CA34",
"k.	c #A6D925",
"l.	c #A0D528",
"m.	c #9CD12C",
"n.	c #A6D824",
"o.	c #ADDF1F",
"p.	c #96CC32",
"q.	c #9CD22D",
"r.	c #ABDE22",
"s.	c #A3D629",
"t.	c #A9DB24",
"u.	c #A4D926",
"v.	c #96CD32",
"w.	c #98CE32",
"x.	c #A6DA27",
"y.	c #AFE120",
"z.	c #A3D828",
"A.	c #FCFCFC",
"B.	c #D6D3D3",
"C.	c #ACDF21",
"D.	c #AADC23",
"E.	c #A0D52B",
"F.	c #90C837",
"G.	c #9AD02E",
"H.	c #A4D628",
"I.	c #AEDF20",
"J.	c #9ED22A",
"K.	c #97CD32",
"L.	c #92C836",
"M.	c #95CB34",
"N.	c #95CC34",
"O.	c #99D030",
"P.	c #98CD31",
"Q.	c #9CD12E",
"R.	c #9BD02F",
"S.	c #9FD32D",
"T.	c #ABDD23",
"U.	c #B1E31E",
"V.	c #F1F1F1",
"W.	c #CFCCCC",
"X.	c #A8DA25",
"Y.	c #98CE30",
"Z.	c #A5D827",
"`.	c #9BD02D",
" +	c #9DD22E",
".+	c #9CD12F",
"++	c #96CC33",
"@+	c #A0D42C",
"#+	c #A7DB26",
"$+	c #E4E2E2",
"%+	c #553A3A",
"&+	c #A7DB24",
"*+	c #A6DA25",
"=+	c #9BD12F",
"-+	c #99CE31",
";+	c #93C935",
">+	c #97CE31",
",+	c #F5F4F4",
"'+	c #6F5E5E",
")+	c #9FD42B",
"!+	c #430E0E",
"~+	c #9BD12E",
"{+	c #ABDD22",
"]+	c #AEE020",
"^+	c #91C837",
"/+	c #8FC638",
"(+	c #9ACF2F",
"_+	c #9ACE2F",
":+	c #AFE11E",
"<+	c #B1E21E",
"[+	c #999191",
"}+	c #A3D627",
"|+	c #ABDE20",
"1+	c #98CD32",
"2+	c #A7D926",
"3+	c #8EC638",
"4+	c #B1E31D",
"5+	c #F8F8F8",
"6+	c #AADD21",
"7+	c #97CC32",
"8+	c #9ED32D",
"9+	c #AFE11F",
"0+	c #AADB22",
"a+	c #90C637",
"b+	c #F3F2F2",
"c+	c #563B3B",
"d+	c #AADE23",
"e+	c #A0D32B",
"f+	c #665454",
"g+	c #AEDF1F",
"h+	c #96CB33",
"i+	c #FEFEFE",
"j+	c #A49D9D",
"k+	c #726363",
"l+	c #C1BDBD",
"m+	c #481C1C",
"n+	c #8FC637",
"o+	c #93CA35",
"p+	c #B0E21E",
"q+	c #AFE01E",
"r+	c #F2F1F1",
"s+	c #9B9393",
"t+	c #420E0E",
"u+	c #90C737",
"v+	c #B0E11E",
"w+	c #918787",
"x+	c #A9A3A3",
"y+	c #92C935",
"z+	c #ADE020",
"A+	c #9ED42B",
"B+	c #EAE9E9",
"C+	c #B8B3B3",
"D+	c #99CF2F",
"E+	c #B1E21F",
"F+	c #B3E41D",
"G+	c #E1E1E1",
"H+	c #999090",
"I+	c #DFDDDD",
"J+	c #D0CECE",
"K+	c #9DD22B",
"L+	c #95CB32",
"M+	c #92C835",
"N+	c #B0E220",
"O+	c #ADE01F",
"P+	c #ACDF20",
"Q+	c #D8D8D8",
"R+	c #EDECEC",
"S+	c #C3BFBF",
"T+	c #FDFDFD",
"U+	c #97CD2F",
"V+	c #8FC536",
"W+	c #8EC537",
"X+	c #92C734",
"Y+	c #94CB32",
"Z+	c #AEA8A8",
"`+	c #A09898",
" @	c #4A2222",
".@	c #746464",
"+@	c #DAD8D8",
"@@	c #FBFAFA",
"#@	c #C9C6C6",
"$@	c #6A5757",
"%@	c #ADDE21",
"&@	c #A0D428",
"*@	c #9AD02C",
"=@	c #94C932",
"-@	c #92C833",
";@	c #F5F5F5",
">@	c #F6F6F6",
",@	c #E4E3E3",
"'@	c #BDB8B8",
")@	c #D1CECE",
"!@	c #665252",
"~@	c #97CE30",
"{@	c #9ED22B",
"]@	c #9ED12C",
"^@	c #C5C1C1",
"/@	c #533434",
"(@	c #E9E7E7",
"_@	c #726262",
":@	c #E8E7E7",
"<@	c #857878",
"[@	c #ACDD22",
"}@	c #A3D726",
"|@	c #A0D32A",
"1@	c #A3D825",
"2@	c #6C5A5A",
"3@	c #C4C0C0",
"4@	c #F3F3F3",
"5@	c #928888",
"6@	c #F7F6F6",
"7@	c #B0AAAA",
"8@	c #A39B9B",
"9@	c #D7D4D4",
"0@	c #DCDBDB",
"a@	c #AFE020",
"b@	c #A8DB22",
"c@	c #DAD7D7",
"d@	c #908686",
"e@	c #E7E6E6",
"f@	c #A3D827",
"g@	c #9C9494",
"h@	c #685454",
"i@	c #F6F5F5",
"j@	c #9B9292",
"k@	c #CFCBCB",
"l@	c #A9A2A2",
"m@	c #A4A4A4",
"n@	c #EEEEEE",
"o@	c #B0E120",
"p@	c #ACDF1F",
"q@	c #ECECEC",
"r@	c #430D0D",
"s@	c #BFBABA",
"t@	c #553939",
"u@	c #D1CDCD",
"v@	c #C8C4C4",
"w@	c #FCFAFA",
"x@	c #D9CBCB",
"y@	c #616161",
"z@	c #505050",
"A@	c #AFE21E",
"B@	c #89C23E",
"C@	c #A9DB22",
"D@	c #99CF2D",
"E@	c #9BD02C",
"F@	c #D5D2D2",
"G@	c #B4AFAF",
"H@	c #E1DFDF",
"I@	c #EDEBEB",
"J@	c #F9F6F6",
"K@	c #D9C2C2",
"L@	c #B05D52",
"M@	c #90230C",
"N@	c #000000",
"O@	c #959595",
"P@	c #9AD12D",
"Q@	c #8AC33C",
"R@	c #8BC33B",
"S@	c #8AC23C",
"T@	c #8CC439",
"U@	c #90C836",
"V@	c #99CE2D",
"W@	c #A19A9A",
"X@	c #7E7171",
"Y@	c #D0B1B2",
"Z@	c #AF523C",
"`@	c #C16E0F",
" #	c #CC810F",
".#	c #721B07",
"+#	c #CBCBCB",
"@#	c #ADE021",
"##	c #AADE21",
"$#	c #A4D825",
"%#	c #91C935",
"&#	c #94C933",
"*#	c #CDCACA",
"=#	c #BCB7B7",
"-#	c #B1553C",
";#	c #C6770F",
">#	c #D9A00F",
",#	c #D79A0F",
"'#	c #A7540C",
")#	c #1F0001",
"!#	c #434343",
"~#	c #E9E8E8",
"{#	c #9AD030",
"]#	c #98CF31",
"^#	c #9DD12A",
"/#	c #9BD22B",
"(#	c #90C738",
"_#	c #9DD12B",
":#	c #D9C3C3",
"<#	c #AF513B",
"[#	c #DCA90F",
"}#	c #E8C50F",
"|#	c #DEAE0F",
"1#	c #A5560C",
"2#	c #270101",
"3#	c #D1D1D1",
"4#	c #FBFBFB",
"5#	c #918888",
"6#	c #A3D826",
"7#	c #AEE11E",
"8#	c #AFE11D",
"9#	c #8DC539",
"0#	c #9CD22C",
"a#	c #AADC20",
"b#	c #D4D2D2",
"c#	c #E7E7E7",
"d#	c #8E7070",
"e#	c #B85A0F",
"f#	c #D4940F",
"g#	c #E5BE0F",
"h#	c #E7C30F",
"i#	c #CF920F",
"j#	c #843608",
"k#	c #150000",
"l#	c #AAAAAA",
"m#	c #A79F9F",
"n#	c #92C936",
"o#	c #AEE11F",
"p#	c #A9DC22",
"q#	c #92CA35",
"r#	c #9FD22A",
"s#	c #AEE01D",
"t#	c #F9F9F9",
"u#	c #383838",
"v#	c #750808",
"w#	c #AA5A0C",
"x#	c #B46E0C",
"y#	c #B26E0C",
"z#	c #8E4209",
"A#	c #440403",
"B#	c #BFBFBF",
"C#	c #867C7C",
"D#	c #3A0C0C",
"E#	c #A0D429",
"F#	c #94CA34",
"G#	c #93CA33",
"H#	c #92C934",
"I#	c #A7DB23",
"J#	c #F4F4F4",
"K#	c #8E8383",
"L#	c #2A2A2A",
"M#	c #909090",
"N#	c #B2AEAE",
"O#	c #4E3B3B",
"P#	c #360B0B",
"Q#	c #6D6363",
"R#	c #ABDC22",
"S#	c #E2E2E2",
"T#	c #AFAFAF",
"U#	c #DBDBDB",
"V#	c #E0E0E0",
"W#	c #A29E9E",
"X#	c #452E2E",
"Y#	c #9C9898",
"Z#	c #C7C7C7",
"`#	c #887D7D",
" $	c #626262",
".$	c #A5A5A5",
"+$	c #E5E5E5",
"@$	c #C4C3C3",
"#$	c #878282",
"$$	c #847D7D",
"%$	c #BFBEBE",
"&$	c #CDCDCD",
"*$	c #C5C5C5",
"=$	c #999999",
"-$	c #746C6C",
";$	c #BAB8B8",
">$	c #C9C8C8",
",$	c #CACACA",
"'$	c #D9D8D8",
")$	c #797171",
"!$	c #4A3636",
"~$	c #ABA9A9",
"{$	c #BCBBBB",
"]$	c #989494",
"^$	c #9D9999",
"/$	c #C8C8C8",
"($	c #C6C6C6",
"_$	c #D7D7D7",
":$	c #979393",
"<$	c #645959",
"[$	c #908B8B",
"}$	c #5D4F4F",
"|$	c #5F5252",
"1$	c #B0AEAE",
"2$	c #CFCFCF",
"3$	c #8D8888",
"4$	c #776F6F",
"5$	c #A7A4A4",
"6$	c #CAC9C9",
"7$	c #C9C9C9",
"8$	c #A6D924",
"9$	c #AFADAD",
"0$	c #928E8E",
"a$	c #B3B1B1",
"b$	c #D6D6D6",
"c$	c #7B7474",
"d$	c #C3C3C3",
"e$	c #C2C2C2",
"f$	c #CCCCCC",
"g$	c #C4C4C4",
"h$	c #C0C0C0",
"i$	c #DCDCDC",
"j$	c #B0E11D",
"k$	c #EDEDED",
"l$	c #B2E41D",
"m$	c #F2F2F2",
"n$	c #DEDEDE",
"o$	c #D4D4D4",
"p$	c #A6D825",
"q$	c #D9D9D9",
"r$	c #B1E21D",
"s$	c #AFE01F",
"t$	c #D5D5D5",
"u$	c #E9E9E9",
"v$	c #EBEBEB",
"w$	c #B0E21D",
"x$	c #ACDE20",
"y$	c #A4D927",
"  . + @ # $ % & * = - ; > , ' ) > ! ~ { ] ^ / ( _ : < [ } | & ) 1 2 3 @ @ | 4 5 6 7 2 8 * 9 + 0 ",
"> a b c d e f g h i j k l m < < 8 n : ^ o f = p q ] r ) s & t u v w 2 x y w 6 y z A 2 B w C D E ",
"F G H I J K 5 | * i L M { N u O n P { l f Q ) ( R S l [ < < 1 j 1 T U V W X Y V y U w $ Z `  ...",
"+.@.#.$.%.) s &.t *.L { =.) 1 -.;.K = >.K ,.'.N ).!.m < ~.m {.].^.[ U /.(.v 6 _.w :.<.[.}.` |.' ",
"1.2.:.> $ > 3.1 4.5.6.j 7., K ; - 3.8.9.0.a.b.c.d.e.f.g.h.8 1 [ s i.Y 6.' 5.j.* k.a G l.m.n.o.o.",
"<.0 4 p.p.` ,.l u q.s K r.< s.t.u.< v.w.>.x.y.y.z.A.g.B.:.C.D.E.g F.6.% D.; j.G.> r $ t | H.7.I.",
"2 J.,.K.* ) Q Q L.M.N.O.M.U [ X P.& y Q.R.S.T.U.V.g.W.) ! X.{ [ K.Q Y.Z.7.:.j.w G.U & K u k.H ;.",
"v . :.`.'.) 8 )  +.+++++K.X R.< k.5.& Z.= @+#+V.g.$+%+& 5.s.! R.R.> >.Q.] ` u &+L s.Z.1 & u *+t.",
"Y.[ < &.t n N M L : [ =+g -+;+>+< G.3./ =./ f.g.,+'+-.3.0 )+< R.!+r.;.0.-+q.~+> ^.{+G H 3.` 0 v ",
"Y.Y.Q.' 8 D./ ]+]+C.E.m 1 R.^+/+(+_+n :+<+e.g.g.[+!+*+t 5.< !+!+!+n G j Q.'.p.}+|+r.t.8 q.4.g 1+",
"p.i.v ) 2+N b.U.<+- ] ; ;.= Q.V 3+Y t =.4+5+g.W.!+!+f S.!+!+!+!+)+u k.&+d * 0 6+@.B , &.p.7+)+8+",
"6.& u T ] ! r.y.9+1 j K ! ) 1.0+G.a+Q [ {+g.b+c+!+!+t.!+!+!+!+d+f e+f+!+k.3.] l 1 :.| | [ t n 7.",
") *+n ` d Z.r.n n < ] ) w ' {+g+J C h+i.i+g.j+!+!+!+!+!+!+k+; 9+l+m+!+!+L k.s.*+6.n+o+Q ) D.p+q+",
"k.k.Z.. v f ; n C.- 1 ) 5.#.]+9+> v.t &.g.$+!+!+!+!+!+!+k+r+:.s+!+!+!+t+D.^.) > y u+/+y [ : v+).",
"^.M 1 s P.u ` Z.k., [  +l O 9+=.Q.5.@ g.g.w+!+!+!+!+!+k+r+g.x+!+!+!+!+!+;.! 5.>+y+;+6.U Y.m z+v+",
"8 ! A+5.0 0 [ w } 4 )+8 y.!.!.j | [ 5+g.$+!+!+!+!+!+c+B+g.C+!+!+!+!+!+!+;.] Y p.p.D+' 0 '.3.;.l ",
"n m | u < G.g U (+o 4.*.E+F+y.: T.G+g.g.H+!+!+!+!+!+I+g.W.!+!+!+!+!+w+J+^.f 9 v.g & [ u ) Q.1 )+",
"t.N T 3 K+L+y+M+P.[ > 8 N+O+{+P+Q+g.g.R+!+!+!+!+!+S+g.W.!+!+!+!+w+$+g.T+E.w [ ,.) ' * *+H ;.j *+",
"`.5._.+ U+V+W+X+Y+U+v ) *+{ 8 ( g.g.g.Z+!+!+!+!+`+g.$+ @!+!+.@+@g.@@#@$@M.u > {+f '.[ : %@;.L ) ",
"^.2 &@*@7 =@E -@w t * 8 ; >.1 ;@g.g.>@c+!+!+!+k+@@,@c+!+!+'@@@g.)@!@!+!+1 { ; O k.~@(+r ;.K ] ] ",
":.|.b {@6 x ]@` 3.e ' k.1 3.m f.g.g.^@!+!+!+/@(@r+_@!+k+$+g.:@<@!+!+!+!+& ~+: 9+t.; n ;.[@/ - M ",
"}@&@J d v |@c :.n &+& 1@K ~+3.g.g.g.2@!+!+!+3@4@k+!+5@6@@@7@!+c+8@9@(@0@, ]+a@8 -.@.o.a@]+]+{+^ ",
"J 5.* T ; * 0 t 6+b@* z 3 d | >@g.c@!+!+!+[+@@d@!+7@g.e@k+d@)@@@g.>@g.g.* 7.*.&+` w a 9+!.C.z+: ",
"C.f@Q..+{+) E.& L c 0 z } /.K.~.g.g@!+!+h@i@j@!+k@g.S+l@(@g.g.~.m@>@g.n@& 4 o+L r u *+U.o@o@U.{ ",
":+H p@>. +- b y j.K+@ t , q@f.g.>@r@!+!+I+s@t@u@@@v@R+g.g.w@x@y@z@g.g.6.A@7.0 1 { *+r N C.E+E+B@",
"p+7.d C@5.& @ D@/.D+E@2 }@g.g.g.F@!+!+G@H@c+$+g.I@g.g.J@K@L@M@N@O@g.g.P@-.-.k.| )+m )+^ / !.] Q@",
"8 ~+6.< * R@S@R@T@L+U@V@{@5+g.g.W@!+!@4@X@$+g.g.g.J@Y@Z@`@ #.#N@+#g.g.4.%@]+D.)+6.)+>.N r @#@+U ",
"& Z.a [@##$#7 %#&#` Y.y+n+6 g.g.!@!+*#=#$+g.g.J@Y@-#;#>#,#'#)#!#f.g.~#)+K &  +{#U Q.1 x.a.l m ]#",
"L ; G |+##< ^#/#9 y+(#V P._#g.R+!+X@r+$+g.A.:#<#;#[#}#|#1#2#N@3#g.4#5#6#: n 7#8#a >.) =.-.I.: Q.",
"` J ^.n k.0 # $.z 9#..0#a#L g.W.!+b#g.g.c#d#e#f#g#h#i#j#k#N@l#g.@@m#!+n#(+=.o#p+p#8+[ N ]+p+q#8 ",
"w f r#3 :.+ m.D+(.o+Y+ .s#%.t#7@'+g.g.+#u#v#w#x#y#z#A#N@u#B#g.R+C#D#f@' ) 7.9+=.Z.6.R.&+a@=.1 n ",
"* ` K+E#$  .F#G#H#y _.` I#E@J#K#l+g.+#N@N@N@N@N@N@L#M#+#t#V.N#O#P#Q#5.% r H =.n < )+1 8 {+< ~+R#",
"1 2 3 @ @ | 4 5 6 7 2 8 * 9 J#2@r+S#N@N@N@N@y@T#U#~.>@V#W#X#P#X#Y#Z#+ @ # $ % & * = - ; > , ' ) ",
"v w 2 x y w 6 y z A 2 B w C g.`#~. $N@u#.$+$g.i+n@@$#$P#P#P#$$%$&$a b c d e f g h i j k l m < < ",
"1 T U V W X Y V y U w $ Z ` 4@S+*$N@=$;@g.g.t#@$-$P#P#X##$;$>$&$+#G H I J K 5 | * i L M { N u O ",
"^.[ U /.(.v 6 _.w :.<.[.}.` :@R+y@,$g.g.A.'$)$P#!$#$~${$]$^$&$&$/$@.#.$.%.) s &.t *.L { =.) 1 -.",
"s i.Y 6.' 5.j.* k.a G l.m.n.g.q@($>@+$_$:$P#P#<$[$#$}$|$1$&$&$/$1.2.:.> $ > 3.1 4.5.6.j 7., K ; ",
"g F.6.% D.; j.G.> r $ t | H.g.n@5+2$&$3$P#P#P#P#X#4$5$6$&$&$7$8$<.0 4 p.p.` ,.l u q.s K r.< s.t.",
"K.Q Y.Z.7.:.j.w G.U & K u k.U#J#U#&$9$X#0$a${$&$&$&$&$&$&$Z#& 3 2 J.,.K.* ) Q Q L.M.N.O.M.U [ X ",
"R.> >.Q.] ` u &+L s.Z.1 & u b$t.&$&$c$%$&$&$&$&$d$&$($+#g+; ) @ v . :.`.'.) 8 )  +.+++++K.X R.< ",
"l r.;.0.-+q.~+> ^.{+G H 3.` b$*$&$e$e$&$Z#&$*$&$d$*$*$/$< 3.3.5.Y.[ < &.t n N M L : [ =+g -+;+>+",
"e n G j Q.'.p.}+|+r.t.8 q.4./$($&$&$&$f$g$&$e$h$b$b$i$=.j$s.& } Y.Y.Q.' 8 D./ ]+]+C.E.m 1 R.^+/+",
")+u k.&+d * 0 6+@.B , &.p.7+)+8+&$e$($($U#($&$+#n@k$G+l$e.=.: s p.i.v ) 2+N b.U.<+- ] ; ;.= Q.V ",
"f e+^.^.k.3.] l 1 :.| | [ t n 7.7$d$S#e$m$&$n$U#;@T+o$l$e.T.] } 6.& u T ] ! r.y.9+1 j K ! ) 1.0+",
"^.X.p#p$L k.s.*+6.n+o+Q ) D.p+q+]+q$4#Z#5+S#h.c#k$g.f$r$:+! Y.| ) *+n ` d Z.r.n n < ] ) w ' {+g+",
"I.]+/ $.D.^.) > y u+/+y [ : v+).s$S#g.t$5+u$v$4@4+t.5.{+; g i.g k.k.Z.. v f ; n C.- 1 ) 5.#.]+9+",
"q+-.b.D.;.! 5.>+y+;+6.U Y.m z+v+N V#i+2$q@8+j w$<+g+$ (+U p.++w ^.M 1 s P.u ` Z.k., [  +l O 9+=.",
"x$s.:.@.;.] Y p.p.D+' 0 '.3.;.l y$O -.7.7.>.0.|+O+k.t ~+U [ 8+,.8 ! A+5.0 0 [ w } 4 )+8 y.!.!.j "};
