/* XPM */
static char * mask48_xpm[] = {
"48 48 524 2",
"  	c #A1D527",
". 	c #A1D628",
"+ 	c #9FD429",
"@ 	c #9FD32A",
"# 	c #A1D429",
"$ 	c #A4D826",
"% 	c #A2D529",
"& 	c #9ED32C",
"* 	c #9CD12D",
"= 	c #A1D52B",
"- 	c #A8DC24",
"; 	c #A7DA25",
"> 	c #A5D826",
", 	c #A5D926",
"' 	c #9ED22C",
") 	c #A2D629",
"! 	c #A4D727",
"~ 	c #A3D62A",
"{ 	c #A7DA26",
"] 	c #A2D62A",
"^ 	c #A6DA26",
"/ 	c #ACDE22",
"( 	c #AADD24",
"_ 	c #ADE022",
": 	c #A9DC24",
"< 	c #A1D52A",
"[ 	c #9DD22D",
"} 	c #9DD12D",
"| 	c #9BD02E",
"1 	c #A3D728",
"2 	c #A1D528",
"3 	c #A2D528",
"4 	c #9BD12D",
"5 	c #9DD12C",
"6 	c #98CD30",
"7 	c #96CC31",
"8 	c #A8DB24",
"9 	c #94CA33",
"0 	c #9FD32B",
"a 	c #AADC22",
"b 	c #A7DA23",
"c 	c #A4D726",
"d 	c #A3D628",
"e 	c #A5D925",
"f 	c #9FD42A",
"g 	c #9AD02F",
"h 	c #9CD02F",
"i 	c #A2D52A",
"j 	c #A4D828",
"k 	c #A5D828",
"l 	c #A5D927",
"m 	c #A6D926",
"n 	c #A9DC23",
"o 	c #9DD32B",
"p 	c #A3D72B",
"q 	c #A6DA28",
"r 	c #A7DB25",
"s 	c #FAFAFA",
"t 	c #A1D529",
"u 	c #A0D52A",
"v 	c #9DD22C",
"w 	c #9ED32B",
"x 	c #97CC31",
"y 	c #97CD31",
"z 	c #99CE2F",
"A 	c #99D02E",
"B 	c #A8DC23",
"C 	c #97CD30",
"D 	c #94C934",
"E 	c #95CB31",
"F 	c #ADE01E",
"G 	c #ABDD21",
"H 	c #ABDE21",
"I 	c #A8DC22",
"J 	c #A5D825",
"K 	c #A3D729",
"L 	c #A4D827",
"M 	c #A6D927",
"N 	c #A8DB25",
"O 	c #AADD22",
"P 	c #A5D727",
"Q 	c #99CE30",
"R 	c #ACDF23",
"S 	c #AEE021",
"T 	c #F7F7F7",
"U 	c #FFFFFF",
"V 	c #EFEFEF",
"W 	c #A2D728",
"X 	c #98CE31",
"Y 	c #94CB34",
"Z 	c #91C835",
"` 	c #98CF30",
" .	c #95CC32",
"..	c #A2D727",
"+.	c #A2D628",
"@.	c #9ACF2E",
"#.	c #8DC43A",
"$.	c #AADC24",
"%.	c #A9DB23",
"&.	c #A7DA24",
"*.	c #A7D924",
"=.	c #A6D826",
"-.	c #A0D42B",
";.	c #9FD32C",
">.	c #A8DB23",
",.	c #ADDF21",
"'.	c #ACDE21",
").	c #AADD23",
"!.	c #9FD42C",
"~.	c #A1D629",
"{.	c #9ACF30",
"].	c #B2E31E",
"^.	c #FCFCFC",
"/.	c #D6D3D3",
"(.	c #A8DA26",
"_.	c #A5D928",
":.	c #A8DA24",
"<.	c #94CB33",
"[.	c #95CB33",
"}.	c #9ED32A",
"|.	c #A3D727",
"1.	c #A2D627",
"2.	c #A1D42A",
"3.	c #9CD32C",
"4.	c #A9DC21",
"5.	c #A7D925",
"6.	c #9DD32C",
"7.	c #A4D728",
"8.	c #A0D529",
"9.	c #A0D42A",
"0.	c #99CF30",
"a.	c #ADDF20",
"b.	c #A2D62B",
"c.	c #99CF31",
"d.	c #9ED22D",
"e.	c #A9DC25",
"f.	c #ACDF22",
"g.	c #A3D72A",
"h.	c #F1F1F1",
"i.	c #CFCCCC",
"j.	c #95CC33",
"k.	c #93CA34",
"l.	c #A6D925",
"m.	c #A0D528",
"n.	c #9CD12C",
"o.	c #A6D824",
"p.	c #ADDF1F",
"q.	c #96CC32",
"r.	c #9CD22D",
"s.	c #ABDE22",
"t.	c #A3D629",
"u.	c #A9DB24",
"v.	c #A4D926",
"w.	c #96CD32",
"x.	c #98CE32",
"y.	c #A6DA27",
"z.	c #AFE120",
"A.	c #E4E2E2",
"B.	c #553A3A",
"C.	c #ACDF21",
"D.	c #AADC23",
"E.	c #A0D52B",
"F.	c #90C837",
"G.	c #9AD02E",
"H.	c #A4D628",
"I.	c #AEDF20",
"J.	c #9ED22A",
"K.	c #97CD32",
"L.	c #92C836",
"M.	c #95CB34",
"N.	c #95CC34",
"O.	c #99D030",
"P.	c #98CD31",
"Q.	c #9CD12E",
"R.	c #9BD02F",
"S.	c #9FD32D",
"T.	c #F5F4F4",
"U.	c #6F5E5E",
"V.	c #A8DA25",
"W.	c #430E0E",
"X.	c #98CE30",
"Y.	c #A5D827",
"Z.	c #9BD02D",
"`.	c #9DD22E",
" +	c #9CD12F",
".+	c #96CC33",
"++	c #A0D42C",
"@+	c #999191",
"#+	c #A7DB24",
"$+	c #A6DA25",
"%+	c #9BD12F",
"&+	c #99CE31",
"*+	c #93C935",
"=+	c #97CE31",
"-+	c #F8F8F8",
";+	c #9BD12E",
">+	c #ABDD22",
",+	c #AEE020",
"'+	c #91C837",
")+	c #8FC638",
"!+	c #9ACF2F",
"~+	c #9ACE2F",
"{+	c #AFE11E",
"]+	c #B1E21E",
"^+	c #F3F2F2",
"/+	c #563B3B",
"(+	c #665454",
"_+	c #A3D627",
":+	c #ABDE20",
"<+	c #98CD32",
"[+	c #A7D926",
"}+	c #B1E31E",
"|+	c #8EC638",
"1+	c #FEFEFE",
"2+	c #A49D9D",
"3+	c #726363",
"4+	c #A9DD22",
"5+	c #C1BDBD",
"6+	c #481C1C",
"7+	c #AADD21",
"8+	c #97CC32",
"9+	c #9FD42B",
"0+	c #9ED32D",
"a+	c #AFE11F",
"b+	c #AADB22",
"c+	c #90C637",
"d+	c #F2F1F1",
"e+	c #9B9393",
"f+	c #420E0E",
"g+	c #AEDF1F",
"h+	c #96CB33",
"i+	c #918787",
"j+	c #A9A3A3",
"k+	c #8FC637",
"l+	c #93CA35",
"m+	c #B0E21E",
"n+	c #AFE01E",
"o+	c #EAE9E9",
"p+	c #B8B3B3",
"q+	c #90C737",
"r+	c #B0E11E",
"s+	c #E1E1E1",
"t+	c #999090",
"u+	c #DFDDDD",
"v+	c #D0CECE",
"w+	c #92C935",
"x+	c #ADE020",
"y+	c #9ED42B",
"z+	c #B0E11F",
"A+	c #D8D8D8",
"B+	c #EDECEC",
"C+	c #C3BFBF",
"D+	c #FDFDFD",
"E+	c #99CF2F",
"F+	c #B1E21F",
"G+	c #B3E41D",
"H+	c #AEA8A8",
"I+	c #A09898",
"J+	c #4A2222",
"K+	c #746464",
"L+	c #DAD8D8",
"M+	c #FBFAFA",
"N+	c #C9C6C6",
"O+	c #6A5757",
"P+	c #9DD22B",
"Q+	c #95CB32",
"R+	c #92C835",
"S+	c #B0E220",
"T+	c #ADE01F",
"U+	c #F5F5F5",
"V+	c #F6F6F6",
"W+	c #E4E3E3",
"X+	c #BDB8B8",
"Y+	c #D1CECE",
"Z+	c #665252",
"`+	c #97CD2F",
" @	c #8FC536",
".@	c #8EC537",
"+@	c #92C734",
"@@	c #94CB32",
"#@	c #C5C1C1",
"$@	c #533434",
"%@	c #E9E7E7",
"&@	c #726262",
"*@	c #E8E7E7",
"=@	c #857878",
"-@	c #ADDE21",
";@	c #A0D428",
">@	c #9AD02C",
",@	c #94C932",
"'@	c #92C833",
")@	c #6C5A5A",
"!@	c #C4C0C0",
"~@	c #F3F3F3",
"{@	c #928888",
"]@	c #F7F6F6",
"^@	c #B0AAAA",
"/@	c #A39B9B",
"(@	c #D7D4D4",
"_@	c #DCDBDB",
":@	c #97CE30",
"<@	c #9ED22B",
"[@	c #9ED12C",
"}@	c #DAD7D7",
"|@	c #908686",
"1@	c #E7E6E6",
"2@	c #ACDD22",
"3@	c #A3D726",
"4@	c #A0D32A",
"5@	c #A3D825",
"6@	c #9C9494",
"7@	c #685454",
"8@	c #F6F5F5",
"9@	c #9B9292",
"0@	c #CFCBCB",
"a@	c #A9A2A2",
"b@	c #A4A4A4",
"c@	c #EEEEEE",
"d@	c #AFE020",
"e@	c #A8DB22",
"f@	c #ECECEC",
"g@	c #430D0D",
"h@	c #BFBABA",
"i@	c #553939",
"j@	c #D1CDCD",
"k@	c #C8C4C4",
"l@	c #FCFAFA",
"m@	c #D9CBCB",
"n@	c #616161",
"o@	c #505050",
"p@	c #A3D827",
"q@	c #D5D2D2",
"r@	c #B4AFAF",
"s@	c #E1DFDF",
"t@	c #EDEBEB",
"u@	c #F9F6F6",
"v@	c #D9C2C2",
"w@	c #B05D52",
"x@	c #90230C",
"y@	c #000000",
"z@	c #959595",
"A@	c #B0E120",
"B@	c #ACDF1F",
"C@	c #A19A9A",
"D@	c #7E7171",
"E@	c #D0B1B2",
"F@	c #AF523C",
"G@	c #C16E0F",
"H@	c #CC810F",
"I@	c #721B07",
"J@	c #CBCBCB",
"K@	c #AFE21E",
"L@	c #89C23E",
"M@	c #A9DB22",
"N@	c #99CF2D",
"O@	c #9BD02C",
"P@	c #CDCACA",
"Q@	c #BCB7B7",
"R@	c #B1553C",
"S@	c #C6770F",
"T@	c #D9A00F",
"U@	c #D79A0F",
"V@	c #A7540C",
"W@	c #1F0001",
"X@	c #434343",
"Y@	c #E9E8E8",
"Z@	c #9AD12D",
"`@	c #8AC33C",
" #	c #8BC33B",
".#	c #8AC23C",
"+#	c #8CC439",
"@#	c #90C836",
"##	c #99CE2D",
"$#	c #D9C3C3",
"%#	c #AF513B",
"&#	c #DCA90F",
"*#	c #E8C50F",
"=#	c #DEAE0F",
"-#	c #A5560C",
";#	c #270101",
">#	c #D1D1D1",
",#	c #FBFBFB",
"'#	c #918888",
")#	c #ADE021",
"!#	c #AADE21",
"~#	c #A4D825",
"{#	c #91C935",
"]#	c #94C933",
"^#	c #D4D2D2",
"/#	c #E7E7E7",
"(#	c #8E7070",
"_#	c #B85A0F",
":#	c #D4940F",
"<#	c #E5BE0F",
"[#	c #E7C30F",
"}#	c #CF920F",
"|#	c #843608",
"1#	c #150000",
"2#	c #AAAAAA",
"3#	c #A79F9F",
"4#	c #9AD030",
"5#	c #98CF31",
"6#	c #9DD12A",
"7#	c #9BD22B",
"8#	c #90C738",
"9#	c #9DD12B",
"0#	c #F9F9F9",
"a#	c #383838",
"b#	c #750808",
"c#	c #AA5A0C",
"d#	c #B46E0C",
"e#	c #B26E0C",
"f#	c #8E4209",
"g#	c #440403",
"h#	c #BFBFBF",
"i#	c #867C7C",
"j#	c #3A0C0C",
"k#	c #9BCF2F",
"l#	c #A3D826",
"m#	c #AEE11E",
"n#	c #AFE11D",
"o#	c #8DC539",
"p#	c #9CD22C",
"q#	c #AADC20",
"r#	c #F4F4F4",
"s#	c #8E8383",
"t#	c #2A2A2A",
"u#	c #909090",
"v#	c #B2AEAE",
"w#	c #4E3B3B",
"x#	c #360B0B",
"y#	c #6D6363",
"z#	c #A0D32B",
"A#	c #92C936",
"B#	c #AEE11F",
"C#	c #A9DC22",
"D#	c #92CA35",
"E#	c #9FD22A",
"F#	c #AEE01D",
"G#	c #E2E2E2",
"H#	c #AFAFAF",
"I#	c #DBDBDB",
"J#	c #E0E0E0",
"K#	c #A29E9E",
"L#	c #452E2E",
"M#	c #9C9898",
"N#	c #C7C7C7",
"O#	c #A0D429",
"P#	c #94CA34",
"Q#	c #93CA33",
"R#	c #92C934",
"S#	c #A7DB23",
"T#	c #887D7D",
"U#	c #626262",
"V#	c #A5A5A5",
"W#	c #E5E5E5",
"X#	c #C4C3C3",
"Y#	c #878282",
"Z#	c #847D7D",
"`#	c #BFBEBE",
" $	c #CDCDCD",
".$	c #ABDC22",
"+$	c #C5C5C5",
"@$	c #999999",
"#$	c #746C6C",
"$$	c #BAB8B8",
"%$	c #C9C8C8",
"&$	c #CACACA",
"*$	c #D9D8D8",
"=$	c #797171",
"-$	c #4A3636",
";$	c #ABA9A9",
">$	c #BCBBBB",
",$	c #989494",
"'$	c #9D9999",
")$	c #C8C8C8",
"!$	c #C6C6C6",
"~$	c #D7D7D7",
"{$	c #979393",
"]$	c #645959",
"^$	c #908B8B",
"/$	c #5D4F4F",
"($	c #5F5252",
"_$	c #B0AEAE",
":$	c #CFCFCF",
"<$	c #8D8888",
"[$	c #776F6F",
"}$	c #A7A4A4",
"|$	c #CAC9C9",
"1$	c #C9C9C9",
"2$	c #AFADAD",
"3$	c #928E8E",
"4$	c #B3B1B1",
"5$	c #A6DA24",
"6$	c #ACDD20",
"7$	c #D6D6D6",
"8$	c #7B7474",
"9$	c #C3C3C3",
"0$	c #A6D924",
"a$	c #C2C2C2",
"b$	c #CCCCCC",
"c$	c #C4C4C4",
"d$	c #C0C0C0",
"e$	c #DCDCDC",
"f$	c #ACDF20",
"g$	c #EDEDED",
"h$	c #F2F2F2",
"i$	c #DEDEDE",
"j$	c #D4D4D4",
"k$	c #B0E11D",
"l$	c #D9D9D9",
"m$	c #B2E41D",
"n$	c #B2E31D",
"o$	c #D5D5D5",
"p$	c #E9E9E9",
"q$	c #EBEBEB",
"r$	c #ABDD23",
"s$	c #A6D825",
"t$	c #ACDE20",
"u$	c #B1E21D",
"v$	c #AFE01F",
"w$	c #B1E31D",
"x$	c #B0E21D",
"y$	c #A4D927",
"  . + @ # $ % & * = - ; > , ' ) > ! ~ { ] ^ / ( _ : < [ } | & ) 1 2 3 @ @ | 4 5 6 7 2 8 * 9 + 0 ",
"> a b c d e f g h i j k l m < < 8 n : ^ o f = p q ] r ) s & t u v w 2 x y w 6 y z A 2 B w C D E ",
"F G H I J K 5 | * i L M { N u O n P { l f Q ) ( R S T U V < 1 j 1 W X Y Z `  .Y y X w $ ..+.@.#.",
"$.%.&.*.=.) -.;.t >.L { ,.) 1 '.).K = !.K ~.{.N ].^.U /.+.m (._.:.[ X <.[.v 6 }.w |.1.2.3.+.4.' ",
"5.6.|.> $ > 7.1 8.9.0.j a., K ; - 7.b.c.d.e.f.g.h.U i.9.2.8 1 [ -.j. .0.' 9.k.* l.a G m.n.o.p.p.",
"1.0 4 q.q.+.~.l u r.-.K s.< t.u.v.< w.x.!.y.z.h.U A.B.% |.C.D.E.g F.0.% D.; k.G.> r $ t | H.a.I.",
"2 J.~.K.* ) Q Q L.M.N.O.M.X [ ` P.& y Q.R.S.T U T.U.m ) ! V.{ [ W.Q X.Y.a.|.k.w G.X & K u l.H ).",
"v . |.Z.{.) 8 ) `. +.+.+K.` R.< l.9.& Y.= ++U U @+W.1 & 9.t.W.W.W.> !.Q.] +.u #+L t.Y.1 & u $+u.",
"X.[ < ;.t n N M L : [ %+g &+*+=+< G.7./ ,.-+U i.W.W.'.7.W.W.W.W.l s.).d.&+r.;+> :.>+G H 7.+.0 v ",
"X.X.Q.' 8 D./ ,+,+C.E.m 1 R.'+)+!+~+n {+]+U ^+/+W.W.$+W.W.W.W.+.e n (+W.Q.{.q._+:+s.u.8 r.8.g <+",
"q.j.v ) [+N f.}+]+- ] ; ).= Q.Y |+ .t ,.1+U 2+W.W.W.W.W.W.3+4+l.5+6+W.W.d * 0 7+%.B , ;.q.8+9+0+",
"0.& u W ] ! s.z.a+1 j K ! ) 5.b+G.c+Q [ U A.W.W.W.W.W.W.3+d+'.e+W.W.W.f+l.7.] l 1 |.| | [ t n a.",
") $+n +.d Y.s.n n < ] ) w ' >+g+J C h+U U i+W.W.W.W.W.3+d+U j+W.W.W.W.W.L l.t.$+0.k+l+Q ) D.m+n+",
"l.l.Y.. v f ; n C.- 1 ) 9.&.,+a+> w.-+U A.W.W.W.W.W./+o+U p+W.W.W.W.W.W.D.:.) > y q+)+y [ : r+].",
":.M 1 -.P.u +.Y.l., [ `.l O a+,.Q.s+U U t+W.W.W.W.W.u+U i.W.W.W.W.W.i+v+).! 9.=+w+*+0.X X.m x+r+",
"8 ! y+9.0 0 [ w } 4 9+8 z.z+z+j A+U U B+W.W.W.W.W.C+U i.W.W.W.W.i+A.U D+).]  .q.q.E+' 0 {.7.).l ",
"n m | u < G.g X !+o 8.>.F+G+z.: U U U H+W.W.W.W.I+U A.J+W.W.K+L+U M+N+O+:.f 9 w.g & [ u ) Q.1 9+",
"u.N W 3 P+Q+w+R+P.[ > 8 S+T+>+U+U U V+/+W.W.W.3+M+W+/+W.W.X+M+U Y+Z+W.W.E.w [ ~.) ' * $+H ).j $+",
"Z.9.}.+ `+ @.@+@@@`+v ) $+{ 8 T U U #@W.W.W.$@%@d+&@W.3+A.U *@=@W.W.W.W.M.u > >+f {.[ : -@).L ) ",
":.2 ;@>@7 ,@E '@w t * 8 ; !.1 U U U )@W.W.W.!@~@3+W.{@]@M+^@W./+/@(@%@_@1 { ; O l.:@!+r ).K ] ] ",
"|.4.b <@6 x [@+.7.e ' l.1 7.m V+U }@W.W.W.@+M+|@W.^@U 1@3+|@Y+M+U V+U U & ;+: a+u.; n ).2@/ - M ",
"3@;@J d v 4@c |.n #+& 5@K ;+7.s U 6@W.W.7@8@9@W.0@U C+a@%@U U s b@V+U c@, ,+d@8 '.%.p.d@,+,+>+^ ",
"J 9.* W ; * 0 t 7+e@* z 3 f@T U V+g@W.W.u+h@i@j@M+k@B+U U l@m@n@o@U U k+* a.>.#++.w a a+z+C.x+: ",
"C.p@Q. +>+) E.& L c 0 z } U U U q@W.W.r@s@/+A.U t@U U u@v@w@x@y@z@U U X & 4 l+L r u $+}+A@A@}+{ ",
"{+H B@!.`.- b y k.P+@ t , -+U U C@W.Z+~@D@A.U U U u@E@F@G@H@I@y@J@U U 0.K@a.0 1 { $+r N C.F+F+L@",
"m+a.d M@9.& @ N@<.E+O@2 3@6 U U Z+W.P@Q@A.U U u@E@R@S@T@U@V@W@X@T U Y@Z@'.'.l.| 9+m 9+^ / z+] `@",
"8 ;+0.< *  #.# #+#Q+@###<@| U B+W.D@d+A.U ^.$#%#S@&#*#=#-#;#y@>#U ,#'#8.-@,+D.9+0.9+!.N r )#++X ",
"& Y.a 2@!#~#7 {#]#+.X.w+k+6 U i.W.^#U U /#(#_#:#<#[#}#|#1#y@2#U M+3#W.9+K & `.4#X Q.1 y.e.l m 5#",
"L ; G :+!#< 6#7#9 w+8#Y P.9#0#^@U.U U J@a#b#c#d#e#f#g#y@a#h#U B+i#j#k#l#: n m#n#a !.) ,.'.I.: Q.",
"+.J :.n l.0 # *.z o##.p#q#L r#s#5+U J@y@y@y@y@y@y@t#u#J@0#h.v#w#x#y#z#A#!+,.B#m+C#0+[ N ,+m+D#8 ",
"w f E#3 |.+ n.E+[.l+@@@.F#=.r#)@d+G#y@y@y@y@n@H#I#s V+J#K#L#x#L#M#N#p@' ) a.a+,.Y.0.R.#+d@,.1 n ",
"* +.P+O#$ @.P#Q#R#y }.+.S#O@U T#s U#y@a#V#W#U 1+c@X#Y#x#x#x#Z#`# $8.9.% r H ,.n < 9+1 8 >+< ;+.$",
"1 2 3 @ @ | 4 5 6 7 2 8 * 9 ~@C++$y@@$U+U U 0#X##$x#x#L#Y#$$%$ $J@. + @ # $ % & * = - ; > , ' ) ",
"v w 2 x y w 6 y z A 2 B w C *@B+n@&$U U ^.*$=$x#-$Y#;$>$,$'$ $ $)$a b c d e f g h i j k l m < < ",
"1 W X Y Z `  .Y y X w $ ..+.U f@!$V+W#~${$x#x#]$^$Y#/$($_$ $ $)$F G H I J K 5 | * i L M { N u O ",
":.[ X <.[.v 6 }.w |.1.2.3.+.U c@-+:$ $<$x#x#x#x#L#[$}$|$ $ $1$; $.%.&.*.=.) -.;.t >.L { ,.) 1 '.",
"-.j. .0.' 9.k.* l.a G m.n.o.I#r#I# $2$L#3$4$>$ $ $ $ $ $ $N#5$6$5.6.|.> $ > 7.1 8.9.0.j a., K ; ",
"g F.0.% D.; k.G.> r $ t | H.7$I. $ $8$`# $ $ $ $9$ $!$J@* d f 0$1.0 4 q.q.+.~.l u r.-.K s.< t.u.",
"K.Q X.Y.a.|.k.w G.X & K u l.7$+$ $a$a$ $N# $+$ $9$+$+$)$..|.& 3 2 J.~.K.* ) Q Q L.M.N.O.M.X [ ` ",
"R.> !.Q.] +.u #+L t.Y.1 & u )$!$ $ $ $b$c$ $a$d$7$7$e$f$g+; ) @ v . |.Z.{.) 8 ) `. +.+.+K.` R.< ",
"l s.).d.&+r.;+> :.>+G H 7.+.0 v  $a$!$!$I#!$ $J@c@g$s+~.< 7.7.9.X.[ < ;.t n N M L : [ %+g &+*+=+",
"e n G j Q.{.q._+:+s.u.8 r.8.g <+1$9$G#a$h$ $i$I#U+D+j$,.k$t.& } X.X.Q.' 8 D./ ,+,+C.E.m 1 R.'+)+",
"9+u l.#+d * 0 7+%.B , ;.q.8+9+0+ +l$,#N#-+G#V /#g$U b$m$n$,.: -.q.j.v ) [+N f.}+]+- ] ; ).= Q.Y ",
"f z#:.:.l.7.] l 1 |.| | [ t n a.u.G#U o$-+p$q$~@4#; m+m$n$r$] } 0.& u W ] ! s.z.a+1 j K ! ) 5.b+",
":.V.C#s$L l.t.$+0.k+l+Q ) D.m+n+,+J#1+:$f@{+t$]+: 9+8 u${+! X.| ) $+n +.d Y.s.n n < ] ) w ' >+g+",
"I.,+/ *.D.:.) > y q+)+y [ : r+].v$; j ) < >.f$u$w$u.9.>+; g j.g l.l.Y.. v f ; n C.- 1 ) 9.&.,+a+",
"n+'.f.D.).! 9.=+w+*+0.X X.m x+r+N m $+; 1 0+j x$]+g+$ !+X q..+w :.M 1 -.P.u +.Y.l., [ `.l O a+,.",
"t$t.|.%.).]  .q.q.E+' 0 {.7.).l y$O '.a.a.!.d.:+T+l.t ;+X [ 0+~.8 ! y+9.0 0 [ w } 4 9+8 z.z+z+j "};
