/* XPM */
static char * mask48_3_xpm[] = {
"48 48 523 2",
"  	c #A1D527",
". 	c #A1D628",
"+ 	c #9FD429",
"@ 	c #9FD32A",
"# 	c #A1D429",
"$ 	c #A4D826",
"% 	c #A2D529",
"& 	c #9ED32C",
"* 	c #9CD12D",
"= 	c #A1D52B",
"- 	c #A8DC24",
"; 	c #A7DA25",
"> 	c #A5D826",
", 	c #A5D926",
"' 	c #9ED22C",
") 	c #A2D629",
"! 	c #A4D727",
"~ 	c #A3D62A",
"{ 	c #A7DA26",
"] 	c #A2D62A",
"^ 	c #A6DA26",
"/ 	c #ACDE22",
"( 	c #AADD24",
"_ 	c #ADE022",
": 	c #A9DC24",
"< 	c #A1D52A",
"[ 	c #9DD22D",
"} 	c #FAFAFA",
"| 	c #9BD02E",
"1 	c #A3D728",
"2 	c #A1D528",
"3 	c #A2D528",
"4 	c #9BD12D",
"5 	c #9DD12C",
"6 	c #98CD30",
"7 	c #96CC31",
"8 	c #A8DB24",
"9 	c #94CA33",
"0 	c #9FD32B",
"a 	c #AADC22",
"b 	c #A7DA23",
"c 	c #A4D726",
"d 	c #A3D628",
"e 	c #A5D925",
"f 	c #9FD42A",
"g 	c #9AD02F",
"h 	c #9CD02F",
"i 	c #A2D52A",
"j 	c #A4D828",
"k 	c #A5D828",
"l 	c #A5D927",
"m 	c #A6D926",
"n 	c #A9DC23",
"o 	c #9DD32B",
"p 	c #A3D72B",
"q 	c #A6DA28",
"r 	c #F7F7F7",
"s 	c #FFFFFF",
"t 	c #EFEFEF",
"u 	c #A1D529",
"v 	c #A0D52A",
"w 	c #9DD22C",
"x 	c #9ED32B",
"y 	c #97CC31",
"z 	c #97CD31",
"A 	c #99CE2F",
"B 	c #99D02E",
"C 	c #A8DC23",
"D 	c #97CD30",
"E 	c #94C934",
"F 	c #95CB31",
"G 	c #ADE01E",
"H 	c #ABDD21",
"I 	c #ABDE21",
"J 	c #A8DC22",
"K 	c #A5D825",
"L 	c #A3D729",
"M 	c #A4D827",
"N 	c #A6D927",
"O 	c #A8DB25",
"P 	c #AADD22",
"Q 	c #A5D727",
"R 	c #99CE30",
"S 	c #ACDF23",
"T 	c #FCFCFC",
"U 	c #D6D3D3",
"V 	c #A2D728",
"W 	c #98CE31",
"X 	c #94CB34",
"Y 	c #91C835",
"Z 	c #98CF30",
"` 	c #95CC32",
" .	c #A2D727",
"..	c #A2D628",
"+.	c #9ACF2E",
"@.	c #8DC43A",
"#.	c #AADC24",
"$.	c #A9DB23",
"%.	c #A7DA24",
"&.	c #A7D924",
"*.	c #A6D826",
"=.	c #A0D42B",
"-.	c #9FD32C",
";.	c #A8DB23",
">.	c #ADDF21",
",.	c #ACDE21",
"'.	c #AADD23",
").	c #9FD42C",
"!.	c #A1D629",
"~.	c #9ACF30",
"{.	c #F1F1F1",
"].	c #CFCCCC",
"^.	c #A8DA26",
"/.	c #A5D928",
"(.	c #A8DA24",
"_.	c #94CB33",
":.	c #95CB33",
"<.	c #9ED32A",
"[.	c #A3D727",
"}.	c #A2D627",
"|.	c #A1D42A",
"1.	c #9CD32C",
"2.	c #A9DC21",
"3.	c #A7D925",
"4.	c #9DD32C",
"5.	c #A4D728",
"6.	c #A0D529",
"7.	c #A0D42A",
"8.	c #99CF30",
"9.	c #ADDF20",
"0.	c #A2D62B",
"a.	c #99CF31",
"b.	c #9ED22D",
"c.	c #A9DC25",
"d.	c #ACDF22",
"e.	c #E4E2E2",
"f.	c #553A3A",
"g.	c #95CC33",
"h.	c #93CA34",
"i.	c #A6D925",
"j.	c #A0D528",
"k.	c #9CD12C",
"l.	c #A6D824",
"m.	c #ADDF1F",
"n.	c #96CC32",
"o.	c #9CD22D",
"p.	c #ABDE22",
"q.	c #A3D629",
"r.	c #A9DB24",
"s.	c #A4D926",
"t.	c #96CD32",
"u.	c #98CE32",
"v.	c #A6DA27",
"w.	c #F5F4F4",
"x.	c #6F5E5E",
"y.	c #ACDF21",
"z.	c #AADC23",
"A.	c #A0D52B",
"B.	c #430E0E",
"C.	c #90C837",
"D.	c #9AD02E",
"E.	c #A7DB25",
"F.	c #A4D628",
"G.	c #AEDF20",
"H.	c #9ED22A",
"I.	c #97CD32",
"J.	c #92C836",
"K.	c #95CB34",
"L.	c #95CC34",
"M.	c #99D030",
"N.	c #98CD31",
"O.	c #9CD12E",
"P.	c #9BD02F",
"Q.	c #9FD32D",
"R.	c #999191",
"S.	c #A8DA25",
"T.	c #98CE30",
"U.	c #A5D827",
"V.	c #9BD02D",
"W.	c #9DD22E",
"X.	c #9CD12F",
"Y.	c #96CC33",
"Z.	c #F8F8F8",
"`.	c #A7DB24",
" +	c #A6DA25",
".+	c #9BD12F",
"++	c #99CE31",
"@+	c #93C935",
"#+	c #97CE31",
"$+	c #F3F2F2",
"%+	c #563B3B",
"&+	c #665454",
"*+	c #9BD12E",
"=+	c #ABDD22",
"-+	c #AEE020",
";+	c #91C837",
">+	c #8FC638",
",+	c #9ACF2F",
"'+	c #9ACE2F",
")+	c #AFE11E",
"!+	c #FEFEFE",
"~+	c #A49D9D",
"{+	c #726363",
"]+	c #C1BDBD",
"^+	c #481C1C",
"/+	c #A3D627",
"(+	c #ABDE20",
"_+	c #98CD32",
":+	c #A7D926",
"<+	c #B1E31E",
"[+	c #B1E21E",
"}+	c #8EC638",
"|+	c #F2F1F1",
"1+	c #A9DD22",
"2+	c #9B9393",
"3+	c #420E0E",
"4+	c #AADD21",
"5+	c #97CC32",
"6+	c #9FD42B",
"7+	c #9ED32D",
"8+	c #AFE120",
"9+	c #AFE11F",
"0+	c #AADB22",
"a+	c #90C637",
"b+	c #918787",
"c+	c #A9A3A3",
"d+	c #AEDF1F",
"e+	c #EAE9E9",
"f+	c #B8B3B3",
"g+	c #8FC637",
"h+	c #93CA35",
"i+	c #B0E21E",
"j+	c #AFE01E",
"k+	c #E1E1E1",
"l+	c #999090",
"m+	c #DFDDDD",
"n+	c #D0CECE",
"o+	c #90C737",
"p+	c #B0E11E",
"q+	c #B2E31E",
"r+	c #D8D8D8",
"s+	c #EDECEC",
"t+	c #C3BFBF",
"u+	c #FDFDFD",
"v+	c #92C935",
"w+	c #ADE020",
"x+	c #9ED42B",
"y+	c #9DD12D",
"z+	c #B0E11F",
"A+	c #AEA8A8",
"B+	c #A09898",
"C+	c #4A2222",
"D+	c #746464",
"E+	c #DAD8D8",
"F+	c #FBFAFA",
"G+	c #C9C6C6",
"H+	c #6A5757",
"I+	c #99CF2F",
"J+	c #B1E21F",
"K+	c #B3E41D",
"L+	c #F5F5F5",
"M+	c #F6F6F6",
"N+	c #E4E3E3",
"O+	c #BDB8B8",
"P+	c #D1CECE",
"Q+	c #665252",
"R+	c #9DD22B",
"S+	c #95CB32",
"T+	c #92C835",
"U+	c #B0E220",
"V+	c #ADE01F",
"W+	c #C5C1C1",
"X+	c #533434",
"Y+	c #E9E7E7",
"Z+	c #726262",
"`+	c #E8E7E7",
" @	c #857878",
".@	c #97CD2F",
"+@	c #8FC536",
"@@	c #8EC537",
"#@	c #92C734",
"$@	c #94CB32",
"%@	c #6C5A5A",
"&@	c #C4C0C0",
"*@	c #F3F3F3",
"=@	c #928888",
"-@	c #F7F6F6",
";@	c #B0AAAA",
">@	c #A39B9B",
",@	c #D7D4D4",
"'@	c #DCDBDB",
")@	c #ADDE21",
"!@	c #A0D428",
"~@	c #9AD02C",
"{@	c #94C932",
"]@	c #92C833",
"^@	c #DAD7D7",
"/@	c #908686",
"(@	c #E7E6E6",
"_@	c #97CE30",
":@	c #9ED22B",
"<@	c #9ED12C",
"[@	c #9C9494",
"}@	c #685454",
"|@	c #F6F5F5",
"1@	c #9B9292",
"2@	c #CFCBCB",
"3@	c #A9A2A2",
"4@	c #A4A4A4",
"5@	c #EEEEEE",
"6@	c #ACDD22",
"7@	c #A3D726",
"8@	c #A0D32A",
"9@	c #A3D825",
"0@	c #ECECEC",
"a@	c #430D0D",
"b@	c #BFBABA",
"c@	c #553939",
"d@	c #D1CDCD",
"e@	c #C8C4C4",
"f@	c #FCFAFA",
"g@	c #D9CBCB",
"h@	c #616161",
"i@	c #505050",
"j@	c #AFE020",
"k@	c #A8DB22",
"l@	c #D5D2D2",
"m@	c #B4AFAF",
"n@	c #E1DFDF",
"o@	c #EDEBEB",
"p@	c #F9F6F6",
"q@	c #D9C2C2",
"r@	c #B05D52",
"s@	c #90230C",
"t@	c #000000",
"u@	c #959595",
"v@	c #A3D827",
"w@	c #A19A9A",
"x@	c #7E7171",
"y@	c #D0B1B2",
"z@	c #AF523C",
"A@	c #C16E0F",
"B@	c #CC810F",
"C@	c #721B07",
"D@	c #CBCBCB",
"E@	c #B0E120",
"F@	c #ACDF1F",
"G@	c #9BCF2D",
"H@	c #CDCACA",
"I@	c #BCB7B7",
"J@	c #B1553C",
"K@	c #C6770F",
"L@	c #D9A00F",
"M@	c #D79A0F",
"N@	c #A7540C",
"O@	c #1F0001",
"P@	c #434343",
"Q@	c #E9E8E8",
"R@	c #AFE21E",
"S@	c #89C23E",
"T@	c #A9DB22",
"U@	c #99CF2D",
"V@	c #9BD02C",
"W@	c #D9C3C3",
"X@	c #AF513B",
"Y@	c #DCA90F",
"Z@	c #E8C50F",
"`@	c #DEAE0F",
" #	c #A5560C",
".#	c #270101",
"+#	c #D1D1D1",
"@#	c #FBFBFB",
"##	c #918888",
"$#	c #9AD12D",
"%#	c #8AC33C",
"&#	c #8BC33B",
"*#	c #8AC23C",
"=#	c #8CC439",
"-#	c #90C836",
";#	c #99CE2D",
">#	c #D4D2D2",
",#	c #E7E7E7",
"'#	c #8E7070",
")#	c #B85A0F",
"!#	c #D4940F",
"~#	c #E5BE0F",
"{#	c #E7C30F",
"]#	c #CF920F",
"^#	c #843608",
"/#	c #150000",
"(#	c #AAAAAA",
"_#	c #A79F9F",
":#	c #ADE021",
"<#	c #A0D42C",
"[#	c #AADE21",
"}#	c #A4D825",
"|#	c #91C935",
"1#	c #94C933",
"2#	c #F9F9F9",
"3#	c #383838",
"4#	c #750808",
"5#	c #AA5A0C",
"6#	c #B46E0C",
"7#	c #B26E0C",
"8#	c #8E4209",
"9#	c #440403",
"0#	c #BFBFBF",
"a#	c #867C7C",
"b#	c #3A0C0C",
"c#	c #9AD030",
"d#	c #98CF31",
"e#	c #9DD12A",
"f#	c #9BD22B",
"g#	c #90C738",
"h#	c #9DD12B",
"i#	c #F4F4F4",
"j#	c #8E8383",
"k#	c #2A2A2A",
"l#	c #909090",
"m#	c #B2AEAE",
"n#	c #4E3B3B",
"o#	c #360B0B",
"p#	c #6D6363",
"q#	c #9BCF2F",
"r#	c #A3D826",
"s#	c #AEE11E",
"t#	c #AFE11D",
"u#	c #8DC539",
"v#	c #9CD22C",
"w#	c #AADC20",
"x#	c #E2E2E2",
"y#	c #AFAFAF",
"z#	c #DBDBDB",
"A#	c #E0E0E0",
"B#	c #A29E9E",
"C#	c #452E2E",
"D#	c #9C9898",
"E#	c #C7C7C7",
"F#	c #A0D32B",
"G#	c #92C936",
"H#	c #AEE11F",
"I#	c #A9DC22",
"J#	c #92CA35",
"K#	c #9FD22A",
"L#	c #AEE01D",
"M#	c #887D7D",
"N#	c #626262",
"O#	c #A5A5A5",
"P#	c #E5E5E5",
"Q#	c #C4C3C3",
"R#	c #878282",
"S#	c #847D7D",
"T#	c #BFBEBE",
"U#	c #CDCDCD",
"V#	c #A0D429",
"W#	c #94CA34",
"X#	c #93CA33",
"Y#	c #92C934",
"Z#	c #A7DB23",
"`#	c #C5C5C5",
" $	c #999999",
".$	c #746C6C",
"+$	c #BAB8B8",
"@$	c #C9C8C8",
"#$	c #ABDC22",
"$$	c #CACACA",
"%$	c #D9D8D8",
"&$	c #797171",
"*$	c #4A3636",
"=$	c #ABA9A9",
"-$	c #BCBBBB",
";$	c #989494",
">$	c #9D9999",
",$	c #C8C8C8",
"'$	c #C6C6C6",
")$	c #D7D7D7",
"!$	c #979393",
"~$	c #645959",
"{$	c #908B8B",
"]$	c #5D4F4F",
"^$	c #5F5252",
"/$	c #B0AEAE",
"($	c #CFCFCF",
"_$	c #8D8888",
":$	c #776F6F",
"<$	c #A7A4A4",
"[$	c #CAC9C9",
"}$	c #C9C9C9",
"|$	c #AFADAD",
"1$	c #928E8E",
"2$	c #B3B1B1",
"3$	c #D6D6D6",
"4$	c #7B7474",
"5$	c #C3C3C3",
"6$	c #96CD31",
"7$	c #A6DA24",
"8$	c #ACDD20",
"9$	c #C2C2C2",
"0$	c #A6D924",
"a$	c #CCCCCC",
"b$	c #C4C4C4",
"c$	c #C0C0C0",
"d$	c #DCDCDC",
"e$	c #EDEDED",
"f$	c #ACDF20",
"g$	c #F2F2F2",
"h$	c #DEDEDE",
"i$	c #D4D4D4",
"j$	c #D9D9D9",
"k$	c #B0E11D",
"l$	c #D5D5D5",
"m$	c #E9E9E9",
"n$	c #EBEBEB",
"o$	c #B2E31D",
"p$	c #B2E41D",
"q$	c #B0E21D",
"r$	c #ABDD23",
"s$	c #A6D825",
"t$	c #ACDE20",
"u$	c #B1E21D",
"v$	c #AFE01F",
"w$	c #B1E31D",
"x$	c #A4D927",
"  . + @ # $ % & * = - ; > , ' ) > ! ~ { ] ^ / ( _ : < [ } | & ) 1 2 3 @ @ | 4 5 6 7 2 8 * 9 + 0 ",
"> a b c d e f g h i j k l m < < 8 n : ^ o f = p q ] r s t & u v w x 2 y z x 6 z A B 2 C x D E F ",
"G H I J K L 5 | * i M N { O v P n Q { l f R ) ( S T s U < < 1 j 1 V W X Y Z ` X z W x $  ...+.@.",
"#.$.%.&.*.) =.-.u ;.M { >.) 1 ,.'.L = ).L !.~.O {.s ].< ..m ^./.(.[ W _.:.w 6 <.x [.}.|.1...2.' ",
"3.4.[.> $ > 5.1 6.7.8.j 9., L ; - 5.0.a.b.c.d.{.s e.f.7.|.8 1 [ =.g.` 8.' 7.h.* i.a H j.k.l.m.m.",
"}.0 4 n.n...!.l v o.=.L p.< q.r.s.< t.u.).v.r s w.x.,.% [.y.z.A.B.C.8.% z.; h.D.> E.$ u | F.9.G.",
"2 H.!.I.* ) R R J.K.L.M.K.W [ Z N.& z O.P.Q.s s R.B.m ) ! S.B.B.B.R T.U.9.[.h.x D.W & L v i.I '.",
"w . [.V.~.) 8 ) W.X.Y.Y.I.Z P.< i.7.& U.= Z.s ].B.B.1 & B.B.B.B.P.> ).O.] ..v `.M q.U.1 & v  +r.",
"T.[ < -.u n O N M : [ .+g ++@+#+< D.5./ >.s $+%+B.B.,.B.B.B.B.P.l p.&+B.++o.*+> (.=+H I 5...0 w ",
"T.T.O.' 8 z./ -+-+y.A.m 1 P.;+>+,+'+n )+!+s ~+B.B.B.B.B.B.{+1 ..]+^+B.B.O.~.n./+(+p.r.8 o.6.g _+",
"n.g.w ) :+O d.<+[+- ] ; '.= O.X }+` u >.s e.B.B.B.B.B.B.{+|+1+2+B.B.B.3+d * 0 4+$.C , -.n.5+6+7+",
"8.& v V ] ! p.8+9+1 j L ! ) 3.0+D.a+R s s b+B.B.B.B.B.{+|+s c+B.B.B.B.B.i.5.] l 1 [.| | [ u n 9.",
")  +n ..d U.p.n n < ] ) x ' =+d+K D Z.s e.B.B.B.B.B.%+e+s f+B.B.B.B.B.B.M i.q. +8.g+h+R ) z.i+j+",
"i.i.U.. w f ; n y.- 1 ) 7.%.-+9+> k+s s l+B.B.B.B.B.m+s ].B.B.B.B.B.b+n+z.(.) > z o+>+z [ : p+q+",
"(.N 1 =.N.v ..U.i., [ W.l P 9+>.r+s s s+B.B.B.B.B.t+s ].B.B.B.B.b+e.s u+'.! 7.#+v+@+8.W T.m w+p+",
"8 ! x+7.0 0 [ x y+4 6+8 8+z+z+j s s s A+B.B.B.B.B+s e.C+B.B.D+E+s F+G+H+'.] ` n.n.I+' 0 ~.5.'.l ",
"n m | v < D.g W ,+o 6.;.J+K+8+L+s s M+%+B.B.B.{+F+N+%+B.B.O+F+s P+Q+B.B.(.f 9 t.g & [ v ) O.1 6+",
"r.O V 3 R+S+v+T+N.[ > 8 U+V+=+r s s W+B.B.B.X+Y+|+Z+B.{+e.s `+ @B.B.B.B.A.x [ !.) ' *  +I '.j  +",
"V.7.<.+ .@+@@@#@$@.@w )  +{ 8 s s s %@B.B.B.&@*@{+B.=@-@F+;@B.%+>@,@Y+'@K.v > =+f ~.[ : )@'.M ) ",
"(.2 !@~@7 {@F ]@x u * 8 ; ).1 M+s ^@B.B.B.R.F+/@B.;@s (@{+/@P+F+s M+s s 1 { ; P i._@,+E.'.L ] ] ",
"[.2.b :@6 y <@..5.e ' i.1 5.m } s [@B.B.}@|@1@B.2@s t+3@Y+s s } 4@M+s 5@& *+: 9+r.; n '.6@/ - N ",
"7@!@K d w 8@c [.n `.& 9@L 0@r s M+a@B.B.m+b@c@d@F+e@s+s s f@g@h@i@s s t., -+j@8 ,.$.m.j@-+-+=+^ ",
"K 7.* V ; * 0 u 4+k@* A 3 s s s l@B.B.m@n@%+e.s o@s s p@q@r@s@t@u@s s g+* 9.;.`...x a 9+z+y.w+: ",
"y.v@O.X.=+) A.& M c 0 A y+Z.s s w@B.Q+*@x@e.s s s p@y@z@A@B@C@t@D@s s W & 4 h+M E.v  +<+E@E@<+{ ",
")+I F@).W.- b z h.R+@ u , G@s s Q+B.H@I@e.s s p@y@J@K@L@M@N@O@P@r s Q@8.R@9.0 1 {  +E.O y.J+J+S@",
"i+9.d T@7.& @ U@_.I+V@2 7@6 s s+B.x@|+e.s T W@X@K@Y@Z@`@ #.#t@+#s @###$#,.,.i.| 6+m 6+^ / z+] %#",
"8 *+8.< * &#*#&#=#S+-#;#:@| s ].B.>#s s ,#'#)#!#~#{#]#^#/#t@(#s F+_#B.6.)@-+z.6+8.6+).O E.:#<#W ",
"& U.a 6@[#}#7 |#1#..T.v+g+6 2#;@x.s s D@3#4#5#6#7#8#9#t@3#0#s s+a#b#W 6+L & W.c#W O.1 v.c.l m d#",
"M ; H (+[#< e#f#9 v+g#X N.h#i#j#]+s D@t@t@t@t@t@t@k#l#D@2#{.m#n#o#p#q#r#: n s#t#a ).) >.,.G.: O.",
"..K (.n i.0 # &.A u#@.v#w#M i#%@|+x#t@t@t@t@h@y#z#} M+A#B#C#o#C#D#E#F#G#,+>.H#i+I#7+[ O -+i+J#8 ",
"x f K#3 [.+ k.I+:.h+$@+.L#*.s M#} N#t@3#O#P#s !+5@Q#R#o#o#o#S#T#U#P v@' ) 9.9+>.U.8.P.`.j@>.1 n ",
"* ..R+V#$ +.W#X#Y#z <...Z#V@*@t+`#t@ $L+s s 2#Q#.$o#o#C#R#+$@$U#D@6.7.% E.I >.n < 6+1 8 =+< *+#$",
"1 2 3 @ @ | 4 5 6 7 2 8 * 9 `+s+h@$$s s T %$&$o#*$R#=$-$;$>$U#U#,$. + @ # $ % & * = - ; > , ' ) ",
"w x 2 y z x 6 z A B 2 C x D s 0@'$M+P#)$!$o#o#~${$R#]$^$/$U#U#,$> a b c d e f g h i j k l m < < ",
"1 V W X Y Z ` X z W x $  ...s 5@Z.($U#_$o#o#o#o#C#:$<$[$U#U#}$'.G H I J K L 5 | * i M N { O v P ",
"(.[ W _.:.w 6 <.x [.}.|.1...z#i#z#U#|$C#1$2$-$U#U#U#U#U#U#E#,+; #.$.%.&.*.) =.-.u ;.M { >.) 1 ,.",
"=.g.` 8.' 7.h.* i.a H j.k.l.3$m.U#U#4$T#U#U#U#U#5$U#'$D@w 6$7$8$3.4.[.> $ > 5.1 6.7.8.j 9., L ; ",
"g C.8.% z.; h.D.> E.$ u | F.3$`#U#9$9$U#E#U#`#U#5$`#`#,$* d f 0$}.0 4 n.n...!.l v o.=.L p.< q.r.",
"I.R T.U.9.[.h.x D.W & L v i.,$'$U#U#U#a$b$U#9$c$3$3$d$!. .[.& 3 2 H.!.I.* ) R R J.K.L.M.K.W [ Z ",
"P.> ).O.] ..v `.M q.U.1 & v  +r.U#9$'$'$z#'$U#D@5@e$k+f$d+; ) @ w . [.V.~.) 8 ) W.X.Y.Y.I.Z P.< ",
"l p.'.b.++o.*+> (.=+H I 5...0 w }$5$x#9$g$U#h$z#L+u+i$!.< 5.5.7.T.[ < -.u n O N M : [ .+g ++@+#+",
"e n H j O.~.n./+(+p.r.8 o.6.g _+g j$@#E#Z.x#t ,#e$s a$>.k$q.& y+T.T.O.' 8 z./ -+-+y.A.m 1 P.;+>+",
"6+v i.`.d * 0 4+$.C , -.n.5+6+7+X.x#s l$Z.m$n$*@>.[+o$p$o$>.: =.n.g.w ) :+O d.<+[+- ] ; '.= O.X ",
"f F#(.(.i.5.] l 1 [.| | [ u n 9.r.A#!+($0@9.q$^ c#; i+p$o$r$] y+8.& v V ] ! p.8+9+1 j L ! ) 3.0+",
"(.S.I#s$M i.q. +8.g+h+R ) z.i+j+-+n 6+,+) )+t$[+: 6+8 u$)+! T.| )  +n ..d U.p.n n < ] ) x ' =+d+",
"G.-+/ &.z.(.) > z o+>+z [ : p+q+v$; j ) < ;.f$u$w$r.7.=+; g g.g i.i.U.. w f ; n y.- 1 ) 7.%.-+9+",
"j+,.d.z.'.! 7.#+v+@+8.W T.m w+p+O m  +; 1 7+j q$[+d+$ ,+W n.Y.x (.N 1 =.N.v ..U.i., [ W.l P 9+>.",
"t$q.[.$.'.] ` n.n.I+' 0 ~.5.'.l x$P ,.9.9.).b.(+V+i.u *+W [ 7+!.8 ! x+7.0 0 [ x y+4 6+8 8+z+z+j "};
