/* XPM */
static char * rukia48_xpm[] = {
"48 48 679 2",
"  	c #A1D527",
". 	c #A1D628",
"+ 	c #9FD429",
"@ 	c #9FD32A",
"# 	c #A1D429",
"$ 	c #A4D826",
"% 	c #A2D529",
"& 	c #9ED32C",
"* 	c #9CD12D",
"= 	c #A1D52B",
"- 	c #A8DC24",
"; 	c #A7DA25",
"> 	c #A5D826",
", 	c #A5D926",
"' 	c #9ED22C",
") 	c #A2D629",
"! 	c #A4D727",
"~ 	c #A3D62A",
"{ 	c #A7DA26",
"] 	c #A2D62A",
"^ 	c #A6DA26",
"/ 	c #ACDE22",
"( 	c #AADD24",
"_ 	c #ADE022",
": 	c #A9DC24",
"< 	c #A1D52A",
"[ 	c #9DD22D",
"} 	c #9DD12D",
"| 	c #9BD02E",
"1 	c #A3D728",
"2 	c #A1D528",
"3 	c #A2D528",
"4 	c #9BD12D",
"5 	c #9DD12C",
"6 	c #98CD30",
"7 	c #96CC31",
"8 	c #A8DB24",
"9 	c #94CA33",
"0 	c #9FD32B",
"a 	c #AADC22",
"b 	c #A7DA23",
"c 	c #A4D726",
"d 	c #A3D628",
"e 	c #A5D925",
"f 	c #9FD42A",
"g 	c #9AD02F",
"h 	c #9CD02F",
"i 	c #A2D52A",
"j 	c #A4D828",
"k 	c #A5D828",
"l 	c #A5D927",
"m 	c #A6D926",
"n 	c #A9DC23",
"o 	c #9DD32B",
"p 	c #A3D72B",
"q 	c #A6DA28",
"r 	c #A7DB25",
"s 	c #A0D42B",
"t 	c #A1D529",
"u 	c #A0D52A",
"v 	c #9DD22C",
"w 	c #9ED32B",
"x 	c #97CC31",
"y 	c #97CD31",
"z 	c #99CE2F",
"A 	c #99D02E",
"B 	c #A8DC23",
"C 	c #97CD30",
"D 	c #94C934",
"E 	c #95CB31",
"F 	c #ADE01E",
"G 	c #ABDD21",
"H 	c #ABDE21",
"I 	c #A8DC22",
"J 	c #A5D825",
"K 	c #A3D729",
"L 	c #A4D827",
"M 	c #A6D927",
"N 	c #A8DB25",
"O 	c #AADD22",
"P 	c #A5D727",
"Q 	c #99CE30",
"R 	c #ACDF23",
"S 	c #AEE021",
"T 	c #A2D728",
"U 	c #98CE31",
"V 	c #94CB34",
"W 	c #91C835",
"X 	c #98CF30",
"Y 	c #95CC32",
"Z 	c #A2D727",
"` 	c #A2D628",
" .	c #9ACF2E",
"..	c #8DC43A",
"+.	c #AADC24",
"@.	c #A9DB23",
"#.	c #A7DA24",
"$.	c #A7D924",
"%.	c #A6D826",
"&.	c #9FD32C",
"*.	c #A8DB23",
"=.	c #B5DE6F",
"-.	c #ADDC48",
";.	c #B2E144",
">.	c #A7D848",
",.	c #A8D947",
"'.	c #B1E044",
").	c #AFDF45",
"!.	c #A8D948",
"~.	c #A7D749",
"{.	c #A5D64B",
"].	c #ABDA53",
"^.	c #B2DC6F",
"/.	c #B1D87B",
"(.	c #BBE279",
"_.	c #C2E877",
":.	c #BEE66D",
"<.	c #AEDC52",
"[.	c #A7D74A",
"}.	c #A8D849",
"|.	c #ACDB48",
"1.	c #ADDC46",
"2.	c #AADB47",
"3.	c #ADDC45",
"4.	c #A3D44A",
"5.	c #9ED04C",
"6.	c #9BCE4F",
"7.	c #A9D372",
"8.	c #9ED32A",
"9.	c #A3D727",
"0.	c #A2D627",
"a.	c #A1D42A",
"b.	c #9CD32C",
"c.	c #A9DC21",
"d.	c #A7D925",
"e.	c #9DD32C",
"f.	c #A4D728",
"g.	c #A0D529",
"h.	c #A0D42A",
"i.	c #A0D24E",
"j.	c #ADDF20",
"k.	c #A3D62F",
"l.	c #9ED146",
"m.	c #ADD867",
"n.	c #80A71B",
"o.	c #6D8E15",
"p.	c #668819",
"q.	c #87AD16",
"r.	c #BAE464",
"s.	c #A7D64C",
"t.	c #A7D64A",
"u.	c #ACDC3E",
"v.	c #A3D72C",
"w.	c #95CC33",
"x.	c #99CF30",
"y.	c #A4D44B",
"z.	c #93CA34",
"A.	c #A6D925",
"B.	c #A0D528",
"C.	c #9CD12C",
"D.	c #A6D824",
"E.	c #ADDF1F",
"F.	c #96CC32",
"G.	c #A1D629",
"H.	c #9CD22D",
"I.	c #A6D649",
"J.	c #ABDE22",
"K.	c #A3D629",
"L.	c #A9DB24",
"M.	c #A4D926",
"N.	c #A2D52E",
"O.	c #A2D25E",
"P.	c #749E25",
"Q.	c #5D7E19",
"R.	c #485737",
"S.	c #383D38",
"T.	c #353938",
"U.	c #363C38",
"V.	c #495836",
"W.	c #658313",
"X.	c #678919",
"Y.	c #698C18",
"Z.	c #89B31A",
"`.	c #ADDD3B",
" +	c #A0D52B",
".+	c #90C837",
"++	c #AFDE45",
"@+	c #9AD02E",
"#+	c #A4D628",
"$+	c #AEDF20",
"%+	c #9ED22A",
"&+	c #97CD32",
"*+	c #92C836",
"=+	c #95CB34",
"-+	c #9CCF4E",
";+	c #99D030",
">+	c #99CD34",
",+	c #A9D75B",
"'+	c #6E9623",
")+	c #465637",
"!+	c #343838",
"~+	c #303038",
"{+	c #353838",
"]+	c #393F38",
"^+	c #638215",
"/+	c #B4DE64",
"(+	c #9ED230",
"_+	c #98CE30",
":+	c #A5D827",
"<+	c #B2E143",
"[+	c #AADD23",
"}+	c #9BD02D",
"|+	c #9ACF30",
"1+	c #9DD22E",
"2+	c #9CD12F",
"3+	c #9DCF4D",
"4+	c #96CC33",
"5+	c #9BD02F",
"6+	c #B0DC59",
"7+	c #759B1E",
"8+	c #475737",
"9+	c #495258",
"0+	c #485058",
"a+	c #374A0E",
"b+	c #7DA51D",
"c+	c #9FD142",
"d+	c #9FD42C",
"e+	c #9CD12E",
"f+	c #A7DB24",
"g+	c #A6DA25",
"h+	c #9BD12F",
"i+	c #99CE31",
"j+	c #93C935",
"k+	c #9CD046",
"l+	c #7BA31F",
"m+	c #364A10",
"n+	c #1A240A",
"o+	c #688A1A",
"p+	c #A1D24B",
"q+	c #9ED22D",
"r+	c #9FD04C",
"s+	c #9BD12E",
"t+	c #A8DA24",
"u+	c #ABDD22",
"v+	c #AADC23",
"w+	c #AEE020",
"x+	c #ACDF21",
"y+	c #A6D749",
"z+	c #92C83A",
"A+	c #A1CD6A",
"B+	c #5A7B1A",
"C+	c #4A5458",
"D+	c #5F7F16",
"E+	c #B0DB64",
"F+	c #A5D929",
"G+	c #A2D34A",
"H+	c #A3D627",
"I+	c #ABDE20",
"J+	c #98CD32",
"K+	c #A7D926",
"L+	c #ACDF22",
"M+	c #B1E31E",
"N+	c #B1E21E",
"O+	c #A0D344",
"P+	c #719B27",
"Q+	c #415138",
"R+	c #080808",
"S+	c #394C0C",
"T+	c #7FA61B",
"U+	c #A3D540",
"V+	c #A8D847",
"W+	c #AADD21",
"X+	c #97CC32",
"Y+	c #9FD42B",
"Z+	c #9ED32D",
"`+	c #AFE120",
" @	c #AFE11F",
".@	c #A9DA47",
"+@	c #A3D62D",
"@@	c #648213",
"#@	c #373D38",
"$@	c #6E9116",
"%@	c #A5D648",
"&@	c #A0D32B",
"*@	c #ABDB46",
"=@	c #A2D340",
"-@	c #84AB1A",
";@	c #3B4D0C",
">@	c #785848",
",@	c #C08870",
"'@	c #373C38",
")@	c #719314",
"!@	c #A8DA25",
"~@	c #A9DC22",
"{@	c #A6D825",
"]@	c #8FC637",
"^@	c #93CA35",
"/@	c #B0E21E",
"(@	c #AFE01E",
"_@	c #AADB3C",
":@	c #86AD18",
"<@	c #3E510C",
"[@	c #101608",
"}@	c #D8B098",
"|@	c #0F1409",
"1@	c #485836",
"2@	c #86AC18",
"3@	c #B1E039",
"4@	c #90C737",
"5@	c #8FC638",
"6@	c #B0E11E",
"7@	c #B2E31E",
"8@	c #98CD31",
"9@	c #AADD27",
"0@	c #B7E457",
"a@	c #7EA317",
"b@	c #364B10",
"c@	c #323438",
"d@	c #31440F",
"e@	c #709821",
"f@	c #B1DD58",
"g@	c #AFE023",
"h@	c #ACDE21",
"i@	c #97CE31",
"j@	c #92C935",
"k@	c #ADE020",
"l@	c #9ED42B",
"m@	c #A5D649",
"n@	c #B0E11F",
"o@	c #B0E124",
"p@	c #AEDC5A",
"q@	c #719821",
"r@	c #33450E",
"s@	c #171F09",
"t@	c #607F15",
"u@	c #B4DF65",
"v@	c #A9DD27",
"w@	c #ACDE20",
"x@	c #99CF2F",
"y@	c #9ACF2F",
"z@	c #A6D748",
"A@	c #B1E21F",
"B@	c #B3E41D",
"C@	c #A9DC28",
"D@	c #B7E164",
"E@	c #161E09",
"F@	c #C0D0D8",
"G@	c #648314",
"H@	c #B9E462",
"I@	c #AEE024",
"J@	c #96CD32",
"K@	c #9DD22B",
"L@	c #95CB32",
"M@	c #92C835",
"N@	c #AADA46",
"O@	c #B0E220",
"P@	c #ADE01F",
"Q@	c #ACDF25",
"R@	c #BCE663",
"S@	c #678511",
"T@	c #F8F8F8",
"U@	c #F8E0B8",
"V@	c #F7E0B7",
"W@	c #D4B591",
"X@	c #89973F",
"Y@	c #98C41C",
"Z@	c #A6D935",
"`@	c #97CD2F",
" #	c #8FC536",
".#	c #8EC537",
"+#	c #92C734",
"@#	c #94CB32",
"##	c #A3D449",
"$#	c #A8DB28",
"%#	c #B3E057",
"&#	c #81A616",
"*#	c #3E510B",
"=#	c #101509",
"-#	c #D3B292",
";#	c #889F3F",
">#	c #A8D468",
",#	c #99CE45",
"'#	c #ADDF21",
")#	c #9CCE4E",
"!#	c #ADDE21",
"~#	c #A0D428",
"{#	c #9AD02C",
"]#	c #94C932",
"^#	c #92C833",
"/#	c #A5D836",
"(#	c #94C21E",
"_#	c #799C16",
":#	c #33450D",
"<#	c #C08A6F",
"[#	c #858D41",
"}#	c #A8D469",
"|#	c #ACDD21",
"1#	c #97CE30",
"2#	c #9ED22B",
"3#	c #9ED12C",
"4#	c #A4D449",
"5#	c #A9DA3C",
"6#	c #A2D157",
"7#	c #C4E68B",
"8#	c #526E13",
"9#	c #0F1509",
"0#	c #795C48",
"a#	c #5E7C17",
"b#	c #AAD569",
"c#	c #96CB36",
"d#	c #A4D549",
"e#	c #ACDD22",
"f#	c #A3D726",
"g#	c #A0D32A",
"h#	c #A3D825",
"i#	c #A4D641",
"j#	c #7EA61B",
"k#	c #2F4310",
"l#	c #282830",
"m#	c #888898",
"n#	c #3F4E30",
"o#	c #729B1E",
"p#	c #ABD95A",
"q#	c #9ACF32",
"r#	c #AADB46",
"s#	c #AFE020",
"t#	c #A8DB22",
"u#	c #B2DD64",
"v#	c #5D7D18",
"w#	c #2D3130",
"x#	c #2A2D30",
"y#	c #7AA31F",
"z#	c #A2D543",
"A#	c #8DC539",
"B#	c #A3D827",
"C#	c #A5D549",
"D#	c #94CB33",
"E#	c #9DD045",
"F#	c #719B26",
"G#	c #354815",
"H#	c #1A2111",
"I#	c #597A1C",
"J#	c #A9D667",
"K#	c #A0D330",
"L#	c #91C837",
"M#	c #B0E120",
"N#	c #AFE11E",
"O#	c #ACDF1F",
"P#	c #A5D548",
"Q#	c #9BCF2D",
"R#	c #9ED130",
"S#	c #ACD865",
"T#	c #44542F",
"U#	c #A1A719",
"V#	c #ABDC3C",
"W#	c #A3D72A",
"X#	c #98CE32",
"Y#	c #92C936",
"Z#	c #B3E343",
"`#	c #89C23E",
" $	c #A9DB22",
".$	c #99CF2D",
"+$	c #A1D249",
"@$	c #99CD47",
"#$	c #6F9A27",
"$$	c #324610",
"%$	c #101010",
"&$	c #987840",
"*$	c #584028",
"=$	c #992401",
"-$	c #819825",
";$	c #9AD12D",
">$	c #8AC33C",
",$	c #8BC33B",
"'$	c #8AC23C",
")$	c #8CC439",
"!$	c #97CB4F",
"~$	c #99CE2D",
"{$	c #9CD031",
"]$	c #B0DA65",
"^$	c #5D7E18",
"/$	c #1B2211",
"($	c #980000",
"_$	c #5A4628",
":$	c #638214",
"<$	c #ABD766",
"[$	c #99CE34",
"}$	c #B2E044",
"|$	c #ADE021",
"1$	c #A0D42C",
"2$	c #AADE21",
"3$	c #A4D825",
"4$	c #91C935",
"5$	c #94C933",
"6$	c #9CCF43",
"7$	c #83AB18",
"8$	c #95B76D",
"9$	c #9DD043",
"0$	c #9AD030",
"a$	c #A6DA27",
"b$	c #A9DC25",
"c$	c #98CF31",
"d$	c #9DD12A",
"e$	c #9BD22B",
"f$	c #97CA50",
"g$	c #A3D349",
"h$	c #719313",
"i$	c #898A96",
"j$	c #111608",
"k$	c #8C9491",
"l$	c #97B237",
"m$	c #A6D73F",
"n$	c #9BCF2F",
"o$	c #A3D826",
"p$	c #AEDE45",
"q$	c #AEE11E",
"r$	c #AFE11D",
"s$	c #94C752",
"t$	c #9CD22C",
"u$	c #AADC20",
"v$	c #8FA87D",
"w$	c #7A5F47",
"x$	c #394B0B",
"y$	c #92A93A",
"z$	c #A6D92A",
"A$	c #A1D42B",
"B$	c #A0D14B",
"C$	c #AEE11F",
"D$	c #92CA35",
"E$	c #9FD22A",
"F$	c #95CB33",
"G$	c #9BCE4D",
"H$	c #AEE01D",
"I$	c #A9D93D",
"J$	c #91B669",
"K$	c #828A43",
"L$	c #BD906C",
"M$	c #2B2D30",
"N$	c #587311",
"O$	c #BBE082",
"P$	c #A5D730",
"Q$	c #A0D429",
"R$	c #94CA34",
"S$	c #93CA33",
"T$	c #92C934",
"U$	c #A4D548",
"V$	c #A7DB23",
"W$	c #9BD02C",
"X$	c #ACD771",
"Y$	c #818943",
"Z$	c #41502F",
"`$	c #80A71A",
" %	c #ADDE3A",
".%	c #ACDD46",
"+%	c #ABDC22",
"@%	c #A7D747",
"#%	c #A0D42D",
"$%	c #AED967",
"%%	c #58781A",
"&%	c #151D09",
"*%	c #6D8F16",
"=%	c #A9D947",
"-%	c #A7D648",
";%	c #98CB46",
">%	c #719B24",
",%	c #35480E",
"'%	c #888A97",
")%	c #788A27",
"!%	c #B4DE63",
"~%	c #A5D82A",
"{%	c #A1D24C",
"]%	c #5A7F24",
"^%	c #19230A",
"/%	c #BDD1CF",
"(%	c #8DAD25",
"_%	c #B0E13B",
":%	c #A7D847",
"<%	c #A6D740",
"[%	c #B8E16C",
"}%	c #5C7B1B",
"|%	c #5A4528",
"1%	c #B6E063",
"2%	c #A9DB27",
"3%	c #ABDA46",
"4%	c #B0DF44",
"5%	c #A0D240",
"6%	c #85AD1E",
"7%	c #678516",
"8%	c #394A12",
"9%	c #3C4E12",
"0%	c #80A61D",
"a%	c #A1D440",
"b%	c #A9DA46",
"c%	c #A1D24A",
"d%	c #6C8E1C",
"e%	c #283411",
"f%	c #171B10",
"g%	c #232E11",
"h%	c #6A8D1B",
"i%	c #A4D63F",
"j%	c #85AE1E",
"k%	c #658517",
"l%	c #3B4E13",
"m%	c #1F2811",
"n%	c #374A14",
"o%	c #607F1A",
"p%	c #81AB21",
"q%	c #A2D33F",
"r%	c #95CC34",
"s%	c #AADA47",
"t%	c #B3DE64",
"u%	c #81A81D",
"v%	c #6C8E1A",
"w%	c #658416",
"x%	c #394B14",
"y%	c #1D2612",
"z%	c #192011",
"A%	c #1B2111",
"B%	c #1B2210",
"C%	c #1C2310",
"D%	c #212911",
"E%	c #678416",
"F%	c #7CA420",
"G%	c #ADD865",
"H%	c #A1D340",
"I%	c #A0D14C",
"J%	c #A0D32F",
"K%	c #B0DB65",
"L%	c #769F24",
"M%	c #628522",
"N%	c #618421",
"O%	c #608321",
"P%	c #688B1B",
"Q%	c #6F9018",
"R%	c #6C8E19",
"S%	c #688B1D",
"T%	c #7BA420",
"U%	c #AFDA65",
"V%	c #A7D83E",
"W%	c #A1D42E",
"X%	c #A7D748",
"Y%	c #AEDD45",
"Z%	c #A0D241",
"`%	c #A0D24B",
" &	c #9BCF4E",
".&	c #ADDD46",
"+&	c #9BCE4E",
"@&	c #B0E03A",
"#&	c #B0E122",
"$&	c #ADDD45",
"%&	c #ABDB48",
"&&	c #A8DD22",
"*&	c #9BD030",
"=&	c #B2E31D",
"-&	c #B2E41D",
";&	c #ADDB48",
">&	c #AED771",
",&	c #A2D34C",
"'&	c #AFDF44",
")&	c #B4E342",
"!&	c #ABDC46",
"~&	c #A0D24C",
"{&	c #ACDC46",
"]&	c #B4E343",
"^&	c #B6E542",
"/&	c #B6E442",
"(&	c #B0DF45",
"_&	c #A3D34A",
":&	c #9FD14C",
"<&	c #A8D949",
"[&	c #B3DC70",
"}&	c #AADB22",
"|&	c #B1E21D",
"1&	c #AEDF1F",
"2&	c #AFE01F",
"3&	c #ACDF20",
"4&	c #B1E31D",
"5&	c #B0E21D",
"6&	c #A4D927",
"  . + @ # $ % & * = - ; > , ' ) > ! ~ { ] ^ / ( _ : < [ } | & ) 1 2 3 @ @ | 4 5 6 7 2 8 * 9 + 0 ",
"> a b c d e f g h i j k l m < < 8 n : ^ o f = p q ] r ) s & t u v w 2 x y w 6 y z A 2 B w C D E ",
"F G H I J K 5 | * i L M { N u O n P { l f Q ) ( R S l [ < < 1 j 1 T U V W X Y V y U w $ Z `  ...",
"+.@.#.$.%.) s &.t *.=.-.;.>.,.'.).!.~.{.].^./.(._.:.<.[.}.|.1.2.3.4.5.6.7.v 6 8.w 9.0.a.b.` c.' ",
"d.e.9.> $ > f.1 g.h.i.j j., K ; - f.k.l.m.n.o.p.o.q.r.s.t.u.v.[ s w.Y x.y.h.z.* A.a G B.C.D.E.E.",
"0.0 4 F.F.` G.l u H.I.K J.< K.L.M.N.O.P.Q.R.S.T.U.V.W.X.Y.Z.`. +g .+x.% ++; z.@+> r $ t | #+j.$+",
"2 %+G.&+* ) Q Q *+=+-+;+=+U [ X >+,+'+)+!+~+~+~+~+~+{+!+]+^+/+(+&+Q _+:+<+9.z.w @+U & K u A.H [+",
"v . 9.}+|+) 8 ) 1+2+3+4+&+X 5+N.6+7+8+9+~+~+~+~+~+~+~+~+0+a+b+c+5+> d+e+>.` u f+L K.:+1 & u g+L.",
"_+[ < &.t n N M L : 4.h+g i+j+k+l+m+9+0+~+~+~+~+~+~+~+~+0+n+o+p+l J.[+q+r+H.s+> t+u+G H f.` 0 v ",
"_+_+e+' 8 v+/ w+w+x+y+m 1 5+z+A+B+C+0+0+0+0+~+~+~+0+~+0+0+!+D+E+F+n G j G+|+F.H+I+J.L.8 H.g.g J+",
"F.w.v ) K+N L+M+N+- >.; [+= O+P+Q+0+0+0+0+0+0+0+0+R+~+0+R+~+S+T+U+u A.f+V+* 0 W+@.B , &.F.X+Y+Z+",
"x.& u T ] ! J.`+ @1 .@K ! +@/+@@!+~+0+0+0+0+0+0+R+R+~+~+R+R+#@$@%@&@t+t+*@f.] l 1 9.| | [ t n j.",
") g+n ` d :+J.n n < >.) w =@-@;@~+~+~+~+0+0+~+R+>@,@~+R+>@R+'@)@3.!@~@{@.@A.K.g+x.]@^@Q ) v+/@(@",
"A.A.:+. v f ; n x+- ,.) h._@:@<@[@~+R+~+R+~+R+>@,@}@~+R+,@|@1@2@3@w+/ $.++t+) > y 4@5@y [ : 6@7@",
"t+M 1 s 8@u ` :+A., 4.1+l 9@0@a@b@c@R+R+~+R+>@,@>@,@~+>@R+d@e@f@g@h@L+v+).! h.i@j@j+x.U _+m k@6@",
"8 ! l@h.0 0 [ w } 4 m@8 `+n@o@p@q@r@R+R+R+R+R+R+R+>@R+,@s@t@u@v@w@K.9.@.).] Y F.F.x@' 0 |+f.[+l ",
"n m | u < @+g U y@o z@*.A@B@`+C@D@@@E@R+~+R+R+F@R+0+>@}@s@G@H@I@~@t ! f+3.f 9 J@g & [ u ) e+1 Y+",
"L.N T 3 K@L@j@M@8@[ N@8 O@P@u+Q@R@S@E@R+~+R+,@T@0+F@U@V@W@X@Y@Z@8 K.%.Z y+w [ G.) ' * g+H [+j g+",
"}+h.8.+ `@ #.#+#@#`@##) g+{ $#%#&#*#=#R+R+R+,@}@U@U@U@-#;#>#,#j N < '#v )#u > u+f |+[ : !#[+L ) ",
"t+2 ~#{#7 ]#E ^#w t G+8 ; d+/#(#_#t@:#R+R+~+>@,@U@U@<#[#}#9@w+N g ) |#*.,.{ ; O A.1#y@r [+K ] ] ",
"9.c.b 2#6 x 3#` f.e 4#A.1 f.m 5#6#7#8#9#R+~+~+>@>@>@0#a#b#c#h@N [ u s q+d#s+:  @L.; n [+e#/ - M ",
"f#~#J d v g#c 9.n f+d#h#K s+f.5+i#j#k#l#R+l#F@m#,@m#R+n#o#p#q#x.X+[ s+J@r#w+s#8 h@@.E.s#w+w+u+^ ",
"J h.* T ; * 0 t W+t#G+z 3 d | q#u#v#w#l#l#R+l#T@m#F@R+x#m+y#z#X+y F.A#]@G+j.*.f+` w a  @n@x+k@: ",
"x+B#e+2+u+)  +& L c C#z } D#&+E#F#G#l#l#R+l#R+l#F@R+l#R+H#I#J#K#{ ] L#U d#4 ^@L r u g+M+M#M#M+{ ",
"N#H O#d+1+- b y z.K@P#t , Q#R#S#I#H#l#l#R+l#l#R+l#R+l#R+R+T#U#V#W#X#Y#x.Z#j.0 1 { g+r N x+A@A@`#",
"/@j.d  $h.& @ .$D#x@+$2 f#6 @$#$$$%$l#l#R+R+l#l#R+l#R+&$*$=$-$m@1#U  .;$'.h@A.| Y+m Y+^ / n@] >$",
"8 s+x.< * ,$'$,$)$L@!$~$2#{$]$^$/$%$l#l#l#R+R+l#l#l#l#&$($_$:$<$[$w.| g.}$w+v+Y+x.Y+d+N r |$1$U ",
"& :+a e#2$3$7 4$5$` 5.j@]@6$7$;@R+R+R+l#l#R+F@T@m#T@m#&$&$&$a+8$9$Y#U Y+!.& 1+0$U e+1 a$b$l m c$",
"L ; G I+2$< d$e$9 j@f$V 8@g$h$i$F@F@m#R+R+R+R+R+F@R+F@R+R+j$k$l$m$_+n$o$p$n q$r$a d+) '#h@$+: e+",
"` J t+n A.0 # $.z A#s$t$u$.@v$w$,@,@,@F@%$l#R+R+F@R+m#R+l#x$y$p@z$A$&@Y#B$'#C$/@~@Z+[ N w+/@D$8 ",
"w f E$3 9.+ C.x@F$^@G$ .H$I$J$K$L$}@}@>@%$l#l#l#m#R+R+%$M$N$O$P$m O B#' >.j. @'#:+x.5+f+s#'#1 n ",
"* ` K@Q$$  .R$S$T$y U$` V$W$i#X$Y$0#>@%$l#%$l#R+R+R+%$l#l#Z$`$ %u+g.h.% .%H '#n < Y+1 8 u+< s++%",
"1 2 3 @ @ | 4 5 6 7 @%8 * 9 #%$%%%&%R+%$l#%$l#R+R+%$%$l#%$n+*%=%  . + @ -%$ % & * = - ; > , ' ) ",
"v w 2 x y w 6 y z A @%B w C ;%>%,%R+%$l#l#l#l#R+R+R+R+R+R+'%)%!%~%a b c V+e f g h i j k l m < < ",
"1 T U V W X Y V y U d#$ Z ` {%]%^%R+%$l#%$l#R+R+%$%$*$*$F@&$/%(%_%G H I N@K 5 | * i L M { N u O ",
"t+[ U D#F$v 6 8.w 9.:%a.b.<%[%}%&%R+R+R+R+R+R+R+%$%$%$*$*$*$|%)%1%2%#.$.3%) s &.t *.L { '#) 1 h@",
"s w.Y x.' h.z.* A.a 4%B.5%6%7%8%*$m#*$*$m#*$%$%$%$%$%$%$%$%$%$9%0%a%9.> b%> f.1 g.h.x.j j., K ; ",
"g .+x.% v+; z.@+> r b%t c%d%e%f%*$&$F@T@&$*$%$%$%$%$%$%$%$%$%$g%h%C#4 F.3+` G.l u H.s K J.< K.L.",
"&+Q _+:+j.9.z.w @+U d#K i%j%k%l%m%_$*$*$*$%$%$%$%$%$%$%$/$m%n%o%p%q%G.&+G+) Q Q *+=+r%;+=+U [ X ",
"5+> d+e+] ` u f+L K.s%1 & i%t%u%v%w%x%y%z%A%B%H#A%C%D%9%E%v%F%G%H%. 9.}+I%) 8 ) 1+2+4+4+&+X 5+< ",
"l J.[+q+i+H.s+> t+u+4%H f.` J%H%z@K%L%M%N%O%O%P%Q%R%S%T%U%=%V%W%_+[ < &.X%n N M L : [ h+g i+j+i@",
"e n G j e+|+F.H+I+J.Y%8 H.g.g J+g W%Z%`%d#)# &.&+++&4%@&#&K.& } _+_+e+' $&v+/ w+w+x+ +m 1 5+L#5@",
"Y+u A.f+d * 0 W+@.B %&&.F.X+Y+Z+2+V &+&., &&f.*&'#N+=&-&=&'#: s F.w.v ) ;&N L+M+N+- ] ; [+= e+V ",
"f &@t+t+A.f.] l 1 9.>&,&4.X%p$<+Y%d#`%z@'&<+)&!&~&{&]&^&/&(&>._&:&d#z@<&[&! J.`+ @1 j K ! ) d.}&",
"t+!@~@{@L A.K.g+x.]@^@Q ) v+/@(@w+n Y+y@) N#w@N+: Y+8 |&N#! _+| ) g+n ` d :+J.n n < ] ) w ' u+1&",
"$+w+/ $.v+t+) > y 4@5@y [ : 6@7@2&; j ) < *.3&|&4&L.h.u+; g w.g A.A.:+. v f ; n x+- 1 ) h.#.w+ @",
"(@h@L+v+[+! h.i@j@j+x.U _+m k@6@N m g+; 1 Z+j 5&N+1&$ y@U F.4+w t+M 1 s 8@u ` :+A., [ 1+l O  @'#",
"w@K.9.@.[+] Y F.F.x@' 0 |+f.[+l 6&O h@j.j.d+q+I+P@A.t s+U [ Z+G.8 ! l@h.0 0 [ w } 4 Y+8 `+n@n@j "};
